<svg xmlns="http://www.w3.org/2000/svg" xmlns:xlink="http://www.w3.org/1999/xlink" xmlns:lucid="lucid" width="2341" height="2341"><g transform="translate(1920.5 1480.5)" lucid:page-tab-id="hFJk9loK6FWF"><path d="M-2000-1500H500v2500h-2500z" fill="#fff"/><path d="M-1900-1454a6 6 0 0 1 6-6H394a6 6 0 0 1 6 6V834a6 6 0 0 1-6 6h-2288a6 6 0 0 1-6-6z" stroke="#3a414a" fill-opacity="0"/><path d="M-1408.9-267.44c0 10.16-69.64 18.4-155.55 18.4-85.9 0-155.55-8.24-155.55-18.4v-147.1c0-10.17 69.64-18.4 155.55-18.4 85.9 0 155.55 8.23 155.55 18.4z" stroke="#3a414a" fill="#edf5ff"/><path d="M-1408.9-414.55c0 10.16-69.64 18.4-155.55 18.4-85.9 0-155.55-8.24-155.55-18.4" stroke="#3a414a" fill="none"/><use xlink:href="#a" transform="matrix(1,0,0,1,-1715,-391.1612356330132) translate(34.60493827160499 54.319444444444436)"/><use xlink:href="#b" transform="matrix(1,0,0,1,-1715,-391.1612356330132) translate(151.0493827160494 54.319444444444436)"/><use xlink:href="#c" transform="matrix(1,0,0,1,-1715,-391.1612356330132) translate(100.67901234567904 96.98611111111109)"/><path d="M-1451.8-1394.6c37.73 0 68.32 30.58 68.32 68.3 0 37.74-30.6 68.33-68.32 68.33h-330.57c-37.73 0-68.3-30.6-68.3-68.32 0-37.72 30.58-68.3 68.3-68.3z" stroke="#3a414a" fill="#c3f7c8"/><use xlink:href="#d" transform="matrix(1,0,0,1,-1845.6804925494826,-1389.604145029762) translate(89.36919753086433 47.461805555555536)"/><use xlink:href="#e" transform="matrix(1,0,0,1,-1845.6804925494826,-1389.604145029762) translate(276.52969135802465 47.461805555555536)"/><use xlink:href="#f" transform="matrix(1,0,0,1,-1845.6804925494826,-1389.604145029762) translate(96.65314814814828 100.79513888888883)"/><use xlink:href="#g" transform="matrix(1,0,0,1,-1845.6804925494826,-1389.604145029762) translate(227.14697530864197 100.79513888888883)"/><path d="M-986.73-1284.47a9.68 9.68 0 0 1 10.2 0l224.52 139.1a3.72 3.72 0 0 1 0 6.33l-224.53 139.1a9.68 9.68 0 0 1-10.2 0l-224.52-139.1a3.72 3.72 0 0 1 0-6.32z" stroke="#3a414a" fill="#fff"/><use xlink:href="#h" transform="matrix(1,0,0,1,-1211.3491419324685,-1282.6258950085426) translate(82.8012962962963 129.55277777777778)"/><use xlink:href="#i" transform="matrix(1,0,0,1,-1211.3491419324685,-1282.6258950085426) translate(164.905 129.55277777777778)"/><use xlink:href="#j" transform="matrix(1,0,0,1,-1211.3491419324685,-1282.6258950085426) translate(290.66302469135803 129.55277777777778)"/><use xlink:href="#k" transform="matrix(1,0,0,1,-1211.3491419324685,-1282.6258950085426) translate(102.99141975308643 165.81944444444443)"/><use xlink:href="#l" transform="matrix(1,0,0,1,-1211.3491419324685,-1282.6258950085426) translate(180.14203703703706 165.81944444444443)"/><use xlink:href="#m" transform="matrix(1,0,0,1,-1211.3491419324685,-1282.6258950085426) translate(222.11734567901235 165.81944444444443)"/><use xlink:href="#n" transform="matrix(1,0,0,1,-1211.3491419324685,-1282.6258950085426) translate(275.67783950617286 165.81944444444443)"/><path d="M-658.08-1140.7h-90.17v-3h90.17zm132.3 0h-71.06v-3h71.05z" stroke="#008a0e" stroke-width=".05" fill="#008a0e"/><path d="M-748.2-1140.7h-1.84l.2-.64.1-.86-.1-.85-.2-.65h1.83z" fill="#008a0e"/><path d="M-748.18-1140.67h-1.9l.22-.68.1-.85-.1-.84-.2-.68h1.88zm-1.82-3l.2.62.08.85-.1.86-.18.62h1.77v-2.95z" stroke="#008a0e" stroke-width=".05" fill="#008a0e"/><path d="M-510.03-1142.2l-14.26 4.64v-9.27z" fill="#008a0e"/><path d="M-505.17-1142.2l-20.62 6.7v-13.4zm-17.62 2.58l7.92-2.58-7.9-2.57z" stroke="#008a0e" stroke-width=".05" fill="#008a0e"/><use xlink:href="#o" transform="matrix(1,0,0,1,-658.077710544432,-1163.5293110716214) translate(0 28.444444444444436)"/><path d="M-204.52-1142.2H14.6" stroke="#3a414a" stroke-width="3" fill="none"/><path d="M-204.48-1140.7h-1.94l.8-3h1.14z" stroke="#3a414a" stroke-width=".05" fill="#3a414a"/><path d="M30.36-1142.2l-14.26 4.65v-9.28z" stroke="#3a414a" stroke-width="3" fill="#3a414a"/><path d="M-982.38-905.82h-3v-14.43h3zm2.25-57.1h-3v-33.55h3z" stroke="#e81313" stroke-width=".05" fill="#e81313"/><path d="M-982.76-998.04l1.13.07 1.13-.07.37-.06v1.67h-3v-1.67z" fill="#e81313"/><path d="M-982.75-998.06l1.12.06 1.13-.06.4-.07v1.72h-3.05v-1.73zm-.35 1.6h2.95v-1.6l-.35.05-1.13.05-1.13-.06-.34-.07z" stroke="#e81313" stroke-width=".05" fill="#e81313"/><path d="M-983.88-890.05l-4.63-14.27h9.26z" fill="#e81313"/><path d="M-983.88-885.2l-6.7-20.62h13.4zm-2.57-17.62l2.57 7.92 2.57-7.92z" stroke="#e81313" stroke-width=".05" fill="#e81313"/><use xlink:href="#p" transform="matrix(1,0,0,1,-1006.3583786071706,-962.9185902257367) translate(0 28.444444444444436)"/><path d="M-986.73-883.5a9.68 9.68 0 0 1 10.2 0L-752-744.4a3.72 3.72 0 0 1 0 6.33l-224.53 139.1a9.68 9.68 0 0 1-10.2 0l-224.52-139.1a3.72 3.72 0 0 1 0-6.32z" stroke="#3a414a" fill="#fff"/><use xlink:href="#q" transform="matrix(1,0,0,1,-1211.3491419324685,-881.6560950017231) translate(166.64203703703706 76.03020833333332)"/><use xlink:href="#r" transform="matrix(1,0,0,1,-1211.3491419324685,-881.6560950017231) translate(241.56055555555554 76.03020833333332)"/><use xlink:href="#s" transform="matrix(1,0,0,1,-1211.3491419324685,-881.6560950017231) translate(83.32722222222226 117.63020833333331)"/><use xlink:href="#t" transform="matrix(1,0,0,1,-1211.3491419324685,-881.6560950017231) translate(227.57907407407407 117.63020833333331)"/><use xlink:href="#u" transform="matrix(1,0,0,1,-1211.3491419324685,-881.6560950017231) translate(335.3346296296296 117.63020833333331)"/><use xlink:href="#v" transform="matrix(1,0,0,1,-1211.3491419324685,-881.6560950017231) translate(89.70129629629636 159.2302083333333)"/><use xlink:href="#w" transform="matrix(1,0,0,1,-1211.3491419324685,-881.6560950017231) translate(180.02722222222226 159.2302083333333)"/><use xlink:href="#x" transform="matrix(1,0,0,1,-1211.3491419324685,-881.6560950017231) translate(222.205 159.2302083333333)"/><use xlink:href="#y" transform="matrix(1,0,0,1,-1211.3491419324685,-881.6560950017231) translate(117.07907407407411 200.8302083333333)"/><use xlink:href="#z" transform="matrix(1,0,0,1,-1211.3491419324685,-881.6560950017231) translate(249.77537037037038 200.8302083333333)"/><path d="M-525.8-741.2v3h-71.27v-3zm-222.9-.4v-3h90.4v3z" stroke="#008a0e" stroke-width=".05" fill="#008a0e"/><path d="M-748.67-741.6h-1.12l-.04-.48-.25-.8-.4-.76-.57-.65-.4-.3h2.8z" fill="#008a0e"/><path d="M-748.65-741.58h-1.16l-.06-.5-.25-.8-.43-.75-.55-.64-.47-.36h2.9zm-2.75-3l.35.27.56.64.43.75.26.82.04.45h1.06v-2.95z" stroke="#008a0e" stroke-width=".05" fill="#008a0e"/><path d="M-510.03-739.7l-14.26 4.64v-9.27z" fill="#008a0e"/><path d="M-505.17-739.7l-20.62 6.7v-13.4zm-17.62 2.58l7.92-2.58-7.9-2.57z" stroke="#008a0e" stroke-width=".05" fill="#008a0e"/><use xlink:href="#o" transform="matrix(1,0,0,1,-658.308408319276,-762.7337482639477) translate(0 28.444444444444436)"/><path d="M35.72-1221.33a6 6 0 0 1 6-6H303a6 6 0 0 1 6 6v171.08c-45.64-29.57-74.06-29.57-91.28-29.57-27.33 0-63.67 29.57-91 29.57-16.94 0-45.64 0-91-29.57z" stroke="#3a414a" fill="#fff"/><use xlink:href="#A" transform="matrix(1,0,0,1,40.71663750478584,-1222.3325489751262) translate(52.26666666666671 53.60833333333333)"/><use xlink:href="#B" transform="matrix(1,0,0,1,40.71663750478584,-1222.3325489751262) translate(181.0148148148148 53.60833333333333)"/><use xlink:href="#C" transform="matrix(1,0,0,1,40.71663750478584,-1222.3325489751262) translate(80.04814814814816 95.20833333333331)"/><path d="M-215.5-739.7H17.8" stroke="#3a414a" stroke-width="3" fill="none"/><path d="M-215.47-738.2h-1.94l.8-3h1.13z" stroke="#3a414a" stroke-width=".05" fill="#3a414a"/><path d="M33.6-739.7l-14.28 4.65v-9.27z" stroke="#3a414a" stroke-width="3" fill="#3a414a"/><path d="M-481.68-1228.35a7.8 7.8 0 0 1 7.54-5.8h286.12a4.6 4.6 0 0 1 4.46 5.8l-45.95 172.3a7.8 7.8 0 0 1-7.56 5.8h-286.1a4.6 4.6 0 0 1-4.47-5.8z" stroke="#3a414a" fill="#fff"/><use xlink:href="#D" transform="matrix(1,0,0,1,-524.1750041615276,-1229.1434746740736) translate(41.7605555555556 71.23333333333332)"/><use xlink:href="#E" transform="matrix(1,0,0,1,-524.1750041615276,-1229.1434746740736) translate(172.6272222222222 71.23333333333332)"/><use xlink:href="#F" transform="matrix(1,0,0,1,-524.1750041615276,-1229.1434746740736) translate(114.44203703703705 112.83333333333331)"/><path d="M-977.88-504.86h-3v-14.43h3zm-2.25-57.1h-3v-33.54h3z" stroke="#e81313" stroke-width=".05" fill="#e81313"/><path d="M-982.76-597.07l1.13.07 1.13-.07.37-.06v1.66h-3v-1.66z" fill="#e81313"/><path d="M-982.75-597.1l1.12.07 1.13-.06.4-.06v1.72h-3.05v-1.72zm-.35 1.6h2.95v-1.6l-.35.06-1.13.06-1.13-.06-.34-.06z" stroke="#e81313" stroke-width=".05" fill="#e81313"/><path d="M-979.38-489.1l-4.64-14.26h9.27z" fill="#e81313"/><path d="M-979.38-484.24l-6.7-20.62h13.4zm-2.57-17.62l2.57 7.92 2.57-7.92z" stroke="#e81313" stroke-width=".05" fill="#e81313"/><use xlink:href="#p" transform="matrix(1,0,0,1,-1004.1101473717459,-561.9531244057529) translate(0 28.444444444444436)"/><path d="M-980.13-105.6h-3v-14.3h3zm0-56.98h-3V-196h3z" stroke="#e81313" stroke-width=".05" fill="#e81313"/><path d="M-982.76-197.56l1.13.06 1.13-.06.37-.06v1.66h-3v-1.66z" fill="#e81313"/><path d="M-982.75-197.6l1.12.08 1.13-.07.4-.05v1.7h-3.05v-1.7zm-.35 1.6h2.95v-1.6l-.35.06-1.13.07-1.13-.07-.34-.05z" stroke="#e81313" stroke-width=".05" fill="#e81313"/><path d="M-981.63-89.84l-4.63-14.27h9.27z" fill="#e81313"/><path d="M-981.63-85l-6.7-20.6h13.4zm-2.57-17.6l2.57 7.9 2.57-7.9z" stroke="#e81313" stroke-width=".05" fill="#e81313"/><use xlink:href="#p" transform="matrix(1,0,0,1,-1005.2342684052375,-162.57753058284572) translate(0 28.444444444444436)"/><path d="M38.94-818.83a6 6 0 0 1 6-6H303a6 6 0 0 1 6 6v171.08c-45.1-29.57-73.2-29.57-90.2-29.57-27 0-62.92 29.57-89.93 29.57-16.74 0-45.1 0-89.93-29.57z" stroke="#3a414a" fill="#fff"/><use xlink:href="#A" transform="matrix(1,0,0,1,43.94422517148834,-819.8315622050112) translate(50.76666666666671 53.60833333333333)"/><use xlink:href="#B" transform="matrix(1,0,0,1,43.94422517148834,-819.8315622050112) translate(179.5148148148148 53.60833333333333)"/><use xlink:href="#C" transform="matrix(1,0,0,1,43.94422517148834,-819.8315622050112) translate(78.54814814814816 95.20833333333331)"/><path d="M-343.92-342.4l1.15.27 1.1.45 1 .62.9.76.75.9.62 1 .45 1.1.27 1.13.1 1.12v229.44h-3v-229.33l-.07-.77-.17-.68-.26-.65-.37-.6-.46-.54-.55-.46-.6-.37-.65-.27-.7-.16-.75-.06h-40.65v-3h40.77zm-404.34 2.9v-3h301.22v3z" stroke="#008a0e" stroke-width=".05" fill="#008a0e"/><path d="M-748.22-339.5h-1.83l.2-.64.1-.85-.1-.84-.2-.65h1.83z" fill="#008a0e"/><path d="M-748.2-339.47h-1.88l.2-.68.1-.84-.1-.84-.2-.68h1.9zm-1.8-3l.18.62.1.86-.1.86-.2.62h1.78v-2.95z" stroke="#008a0e" stroke-width=".05" fill="#008a0e"/><path d="M-339.1-89.84l-4.63-14.27h9.28z" fill="#008a0e"/><path d="M-339.1-85l-6.7-20.6h13.4zm-2.56-17.6l2.57 7.9 2.58-7.9z" stroke="#008a0e" stroke-width=".05" fill="#008a0e"/><use xlink:href="#o" transform="matrix(1,0,0,1,-447.0389091140806,-362.32607080487566) translate(0 28.444444444444436)"/><path d="M-481.68-825.85a7.8 7.8 0 0 1 7.54-5.8H-199a4.6 4.6 0 0 1 4.45 5.8l-45.95 172.3a7.8 7.8 0 0 1-7.54 5.8h-275.13a4.6 4.6 0 0 1-4.46-5.8z" stroke="#3a414a" fill="#fff"/><use xlink:href="#G" transform="matrix(1,0,0,1,-524.175004161527,-826.6424879039585) translate(54.74944444444448 71.23333333333332)"/><use xlink:href="#H" transform="matrix(1,0,0,1,-524.175004161527,-826.6424879039585) translate(214.1198148148148 71.23333333333332)"/><use xlink:href="#I" transform="matrix(1,0,0,1,-524.175004161527,-826.6424879039585) translate(55.16055555555559 112.83333333333331)"/><use xlink:href="#J" transform="matrix(1,0,0,1,-524.175004161527,-826.6424879039585) translate(160.7975925925926 112.83333333333331)"/><path d="M-1406.9-341h172.78" stroke="#3a414a" stroke-width="3" fill="none"/><path d="M-1406.87-339.5h-1.53v-3h1.53z" stroke="#3a414a" stroke-width=".05" fill="#3a414a"/><path d="M-1218.36-341l-14.26 4.64v-9.27z" stroke="#3a414a" stroke-width="3" fill="#3a414a"/><path d="M-986.74-482.54a9.73 9.73 0 0 1 10.22 0l224.5 138.4a3.7 3.7 0 0 1 0 6.3l-224.5 138.4a9.73 9.73 0 0 1-10.22 0l-224.5-138.4a3.7 3.7 0 0 1 0-6.3z" stroke="#3a414a" fill="#fff"/><use xlink:href="#K" transform="matrix(1,0,0,1,-1211.3491419324685,-480.68629499490305) translate(142.067962962963 84.60833333333332)"/><use xlink:href="#L" transform="matrix(1,0,0,1,-1211.3491419324685,-480.68629499490305) translate(94.9790740740741 126.20833333333331)"/><use xlink:href="#M" transform="matrix(1,0,0,1,-1211.3491419324685,-480.68629499490305) translate(198.78648148148147 126.20833333333331)"/><use xlink:href="#N" transform="matrix(1,0,0,1,-1211.3491419324685,-480.68629499490305) translate(333.31240740740736 126.20833333333331)"/><use xlink:href="#O" transform="matrix(1,0,0,1,-1211.3491419324685,-480.68629499490305) translate(110.29018518518521 167.8083333333333)"/><use xlink:href="#P" transform="matrix(1,0,0,1,-1211.3491419324685,-480.68629499490305) translate(223.8235185185185 167.8083333333333)"/><use xlink:href="#Q" transform="matrix(1,0,0,1,-1211.3491419324685,-480.68629499490305) translate(167.05685185185186 209.4083333333333)"/><path d="M-.02 405.25h-175.16" stroke="#3a414a" fill="none"/><path d="M.48 405.75h-.5v-1h.5z" stroke="#3a414a" stroke-width=".05" fill="#3a414a"/><path d="M-189.94 405.25l14.26-4.63v9.27z" stroke="#3a414a" fill="#3a414a"/><path d="M-355.57 499.2v190.66a6 6 0 0 1-6 6h-462.3" stroke="#3a414a" stroke-width="3" fill="none"/><path d="M-354.07 499.24h-3v-1.54h3z" stroke="#3a414a" stroke-width=".05" fill="#3a414a"/><path d="M-839.63 695.86l14.26-4.64v9.27z" stroke="#3a414a" stroke-width="3" fill="#3a414a"/><path d="M-337.6 292.2h-3v-13.46h3zm0-56.13h-3V203.5h3z" stroke="#e81313" stroke-width=".05" fill="#e81313"/><path d="M-340.22 201.94l1.13.06 1.14-.06.37-.07v1.67h-3v-1.67z" fill="#e81313"/><path d="M-340.22 201.9l1.13.07 1.14-.06.4-.06v1.72h-3.06v-1.72zm-.34 1.6h2.94v-1.6l-.34.06-1.13.06-1.12-.06-.34-.06z" stroke="#e81313" stroke-width=".05" fill="#e81313"/><path d="M-339.1 307.95l-4.63-14.26h9.28z" fill="#e81313"/><path d="M-339.1 312.8l-6.7-20.6h13.4zm-2.56-17.6l2.57 7.9 2.58-7.9z" stroke="#e81313" stroke-width=".05" fill="#e81313"/><use xlink:href="#p" transform="matrix(1,0,0,1,-362.69503344910845,236.069565465616) translate(0 28.444444444444436)"/><path d="M280 478.8c0 10.17-62.46 18.4-139.5 18.4C63.43 497.2.97 488.97.97 478.8V331.7c0-10.16 62.46-18.4 139.5-18.4 77.06 0 139.52 8.24 139.52 18.4z" stroke="#3a414a" fill="#edf5ff"/><path d="M280 331.7c0 10.15-62.46 18.4-139.5 18.4C63.43 350.1.97 341.84.97 331.7" stroke="#3a414a" fill="none"/><use xlink:href="#R" transform="matrix(1,0,0,1,5.9805727288926676,355.0868648054749) translate(47.24691358024694 75.88194444444443)"/><path d="M-981.63 499.2v87" stroke="#3a414a" stroke-width="3" fill="none"/><path d="M-980.13 499.24h-3v-1.54h3z" stroke="#3a414a" stroke-width=".05" fill="#3a414a"/><path d="M-981.63 601.96l-4.63-14.27h9.27z" stroke="#3a414a" stroke-width="3" fill="#3a414a"/><path d="M-463.13 319.1a7.8 7.8 0 0 1 7.55-5.8h282.02a4.6 4.6 0 0 1 4.45 5.8l-45.95 172.3a7.8 7.8 0 0 1-7.55 5.8h-282.02a4.6 4.6 0 0 1-4.45-5.8z" stroke="#3a414a" fill="#fff"/><use xlink:href="#S" transform="matrix(1,0,0,1,-505.61860331233333,318.3078660311608) translate(47.197592592592635 54.92083333333333)"/><use xlink:href="#T" transform="matrix(1,0,0,1,-505.61860331233333,318.3078660311608) translate(193.37537037037038 54.92083333333333)"/><use xlink:href="#U" transform="matrix(1,0,0,1,-505.61860331233333,318.3078660311608) translate(36.70870370370376 96.52083333333331)"/><use xlink:href="#V" transform="matrix(1,0,0,1,-505.61860331233333,318.3078660311608) translate(123.18277777777782 96.52083333333331)"/><use xlink:href="#W" transform="matrix(1,0,0,1,-505.61860331233333,318.3078660311608) translate(133.31981481481483 138.1208333333333)"/><path d="M-690.98 60h-38.16v-3h38.16zm118.52 0h-57.28v-3h57.28z" stroke="#008a0e" stroke-width=".05" fill="#008a0e"/><path d="M-570.88 57.66l-.08.84.08.85.2.65h-1.82v-3h1.83z" fill="#008a0e"/><path d="M-570.85 57.66l-.1.84.1.85.2.68h-1.88v-3.05h1.9zm-1.63-.63v2.95h1.77l-.2-.62-.1-.86.1-.85.2-.62z" stroke="#008a0e" stroke-width=".05" fill="#008a0e"/><path d="M-730.64 63.14l-14.26-4.64 14.26-4.63z" fill="#008a0e"/><path d="M-729.14 65.2l-20.62-6.7 20.62-6.7zm-10.9-6.7l7.9 2.58v-5.15z" stroke="#008a0e" stroke-width=".05" fill="#008a0e"/><g><use xlink:href="#o" transform="matrix(1,0,0,1,-690.9769969413583,37.17100970815629) translate(0 28.444444444444436)"/></g><path d="M-344.2-83.04a9.73 9.73 0 0 1 10.22 0l224.5 138.4a3.7 3.7 0 0 1 0 6.3l-224.5 138.4a9.73 9.73 0 0 1-10.22 0l-224.5-138.4a3.7 3.7 0 0 1 0-6.3z" stroke="#3a414a" fill="#fff"/><g><use xlink:href="#X" transform="matrix(1,0,0,1,-568.8099069763396,-81.18921448187112) translate(143.89759259259262 123.98333333333332)"/><use xlink:href="#Y" transform="matrix(1,0,0,1,-568.8099069763396,-81.18921448187112) translate(216.9864814814815 123.98333333333332)"/><use xlink:href="#Z" transform="matrix(1,0,0,1,-568.8099069763396,-81.18921448187112) translate(60.90870370370377 165.58333333333331)"/><use xlink:href="#aa" transform="matrix(1,0,0,1,-568.8099069763396,-81.18921448187112) translate(254.94574074074072 165.58333333333331)"/></g><path d="M-1118.27 613.3a6 6 0 0 1 6-6H-851a6 6 0 0 1 6 6v171.1c-45.63-29.58-74.05-29.58-91.26-29.58-27.33 0-63.68 29.58-91 29.58-16.95 0-45.64 0-91-29.58z" stroke="#3a414a" fill="#fff"/><g><use xlink:href="#A" transform="matrix(1,0,0,1,-1113.2695335400863,612.3128253690414) translate(52.26666666666671 53.60833333333333)"/><use xlink:href="#B" transform="matrix(1,0,0,1,-1113.2695335400863,612.3128253690414) translate(181.0148148148148 53.60833333333333)"/><use xlink:href="#C" transform="matrix(1,0,0,1,-1113.2695335400863,612.3128253690414) translate(80.04814814814816 95.20833333333331)"/></g><path d="M-1092.5 319.1a7.8 7.8 0 0 1 7.54-5.8h282.02a4.6 4.6 0 0 1 4.45 5.8l-45.94 172.3a7.8 7.8 0 0 1-7.54 5.8H-1134a4.6 4.6 0 0 1-4.45-5.8z" stroke="#3a414a" fill="#fff"/><g><use xlink:href="#ab" transform="matrix(1,0,0,1,-1135,318.3078660311608) translate(47.197592592592635 54.92083333333333)"/><use xlink:href="#ac" transform="matrix(1,0,0,1,-1135,318.3078660311608) translate(156.87907407407408 54.92083333333333)"/><use xlink:href="#ad" transform="matrix(1,0,0,1,-1135,318.3078660311608) translate(104.9827777777778 96.52083333333331)"/><use xlink:href="#ae" transform="matrix(1,0,0,1,-1135,318.3078660311608) translate(64.13092592592598 138.1208333333333)"/></g><path d="M-1474.54 60h-105.94l-.76.06-.7.17-.64.27-.6.37-.54.46-.46.53-.37.6-.27.66-.16.68-.06.76V292.2h-3V64.44l.1-1.12.26-1.14.45-1.1.62-1 .75-.9.9-.77 1-.6 1.1-.46 1.14-.28 1.1-.1h106.06zm259.54 0h-198.3v-3h198.3z" stroke="#008a0e" stroke-width=".05" fill="#008a0e"/><path d="M-1213.4 57.66l-.1.84.1.85.2.65h-1.84v-3h1.83z" fill="#008a0e"/><path d="M-1213.4 57.66l-.08.84.1.85.2.68h-1.88v-3.05h1.88zm-1.62-.63v2.95h1.78l-.2-.62-.1-.86.1-.85.2-.62z" stroke="#008a0e" stroke-width=".05" fill="#008a0e"/><path d="M-1586.54 307.95l-4.63-14.26h9.27z" fill="#008a0e"/><path d="M-1586.54 312.8l-6.7-20.6h13.4zm-2.57-17.6l2.56 7.9 2.57-7.9z" stroke="#008a0e" stroke-width=".05" fill="#008a0e"/><g><use xlink:href="#o" transform="matrix(1,0,0,1,-1474.5407469807253,37.17100970815629) translate(0 28.444444444444436)"/></g><path d="M-1600.8 499.2v190.66a6 6 0 0 0 6 6h455.4" stroke="#3a414a" stroke-width="3" fill="none"/><path d="M-1599.3 499.24h-3v-1.54h3z" stroke="#3a414a" stroke-width=".05" fill="#3a414a"/><path d="M-1123.62 695.86l-14.27 4.63v-9.28z" stroke="#3a414a" stroke-width="3" fill="#3a414a"/><path d="M-1617.08-1255.97v107.77a6 6 0 0 0 6 6h376.95" stroke="#3a414a" stroke-width="3" fill="none"/><path d="M-1615.58-1255.93h-3v-1.54h3z" stroke="#3a414a" stroke-width=".05" fill="#3a414a"/><path d="M-1218.37-1142.2l-14.26 4.64v-9.27z" stroke="#3a414a" stroke-width="3" fill="#3a414a"/><path d="M-1717.7 319.1a7.8 7.8 0 0 1 7.54-5.8h282.02a4.6 4.6 0 0 1 4.45 5.8l-45.93 172.3a7.8 7.8 0 0 1-7.55 5.8h-282.02a4.6 4.6 0 0 1-4.45-5.8z" stroke="#3a414a" fill="#fff"/><g><use xlink:href="#af" transform="matrix(1,0,0,1,-1760.1967889350228,318.30786603116087) translate(126.97907407407408 54.92083333333333)"/><use xlink:href="#ag" transform="matrix(1,0,0,1,-1760.1967889350228,318.30786603116087) translate(65.45314814814819 96.52083333333331)"/><use xlink:href="#ah" transform="matrix(1,0,0,1,-1760.1967889350228,318.30786603116087) translate(114.15685185185187 138.1208333333333)"/></g><path d="M-986.74-83.04a9.73 9.73 0 0 1 10.22 0l224.5 138.4a3.7 3.7 0 0 1 0 6.3l-224.5 138.4a9.73 9.73 0 0 1-10.22 0l-224.5-138.4a3.7 3.7 0 0 1 0-6.3z" stroke="#3a414a" fill="#fff"/><g><use xlink:href="#ai" transform="matrix(1,0,0,1,-1211.3491419324685,-81.18921448187112) translate(143.99388888888893 123.98333333333332)"/><use xlink:href="#aj" transform="matrix(1,0,0,1,-1211.3491419324685,-81.18921448187112) translate(182.51240740740744 123.98333333333332)"/><use xlink:href="#ak" transform="matrix(1,0,0,1,-1211.3491419324685,-81.18921448187112) translate(243.94944444444445 123.98333333333332)"/><use xlink:href="#al" transform="matrix(1,0,0,1,-1211.3491419324685,-81.18921448187112) translate(120.41981481481486 165.58333333333331)"/></g><path d="M-980.13 292.2h-3v-13.46h3zm0-56.13h-3V203.5h3z" stroke="#e81313" stroke-width=".05" fill="#e81313"/><path d="M-982.76 201.94l1.13.06 1.13-.06.37-.07v1.67h-3v-1.67z" fill="#e81313"/><path d="M-982.75 201.9l1.12.07 1.13-.06.4-.06v1.72h-3.05v-1.72zm-.35 1.6h2.95v-1.6l-.35.06-1.13.06-1.13-.06-.34-.06z" stroke="#e81313" stroke-width=".05" fill="#e81313"/><path d="M-981.63 307.95l-4.63-14.26h9.27z" fill="#e81313"/><path d="M-981.63 312.8l-6.7-20.6h13.4zm-2.57-17.6l2.57 7.9 2.57-7.9z" stroke="#e81313" stroke-width=".05" fill="#e81313"/><g><use xlink:href="#p" transform="matrix(1,0,0,1,-1005.234268520671,236.06956718869475) translate(0 28.444444444444436)"/></g><defs><path fill="#3a414a" d="M169-182c-1-43-94-46-97-3 18 66 151 10 154 114 3 95-165 93-204 36-6-8-10-19-12-30l50-8c3 46 112 56 116 5-17-69-150-10-154-114-4-87 153-88 188-35 5 8 8 18 10 28" id="am"/><path fill="#3a414a" d="M25-224v-37h50v37H25zM25 0v-190h50V0H25" id="an"/><path fill="#3a414a" d="M195-6C206 82 75 100 31 46c-4-6-6-13-8-21l49-6c3 16 16 24 34 25 40 0 42-37 40-79-11 22-30 35-61 35-53 0-70-43-70-97 0-56 18-96 73-97 30 0 46 14 59 34l2-30h47zm-90-29c32 0 41-27 41-63 0-35-9-62-40-62-32 0-39 29-40 63 0 36 9 62 39 62" id="ao"/><path fill="#3a414a" d="M220-157c-53 9-28 100-34 157h-49v-107c1-27-5-49-29-50C55-147 81-57 75 0H25l-1-190h47c2 12-1 28 3 38 10-53 101-56 108 0 13-22 24-43 59-42 82 1 51 116 57 194h-49v-107c-1-25-5-48-29-50" id="ap"/><path fill="#3a414a" d="M133-34C117-15 103 5 69 4 32 3 11-16 11-54c-1-60 55-63 116-61 1-26-3-47-28-47-18 1-26 9-28 27l-52-2c7-38 36-58 82-57s74 22 75 68l1 82c-1 14 12 18 25 15v27c-30 8-71 5-69-32zm-48 3c29 0 43-24 42-57-32 0-66-3-65 30 0 17 8 27 23 27" id="aq"/><g id="a"><use transform="matrix(0.0987654320987654,0,0,0.0987654320987654,0,0)" xlink:href="#am"/><use transform="matrix(0.0987654320987654,0,0,0.0987654320987654,23.703703703703695,0)" xlink:href="#an"/><use transform="matrix(0.0987654320987654,0,0,0.0987654320987654,33.58024691358023,0)" xlink:href="#ao"/><use transform="matrix(0.0987654320987654,0,0,0.0987654320987654,55.20987654320986,0)" xlink:href="#ap"/><use transform="matrix(0.0987654320987654,0,0,0.0987654320987654,86.81481481481478,0)" xlink:href="#aq"/></g><path fill="#3a414a" d="M135-150c-39-12-60 13-60 57V0H25l-1-190h47c2 13-1 29 3 40 6-28 27-53 61-41v41" id="ar"/><path fill="#3a414a" d="M185-48c-13 30-37 53-82 52C43 2 14-33 14-96s30-98 90-98c62 0 83 45 84 108H66c0 31 8 55 39 56 18 0 30-7 34-22zm-45-69c5-46-57-63-70-21-2 6-4 13-4 21h74" id="as"/><path fill="#3a414a" d="M137-138c1-29-70-34-71-4 15 46 118 7 119 86 1 83-164 76-172 9l43-7c4 19 20 25 44 25 33 8 57-30 24-41C81-84 22-81 20-136c-2-80 154-74 161-7" id="at"/><path fill="#3a414a" d="M85 4C-2 5 27-109 22-190h50c7 57-23 150 33 157 60-5 35-97 40-157h50l1 190h-47c-2-12 1-28-3-38-12 25-28 42-61 42" id="au"/><path fill="#3a414a" d="M25 0v-261h50V0H25" id="av"/><path fill="#3a414a" d="M115-3C79 11 28 4 28-45v-112H4v-33h27l15-45h31v45h36v33H77v99c-1 23 16 31 38 25v30" id="aw"/><g id="b"><use transform="matrix(0.0987654320987654,0,0,0.0987654320987654,0,0)" xlink:href="#ar"/><use transform="matrix(0.0987654320987654,0,0,0.0987654320987654,13.827160493827156,0)" xlink:href="#as"/><use transform="matrix(0.0987654320987654,0,0,0.0987654320987654,33.58024691358023,0)" xlink:href="#at"/><use transform="matrix(0.0987654320987654,0,0,0.0987654320987654,53.333333333333314,0)" xlink:href="#au"/><use transform="matrix(0.0987654320987654,0,0,0.0987654320987654,74.96296296296293,0)" xlink:href="#av"/><use transform="matrix(0.0987654320987654,0,0,0.0987654320987654,84.83950617283948,0)" xlink:href="#aw"/><use transform="matrix(0.0987654320987654,0,0,0.0987654320987654,96.59259259259255,0)" xlink:href="#at"/></g><path fill="#3a414a" d="M190-63c-7 42-38 67-86 67-59 0-84-38-90-98-12-110 154-137 174-36l-49 2c-2-19-15-32-35-32-30 0-35 28-38 64-6 74 65 87 74 30" id="ax"/><path fill="#3a414a" d="M114-157C55-157 80-60 75 0H25v-261h50l-1 109c12-26 28-41 61-42 86-1 58 113 63 194h-50c-7-57 23-157-34-157" id="ay"/><g id="c"><use transform="matrix(0.0987654320987654,0,0,0.0987654320987654,0,0)" xlink:href="#ax"/><use transform="matrix(0.0987654320987654,0,0,0.0987654320987654,19.753086419753078,0)" xlink:href="#aq"/><use transform="matrix(0.0987654320987654,0,0,0.0987654320987654,39.506172839506156,0)" xlink:href="#ax"/><use transform="matrix(0.0987654320987654,0,0,0.0987654320987654,59.25925925925924,0)" xlink:href="#ay"/><use transform="matrix(0.0987654320987654,0,0,0.0987654320987654,80.88888888888886,0)" xlink:href="#as"/></g><path fill="#3a414a" d="M240-174c0 40-23 61-54 70L253 0h-59l-57-94H76V0H24v-248c93 4 217-23 216 74zM76-134c48-2 112 12 112-38 0-48-66-32-112-35v73" id="az"/><path fill="#3a414a" d="M84 4C32 4 15-41 15-95c0-55 18-99 73-99 29 0 47 12 58 34l2-30h48l-1 265h-49V-32C136-9 114 4 84 4zm21-34c32 0 41-29 41-66 0-36-9-64-40-64-33 0-39 30-40 65 0 43 13 65 39 65" id="aA"/><g id="d"><use transform="matrix(0.1234567901234567,0,0,0.1234567901234567,0,0)" xlink:href="#az"/><use transform="matrix(0.1234567901234567,0,0,0.1234567901234567,31.975308641975285,0)" xlink:href="#as"/><use transform="matrix(0.1234567901234567,0,0,0.1234567901234567,56.66666666666663,0)" xlink:href="#aA"/><use transform="matrix(0.1234567901234567,0,0,0.1234567901234567,83.70370370370364,0)" xlink:href="#au"/><use transform="matrix(0.1234567901234567,0,0,0.1234567901234567,110.74074074074065,0)" xlink:href="#as"/><use transform="matrix(0.1234567901234567,0,0,0.1234567901234567,135.432098765432,0)" xlink:href="#at"/><use transform="matrix(0.1234567901234567,0,0,0.1234567901234567,160.12345679012333,0)" xlink:href="#aw"/></g><path fill="#3a414a" d="M88-194c31-1 46 15 58 34l-1-101h50l1 261h-48c-2-10 0-23-3-31C134-8 116 4 84 4 32 4 16-41 15-95c0-56 19-97 73-99zm17 164c33 0 40-30 41-66 1-37-9-64-41-64s-38 30-39 65c0 43 13 65 39 65" id="aB"/><g id="e"><use transform="matrix(0.1234567901234567,0,0,0.1234567901234567,0,0)" xlink:href="#aB"/><use transform="matrix(0.1234567901234567,0,0,0.1234567901234567,27.037037037037017,0)" xlink:href="#aq"/><use transform="matrix(0.1234567901234567,0,0,0.1234567901234567,51.72839506172836,0)" xlink:href="#aw"/><use transform="matrix(0.1234567901234567,0,0,0.1234567901234567,66.4197530864197,0)" xlink:href="#aq"/></g><path fill="#3a414a" d="M135-194c87-1 58 113 63 194h-50c-7-57 23-157-34-157-59 0-34 97-39 157H25l-1-190h47c2 12-1 28 3 38 12-26 28-41 61-42" id="aC"/><g id="f"><use transform="matrix(0.1234567901234567,0,0,0.1234567901234567,0,0)" xlink:href="#au"/><use transform="matrix(0.1234567901234567,0,0,0.1234567901234567,27.037037037037017,0)" xlink:href="#at"/><use transform="matrix(0.1234567901234567,0,0,0.1234567901234567,51.72839506172836,0)" xlink:href="#an"/><use transform="matrix(0.1234567901234567,0,0,0.1234567901234567,64.07407407407402,0)" xlink:href="#aC"/><use transform="matrix(0.1234567901234567,0,0,0.1234567901234567,91.11111111111103,0)" xlink:href="#ao"/></g><g id="g"><use transform="matrix(0.1234567901234567,0,0,0.1234567901234567,0,0)" xlink:href="#am"/><use transform="matrix(0.1234567901234567,0,0,0.1234567901234567,29.62962962962961,0)" xlink:href="#an"/><use transform="matrix(0.1234567901234567,0,0,0.1234567901234567,41.975308641975275,0)" xlink:href="#ao"/><use transform="matrix(0.1234567901234567,0,0,0.1234567901234567,69.0123456790123,0)" xlink:href="#ap"/><use transform="matrix(0.1234567901234567,0,0,0.1234567901234567,108.51851851851845,0)" xlink:href="#aq"/></g><path d="M24-248c120-7 223 5 221 122C244-46 201 0 124 0H24v-248zM76-40c74 7 117-18 117-86 0-67-45-88-117-82v168" id="aD"/><path d="M110-194c64 0 96 36 96 99 0 64-35 99-97 99-61 0-95-36-95-99 0-62 34-99 96-99zm-1 164c35 0 45-28 45-65 0-40-10-65-43-65-34 0-45 26-45 65 0 36 10 65 43 65" id="aE"/><path d="M185-48c-13 30-37 53-82 52C43 2 14-33 14-96s30-98 90-98c62 0 83 45 84 108H66c0 31 8 55 39 56 18 0 30-7 34-22zm-45-69c5-46-57-63-70-21-2 6-4 13-4 21h74" id="aF"/><path d="M137-138c1-29-70-34-71-4 15 46 118 7 119 86 1 83-164 76-172 9l43-7c4 19 20 25 44 25 33 8 57-30 24-41C81-84 22-81 20-136c-2-80 154-74 161-7" id="aG"/><g id="h"><use transform="matrix(0.0839506172839506,0,0,0.0839506172839506,0,0)" xlink:href="#aD"/><use transform="matrix(0.0839506172839506,0,0,0.0839506172839506,21.743209876543208,0)" xlink:href="#aE"/><use transform="matrix(0.0839506172839506,0,0,0.0839506172839506,40.12839506172839,0)" xlink:href="#aF"/><use transform="matrix(0.0839506172839506,0,0,0.0839506172839506,56.91851851851851,0)" xlink:href="#aG"/></g><path d="M135-194c52 0 70 43 70 98 0 56-19 99-73 100-30 1-46-15-58-35L72 0H24l1-261h50v104c11-23 29-37 60-37zM114-30c31 0 40-27 40-66 0-37-7-63-39-63s-41 28-41 65c0 36 8 64 40 64" id="aH"/><path d="M135-150c-39-12-60 13-60 57V0H25l-1-190h47c2 13-1 29 3 40 6-28 27-53 61-41v41" id="aI"/><path d="M231 0h-52l-39-155L100 0H48L-1-190h46L77-45c9-52 24-97 36-145h53l37 145 32-145h46" id="aJ"/><g id="i"><use transform="matrix(0.0839506172839506,0,0,0.0839506172839506,0,0)" xlink:href="#aH"/><use transform="matrix(0.0839506172839506,0,0,0.0839506172839506,18.385185185185183,0)" xlink:href="#aI"/><use transform="matrix(0.0839506172839506,0,0,0.0839506172839506,30.138271604938268,0)" xlink:href="#aE"/><use transform="matrix(0.0839506172839506,0,0,0.0839506172839506,48.52345679012345,0)" xlink:href="#aJ"/><use transform="matrix(0.0839506172839506,0,0,0.0839506172839506,72.02962962962962,0)" xlink:href="#aG"/><use transform="matrix(0.0839506172839506,0,0,0.0839506172839506,88.81975308641975,0)" xlink:href="#aF"/><use transform="matrix(0.0839506172839506,0,0,0.0839506172839506,105.60987654320988,0)" xlink:href="#aI"/></g><path d="M190-63c-7 42-38 67-86 67-59 0-84-38-90-98-12-110 154-137 174-36l-49 2c-2-19-15-32-35-32-30 0-35 28-38 64-6 74 65 87 74 30" id="aK"/><path d="M133-34C117-15 103 5 69 4 32 3 11-16 11-54c-1-60 55-63 116-61 1-26-3-47-28-47-18 1-26 9-28 27l-52-2c7-38 36-58 82-57s74 22 75 68l1 82c-1 14 12 18 25 15v27c-30 8-71 5-69-32zm-48 3c29 0 43-24 42-57-32 0-66-3-65 30 0 17 8 27 23 27" id="aL"/><path d="M114-157C55-157 80-60 75 0H25v-261h50l-1 109c12-26 28-41 61-42 86-1 58 113 63 194h-50c-7-57 23-157-34-157" id="aM"/><g id="j"><use transform="matrix(0.0839506172839506,0,0,0.0839506172839506,0,0)" xlink:href="#aK"/><use transform="matrix(0.0839506172839506,0,0,0.0839506172839506,16.79012345679012,0)" xlink:href="#aL"/><use transform="matrix(0.0839506172839506,0,0,0.0839506172839506,33.58024691358024,0)" xlink:href="#aK"/><use transform="matrix(0.0839506172839506,0,0,0.0839506172839506,50.37037037037036,0)" xlink:href="#aM"/><use transform="matrix(0.0839506172839506,0,0,0.0839506172839506,68.75555555555555,0)" xlink:href="#aF"/></g><path d="M128 0H69L1-190h53L99-40l48-150h52" id="aN"/><g id="k"><use transform="matrix(0.0839506172839506,0,0,0.0839506172839506,0,0)" xlink:href="#aM"/><use transform="matrix(0.0839506172839506,0,0,0.0839506172839506,18.385185185185183,0)" xlink:href="#aL"/><use transform="matrix(0.0839506172839506,0,0,0.0839506172839506,35.175308641975306,0)" xlink:href="#aN"/><use transform="matrix(0.0839506172839506,0,0,0.0839506172839506,51.965432098765426,0)" xlink:href="#aF"/></g><path d="M25 0v-261h50V0H25" id="aO"/><g id="l"><use transform="matrix(0.0839506172839506,0,0,0.0839506172839506,0,0)" xlink:href="#aL"/><use transform="matrix(0.0839506172839506,0,0,0.0839506172839506,16.79012345679012,0)" xlink:href="#aO"/><use transform="matrix(0.0839506172839506,0,0,0.0839506172839506,25.18518518518518,0)" xlink:href="#aO"/></g><path d="M115-3C79 11 28 4 28-45v-112H4v-33h27l15-45h31v45h36v33H77v99c-1 23 16 31 38 25v30" id="aP"/><g id="m"><use transform="matrix(0.0839506172839506,0,0,0.0839506172839506,0,0)" xlink:href="#aP"/><use transform="matrix(0.0839506172839506,0,0,0.0839506172839506,9.990123456790123,0)" xlink:href="#aM"/><use transform="matrix(0.0839506172839506,0,0,0.0839506172839506,28.375308641975305,0)" xlink:href="#aF"/></g><path d="M88-194c31-1 46 15 58 34l-1-101h50l1 261h-48c-2-10 0-23-3-31C134-8 116 4 84 4 32 4 16-41 15-95c0-56 19-97 73-99zm17 164c33 0 40-30 41-66 1-37-9-64-41-64s-38 30-39 65c0 43 13 65 39 65" id="aQ"/><path d="M110-251c83-7 118 89 53 130-17 10-36 21-38 46H78c2-56 65-53 71-103 2-21-15-35-38-34-25 1-41 14-44 38l-50-2c6-48 39-70 93-75zM77 0v-47h51V0H77" id="aR"/><g id="n"><use transform="matrix(0.0839506172839506,0,0,0.0839506172839506,0,0)" xlink:href="#aQ"/><use transform="matrix(0.0839506172839506,0,0,0.0839506172839506,18.385185185185183,0)" xlink:href="#aL"/><use transform="matrix(0.0839506172839506,0,0,0.0839506172839506,35.175308641975306,0)" xlink:href="#aP"/><use transform="matrix(0.0839506172839506,0,0,0.0839506172839506,45.16543209876542,0)" xlink:href="#aL"/><use transform="matrix(0.0839506172839506,0,0,0.0839506172839506,61.95555555555555,0)" xlink:href="#aR"/></g><path fill="#333" d="M146-102V0H94v-102L6-248h54l60 105 60-105h54" id="aS"/><path fill="#333" d="M185-48c-13 30-37 53-82 52C43 2 14-33 14-96s30-98 90-98c62 0 83 45 84 108H66c0 31 8 55 39 56 18 0 30-7 34-22zm-45-69c5-46-57-63-70-21-2 6-4 13-4 21h74" id="aT"/><path fill="#333" d="M137-138c1-29-70-34-71-4 15 46 118 7 119 86 1 83-164 76-172 9l43-7c4 19 20 25 44 25 33 8 57-30 24-41C81-84 22-81 20-136c-2-80 154-74 161-7" id="aU"/><g id="o"><use transform="matrix(0.0987654320987654,0,0,0.0987654320987654,0,0)" xlink:href="#aS"/><use transform="matrix(0.0987654320987654,0,0,0.0987654320987654,21.72839506172839,0)" xlink:href="#aT"/><use transform="matrix(0.0987654320987654,0,0,0.0987654320987654,41.48148148148147,0)" xlink:href="#aU"/></g><path fill="#333" d="M175 0L67-191c6 58 2 128 3 191H24v-248h59L193-55c-6-58-2-129-3-193h46V0h-61" id="aV"/><path fill="#333" d="M110-194c64 0 96 36 96 99 0 64-35 99-97 99-61 0-95-36-95-99 0-62 34-99 96-99zm-1 164c35 0 45-28 45-65 0-40-10-65-43-65-34 0-45 26-45 65 0 36 10 65 43 65" id="aW"/><g id="p"><use transform="matrix(0.0987654320987654,0,0,0.0987654320987654,0,0)" xlink:href="#aV"/><use transform="matrix(0.0987654320987654,0,0,0.0987654320987654,25.58024691358024,0)" xlink:href="#aW"/></g><path d="M67-125c0 53 21 87 73 88 37 1 54-22 65-47l45 17C233-25 199 4 140 4 58 4 20-42 15-125 8-235 124-281 211-232c18 10 29 29 36 50l-46 12c-8-25-30-41-62-41-52 0-71 34-72 86" id="aX"/><path d="M135-194c87-1 58 113 63 194h-50c-7-57 23-157-34-157-59 0-34 97-39 157H25l-1-190h47c2 12-1 28 3 38 12-26 28-41 61-42" id="aY"/><g id="q"><use transform="matrix(0.09629629629629627,0,0,0.09629629629629627,0,0)" xlink:href="#aX"/><use transform="matrix(0.09629629629629627,0,0,0.09629629629629627,24.940740740740733,0)" xlink:href="#aL"/><use transform="matrix(0.09629629629629627,0,0,0.09629629629629627,44.19999999999999,0)" xlink:href="#aY"/></g><g id="r"><use transform="matrix(0.09629629629629627,0,0,0.09629629629629627,0,0)" xlink:href="#aP"/><use transform="matrix(0.09629629629629627,0,0,0.09629629629629627,11.459259259259255,0)" xlink:href="#aM"/><use transform="matrix(0.09629629629629627,0,0,0.09629629629629627,32.54814814814814,0)" xlink:href="#aF"/></g><g id="s"><use transform="matrix(0.09629629629629627,0,0,0.09629629629629627,0,0)" xlink:href="#aH"/><use transform="matrix(0.09629629629629627,0,0,0.09629629629629627,21.08888888888888,0)" xlink:href="#aI"/><use transform="matrix(0.09629629629629627,0,0,0.09629629629629627,34.570370370370355,0)" xlink:href="#aE"/><use transform="matrix(0.09629629629629627,0,0,0.09629629629629627,55.65925925925923,0)" xlink:href="#aJ"/><use transform="matrix(0.09629629629629627,0,0,0.09629629629629627,82.62222222222219,0)" xlink:href="#aG"/><use transform="matrix(0.09629629629629627,0,0,0.09629629629629627,101.88148148148146,0)" xlink:href="#aF"/><use transform="matrix(0.09629629629629627,0,0,0.09629629629629627,121.14074074074071,0)" xlink:href="#aI"/></g><g id="t"><use transform="matrix(0.09629629629629627,0,0,0.09629629629629627,0,0)" xlink:href="#aK"/><use transform="matrix(0.09629629629629627,0,0,0.09629629629629627,19.259259259259252,0)" xlink:href="#aL"/><use transform="matrix(0.09629629629629627,0,0,0.09629629629629627,38.518518518518505,0)" xlink:href="#aK"/><use transform="matrix(0.09629629629629627,0,0,0.09629629629629627,57.777777777777764,0)" xlink:href="#aM"/><use transform="matrix(0.09629629629629627,0,0,0.09629629629629627,78.86666666666665,0)" xlink:href="#aF"/></g><g id="u"><use transform="matrix(0.09629629629629627,0,0,0.09629629629629627,0,0)" xlink:href="#aH"/><use transform="matrix(0.09629629629629627,0,0,0.09629629629629627,21.08888888888888,0)" xlink:href="#aF"/></g><path d="M85 4C-2 5 27-109 22-190h50c7 57-23 150 33 157 60-5 35-97 40-157h50l1 190h-47c-2-12 1-28-3-38-12 25-28 42-61 42" id="aZ"/><g id="v"><use transform="matrix(0.09629629629629627,0,0,0.09629629629629627,0,0)" xlink:href="#aZ"/><use transform="matrix(0.09629629629629627,0,0,0.09629629629629627,21.08888888888888,0)" xlink:href="#aG"/><use transform="matrix(0.09629629629629627,0,0,0.09629629629629627,40.348148148148134,0)" xlink:href="#aF"/><use transform="matrix(0.09629629629629627,0,0,0.09629629629629627,59.60740740740739,0)" xlink:href="#aQ"/></g><g id="w"><use transform="matrix(0.09629629629629627,0,0,0.09629629629629627,0,0)" xlink:href="#aP"/><use transform="matrix(0.09629629629629627,0,0,0.09629629629629627,11.459259259259255,0)" xlink:href="#aE"/></g><g id="x"><use transform="matrix(0.09629629629629627,0,0,0.09629629629629627,0,0)" xlink:href="#aK"/><use transform="matrix(0.09629629629629627,0,0,0.09629629629629627,19.259259259259252,0)" xlink:href="#aL"/><use transform="matrix(0.09629629629629627,0,0,0.09629629629629627,38.518518518518505,0)" xlink:href="#aO"/><use transform="matrix(0.09629629629629627,0,0,0.09629629629629627,48.14814814814813,0)" xlink:href="#aK"/><use transform="matrix(0.09629629629629627,0,0,0.09629629629629627,67.40740740740739,0)" xlink:href="#aZ"/><use transform="matrix(0.09629629629629627,0,0,0.09629629629629627,88.49629629629626,0)" xlink:href="#aO"/><use transform="matrix(0.09629629629629627,0,0,0.09629629629629627,98.12592592592588,0)" xlink:href="#aL"/><use transform="matrix(0.09629629629629627,0,0,0.09629629629629627,117.38518518518514,0)" xlink:href="#aP"/><use transform="matrix(0.09629629629629627,0,0,0.09629629629629627,128.84444444444438,0)" xlink:href="#aF"/></g><path d="M25-224v-37h50v37H25zM25 0v-190h50V0H25" id="ba"/><g id="y"><use transform="matrix(0.09629629629629627,0,0,0.09629629629629627,0,0)" xlink:href="#aQ"/><use transform="matrix(0.09629629629629627,0,0,0.09629629629629627,21.08888888888888,0)" xlink:href="#aF"/><use transform="matrix(0.09629629629629627,0,0,0.09629629629629627,40.348148148148134,0)" xlink:href="#aG"/><use transform="matrix(0.09629629629629627,0,0,0.09629629629629627,59.60740740740739,0)" xlink:href="#ba"/><use transform="matrix(0.09629629629629627,0,0,0.09629629629629627,69.23703703703701,0)" xlink:href="#aI"/><use transform="matrix(0.09629629629629627,0,0,0.09629629629629627,82.7185185185185,0)" xlink:href="#aF"/><use transform="matrix(0.09629629629629627,0,0,0.09629629629629627,101.97777777777775,0)" xlink:href="#aQ"/></g><g id="z"><use transform="matrix(0.09629629629629627,0,0,0.09629629629629627,0,0)" xlink:href="#aQ"/><use transform="matrix(0.09629629629629627,0,0,0.09629629629629627,21.08888888888888,0)" xlink:href="#aL"/><use transform="matrix(0.09629629629629627,0,0,0.09629629629629627,40.348148148148134,0)" xlink:href="#aP"/><use transform="matrix(0.09629629629629627,0,0,0.09629629629629627,51.80740740740739,0)" xlink:href="#aL"/><use transform="matrix(0.09629629629629627,0,0,0.09629629629629627,71.06666666666663,0)" xlink:href="#aR"/></g><path d="M240-174c0 40-23 61-54 70L253 0h-59l-57-94H76V0H24v-248c93 4 217-23 216 74zM76-134c48-2 112 12 112-38 0-48-66-32-112-35v73" id="bb"/><g id="A"><use transform="matrix(0.09629629629629627,0,0,0.09629629629629627,0,0)" xlink:href="#bb"/><use transform="matrix(0.09629629629629627,0,0,0.09629629629629627,24.940740740740733,0)" xlink:href="#aF"/><use transform="matrix(0.09629629629629627,0,0,0.09629629629629627,44.19999999999999,0)" xlink:href="#aY"/><use transform="matrix(0.09629629629629627,0,0,0.09629629629629627,65.28888888888886,0)" xlink:href="#aQ"/><use transform="matrix(0.09629629629629627,0,0,0.09629629629629627,86.37777777777774,0)" xlink:href="#aF"/><use transform="matrix(0.09629629629629627,0,0,0.09629629629629627,105.63703703703699,0)" xlink:href="#aI"/></g><g id="B"><use transform="matrix(0.09629629629629627,0,0,0.09629629629629627,0,0)" xlink:href="#ba"/><use transform="matrix(0.09629629629629627,0,0,0.09629629629629627,9.629629629629626,0)" xlink:href="#aY"/></g><path d="M169-182c-1-43-94-46-97-3 18 66 151 10 154 114 3 95-165 93-204 36-6-8-10-19-12-30l50-8c3 46 112 56 116 5-17-69-150-10-154-114-4-87 153-88 188-35 5 8 8 18 10 28" id="bc"/><path d="M195-6C206 82 75 100 31 46c-4-6-6-13-8-21l49-6c3 16 16 24 34 25 40 0 42-37 40-79-11 22-30 35-61 35-53 0-70-43-70-97 0-56 18-96 73-97 30 0 46 14 59 34l2-30h47zm-90-29c32 0 41-27 41-63 0-35-9-62-40-62-32 0-39 29-40 63 0 36 9 62 39 62" id="bd"/><path d="M220-157c-53 9-28 100-34 157h-49v-107c1-27-5-49-29-50C55-147 81-57 75 0H25l-1-190h47c2 12-1 28 3 38 10-53 101-56 108 0 13-22 24-43 59-42 82 1 51 116 57 194h-49v-107c-1-25-5-48-29-50" id="be"/><g id="C"><use transform="matrix(0.09629629629629627,0,0,0.09629629629629627,0,0)" xlink:href="#bc"/><use transform="matrix(0.09629629629629627,0,0,0.09629629629629627,23.111111111111104,0)" xlink:href="#ba"/><use transform="matrix(0.09629629629629627,0,0,0.09629629629629627,32.74074074074073,0)" xlink:href="#bd"/><use transform="matrix(0.09629629629629627,0,0,0.09629629629629627,53.829629629629615,0)" xlink:href="#be"/><use transform="matrix(0.09629629629629627,0,0,0.09629629629629627,84.64444444444442,0)" xlink:href="#aL"/></g><path d="M199 0l-22-63H83L61 0H9l90-248h61L250 0h-51zm-33-102l-36-108c-10 38-24 72-36 108h72" id="bf"/><g id="D"><use transform="matrix(0.09629629629629627,0,0,0.09629629629629627,0,0)" xlink:href="#bf"/><use transform="matrix(0.09629629629629627,0,0,0.09629629629629627,24.940740740740733,0)" xlink:href="#aK"/><use transform="matrix(0.09629629629629627,0,0,0.09629629629629627,44.19999999999999,0)" xlink:href="#aK"/><use transform="matrix(0.09629629629629627,0,0,0.09629629629629627,63.45925925925924,0)" xlink:href="#aF"/><use transform="matrix(0.09629629629629627,0,0,0.09629629629629627,82.7185185185185,0)" xlink:href="#aG"/><use transform="matrix(0.09629629629629627,0,0,0.09629629629629627,101.97777777777775,0)" xlink:href="#aG"/></g><g id="E"><use transform="matrix(0.09629629629629627,0,0,0.09629629629629627,0,0)" xlink:href="#aH"/><use transform="matrix(0.09629629629629627,0,0,0.09629629629629627,21.08888888888888,0)" xlink:href="#aI"/><use transform="matrix(0.09629629629629627,0,0,0.09629629629629627,34.570370370370355,0)" xlink:href="#aE"/><use transform="matrix(0.09629629629629627,0,0,0.09629629629629627,55.65925925925923,0)" xlink:href="#aJ"/><use transform="matrix(0.09629629629629627,0,0,0.09629629629629627,82.62222222222219,0)" xlink:href="#aG"/><use transform="matrix(0.09629629629629627,0,0,0.09629629629629627,101.88148148148146,0)" xlink:href="#aF"/><use transform="matrix(0.09629629629629627,0,0,0.09629629629629627,121.14074074074071,0)" xlink:href="#aI"/></g><g id="F"><use transform="matrix(0.09629629629629627,0,0,0.09629629629629627,0,0)" xlink:href="#aK"/><use transform="matrix(0.09629629629629627,0,0,0.09629629629629627,19.259259259259252,0)" xlink:href="#aL"/><use transform="matrix(0.09629629629629627,0,0,0.09629629629629627,38.518518518518505,0)" xlink:href="#aK"/><use transform="matrix(0.09629629629629627,0,0,0.09629629629629627,57.777777777777764,0)" xlink:href="#aM"/><use transform="matrix(0.09629629629629627,0,0,0.09629629629629627,78.86666666666665,0)" xlink:href="#aF"/></g><path d="M135-194c53 0 70 44 70 98 0 56-19 98-73 100-31 1-45-17-59-34 3 33 2 69 2 105H25l-1-265h48c2 10 0 23 3 31 11-24 29-35 60-35zM114-30c33 0 39-31 40-66 0-38-9-64-40-64-56 0-55 130 0 130" id="bg"/><g id="G"><use transform="matrix(0.09629629629629627,0,0,0.09629629629629627,0,0)" xlink:href="#aX"/><use transform="matrix(0.09629629629629627,0,0,0.09629629629629627,24.940740740740733,0)" xlink:href="#aE"/><use transform="matrix(0.09629629629629627,0,0,0.09629629629629627,46.02962962962961,0)" xlink:href="#be"/><use transform="matrix(0.09629629629629627,0,0,0.09629629629629627,76.84444444444442,0)" xlink:href="#bg"/><use transform="matrix(0.09629629629629627,0,0,0.09629629629629627,97.93333333333331,0)" xlink:href="#aZ"/><use transform="matrix(0.09629629629629627,0,0,0.09629629629629627,119.02222222222218,0)" xlink:href="#aP"/><use transform="matrix(0.09629629629629627,0,0,0.09629629629629627,130.48148148148144,0)" xlink:href="#aF"/></g><g id="H"><use transform="matrix(0.09629629629629627,0,0,0.09629629629629627,0,0)" xlink:href="#aJ"/><use transform="matrix(0.09629629629629627,0,0,0.09629629629629627,26.962962962962955,0)" xlink:href="#ba"/><use transform="matrix(0.09629629629629627,0,0,0.09629629629629627,36.59259259259258,0)" xlink:href="#aP"/><use transform="matrix(0.09629629629629627,0,0,0.09629629629629627,48.051851851851836,0)" xlink:href="#aM"/></g><g id="I"><use transform="matrix(0.09629629629629627,0,0,0.09629629629629627,0,0)" xlink:href="#bf"/><use transform="matrix(0.09629629629629627,0,0,0.09629629629629627,24.940740740740733,0)" xlink:href="#aO"/><use transform="matrix(0.09629629629629627,0,0,0.09629629629629627,34.570370370370355,0)" xlink:href="#bg"/><use transform="matrix(0.09629629629629627,0,0,0.09629629629629627,55.65925925925923,0)" xlink:href="#aM"/><use transform="matrix(0.09629629629629627,0,0,0.09629629629629627,76.74814814814812,0)" xlink:href="#aL"/></g><path d="M140-251c80 0 125 45 125 126 0 70-33 111-92 124 6 28 34 38 68 31l-1 36C177 83 129 55 120 2 51-6 15-50 15-125c0-81 44-126 125-126zm-1 214c52 0 73-35 73-88 0-50-21-86-72-86-52 0-73 35-73 86s22 88 72 88" id="bh"/><path d="M123 10C108 53 80 86 19 72V37c35 8 53-11 59-39L3-190h52l48 148c12-52 28-100 44-148h51" id="bi"/><g id="J"><use transform="matrix(0.09629629629629627,0,0,0.09629629629629627,0,0)" xlink:href="#bh"/><use transform="matrix(0.09629629629629627,0,0,0.09629629629629627,26.962962962962955,0)" xlink:href="#aZ"/><use transform="matrix(0.09629629629629627,0,0,0.09629629629629627,48.051851851851836,0)" xlink:href="#aF"/><use transform="matrix(0.09629629629629627,0,0,0.09629629629629627,67.31111111111109,0)" xlink:href="#aI"/><use transform="matrix(0.09629629629629627,0,0,0.09629629629629627,80.79259259259257,0)" xlink:href="#bi"/></g><path d="M24 0v-248h195v40H76v63h132v40H76v65h150V0H24" id="bj"/><path d="M84 4C32 4 15-41 15-95c0-55 18-99 73-99 29 0 47 12 58 34l2-30h48l-1 265h-49V-32C136-9 114 4 84 4zm21-34c32 0 41-29 41-66 0-36-9-64-40-64-33 0-39 30-40 65 0 43 13 65 39 65" id="bk"/><g id="K"><use transform="matrix(0.09629629629629627,0,0,0.09629629629629627,0,0)" xlink:href="#bj"/><use transform="matrix(0.09629629629629627,0,0,0.09629629629629627,23.111111111111104,0)" xlink:href="#bk"/><use transform="matrix(0.09629629629629627,0,0,0.09629629629629627,44.19999999999999,0)" xlink:href="#aZ"/><use transform="matrix(0.09629629629629627,0,0,0.09629629629629627,65.28888888888886,0)" xlink:href="#ba"/><use transform="matrix(0.09629629629629627,0,0,0.09629629629629627,74.91851851851848,0)" xlink:href="#aN"/><use transform="matrix(0.09629629629629627,0,0,0.09629629629629627,94.17777777777773,0)" xlink:href="#aL"/><use transform="matrix(0.09629629629629627,0,0,0.09629629629629627,113.43703703703699,0)" xlink:href="#aO"/><use transform="matrix(0.09629629629629627,0,0,0.09629629629629627,123.0666666666666,0)" xlink:href="#aL"/><use transform="matrix(0.09629629629629627,0,0,0.09629629629629627,142.32592592592584,0)" xlink:href="#aY"/><use transform="matrix(0.09629629629629627,0,0,0.09629629629629627,163.41481481481472,0)" xlink:href="#aP"/></g><g id="L"><use transform="matrix(0.09629629629629627,0,0,0.09629629629629627,0,0)" xlink:href="#bk"/><use transform="matrix(0.09629629629629627,0,0,0.09629629629629627,21.08888888888888,0)" xlink:href="#aZ"/><use transform="matrix(0.09629629629629627,0,0,0.09629629629629627,42.17777777777776,0)" xlink:href="#aF"/><use transform="matrix(0.09629629629629627,0,0,0.09629629629629627,61.43703703703702,0)" xlink:href="#aI"/><use transform="matrix(0.09629629629629627,0,0,0.09629629629629627,74.9185185185185,0)" xlink:href="#bi"/></g><g id="M"><use transform="matrix(0.09629629629629627,0,0,0.09629629629629627,0,0)" xlink:href="#bg"/><use transform="matrix(0.09629629629629627,0,0,0.09629629629629627,21.08888888888888,0)" xlink:href="#aI"/><use transform="matrix(0.09629629629629627,0,0,0.09629629629629627,34.570370370370355,0)" xlink:href="#aF"/><use transform="matrix(0.09629629629629627,0,0,0.09629629629629627,53.8296296296296,0)" xlink:href="#aG"/><use transform="matrix(0.09629629629629627,0,0,0.09629629629629627,73.08888888888886,0)" xlink:href="#aF"/><use transform="matrix(0.09629629629629627,0,0,0.09629629629629627,92.34814814814811,0)" xlink:href="#aY"/><use transform="matrix(0.09629629629629627,0,0,0.09629629629629627,113.43703703703699,0)" xlink:href="#aP"/></g><g id="N"><use transform="matrix(0.09629629629629627,0,0,0.09629629629629627,0,0)" xlink:href="#ba"/><use transform="matrix(0.09629629629629627,0,0,0.09629629629629627,9.629629629629626,0)" xlink:href="#aY"/></g><g id="O"><use transform="matrix(0.09629629629629627,0,0,0.09629629629629627,0,0)" xlink:href="#bc"/><use transform="matrix(0.09629629629629627,0,0,0.09629629629629627,23.111111111111104,0)" xlink:href="#ba"/><use transform="matrix(0.09629629629629627,0,0,0.09629629629629627,32.74074074074073,0)" xlink:href="#bd"/><use transform="matrix(0.09629629629629627,0,0,0.09629629629629627,53.829629629629615,0)" xlink:href="#be"/><use transform="matrix(0.09629629629629627,0,0,0.09629629629629627,84.64444444444442,0)" xlink:href="#aL"/></g><g id="P"><use transform="matrix(0.09629629629629627,0,0,0.09629629629629627,0,0)" xlink:href="#bb"/><use transform="matrix(0.09629629629629627,0,0,0.09629629629629627,24.940740740740733,0)" xlink:href="#aF"/><use transform="matrix(0.09629629629629627,0,0,0.09629629629629627,44.19999999999999,0)" xlink:href="#aG"/><use transform="matrix(0.09629629629629627,0,0,0.09629629629629627,63.45925925925924,0)" xlink:href="#aZ"/><use transform="matrix(0.09629629629629627,0,0,0.09629629629629627,84.54814814814813,0)" xlink:href="#aO"/><use transform="matrix(0.09629629629629627,0,0,0.09629629629629627,94.17777777777775,0)" xlink:href="#aP"/><use transform="matrix(0.09629629629629627,0,0,0.09629629629629627,105.637037037037,0)" xlink:href="#aG"/></g><g id="Q"><use transform="matrix(0.09629629629629627,0,0,0.09629629629629627,0,0)" xlink:href="#aX"/><use transform="matrix(0.09629629629629627,0,0,0.09629629629629627,24.940740740740733,0)" xlink:href="#aL"/><use transform="matrix(0.09629629629629627,0,0,0.09629629629629627,44.19999999999999,0)" xlink:href="#aK"/><use transform="matrix(0.09629629629629627,0,0,0.09629629629629627,63.45925925925924,0)" xlink:href="#aM"/><use transform="matrix(0.09629629629629627,0,0,0.09629629629629627,84.54814814814813,0)" xlink:href="#aF"/><use transform="matrix(0.09629629629629627,0,0,0.09629629629629627,103.80740740740738,0)" xlink:href="#aR"/></g><path fill="#3a414a" d="M110-194c64 0 96 36 96 99 0 64-35 99-97 99-61 0-95-36-95-99 0-62 34-99 96-99zm-1 164c35 0 45-28 45-65 0-40-10-65-43-65-34 0-45 26-45 65 0 36 10 65 43 65" id="bl"/><path fill="#3a414a" d="M231 0h-52l-39-155L100 0H48L-1-190h46L77-45c9-52 24-97 36-145h53l37 145 32-145h46" id="bm"/><path fill="#3a414a" d="M121-226c-27-7-43 5-38 36h38v33H83V0H34v-157H6v-33h28c-9-59 32-81 87-68v32" id="bn"/><path fill="#3a414a" d="M147 0L96-86 75-71V0H25v-261h50v150l67-79h53l-66 74L201 0h-54" id="bo"/><g id="R"><use transform="matrix(0.0987654320987654,0,0,0.0987654320987654,0,0)" xlink:href="#am"/><use transform="matrix(0.0987654320987654,0,0,0.0987654320987654,23.703703703703695,0)" xlink:href="#aC"/><use transform="matrix(0.0987654320987654,0,0,0.0987654320987654,45.333333333333314,0)" xlink:href="#bl"/><use transform="matrix(0.0987654320987654,0,0,0.0987654320987654,66.96296296296293,0)" xlink:href="#bm"/><use transform="matrix(0.0987654320987654,0,0,0.0987654320987654,94.61728395061725,0)" xlink:href="#bn"/><use transform="matrix(0.0987654320987654,0,0,0.0987654320987654,106.37037037037034,0)" xlink:href="#av"/><use transform="matrix(0.0987654320987654,0,0,0.0987654320987654,116.24691358024687,0)" xlink:href="#aq"/><use transform="matrix(0.0987654320987654,0,0,0.0987654320987654,135.99999999999994,0)" xlink:href="#bo"/><use transform="matrix(0.0987654320987654,0,0,0.0987654320987654,155.75308641975303,0)" xlink:href="#as"/></g><g id="S"><use transform="matrix(0.09629629629629627,0,0,0.09629629629629627,0,0)" xlink:href="#bb"/><use transform="matrix(0.09629629629629627,0,0,0.09629629629629627,24.940740740740733,0)" xlink:href="#aF"/><use transform="matrix(0.09629629629629627,0,0,0.09629629629629627,44.19999999999999,0)" xlink:href="#aP"/><use transform="matrix(0.09629629629629627,0,0,0.09629629629629627,55.659259259259244,0)" xlink:href="#aI"/><use transform="matrix(0.09629629629629627,0,0,0.09629629629629627,69.14074074074072,0)" xlink:href="#ba"/><use transform="matrix(0.09629629629629627,0,0,0.09629629629629627,78.77037037037036,0)" xlink:href="#aF"/><use transform="matrix(0.09629629629629627,0,0,0.09629629629629627,98.02962962962961,0)" xlink:href="#aN"/><use transform="matrix(0.09629629629629627,0,0,0.09629629629629627,117.28888888888885,0)" xlink:href="#aF"/></g><g id="T"><use transform="matrix(0.09629629629629627,0,0,0.09629629629629627,0,0)" xlink:href="#aI"/><use transform="matrix(0.09629629629629627,0,0,0.09629629629629627,13.481481481481477,0)" xlink:href="#aF"/><use transform="matrix(0.09629629629629627,0,0,0.09629629629629627,32.74074074074073,0)" xlink:href="#aG"/><use transform="matrix(0.09629629629629627,0,0,0.09629629629629627,51.999999999999986,0)" xlink:href="#aZ"/><use transform="matrix(0.09629629629629627,0,0,0.09629629629629627,73.08888888888887,0)" xlink:href="#aO"/><use transform="matrix(0.09629629629629627,0,0,0.09629629629629627,82.7185185185185,0)" xlink:href="#aP"/><use transform="matrix(0.09629629629629627,0,0,0.09629629629629627,94.17777777777775,0)" xlink:href="#aG"/></g><path d="M121-226c-27-7-43 5-38 36h38v33H83V0H34v-157H6v-33h28c-9-59 32-81 87-68v32" id="bp"/><g id="U"><use transform="matrix(0.09629629629629627,0,0,0.09629629629629627,0,0)" xlink:href="#bp"/><use transform="matrix(0.09629629629629627,0,0,0.09629629629629627,11.459259259259255,0)" xlink:href="#aI"/><use transform="matrix(0.09629629629629627,0,0,0.09629629629629627,24.940740740740733,0)" xlink:href="#aE"/><use transform="matrix(0.09629629629629627,0,0,0.09629629629629627,46.02962962962961,0)" xlink:href="#be"/></g><path d="M147 0L96-86 75-71V0H25v-261h50v150l67-79h53l-66 74L201 0h-54" id="bq"/><g id="V"><use transform="matrix(0.09629629629629627,0,0,0.09629629629629627,0,0)" xlink:href="#bc"/><use transform="matrix(0.09629629629629627,0,0,0.09629629629629627,23.111111111111104,0)" xlink:href="#aY"/><use transform="matrix(0.09629629629629627,0,0,0.09629629629629627,44.19999999999999,0)" xlink:href="#aE"/><use transform="matrix(0.09629629629629627,0,0,0.09629629629629627,65.28888888888886,0)" xlink:href="#aJ"/><use transform="matrix(0.09629629629629627,0,0,0.09629629629629627,92.25185185185182,0)" xlink:href="#bp"/><use transform="matrix(0.09629629629629627,0,0,0.09629629629629627,103.71111111111108,0)" xlink:href="#aO"/><use transform="matrix(0.09629629629629627,0,0,0.09629629629629627,113.34074074074071,0)" xlink:href="#aL"/><use transform="matrix(0.09629629629629627,0,0,0.09629629629629627,132.59999999999997,0)" xlink:href="#bq"/><use transform="matrix(0.09629629629629627,0,0,0.09629629629629627,151.8592592592592,0)" xlink:href="#aF"/></g><path d="M128-127c34 4 56 21 59 58 7 91-148 94-172 28-4-9-6-17-7-26l51-5c1 24 16 35 40 36 23 0 39-12 38-36-1-31-31-36-65-34v-40c32 2 59-3 59-33 0-20-13-33-34-33s-33 13-35 32l-50-3c6-44 37-68 86-68 50 0 83 20 83 66 0 35-22 52-53 58" id="br"/><g id="W"><use transform="matrix(0.09629629629629627,0,0,0.09629629629629627,0,0)" xlink:href="#bc"/><use transform="matrix(0.09629629629629627,0,0,0.09629629629629627,23.111111111111104,0)" xlink:href="#br"/></g><path d="M186 0v-106H76V0H24v-248h52v99h110v-99h50V0h-50" id="bs"/><g id="X"><use transform="matrix(0.09629629629629627,0,0,0.09629629629629627,0,0)" xlink:href="#bs"/><use transform="matrix(0.09629629629629627,0,0,0.09629629629629627,24.940740740740733,0)" xlink:href="#aL"/><use transform="matrix(0.09629629629629627,0,0,0.09629629629629627,44.19999999999999,0)" xlink:href="#aG"/></g><g id="Y"><use transform="matrix(0.09629629629629627,0,0,0.09629629629629627,0,0)" xlink:href="#aK"/><use transform="matrix(0.09629629629629627,0,0,0.09629629629629627,19.259259259259252,0)" xlink:href="#aL"/><use transform="matrix(0.09629629629629627,0,0,0.09629629629629627,38.518518518518505,0)" xlink:href="#aK"/><use transform="matrix(0.09629629629629627,0,0,0.09629629629629627,57.777777777777764,0)" xlink:href="#aM"/><use transform="matrix(0.09629629629629627,0,0,0.09629629629629627,78.86666666666665,0)" xlink:href="#aF"/></g><path d="M14-72v-43h91v43H14" id="bt"/><g id="Z"><use transform="matrix(0.09629629629629627,0,0,0.09629629629629627,0,0)" xlink:href="#aP"/><use transform="matrix(0.09629629629629627,0,0,0.09629629629629627,11.459259259259255,0)" xlink:href="#ba"/><use transform="matrix(0.09629629629629627,0,0,0.09629629629629627,21.08888888888888,0)" xlink:href="#be"/><use transform="matrix(0.09629629629629627,0,0,0.09629629629629627,51.90370370370369,0)" xlink:href="#aF"/><use transform="matrix(0.09629629629629627,0,0,0.09629629629629627,71.16296296296294,0)" xlink:href="#bt"/><use transform="matrix(0.09629629629629627,0,0,0.09629629629629627,82.62222222222219,0)" xlink:href="#aP"/><use transform="matrix(0.09629629629629627,0,0,0.09629629629629627,94.08148148148145,0)" xlink:href="#aE"/><use transform="matrix(0.09629629629629627,0,0,0.09629629629629627,115.17037037037034,0)" xlink:href="#bt"/><use transform="matrix(0.09629629629629627,0,0,0.09629629629629627,126.62962962962959,0)" xlink:href="#aO"/><use transform="matrix(0.09629629629629627,0,0,0.09629629629629627,136.2592592592592,0)" xlink:href="#ba"/><use transform="matrix(0.09629629629629627,0,0,0.09629629629629627,145.88888888888883,0)" xlink:href="#aN"/><use transform="matrix(0.09629629629629627,0,0,0.09629629629629627,165.1481481481481,0)" xlink:href="#aF"/></g><path d="M144 0l-44-69L55 0H2l70-98-66-92h53l41 62 40-62h54l-67 91 71 99h-54" id="bu"/><g id="aa"><use transform="matrix(0.09629629629629627,0,0,0.09629629629629627,0,0)" xlink:href="#aF"/><use transform="matrix(0.09629629629629627,0,0,0.09629629629629627,19.259259259259252,0)" xlink:href="#bu"/><use transform="matrix(0.09629629629629627,0,0,0.09629629629629627,38.518518518518505,0)" xlink:href="#bg"/><use transform="matrix(0.09629629629629627,0,0,0.09629629629629627,59.60740740740739,0)" xlink:href="#ba"/><use transform="matrix(0.09629629629629627,0,0,0.09629629629629627,69.23703703703701,0)" xlink:href="#aI"/><use transform="matrix(0.09629629629629627,0,0,0.09629629629629627,82.7185185185185,0)" xlink:href="#aF"/><use transform="matrix(0.09629629629629627,0,0,0.09629629629629627,101.97777777777775,0)" xlink:href="#aQ"/><use transform="matrix(0.09629629629629627,0,0,0.09629629629629627,123.06666666666663,0)" xlink:href="#aR"/></g><g id="ab"><use transform="matrix(0.09629629629629627,0,0,0.09629629629629627,0,0)" xlink:href="#bh"/><use transform="matrix(0.09629629629629627,0,0,0.09629629629629627,26.962962962962955,0)" xlink:href="#aZ"/><use transform="matrix(0.09629629629629627,0,0,0.09629629629629627,48.051851851851836,0)" xlink:href="#aF"/><use transform="matrix(0.09629629629629627,0,0,0.09629629629629627,67.31111111111109,0)" xlink:href="#aI"/><use transform="matrix(0.09629629629629627,0,0,0.09629629629629627,80.79259259259257,0)" xlink:href="#bi"/></g><g id="ac"><use transform="matrix(0.09629629629629627,0,0,0.09629629629629627,0,0)" xlink:href="#aF"/><use transform="matrix(0.09629629629629627,0,0,0.09629629629629627,19.259259259259252,0)" xlink:href="#bu"/><use transform="matrix(0.09629629629629627,0,0,0.09629629629629627,38.518518518518505,0)" xlink:href="#aF"/><use transform="matrix(0.09629629629629627,0,0,0.09629629629629627,57.777777777777764,0)" xlink:href="#aK"/><use transform="matrix(0.09629629629629627,0,0,0.09629629629629627,77.03703703703701,0)" xlink:href="#aZ"/><use transform="matrix(0.09629629629629627,0,0,0.09629629629629627,98.12592592592588,0)" xlink:href="#aP"/><use transform="matrix(0.09629629629629627,0,0,0.09629629629629627,109.58518518518513,0)" xlink:href="#aF"/><use transform="matrix(0.09629629629629627,0,0,0.09629629629629627,128.84444444444438,0)" xlink:href="#aQ"/></g><g id="ad"><use transform="matrix(0.09629629629629627,0,0,0.09629629629629627,0,0)" xlink:href="#aL"/><use transform="matrix(0.09629629629629627,0,0,0.09629629629629627,19.259259259259252,0)" xlink:href="#bd"/><use transform="matrix(0.09629629629629627,0,0,0.09629629629629627,40.348148148148134,0)" xlink:href="#aL"/><use transform="matrix(0.09629629629629627,0,0,0.09629629629629627,59.60740740740739,0)" xlink:href="#ba"/><use transform="matrix(0.09629629629629627,0,0,0.09629629629629627,69.23703703703701,0)" xlink:href="#aY"/><use transform="matrix(0.09629629629629627,0,0,0.09629629629629627,90.3259259259259,0)" xlink:href="#aG"/><use transform="matrix(0.09629629629629627,0,0,0.09629629629629627,109.58518518518515,0)" xlink:href="#aP"/></g><g id="ae"><use transform="matrix(0.09629629629629627,0,0,0.09629629629629627,0,0)" xlink:href="#aJ"/><use transform="matrix(0.09629629629629627,0,0,0.09629629629629627,26.962962962962955,0)" xlink:href="#aL"/><use transform="matrix(0.09629629629629627,0,0,0.09629629629629627,46.22222222222221,0)" xlink:href="#aI"/><use transform="matrix(0.09629629629629627,0,0,0.09629629629629627,59.703703703703674,0)" xlink:href="#aF"/><use transform="matrix(0.09629629629629627,0,0,0.09629629629629627,78.96296296296293,0)" xlink:href="#aM"/><use transform="matrix(0.09629629629629627,0,0,0.09629629629629627,100.05185185185181,0)" xlink:href="#aE"/><use transform="matrix(0.09629629629629627,0,0,0.09629629629629627,121.14074074074068,0)" xlink:href="#aZ"/><use transform="matrix(0.09629629629629627,0,0,0.09629629629629627,142.22962962962956,0)" xlink:href="#aG"/><use transform="matrix(0.09629629629629627,0,0,0.09629629629629627,161.48888888888882,0)" xlink:href="#aF"/></g><g id="af"><use transform="matrix(0.09629629629629627,0,0,0.09629629629629627,0,0)" xlink:href="#bh"/><use transform="matrix(0.09629629629629627,0,0,0.09629629629629627,26.962962962962955,0)" xlink:href="#aZ"/><use transform="matrix(0.09629629629629627,0,0,0.09629629629629627,48.051851851851836,0)" xlink:href="#aF"/><use transform="matrix(0.09629629629629627,0,0,0.09629629629629627,67.31111111111109,0)" xlink:href="#aI"/><use transform="matrix(0.09629629629629627,0,0,0.09629629629629627,80.79259259259257,0)" xlink:href="#bi"/></g><path d="M12 0v-35l95-120H19v-35h142v35L67-36h103V0H12" id="bv"/><g id="ag"><use transform="matrix(0.09629629629629627,0,0,0.09629629629629627,0,0)" xlink:href="#be"/><use transform="matrix(0.09629629629629627,0,0,0.09629629629629627,30.814814814814806,0)" xlink:href="#aL"/><use transform="matrix(0.09629629629629627,0,0,0.09629629629629627,50.07407407407406,0)" xlink:href="#aP"/><use transform="matrix(0.09629629629629627,0,0,0.09629629629629627,61.53333333333332,0)" xlink:href="#aF"/><use transform="matrix(0.09629629629629627,0,0,0.09629629629629627,80.79259259259257,0)" xlink:href="#aI"/><use transform="matrix(0.09629629629629627,0,0,0.09629629629629627,94.27407407407405,0)" xlink:href="#ba"/><use transform="matrix(0.09629629629629627,0,0,0.09629629629629627,103.90370370370367,0)" xlink:href="#aL"/><use transform="matrix(0.09629629629629627,0,0,0.09629629629629627,123.16296296296292,0)" xlink:href="#aO"/><use transform="matrix(0.09629629629629627,0,0,0.09629629629629627,132.79259259259257,0)" xlink:href="#ba"/><use transform="matrix(0.09629629629629627,0,0,0.09629629629629627,142.4222222222222,0)" xlink:href="#bv"/><use transform="matrix(0.09629629629629627,0,0,0.09629629629629627,159.75555555555553,0)" xlink:href="#aF"/><use transform="matrix(0.09629629629629627,0,0,0.09629629629629627,179.01481481481477,0)" xlink:href="#aQ"/></g><g id="ah"><use transform="matrix(0.09629629629629627,0,0,0.09629629629629627,0,0)" xlink:href="#aP"/><use transform="matrix(0.09629629629629627,0,0,0.09629629629629627,11.459259259259255,0)" xlink:href="#aL"/><use transform="matrix(0.09629629629629627,0,0,0.09629629629629627,30.71851851851851,0)" xlink:href="#aH"/><use transform="matrix(0.09629629629629627,0,0,0.09629629629629627,51.80740740740739,0)" xlink:href="#aO"/><use transform="matrix(0.09629629629629627,0,0,0.09629629629629627,61.43703703703702,0)" xlink:href="#aF"/></g><path d="M24 0v-248h52V0H24" id="bw"/><g id="ai"><use transform="matrix(0.09629629629629627,0,0,0.09629629629629627,0,0)" xlink:href="#bw"/><use transform="matrix(0.09629629629629627,0,0,0.09629629629629627,9.629629629629626,0)" xlink:href="#aG"/></g><g id="aj"><use transform="matrix(0.09629629629629627,0,0,0.09629629629629627,0,0)" xlink:href="#aP"/><use transform="matrix(0.09629629629629627,0,0,0.09629629629629627,11.459259259259255,0)" xlink:href="#aM"/><use transform="matrix(0.09629629629629627,0,0,0.09629629629629627,32.54814814814814,0)" xlink:href="#aF"/></g><g id="ak"><use transform="matrix(0.09629629629629627,0,0,0.09629629629629627,0,0)" xlink:href="#aQ"/><use transform="matrix(0.09629629629629627,0,0,0.09629629629629627,21.08888888888888,0)" xlink:href="#aL"/><use transform="matrix(0.09629629629629627,0,0,0.09629629629629627,40.348148148148134,0)" xlink:href="#aP"/><use transform="matrix(0.09629629629629627,0,0,0.09629629629629627,51.80740740740739,0)" xlink:href="#aL"/></g><path d="M230 0l2-204L168 0h-37L68-204 70 0H24v-248h70l56 185 57-185h69V0h-46" id="bx"/><g id="al"><use transform="matrix(0.09629629629629627,0,0,0.09629629629629627,0,0)" xlink:href="#bx"/><use transform="matrix(0.09629629629629627,0,0,0.09629629629629627,28.792592592592584,0)" xlink:href="#aL"/><use transform="matrix(0.09629629629629627,0,0,0.09629629629629627,48.051851851851836,0)" xlink:href="#aP"/><use transform="matrix(0.09629629629629627,0,0,0.09629629629629627,59.51111111111109,0)" xlink:href="#aF"/><use transform="matrix(0.09629629629629627,0,0,0.09629629629629627,78.77037037037034,0)" xlink:href="#aI"/><use transform="matrix(0.09629629629629627,0,0,0.09629629629629627,92.25185185185182,0)" xlink:href="#ba"/><use transform="matrix(0.09629629629629627,0,0,0.09629629629629627,101.88148148148146,0)" xlink:href="#aL"/><use transform="matrix(0.09629629629629627,0,0,0.09629629629629627,121.14074074074071,0)" xlink:href="#aO"/><use transform="matrix(0.09629629629629627,0,0,0.09629629629629627,130.77037037037033,0)" xlink:href="#ba"/><use transform="matrix(0.09629629629629627,0,0,0.09629629629629627,140.39999999999995,0)" xlink:href="#bv"/><use transform="matrix(0.09629629629629627,0,0,0.09629629629629627,157.7333333333333,0)" xlink:href="#aF"/><use transform="matrix(0.09629629629629627,0,0,0.09629629629629627,176.99259259259253,0)" xlink:href="#aQ"/><use transform="matrix(0.09629629629629627,0,0,0.09629629629629627,198.08148148148143,0)" xlink:href="#aR"/></g></defs></g></svg>