<svg xmlns="http://www.w3.org/2000/svg" xmlns:xlink="http://www.w3.org/1999/xlink" xmlns:lucid="lucid" width="2655.75" height="2032.37"><g transform="translate(2400.180670889554 1526.2320383497968)" lucid:page-tab-id="ViJke754Nv5g"><path d="M-2379.68-1499.73a6 6 0 0 1 6-6h1853.4a6 6 0 0 1 6 6V479.64a6 6 0 0 1-6 6h-1853.4a6 6 0 0 1-6-6z" stroke="#3a414a" fill-opacity="0"/><path d="M-1973.24-468.68c0 8.94-64.02 16.2-143 16.2s-143-7.26-143-16.2v-129.6c0-8.95 64.02-16.2 143-16.2s143 7.25 143 16.2z" stroke="#3a414a" fill="#edf5ff"/><path d="M-1973.24-598.28c0 8.94-64.02 16.2-143 16.2s-143-7.26-143-16.2" stroke="#3a414a" fill="none"/><use xlink:href="#a" transform="matrix(1,0,0,1,-2254.2438527739996,-577.083893586531) translate(36.65432098765437 47.38888888888888)"/><use xlink:href="#b" transform="matrix(1,0,0,1,-2254.2438527739996,-577.083893586531) translate(138.5432098765432 47.38888888888888)"/><use xlink:href="#c" transform="matrix(1,0,0,1,-2254.2438527739996,-577.083893586531) translate(94.46913580246915 84.7222222222222)"/><path d="M-2013-1461.65c33.23 0 60.17 26.94 60.17 60.18 0 33.24-26.94 60.18-60.18 60.18h-254.68c-33.24 0-60.18-26.93-60.18-60.17s26.94-60.18 60.18-60.18z" stroke="#3a414a" fill="#c3f7c8"/><use xlink:href="#d" transform="matrix(1,0,0,1,-2322.8637060274164,-1456.6497149119093) translate(16.703703703703724 59.48958333333333)"/><use xlink:href="#e" transform="matrix(1,0,0,1,-2322.8637060274164,-1456.6497149119093) translate(129 59.48958333333333)"/><use xlink:href="#f" transform="matrix(1,0,0,1,-2322.8637060274164,-1456.6497149119093) translate(191.07407407407405 59.48958333333333)"/><use xlink:href="#g" transform="matrix(1,0,0,1,-2322.8637060274164,-1456.6497149119093) translate(269.3703703703703 59.48958333333333)"/><path d="M-1635.22-1364.04a8.82 8.82 0 0 1 9.93 0l178.5 121.37a4.08 4.08 0 0 1 0 6.75l-178.5 121.37a8.82 8.82 0 0 1-9.92 0l-178.5-121.37a4.08 4.08 0 0 1 0-6.75z" stroke="#3a414a" fill="#fff"/><use xlink:href="#h" transform="matrix(1,0,0,1,-1813.6704638897625,-1362.4085605521511) translate(58.37537037037038 113.24722222222222)"/><use xlink:href="#i" transform="matrix(1,0,0,1,-1813.6704638897625,-1362.4085605521511) translate(128.405 113.24722222222222)"/><use xlink:href="#j" transform="matrix(1,0,0,1,-1813.6704638897625,-1362.4085605521511) translate(235.6691975308642 113.24722222222222)"/><use xlink:href="#k" transform="matrix(1,0,0,1,-1813.6704638897625,-1362.4085605521511) translate(75.59635802469134 144.18055555555557)"/><use xlink:href="#l" transform="matrix(1,0,0,1,-1813.6704638897625,-1362.4085605521511) translate(141.4012962962963 144.18055555555557)"/><use xlink:href="#m" transform="matrix(1,0,0,1,-1813.6704638897625,-1362.4085605521511) translate(177.20376543209878 144.18055555555557)"/><use xlink:href="#n" transform="matrix(1,0,0,1,-1813.6704638897625,-1362.4085605521511) translate(222.88771604938273 144.18055555555557)"/><path d="M-1368.2-1238.8h-75.8v-1h75.8zm105.84 0h-59.92v-1h59.92z" stroke="#008a0e" stroke-width=".05" fill="#008a0e"/><path d="M-1444-1238.8h-.56l.05-.5-.06-.5h.56z" fill="#008a0e"/><path d="M-1443.98-1238.77h-.6l.04-.52-.05-.52h.62zm-.56-1l.05.48-.04.48h.5v-.95z" stroke="#008a0e" stroke-width=".05" fill="#008a0e"/><path d="M-1247.6-1239.3l-14.26 4.64v-9.27z" fill="#008a0e"/><path d="M-1245.98-1239.3l-16.38 5.33v-10.65zm-15.38 3.95l12.15-3.94-12.16-3.94z" stroke="#008a0e" stroke-width=".05" fill="#008a0e"/><use xlink:href="#o" transform="matrix(1,0,0,1,-1368.2078759185029,-1255.293889773049) translate(0 21.333333333333332)"/><path d="M-1008.97-1239.3H-830.5" stroke="#3a414a" fill="none"/><path d="M-1008.96-1238.8h-.64l.26-1h.38z" stroke="#3a414a" stroke-width=".05" fill="#3a414a"/><path d="M-815.73-1239.3l-14.26 4.64v-9.27z" stroke="#3a414a" fill="#3a414a"/><path d="M-1631.56-1029.03h-1v-18.9h1zm1.8-48.22h-1v-34.78h1z" stroke="#e81313" stroke-width=".05" fill="#e81313"/><path d="M-1630.26-1112.53l.5-.03v.55h-1v-.56z" fill="#e81313"/><path d="M-1630.26-1112.55l.53-.03v.6h-1.05v-.6zm-.47.5h.95v-.48l-.48.03-.47-.03z" stroke="#e81313" stroke-width=".05" fill="#e81313"/><path d="M-1632.06-1014.26l-4.63-14.27h9.28z" fill="#e81313"/><path d="M-1632.06-1012.64l-5.32-16.4h10.65zm-3.94-15.4l3.94 12.16 3.95-12.15z" stroke="#e81313" stroke-width=".05" fill="#e81313"/><use xlink:href="#p" transform="matrix(1,0,0,1,-1647.38410159193,-1077.2501957498505) translate(0 19.555555555555557)"/><path d="M-1635.22-1010.8a8.82 8.82 0 0 1 9.93 0l178.5 121.36a4.08 4.08 0 0 1 0 6.75l-178.5 121.38a8.82 8.82 0 0 1-9.92 0l-178.5-121.37a4.08 4.08 0 0 1 0-6.74z" stroke="#3a414a" fill="#fff"/><use xlink:href="#q" transform="matrix(1,0,0,1,-1813.6704638897625,-1009.179218993947) translate(135.88895061728397 82.37222222222222)"/><use xlink:href="#r" transform="matrix(1,0,0,1,-1813.6704638897625,-1009.179218993947) translate(191.5975925925926 82.37222222222222)"/><use xlink:href="#s" transform="matrix(1,0,0,1,-1813.6704638897625,-1009.179218993947) translate(41.22598765432097 113.30555555555556)"/><use xlink:href="#t" transform="matrix(1,0,0,1,-1813.6704638897625,-1009.179218993947) translate(148.49018518518517 113.30555555555556)"/><use xlink:href="#u" transform="matrix(1,0,0,1,-1813.6704638897625,-1009.179218993947) translate(228.6161111111111 113.30555555555556)"/><use xlink:href="#v" transform="matrix(1,0,0,1,-1813.6704638897625,-1009.179218993947) translate(265.77907407407406 113.30555555555556)"/><use xlink:href="#w" transform="matrix(1,0,0,1,-1813.6704638897625,-1009.179218993947) translate(63.42351851851851 144.2388888888889)"/><use xlink:href="#x" transform="matrix(1,0,0,1,-1813.6704638897625,-1009.179218993947) translate(94.78648148148147 144.2388888888889)"/><use xlink:href="#y" transform="matrix(1,0,0,1,-1813.6704638897625,-1009.179218993947) translate(212.07537037037036 144.2388888888889)"/><use xlink:href="#n" transform="matrix(1,0,0,1,-1813.6704638897625,-1009.179218993947) translate(149.24203703703705 175.17222222222225)"/><path d="M-1262.36-885.22v1h-60.08v-1zm-181.97-2v-1h75.96v1z" stroke="#008a0e" stroke-width=".05" fill="#008a0e"/><path d="M-1444.32-887.22h-.36l-.18-.58-.22-.42h.76z" fill="#008a0e"/><path d="M-1444.3-887.2h-.4l-.18-.6-.24-.44h.83zm-.73-1l.2.4.17.56h.32v-.95z" stroke="#008a0e" stroke-width=".05" fill="#008a0e"/><path d="M-1247.6-884.72l-14.26 4.64v-9.27z" fill="#008a0e"/><path d="M-1245.98-884.72l-16.38 5.33v-10.64zm-15.38 3.95l12.15-3.95-12.16-3.94z" stroke="#008a0e" stroke-width=".05" fill="#008a0e"/><use xlink:href="#o" transform="matrix(1,0,0,1,-1368.366355428558,-902.2165169207511) translate(0 21.333333333333332)"/><path d="M-813.6-1308.3a6 6 0 0 1 6-6h207.36a6 6 0 0 1 6 6v150c-36.63-26.05-59.45-26.05-73.27-26.05-21.94 0-51.12 26.06-73.06 26.06-13.6 0-36.63 0-73.05-26.05z" stroke="#3a414a" fill="#fff"/><use xlink:href="#z" transform="matrix(1,0,0,1,-808.606733425983,-1309.293889773049) translate(3.5 65.62222222222222)"/><use xlink:href="#A" transform="matrix(1,0,0,1,-808.606733425983,-1309.293889773049) translate(99.2358024691358 65.62222222222222)"/><use xlink:href="#B" transform="matrix(1,0,0,1,-808.606733425983,-1309.293889773049) translate(129.2382716049383 65.62222222222222)"/><path d="M-1017.8-884.72h189.9" stroke="#3a414a" fill="none"/><path d="M-1017.78-884.22h-.64l.26-1h.38z" stroke="#3a414a" stroke-width=".05" fill="#3a414a"/><path d="M-813.13-884.7l-14.27 4.62v-9.27z" stroke="#3a414a" fill="#3a414a"/><path d="M-1225.4-1314.5a7.8 7.8 0 0 1 7.54-5.8h223.47a4.6 4.6 0 0 1 4.47 5.8l-40.1 150.4a7.8 7.8 0 0 1-7.56 5.8h-223.46a4.6 4.6 0 0 1-4.45-5.8z" stroke="#3a414a" fill="#fff"/><use xlink:href="#C" transform="matrix(1,0,0,1,-1262.0590280299707,-1315.293889773049) translate(40.29759259259258 63.37222222222222)"/><use xlink:href="#D" transform="matrix(1,0,0,1,-1262.0590280299707,-1315.293889773049) translate(137.6087037037037 63.37222222222222)"/><use xlink:href="#E" transform="matrix(1,0,0,1,-1262.0590280299707,-1315.293889773049) translate(94.02228395061728 94.30555555555556)"/><path d="M-1627.95-675.8h-1v-17.56h1zm-1.8-49.56h-1v-33.44h1z" stroke="#e81313" stroke-width=".05" fill="#e81313"/><path d="M-1630.26-759.3l.5-.03v.55h-1v-.55z" fill="#e81313"/><path d="M-1630.26-759.32l.53-.03v.6h-1.05v-.6zm-.47.5h.95v-.48l-.48.03-.47-.03z" stroke="#e81313" stroke-width=".05" fill="#e81313"/><path d="M-1628.45-661.04l-4.64-14.26h9.28z" fill="#e81313"/><path d="M-1628.45-659.42l-5.33-16.38h10.65zm-3.95-15.38l3.95 12.14 3.94-12.14z" stroke="#e81313" stroke-width=".05" fill="#e81313"/><use xlink:href="#F" transform="matrix(1,0,0,1,-1647.0582862534645,-725.3584843466483) translate(0 21.333333333333332)"/><path d="M-1629.76-324.06h-1v-17.46h1zm0-49.46h-1v-33.34h1z" stroke="#e81313" stroke-width=".05" fill="#e81313"/><path d="M-1630.26-407.36l.5-.03v.56h-1v-.55z" fill="#e81313"/><path d="M-1630.26-407.38l.53-.03v.58h-1.05v-.6zm-.47.5h.95v-.48l-.48.03-.47-.03z" stroke="#e81313" stroke-width=".05" fill="#e81313"/><path d="M-1630.26-309.3l-4.63-14.26h9.28z" fill="#e81313"/><path d="M-1630.26-307.68l-5.32-16.38h10.65zm-3.94-15.38l3.94 12.14 3.95-12.14z" stroke="#e81313" stroke-width=".05" fill="#e81313"/><use xlink:href="#F" transform="matrix(1,0,0,1,-1647.9588514538266,-373.5179101221083) translate(0 21.333333333333332)"/><path d="M-811.02-953.72a6 6 0 0 1 6-6h204.78a6 6 0 0 1 6 6v150c-36.2-26.05-58.75-26.05-72.4-26.05-21.68 0-50.5 26.05-72.2 26.05-13.43 0-36.2 0-72.18-26.05z" stroke="#3a414a" fill="#fff"/><use xlink:href="#z" transform="matrix(1,0,0,1,-806.0158701071617,-954.7156683436124) translate(2 65.62222222222222)"/><use xlink:href="#A" transform="matrix(1,0,0,1,-806.0158701071617,-954.7156683436124) translate(97.7358024691358 65.62222222222222)"/><use xlink:href="#B" transform="matrix(1,0,0,1,-806.0158701071617,-954.7156683436124) translate(127.73827160493828 65.62222222222222)"/><path d="M-1119.46-533.9l1 .23.94.4.87.53.77.66.67.78.52.86.4.95.23 1 .08 1v203.44h-1v-203.4l-.07-.88-.2-.84-.33-.8-.46-.74-.56-.65-.64-.56-.74-.45-.8-.33-.83-.2-.9-.08h-23.13v-1h23.18zm-324.56.92v-1h254.46v1z" stroke="#008a0e" stroke-width=".05" fill="#008a0e"/><path d="M-1444-532.98h-.57l.05-.5-.05-.5h.56z" fill="#008a0e"/><path d="M-1443.98-532.96h-.62l.05-.52-.05-.53h.62zm-.56-1l.04.48-.04.47h.5v-.96z" stroke="#008a0e" stroke-width=".05" fill="#008a0e"/><path d="M-1114.47-309.3l-4.64-14.26h9.26z" fill="#008a0e"/><path d="M-1114.47-307.68l-5.33-16.38h10.65zm-3.95-15.38l3.95 12.14 3.94-12.14z" stroke="#008a0e" stroke-width=".05" fill="#008a0e"/><use xlink:href="#o" transform="matrix(1,0,0,1,-1189.5587910699103,-549.4838935865309) translate(0 21.333333333333332)"/><path d="M-1225.4-959.92a7.8 7.8 0 0 1 7.54-5.8h214.65a4.6 4.6 0 0 1 4.45 5.8l-40.1 150.4a7.8 7.8 0 0 1-7.56 5.8h-214.66a4.6 4.6 0 0 1-4.45-5.8z" stroke="#3a414a" fill="#fff"/><use xlink:href="#G" transform="matrix(1,0,0,1,-1262.0590280299702,-960.7156683436124) translate(49.545740740740754 63.37222222222222)"/><use xlink:href="#H" transform="matrix(1,0,0,1,-1262.0590280299702,-960.7156683436124) translate(168.05191358024692 63.37222222222222)"/><use xlink:href="#I" transform="matrix(1,0,0,1,-1262.0590280299702,-960.7156683436124) translate(50.03092592592593 94.30555555555556)"/><use xlink:href="#J" transform="matrix(1,0,0,1,-1262.0590280299702,-960.7156683436124) translate(128.58154320987654 94.30555555555556)"/><path d="M-1972.24-533.48h139.87" stroke="#3a414a" fill="none"/><path d="M-1972.23-532.98h-.5v-1h.5z" stroke="#3a414a" stroke-width=".05" fill="#3a414a"/><path d="M-1817.6-533.48l-14.27 4.63v-9.27z" stroke="#3a414a" fill="#3a414a"/><path d="M-1635.22-657.6a8.87 8.87 0 0 1 9.93 0l178.5 120.75a4.06 4.06 0 0 1 0 6.73l-178.5 120.74a8.87 8.87 0 0 1-9.92 0l-178.48-120.74a4.06 4.06 0 0 1 0-6.73z" stroke="#3a414a" fill="#fff"/><use xlink:href="#K" transform="matrix(1,0,0,1,-1813.6704638897625,-655.9498774357426) translate(79.89265432098767 97.18472222222222)"/><use xlink:href="#L" transform="matrix(1,0,0,1,-1813.6704638897625,-655.9498774357426) translate(217.08771604938272 97.18472222222222)"/><use xlink:href="#M" transform="matrix(1,0,0,1,-1813.6704638897625,-655.9498774357426) translate(29.34080246913579 128.11805555555557)"/><use xlink:href="#N" transform="matrix(1,0,0,1,-1813.6704638897625,-655.9498774357426) translate(129.3729012345679 128.11805555555557)"/><use xlink:href="#O" transform="matrix(1,0,0,1,-1813.6704638897625,-655.9498774357426) translate(159.37537037037038 128.11805555555557)"/><use xlink:href="#P" transform="matrix(1,0,0,1,-1813.6704638897625,-655.9498774357426) translate(243.7975925925926 128.11805555555557)"/><use xlink:href="#Q" transform="matrix(1,0,0,1,-1813.6704638897625,-655.9498774357426) translate(137.0691975308642 159.0513888888889)"/><path d="M-842.5 123.9h-138.98" stroke="#3a414a" fill="none"/><path d="M-842 124.4h-.5v-1h.5z" stroke="#3a414a" stroke-width=".05" fill="#3a414a"/><path d="M-996.25 123.9l14.27-4.62v9.27z" stroke="#3a414a" fill="#3a414a"/><path d="M-1129.72 205.9v168a6 6 0 0 1-6 6h-367.97" stroke="#3a414a" fill="none"/><path d="M-1129.22 205.93h-1v-.52h1z" stroke="#3a414a" stroke-width=".05" fill="#3a414a"/><path d="M-1518.45 379.9l14.26-4.62v9.27z" stroke="#3a414a" fill="#3a414a"/><path d="M-1119.9 26.03h-1V9.5h1zm5.93-48.53h-1v-32.42h1z" stroke="#e81313" stroke-width=".05" fill="#e81313"/><path d="M-1114.47-55.42l.5-.03v.54h-1v-.55z" fill="#e81313"/><path d="M-1114.47-55.45l.52-.03v.6h-1.05v-.6zm-.48.5h.95v-.48l-.47.03-.48-.03z" stroke="#e81313" stroke-width=".05" fill="#e81313"/><path d="M-1120.4 40.8l-4.65-14.27h9.27z" fill="#e81313"/><path d="M-1120.4 42.4l-5.34-16.37h10.65zm-3.96-15.37l3.95 12.15 3.94-12.15z" stroke="#e81313" stroke-width=".05" fill="#e81313"/><use xlink:href="#F" transform="matrix(1,0,0,1,-1135.146558157124,-22.50493860190867) translate(0 21.333333333333332)"/><path d="M-566.1 188.7c0 8.96-61.66 16.2-137.7 16.2-76.04 0-137.7-7.24-137.7-16.2V59.1c0-8.93 61.66-16.2 137.7-16.2 76.04 0 137.7 7.27 137.7 16.2z" stroke="#3a414a" fill="#edf5ff"/><path d="M-566.1 59.1c0 8.96-61.66 16.2-137.7 16.2-76.04 0-137.7-7.24-137.7-16.2" stroke="#3a414a" fill="none"/><use xlink:href="#R" transform="matrix(1,0,0,1,-836.4902195963197,80.31405796110369) translate(56.21604938271608 66.13888888888889)"/><path d="M-1624.32 205.9v44.54a2.97 2.97 0 0 1-2.97 2.97 2.97 2.97 0 0 0-2.96 2.98v28.65" stroke="#3a414a" fill="none"/><path d="M-1623.82 205.93h-1v-.52h1z" stroke="#3a414a" stroke-width=".05" fill="#3a414a"/><path d="M-1630.26 299.8l-4.63-14.27h9.28z" stroke="#3a414a" fill="#3a414a"/><path d="M-1210.5 48.7a7.8 7.8 0 0 1 7.54-5.8h220.18a4.6 4.6 0 0 1 4.45 5.8l-40.1 150.42a7.8 7.8 0 0 1-7.55 5.8h-220.18a4.6 4.6 0 0 1-4.46-5.8z" stroke="#3a414a" fill="#fff"/><use xlink:href="#S" transform="matrix(1,0,0,1,-1247.1633526047908,47.91405796110368) translate(44.48154320987655 49.30972222222222)"/><use xlink:href="#T" transform="matrix(1,0,0,1,-1247.1633526047908,47.91405796110368) translate(153.17783950617286 49.30972222222222)"/><use xlink:href="#U" transform="matrix(1,0,0,1,-1247.1633526047908,47.91405796110368) translate(37.23339506172839 80.24305555555556)"/><use xlink:href="#V" transform="matrix(1,0,0,1,-1247.1633526047908,47.91405796110368) translate(101.53462962962963 80.24305555555556)"/><use xlink:href="#W" transform="matrix(1,0,0,1,-1247.1633526047908,47.91405796110368) translate(109.25191358024692 111.1763888888889)"/><path d="M-1635.7 26.03h-1V1.23h1zm5.94-56.8h-1V-54.9h1z" stroke="#e81313" stroke-width=".05" fill="#e81313"/><path d="M-1630.26-55.42l.5-.03v.54h-1v-.55z" fill="#e81313"/><path d="M-1630.26-55.45l.53-.03v.6h-1.05v-.6zm-.47.5h.95v-.48l-.48.03-.47-.03z" stroke="#e81313" stroke-width=".05" fill="#e81313"/><path d="M-1636.2 40.8l-4.63-14.27h9.27z" fill="#e81313"/><path d="M-1636.2 42.4l-5.32-16.37h10.65zm-3.94-15.37l3.95 12.15 3.95-12.15z" stroke="#e81313" stroke-width=".05" fill="#e81313"/><g><use xlink:href="#F" transform="matrix(1,0,0,1,-1647.9588514538266,-30.764098528543393) translate(0 21.333333333333332)"/></g><path d="M-1395.33-181.05h-32.8v-1h32.8zm94.62 0h-48.7v-1h48.7z" stroke="#008a0e" stroke-width=".05" fill="#008a0e"/><path d="M-1300.2-181.55l.04.5h-.56v-1h.56z" fill="#008a0e"/><path d="M-1300.18-181.55l.05.52h-.6v-1.05h.6zm-.5-.48v.95h.5l-.05-.47.05-.48z" stroke="#008a0e" stroke-width=".05" fill="#008a0e"/><path d="M-1428.64-176.92l-14.26-4.63 14.26-4.64z" fill="#008a0e"/><path d="M-1428.14-176.23l-16.38-5.32 16.38-5.32zm-13.15-5.32l12.16 3.95v-7.9z" stroke="#008a0e" stroke-width=".05" fill="#008a0e"/><g><use xlink:href="#o" transform="matrix(1,0,0,1,-1395.3271553715476,-197.55192588810792) translate(0 21.333333333333332)"/></g><path d="M-1119.44-305.66a8.87 8.87 0 0 1 9.94 0l178.47 120.75a4.06 4.06 0 0 1 0 6.7L-1109.5-57.44a8.87 8.87 0 0 1-9.94 0l-178.48-120.74a4.06 4.06 0 0 1 0-6.7z" stroke="#3a414a" fill="#fff"/><g><use xlink:href="#X" transform="matrix(1,0,0,1,-1297.8885528590147,-304.0179097373195) translate(47.70623456790123 112.49722222222222)"/><use xlink:href="#Y" transform="matrix(1,0,0,1,-1297.8885528590147,-304.0179097373195) translate(102.05438271604937 112.49722222222222)"/><use xlink:href="#Z" transform="matrix(1,0,0,1,-1297.8885528590147,-304.0179097373195) translate(182.1803086419753 112.49722222222222)"/><use xlink:href="#aa" transform="matrix(1,0,0,1,-1297.8885528590147,-304.0179097373195) translate(129.9087037037037 143.43055555555557)"/></g><path d="M-1739.94 307.9a6 6 0 0 1 6-6h207.37a6 6 0 0 1 6 6v150c-36.63-26.04-59.45-26.04-73.27-26.04-21.94 0-51.1 26.05-73.05 26.05-13.6 0-36.62 0-73.04-26.04z" stroke="#3a414a" fill="#fff"/><g><use xlink:href="#z" transform="matrix(1,0,0,1,-1734.9395707432543,306.9140579611037) translate(3.5 65.62222222222222)"/><use xlink:href="#A" transform="matrix(1,0,0,1,-1734.9395707432543,306.9140579611037) translate(99.2358024691358 65.62222222222222)"/><use xlink:href="#B" transform="matrix(1,0,0,1,-1734.9395707432543,306.9140579611037) translate(129.2382716049383 65.62222222222222)"/></g><path d="M-1726.3 48.7a7.8 7.8 0 0 1 7.56-5.8h220.17a4.6 4.6 0 0 1 4.46 5.8l-40.12 150.42a7.8 7.8 0 0 1-7.55 5.8h-220.17a4.6 4.6 0 0 1-4.46-5.8z" stroke="#3a414a" fill="#fff"/><g><use xlink:href="#ab" transform="matrix(1,0,0,1,-1762.9452636355386,47.91405796110368) translate(44.481543209876534 49.30972222222222)"/><use xlink:href="#ac" transform="matrix(1,0,0,1,-1762.9452636355386,47.91405796110368) translate(126.03956790123456 49.30972222222222)"/><use xlink:href="#ad" transform="matrix(1,0,0,1,-1762.9452636355386,47.91405796110368) translate(88.0012962962963 80.24305555555556)"/><use xlink:href="#ae" transform="matrix(1,0,0,1,-1762.9452636355386,47.91405796110368) translate(57.80376543209878 111.1763888888889)"/></g><path d="M-2030.56-181.05h-77.1l-.9.07-.83.2-.78.33-.74.45-.66.56-.56.66-.45.73-.32.8-.2.84-.07.87V26.03h-1v-201.6l.1-1 .23-1 .4-.93.52-.87.66-.78.8-.66.86-.54.94-.4 1-.23 1-.08h77.14zm214.07 0h-168.13v-1h168.14z" stroke="#008a0e" stroke-width=".05" fill="#008a0e"/><path d="M-1816-181.55l.06.5h-.56v-1h.56z" fill="#008a0e"/><path d="M-1815.96-181.55l.05.52h-.63v-1.05h.62zm-.52-.48v.95h.5l-.03-.47.03-.48z" stroke="#008a0e" stroke-width=".05" fill="#008a0e"/><path d="M-2113.7 40.8l-4.62-14.27h9.27z" fill="#008a0e"/><path d="M-2113.7 42.4l-5.3-16.37h10.64zm-3.94-15.37l3.95 12.15 3.96-12.15z" stroke="#008a0e" stroke-width=".05" fill="#008a0e"/><g><use xlink:href="#o" transform="matrix(1,0,0,1,-2030.55793843612,-197.55192588810792) translate(0 21.333333333333332)"/></g><path d="M-2129.42 205.9v168a6 6 0 0 0 6 6h366.6" stroke="#3a414a" fill="none"/><path d="M-2128.92 205.93h-1v-.52h1z" stroke="#3a414a" stroke-width=".05" fill="#3a414a"/><path d="M-1742.06 379.9l-14.26 4.65v-9.27z" stroke="#3a414a" fill="#3a414a"/><path d="M-2140.35-1340.3v95a6 6 0 0 0 6 6h301.97" stroke="#3a414a" fill="none"/><path d="M-2139.85-1340.27h-1v-.52h1z" stroke="#3a414a" stroke-width=".05" fill="#3a414a"/><path d="M-1817.62-1239.3l-14.26 4.64v-9.27z" stroke="#3a414a" fill="#3a414a"/><path d="M-2217.6 48.7a7.8 7.8 0 0 1 7.56-5.8h220.18a4.6 4.6 0 0 1 4.45 5.8l-40.12 150.42a7.8 7.8 0 0 1-7.54 5.8h-220.18a4.6 4.6 0 0 1-4.46-5.8z" stroke="#3a414a" fill="#fff"/><g><use xlink:href="#af" transform="matrix(1,0,0,1,-2254.2438527739996,47.91405796110371) translate(100.30623456790123 63.37222222222222)"/><use xlink:href="#ag" transform="matrix(1,0,0,1,-2254.2438527739996,47.91405796110371) translate(21.024753086419746 94.30555555555556)"/><use xlink:href="#ah" transform="matrix(1,0,0,1,-2254.2438527739996,47.91405796110371) translate(176.9803086419753 94.30555555555556)"/></g><path d="M-1635.22-305.66a8.87 8.87 0 0 1 9.93 0l178.5 120.75a4.06 4.06 0 0 1 0 6.7l-178.5 120.75a8.87 8.87 0 0 1-9.92 0L-1813.7-178.2a4.06 4.06 0 0 1 0-6.7z" stroke="#3a414a" fill="#fff"/><g><use xlink:href="#ai" transform="matrix(1,0,0,1,-1813.6704638897625,-304.0179097373195) translate(119.9198148148148 112.49722222222222)"/><use xlink:href="#aj" transform="matrix(1,0,0,1,-1813.6704638897625,-304.0179097373195) translate(148.56179012345677 112.49722222222222)"/><use xlink:href="#ak" transform="matrix(1,0,0,1,-1813.6704638897625,-304.0179097373195) translate(194.24574074074073 112.49722222222222)"/><use xlink:href="#al" transform="matrix(1,0,0,1,-1813.6704638897625,-304.0179097373195) translate(102.01858024691359 143.43055555555557)"/></g><defs><path fill="#3a414a" d="M169-182c-1-43-94-46-97-3 18 66 151 10 154 114 3 95-165 93-204 36-6-8-10-19-12-30l50-8c3 46 112 56 116 5-17-69-150-10-154-114-4-87 153-88 188-35 5 8 8 18 10 28" id="am"/><path fill="#3a414a" d="M25-224v-37h50v37H25zM25 0v-190h50V0H25" id="an"/><path fill="#3a414a" d="M195-6C206 82 75 100 31 46c-4-6-6-13-8-21l49-6c3 16 16 24 34 25 40 0 42-37 40-79-11 22-30 35-61 35-53 0-70-43-70-97 0-56 18-96 73-97 30 0 46 14 59 34l2-30h47zm-90-29c32 0 41-27 41-63 0-35-9-62-40-62-32 0-39 29-40 63 0 36 9 62 39 62" id="ao"/><path fill="#3a414a" d="M220-157c-53 9-28 100-34 157h-49v-107c1-27-5-49-29-50C55-147 81-57 75 0H25l-1-190h47c2 12-1 28 3 38 10-53 101-56 108 0 13-22 24-43 59-42 82 1 51 116 57 194h-49v-107c-1-25-5-48-29-50" id="ap"/><path fill="#3a414a" d="M133-34C117-15 103 5 69 4 32 3 11-16 11-54c-1-60 55-63 116-61 1-26-3-47-28-47-18 1-26 9-28 27l-52-2c7-38 36-58 82-57s74 22 75 68l1 82c-1 14 12 18 25 15v27c-30 8-71 5-69-32zm-48 3c29 0 43-24 42-57-32 0-66-3-65 30 0 17 8 27 23 27" id="aq"/><g id="a"><use transform="matrix(0.0864197530864197,0,0,0.0864197530864197,0,0)" xlink:href="#am"/><use transform="matrix(0.0864197530864197,0,0,0.0864197530864197,20.74074074074073,0)" xlink:href="#an"/><use transform="matrix(0.0864197530864197,0,0,0.0864197530864197,29.3827160493827,0)" xlink:href="#ao"/><use transform="matrix(0.0864197530864197,0,0,0.0864197530864197,48.30864197530862,0)" xlink:href="#ap"/><use transform="matrix(0.0864197530864197,0,0,0.0864197530864197,75.96296296296292,0)" xlink:href="#aq"/></g><path fill="#3a414a" d="M135-150c-39-12-60 13-60 57V0H25l-1-190h47c2 13-1 29 3 40 6-28 27-53 61-41v41" id="ar"/><path fill="#3a414a" d="M185-48c-13 30-37 53-82 52C43 2 14-33 14-96s30-98 90-98c62 0 83 45 84 108H66c0 31 8 55 39 56 18 0 30-7 34-22zm-45-69c5-46-57-63-70-21-2 6-4 13-4 21h74" id="as"/><path fill="#3a414a" d="M137-138c1-29-70-34-71-4 15 46 118 7 119 86 1 83-164 76-172 9l43-7c4 19 20 25 44 25 33 8 57-30 24-41C81-84 22-81 20-136c-2-80 154-74 161-7" id="at"/><path fill="#3a414a" d="M85 4C-2 5 27-109 22-190h50c7 57-23 150 33 157 60-5 35-97 40-157h50l1 190h-47c-2-12 1-28-3-38-12 25-28 42-61 42" id="au"/><path fill="#3a414a" d="M25 0v-261h50V0H25" id="av"/><path fill="#3a414a" d="M115-3C79 11 28 4 28-45v-112H4v-33h27l15-45h31v45h36v33H77v99c-1 23 16 31 38 25v30" id="aw"/><g id="b"><use transform="matrix(0.0864197530864197,0,0,0.0864197530864197,0,0)" xlink:href="#ar"/><use transform="matrix(0.0864197530864197,0,0,0.0864197530864197,12.098765432098759,0)" xlink:href="#as"/><use transform="matrix(0.0864197530864197,0,0,0.0864197530864197,29.3827160493827,0)" xlink:href="#at"/><use transform="matrix(0.0864197530864197,0,0,0.0864197530864197,46.66666666666664,0)" xlink:href="#au"/><use transform="matrix(0.0864197530864197,0,0,0.0864197530864197,65.59259259259255,0)" xlink:href="#av"/><use transform="matrix(0.0864197530864197,0,0,0.0864197530864197,74.23456790123453,0)" xlink:href="#aw"/><use transform="matrix(0.0864197530864197,0,0,0.0864197530864197,84.51851851851848,0)" xlink:href="#at"/></g><path fill="#3a414a" d="M190-63c-7 42-38 67-86 67-59 0-84-38-90-98-12-110 154-137 174-36l-49 2c-2-19-15-32-35-32-30 0-35 28-38 64-6 74 65 87 74 30" id="ax"/><path fill="#3a414a" d="M114-157C55-157 80-60 75 0H25v-261h50l-1 109c12-26 28-41 61-42 86-1 58 113 63 194h-50c-7-57 23-157-34-157" id="ay"/><g id="c"><use transform="matrix(0.0864197530864197,0,0,0.0864197530864197,0,0)" xlink:href="#ax"/><use transform="matrix(0.0864197530864197,0,0,0.0864197530864197,17.283950617283942,0)" xlink:href="#aq"/><use transform="matrix(0.0864197530864197,0,0,0.0864197530864197,34.567901234567884,0)" xlink:href="#ax"/><use transform="matrix(0.0864197530864197,0,0,0.0864197530864197,51.851851851851826,0)" xlink:href="#ay"/><use transform="matrix(0.0864197530864197,0,0,0.0864197530864197,70.77777777777774,0)" xlink:href="#as"/></g><path fill="#3a414a" d="M240-174c0 40-23 61-54 70L253 0h-59l-57-94H76V0H24v-248c93 4 217-23 216 74zM76-134c48-2 112 12 112-38 0-48-66-32-112-35v73" id="az"/><path fill="#3a414a" d="M84 4C32 4 15-41 15-95c0-55 18-99 73-99 29 0 47 12 58 34l2-30h48l-1 265h-49V-32C136-9 114 4 84 4zm21-34c32 0 41-29 41-66 0-36-9-64-40-64-33 0-39 30-40 65 0 43 13 65 39 65" id="aA"/><g id="d"><use transform="matrix(0.07407407407407407,0,0,0.07407407407407407,0,0)" xlink:href="#az"/><use transform="matrix(0.07407407407407407,0,0,0.07407407407407407,19.185185185185183,0)" xlink:href="#as"/><use transform="matrix(0.07407407407407407,0,0,0.07407407407407407,34,0)" xlink:href="#aA"/><use transform="matrix(0.07407407407407407,0,0,0.07407407407407407,50.22222222222222,0)" xlink:href="#au"/><use transform="matrix(0.07407407407407407,0,0,0.07407407407407407,66.44444444444444,0)" xlink:href="#as"/><use transform="matrix(0.07407407407407407,0,0,0.07407407407407407,81.25925925925925,0)" xlink:href="#at"/><use transform="matrix(0.07407407407407407,0,0,0.07407407407407407,96.07407407407406,0)" xlink:href="#aw"/></g><path fill="#3a414a" d="M88-194c31-1 46 15 58 34l-1-101h50l1 261h-48c-2-10 0-23-3-31C134-8 116 4 84 4 32 4 16-41 15-95c0-56 19-97 73-99zm17 164c33 0 40-30 41-66 1-37-9-64-41-64s-38 30-39 65c0 43 13 65 39 65" id="aB"/><g id="e"><use transform="matrix(0.07407407407407407,0,0,0.07407407407407407,0,0)" xlink:href="#aB"/><use transform="matrix(0.07407407407407407,0,0,0.07407407407407407,16.22222222222222,0)" xlink:href="#aq"/><use transform="matrix(0.07407407407407407,0,0,0.07407407407407407,31.037037037037035,0)" xlink:href="#aw"/><use transform="matrix(0.07407407407407407,0,0,0.07407407407407407,39.85185185185185,0)" xlink:href="#aq"/></g><path fill="#3a414a" d="M135-194c87-1 58 113 63 194h-50c-7-57 23-157-34-157-59 0-34 97-39 157H25l-1-190h47c2 12-1 28 3 38 12-26 28-41 61-42" id="aC"/><g id="f"><use transform="matrix(0.07407407407407407,0,0,0.07407407407407407,0,0)" xlink:href="#au"/><use transform="matrix(0.07407407407407407,0,0,0.07407407407407407,16.22222222222222,0)" xlink:href="#at"/><use transform="matrix(0.07407407407407407,0,0,0.07407407407407407,31.037037037037035,0)" xlink:href="#an"/><use transform="matrix(0.07407407407407407,0,0,0.07407407407407407,38.44444444444444,0)" xlink:href="#aC"/><use transform="matrix(0.07407407407407407,0,0,0.07407407407407407,54.666666666666664,0)" xlink:href="#ao"/></g><g id="g"><use transform="matrix(0.07407407407407407,0,0,0.07407407407407407,0,0)" xlink:href="#am"/><use transform="matrix(0.07407407407407407,0,0,0.07407407407407407,17.77777777777778,0)" xlink:href="#an"/><use transform="matrix(0.07407407407407407,0,0,0.07407407407407407,25.185185185185183,0)" xlink:href="#ao"/><use transform="matrix(0.07407407407407407,0,0,0.07407407407407407,41.407407407407405,0)" xlink:href="#ap"/><use transform="matrix(0.07407407407407407,0,0,0.07407407407407407,65.11111111111111,0)" xlink:href="#aq"/></g><path d="M24-248c120-7 223 5 221 122C244-46 201 0 124 0H24v-248zM76-40c74 7 117-18 117-86 0-67-45-88-117-82v168" id="aD"/><path d="M110-194c64 0 96 36 96 99 0 64-35 99-97 99-61 0-95-36-95-99 0-62 34-99 96-99zm-1 164c35 0 45-28 45-65 0-40-10-65-43-65-34 0-45 26-45 65 0 36 10 65 43 65" id="aE"/><path d="M185-48c-13 30-37 53-82 52C43 2 14-33 14-96s30-98 90-98c62 0 83 45 84 108H66c0 31 8 55 39 56 18 0 30-7 34-22zm-45-69c5-46-57-63-70-21-2 6-4 13-4 21h74" id="aF"/><path d="M137-138c1-29-70-34-71-4 15 46 118 7 119 86 1 83-164 76-172 9l43-7c4 19 20 25 44 25 33 8 57-30 24-41C81-84 22-81 20-136c-2-80 154-74 161-7" id="aG"/><g id="h"><use transform="matrix(0.07160493827160494,0,0,0.07160493827160494,0,0)" xlink:href="#aD"/><use transform="matrix(0.07160493827160494,0,0,0.07160493827160494,18.54567901234568,0)" xlink:href="#aE"/><use transform="matrix(0.07160493827160494,0,0,0.07160493827160494,34.227160493827164,0)" xlink:href="#aF"/><use transform="matrix(0.07160493827160494,0,0,0.07160493827160494,48.54814814814815,0)" xlink:href="#aG"/></g><path d="M135-194c52 0 70 43 70 98 0 56-19 99-73 100-30 1-46-15-58-35L72 0H24l1-261h50v104c11-23 29-37 60-37zM114-30c31 0 40-27 40-66 0-37-7-63-39-63s-41 28-41 65c0 36 8 64 40 64" id="aH"/><path d="M135-150c-39-12-60 13-60 57V0H25l-1-190h47c2 13-1 29 3 40 6-28 27-53 61-41v41" id="aI"/><path d="M231 0h-52l-39-155L100 0H48L-1-190h46L77-45c9-52 24-97 36-145h53l37 145 32-145h46" id="aJ"/><g id="i"><use transform="matrix(0.07160493827160494,0,0,0.07160493827160494,0,0)" xlink:href="#aH"/><use transform="matrix(0.07160493827160494,0,0,0.07160493827160494,15.681481481481482,0)" xlink:href="#aI"/><use transform="matrix(0.07160493827160494,0,0,0.07160493827160494,25.706172839506173,0)" xlink:href="#aE"/><use transform="matrix(0.07160493827160494,0,0,0.07160493827160494,41.38765432098766,0)" xlink:href="#aJ"/><use transform="matrix(0.07160493827160494,0,0,0.07160493827160494,61.437037037037044,0)" xlink:href="#aG"/><use transform="matrix(0.07160493827160494,0,0,0.07160493827160494,75.75802469135803,0)" xlink:href="#aF"/><use transform="matrix(0.07160493827160494,0,0,0.07160493827160494,90.07901234567902,0)" xlink:href="#aI"/></g><path d="M190-63c-7 42-38 67-86 67-59 0-84-38-90-98-12-110 154-137 174-36l-49 2c-2-19-15-32-35-32-30 0-35 28-38 64-6 74 65 87 74 30" id="aK"/><path d="M133-34C117-15 103 5 69 4 32 3 11-16 11-54c-1-60 55-63 116-61 1-26-3-47-28-47-18 1-26 9-28 27l-52-2c7-38 36-58 82-57s74 22 75 68l1 82c-1 14 12 18 25 15v27c-30 8-71 5-69-32zm-48 3c29 0 43-24 42-57-32 0-66-3-65 30 0 17 8 27 23 27" id="aL"/><path d="M114-157C55-157 80-60 75 0H25v-261h50l-1 109c12-26 28-41 61-42 86-1 58 113 63 194h-50c-7-57 23-157-34-157" id="aM"/><g id="j"><use transform="matrix(0.07160493827160494,0,0,0.07160493827160494,0,0)" xlink:href="#aK"/><use transform="matrix(0.07160493827160494,0,0,0.07160493827160494,14.320987654320987,0)" xlink:href="#aL"/><use transform="matrix(0.07160493827160494,0,0,0.07160493827160494,28.641975308641975,0)" xlink:href="#aK"/><use transform="matrix(0.07160493827160494,0,0,0.07160493827160494,42.96296296296296,0)" xlink:href="#aM"/><use transform="matrix(0.07160493827160494,0,0,0.07160493827160494,58.644444444444446,0)" xlink:href="#aF"/></g><path d="M128 0H69L1-190h53L99-40l48-150h52" id="aN"/><g id="k"><use transform="matrix(0.07160493827160494,0,0,0.07160493827160494,0,0)" xlink:href="#aM"/><use transform="matrix(0.07160493827160494,0,0,0.07160493827160494,15.681481481481482,0)" xlink:href="#aL"/><use transform="matrix(0.07160493827160494,0,0,0.07160493827160494,30.00246913580247,0)" xlink:href="#aN"/><use transform="matrix(0.07160493827160494,0,0,0.07160493827160494,44.32345679012346,0)" xlink:href="#aF"/></g><path d="M25 0v-261h50V0H25" id="aO"/><g id="l"><use transform="matrix(0.07160493827160494,0,0,0.07160493827160494,0,0)" xlink:href="#aL"/><use transform="matrix(0.07160493827160494,0,0,0.07160493827160494,14.320987654320987,0)" xlink:href="#aO"/><use transform="matrix(0.07160493827160494,0,0,0.07160493827160494,21.48148148148148,0)" xlink:href="#aO"/></g><path d="M115-3C79 11 28 4 28-45v-112H4v-33h27l15-45h31v45h36v33H77v99c-1 23 16 31 38 25v30" id="aP"/><g id="m"><use transform="matrix(0.07160493827160494,0,0,0.07160493827160494,0,0)" xlink:href="#aP"/><use transform="matrix(0.07160493827160494,0,0,0.07160493827160494,8.520987654320988,0)" xlink:href="#aM"/><use transform="matrix(0.07160493827160494,0,0,0.07160493827160494,24.20246913580247,0)" xlink:href="#aF"/></g><path d="M88-194c31-1 46 15 58 34l-1-101h50l1 261h-48c-2-10 0-23-3-31C134-8 116 4 84 4 32 4 16-41 15-95c0-56 19-97 73-99zm17 164c33 0 40-30 41-66 1-37-9-64-41-64s-38 30-39 65c0 43 13 65 39 65" id="aQ"/><path d="M110-251c83-7 118 89 53 130-17 10-36 21-38 46H78c2-56 65-53 71-103 2-21-15-35-38-34-25 1-41 14-44 38l-50-2c6-48 39-70 93-75zM77 0v-47h51V0H77" id="aR"/><g id="n"><use transform="matrix(0.07160493827160494,0,0,0.07160493827160494,0,0)" xlink:href="#aQ"/><use transform="matrix(0.07160493827160494,0,0,0.07160493827160494,15.681481481481482,0)" xlink:href="#aL"/><use transform="matrix(0.07160493827160494,0,0,0.07160493827160494,30.00246913580247,0)" xlink:href="#aP"/><use transform="matrix(0.07160493827160494,0,0,0.07160493827160494,38.523456790123454,0)" xlink:href="#aL"/><use transform="matrix(0.07160493827160494,0,0,0.07160493827160494,52.84444444444445,0)" xlink:href="#aR"/></g><path fill="#333" d="M146-102V0H94v-102L6-248h54l60 105 60-105h54" id="aS"/><path fill="#333" d="M185-48c-13 30-37 53-82 52C43 2 14-33 14-96s30-98 90-98c62 0 83 45 84 108H66c0 31 8 55 39 56 18 0 30-7 34-22zm-45-69c5-46-57-63-70-21-2 6-4 13-4 21h74" id="aT"/><path fill="#333" d="M137-138c1-29-70-34-71-4 15 46 118 7 119 86 1 83-164 76-172 9l43-7c4 19 20 25 44 25 33 8 57-30 24-41C81-84 22-81 20-136c-2-80 154-74 161-7" id="aU"/><g id="o"><use transform="matrix(0.07407407407407407,0,0,0.07407407407407407,0,0)" xlink:href="#aS"/><use transform="matrix(0.07407407407407407,0,0,0.07407407407407407,16.296296296296298,0)" xlink:href="#aT"/><use transform="matrix(0.07407407407407407,0,0,0.07407407407407407,31.11111111111111,0)" xlink:href="#aU"/></g><path fill="#333" d="M175 0L67-191c6 58 2 128 3 191H24v-248h59L193-55c-6-58-2-129-3-193h46V0h-61" id="aV"/><path fill="#333" d="M110-194c64 0 96 36 96 99 0 64-35 99-97 99-61 0-95-36-95-99 0-62 34-99 96-99zm-1 164c35 0 45-28 45-65 0-40-10-65-43-65-34 0-45 26-45 65 0 36 10 65 43 65" id="aW"/><g id="p"><use transform="matrix(0.06790123456790123,0,0,0.06790123456790123,0,0)" xlink:href="#aV"/><use transform="matrix(0.06790123456790123,0,0,0.06790123456790123,17.586419753086417,0)" xlink:href="#aW"/></g><path d="M67-125c0 53 21 87 73 88 37 1 54-22 65-47l45 17C233-25 199 4 140 4 58 4 20-42 15-125 8-235 124-281 211-232c18 10 29 29 36 50l-46 12c-8-25-30-41-62-41-52 0-71 34-72 86" id="aX"/><path d="M135-194c87-1 58 113 63 194h-50c-7-57 23-157-34-157-59 0-34 97-39 157H25l-1-190h47c2 12-1 28 3 38 12-26 28-41 61-42" id="aY"/><g id="q"><use transform="matrix(0.07160493827160494,0,0,0.07160493827160494,0,0)" xlink:href="#aX"/><use transform="matrix(0.07160493827160494,0,0,0.07160493827160494,18.54567901234568,0)" xlink:href="#aL"/><use transform="matrix(0.07160493827160494,0,0,0.07160493827160494,32.86666666666667,0)" xlink:href="#aY"/></g><g id="r"><use transform="matrix(0.07160493827160494,0,0,0.07160493827160494,0,0)" xlink:href="#aP"/><use transform="matrix(0.07160493827160494,0,0,0.07160493827160494,8.520987654320988,0)" xlink:href="#aM"/><use transform="matrix(0.07160493827160494,0,0,0.07160493827160494,24.20246913580247,0)" xlink:href="#aF"/></g><g id="s"><use transform="matrix(0.07160493827160494,0,0,0.07160493827160494,0,0)" xlink:href="#aH"/><use transform="matrix(0.07160493827160494,0,0,0.07160493827160494,15.681481481481482,0)" xlink:href="#aI"/><use transform="matrix(0.07160493827160494,0,0,0.07160493827160494,25.706172839506173,0)" xlink:href="#aE"/><use transform="matrix(0.07160493827160494,0,0,0.07160493827160494,41.38765432098766,0)" xlink:href="#aJ"/><use transform="matrix(0.07160493827160494,0,0,0.07160493827160494,61.437037037037044,0)" xlink:href="#aG"/><use transform="matrix(0.07160493827160494,0,0,0.07160493827160494,75.75802469135803,0)" xlink:href="#aF"/><use transform="matrix(0.07160493827160494,0,0,0.07160493827160494,90.07901234567902,0)" xlink:href="#aI"/></g><g id="t"><use transform="matrix(0.07160493827160494,0,0,0.07160493827160494,0,0)" xlink:href="#aK"/><use transform="matrix(0.07160493827160494,0,0,0.07160493827160494,14.320987654320987,0)" xlink:href="#aL"/><use transform="matrix(0.07160493827160494,0,0,0.07160493827160494,28.641975308641975,0)" xlink:href="#aK"/><use transform="matrix(0.07160493827160494,0,0,0.07160493827160494,42.96296296296296,0)" xlink:href="#aM"/><use transform="matrix(0.07160493827160494,0,0,0.07160493827160494,58.644444444444446,0)" xlink:href="#aF"/></g><g id="u"><use transform="matrix(0.07160493827160494,0,0,0.07160493827160494,0,0)" xlink:href="#aH"/><use transform="matrix(0.07160493827160494,0,0,0.07160493827160494,15.681481481481482,0)" xlink:href="#aF"/></g><path d="M85 4C-2 5 27-109 22-190h50c7 57-23 150 33 157 60-5 35-97 40-157h50l1 190h-47c-2-12 1-28-3-38-12 25-28 42-61 42" id="aZ"/><g id="v"><use transform="matrix(0.07160493827160494,0,0,0.07160493827160494,0,0)" xlink:href="#aZ"/><use transform="matrix(0.07160493827160494,0,0,0.07160493827160494,15.681481481481482,0)" xlink:href="#aG"/><use transform="matrix(0.07160493827160494,0,0,0.07160493827160494,30.00246913580247,0)" xlink:href="#aF"/><use transform="matrix(0.07160493827160494,0,0,0.07160493827160494,44.32345679012346,0)" xlink:href="#aQ"/></g><g id="w"><use transform="matrix(0.07160493827160494,0,0,0.07160493827160494,0,0)" xlink:href="#aP"/><use transform="matrix(0.07160493827160494,0,0,0.07160493827160494,8.520987654320988,0)" xlink:href="#aE"/></g><g id="x"><use transform="matrix(0.07160493827160494,0,0,0.07160493827160494,0,0)" xlink:href="#aK"/><use transform="matrix(0.07160493827160494,0,0,0.07160493827160494,14.320987654320987,0)" xlink:href="#aL"/><use transform="matrix(0.07160493827160494,0,0,0.07160493827160494,28.641975308641975,0)" xlink:href="#aO"/><use transform="matrix(0.07160493827160494,0,0,0.07160493827160494,35.80246913580247,0)" xlink:href="#aK"/><use transform="matrix(0.07160493827160494,0,0,0.07160493827160494,50.123456790123456,0)" xlink:href="#aZ"/><use transform="matrix(0.07160493827160494,0,0,0.07160493827160494,65.80493827160494,0)" xlink:href="#aO"/><use transform="matrix(0.07160493827160494,0,0,0.07160493827160494,72.96543209876543,0)" xlink:href="#aL"/><use transform="matrix(0.07160493827160494,0,0,0.07160493827160494,87.28641975308642,0)" xlink:href="#aP"/><use transform="matrix(0.07160493827160494,0,0,0.07160493827160494,95.80740740740741,0)" xlink:href="#aF"/></g><path d="M25-224v-37h50v37H25zM25 0v-190h50V0H25" id="ba"/><g id="y"><use transform="matrix(0.07160493827160494,0,0,0.07160493827160494,0,0)" xlink:href="#aQ"/><use transform="matrix(0.07160493827160494,0,0,0.07160493827160494,15.681481481481482,0)" xlink:href="#aF"/><use transform="matrix(0.07160493827160494,0,0,0.07160493827160494,30.00246913580247,0)" xlink:href="#aG"/><use transform="matrix(0.07160493827160494,0,0,0.07160493827160494,44.32345679012346,0)" xlink:href="#ba"/><use transform="matrix(0.07160493827160494,0,0,0.07160493827160494,51.48395061728395,0)" xlink:href="#aI"/><use transform="matrix(0.07160493827160494,0,0,0.07160493827160494,61.50864197530864,0)" xlink:href="#aF"/><use transform="matrix(0.07160493827160494,0,0,0.07160493827160494,75.82962962962964,0)" xlink:href="#aQ"/></g><path d="M240-174c0 40-23 61-54 70L253 0h-59l-57-94H76V0H24v-248c93 4 217-23 216 74zM76-134c48-2 112 12 112-38 0-48-66-32-112-35v73" id="bb"/><g id="z"><use transform="matrix(0.07160493827160494,0,0,0.07160493827160494,0,0)" xlink:href="#bb"/><use transform="matrix(0.07160493827160494,0,0,0.07160493827160494,18.54567901234568,0)" xlink:href="#aF"/><use transform="matrix(0.07160493827160494,0,0,0.07160493827160494,32.86666666666667,0)" xlink:href="#aY"/><use transform="matrix(0.07160493827160494,0,0,0.07160493827160494,48.54814814814815,0)" xlink:href="#aQ"/><use transform="matrix(0.07160493827160494,0,0,0.07160493827160494,64.22962962962963,0)" xlink:href="#aF"/><use transform="matrix(0.07160493827160494,0,0,0.07160493827160494,78.55061728395061,0)" xlink:href="#aI"/></g><g id="A"><use transform="matrix(0.07160493827160494,0,0,0.07160493827160494,0,0)" xlink:href="#ba"/><use transform="matrix(0.07160493827160494,0,0,0.07160493827160494,7.160493827160494,0)" xlink:href="#aY"/></g><path d="M169-182c-1-43-94-46-97-3 18 66 151 10 154 114 3 95-165 93-204 36-6-8-10-19-12-30l50-8c3 46 112 56 116 5-17-69-150-10-154-114-4-87 153-88 188-35 5 8 8 18 10 28" id="bc"/><path d="M195-6C206 82 75 100 31 46c-4-6-6-13-8-21l49-6c3 16 16 24 34 25 40 0 42-37 40-79-11 22-30 35-61 35-53 0-70-43-70-97 0-56 18-96 73-97 30 0 46 14 59 34l2-30h47zm-90-29c32 0 41-27 41-63 0-35-9-62-40-62-32 0-39 29-40 63 0 36 9 62 39 62" id="bd"/><path d="M220-157c-53 9-28 100-34 157h-49v-107c1-27-5-49-29-50C55-147 81-57 75 0H25l-1-190h47c2 12-1 28 3 38 10-53 101-56 108 0 13-22 24-43 59-42 82 1 51 116 57 194h-49v-107c-1-25-5-48-29-50" id="be"/><g id="B"><use transform="matrix(0.07160493827160494,0,0,0.07160493827160494,0,0)" xlink:href="#bc"/><use transform="matrix(0.07160493827160494,0,0,0.07160493827160494,17.185185185185187,0)" xlink:href="#ba"/><use transform="matrix(0.07160493827160494,0,0,0.07160493827160494,24.34567901234568,0)" xlink:href="#bd"/><use transform="matrix(0.07160493827160494,0,0,0.07160493827160494,40.02716049382716,0)" xlink:href="#be"/><use transform="matrix(0.07160493827160494,0,0,0.07160493827160494,62.94074074074074,0)" xlink:href="#aL"/></g><path d="M199 0l-22-63H83L61 0H9l90-248h61L250 0h-51zm-33-102l-36-108c-10 38-24 72-36 108h72" id="bf"/><g id="C"><use transform="matrix(0.07160493827160494,0,0,0.07160493827160494,0,0)" xlink:href="#bf"/><use transform="matrix(0.07160493827160494,0,0,0.07160493827160494,18.54567901234568,0)" xlink:href="#aK"/><use transform="matrix(0.07160493827160494,0,0,0.07160493827160494,32.86666666666667,0)" xlink:href="#aK"/><use transform="matrix(0.07160493827160494,0,0,0.07160493827160494,47.187654320987654,0)" xlink:href="#aF"/><use transform="matrix(0.07160493827160494,0,0,0.07160493827160494,61.50864197530864,0)" xlink:href="#aG"/><use transform="matrix(0.07160493827160494,0,0,0.07160493827160494,75.82962962962964,0)" xlink:href="#aG"/></g><g id="D"><use transform="matrix(0.07160493827160494,0,0,0.07160493827160494,0,0)" xlink:href="#aH"/><use transform="matrix(0.07160493827160494,0,0,0.07160493827160494,15.681481481481482,0)" xlink:href="#aI"/><use transform="matrix(0.07160493827160494,0,0,0.07160493827160494,25.706172839506173,0)" xlink:href="#aE"/><use transform="matrix(0.07160493827160494,0,0,0.07160493827160494,41.38765432098766,0)" xlink:href="#aJ"/><use transform="matrix(0.07160493827160494,0,0,0.07160493827160494,61.437037037037044,0)" xlink:href="#aG"/><use transform="matrix(0.07160493827160494,0,0,0.07160493827160494,75.75802469135803,0)" xlink:href="#aF"/><use transform="matrix(0.07160493827160494,0,0,0.07160493827160494,90.07901234567902,0)" xlink:href="#aI"/></g><g id="E"><use transform="matrix(0.07160493827160494,0,0,0.07160493827160494,0,0)" xlink:href="#aK"/><use transform="matrix(0.07160493827160494,0,0,0.07160493827160494,14.320987654320987,0)" xlink:href="#aL"/><use transform="matrix(0.07160493827160494,0,0,0.07160493827160494,28.641975308641975,0)" xlink:href="#aK"/><use transform="matrix(0.07160493827160494,0,0,0.07160493827160494,42.96296296296296,0)" xlink:href="#aM"/><use transform="matrix(0.07160493827160494,0,0,0.07160493827160494,58.644444444444446,0)" xlink:href="#aF"/></g><g id="F"><use transform="matrix(0.07407407407407407,0,0,0.07407407407407407,0,0)" xlink:href="#aV"/><use transform="matrix(0.07407407407407407,0,0,0.07407407407407407,19.185185185185183,0)" xlink:href="#aW"/></g><path d="M135-194c53 0 70 44 70 98 0 56-19 98-73 100-31 1-45-17-59-34 3 33 2 69 2 105H25l-1-265h48c2 10 0 23 3 31 11-24 29-35 60-35zM114-30c33 0 39-31 40-66 0-38-9-64-40-64-56 0-55 130 0 130" id="bg"/><g id="G"><use transform="matrix(0.07160493827160494,0,0,0.07160493827160494,0,0)" xlink:href="#aX"/><use transform="matrix(0.07160493827160494,0,0,0.07160493827160494,18.54567901234568,0)" xlink:href="#aE"/><use transform="matrix(0.07160493827160494,0,0,0.07160493827160494,34.227160493827164,0)" xlink:href="#be"/><use transform="matrix(0.07160493827160494,0,0,0.07160493827160494,57.14074074074075,0)" xlink:href="#bg"/><use transform="matrix(0.07160493827160494,0,0,0.07160493827160494,72.82222222222222,0)" xlink:href="#aZ"/><use transform="matrix(0.07160493827160494,0,0,0.07160493827160494,88.5037037037037,0)" xlink:href="#aP"/><use transform="matrix(0.07160493827160494,0,0,0.07160493827160494,97.0246913580247,0)" xlink:href="#aF"/></g><g id="H"><use transform="matrix(0.07160493827160494,0,0,0.07160493827160494,0,0)" xlink:href="#aJ"/><use transform="matrix(0.07160493827160494,0,0,0.07160493827160494,20.049382716049383,0)" xlink:href="#ba"/><use transform="matrix(0.07160493827160494,0,0,0.07160493827160494,27.209876543209877,0)" xlink:href="#aP"/><use transform="matrix(0.07160493827160494,0,0,0.07160493827160494,35.73086419753086,0)" xlink:href="#aM"/></g><g id="I"><use transform="matrix(0.07160493827160494,0,0,0.07160493827160494,0,0)" xlink:href="#bf"/><use transform="matrix(0.07160493827160494,0,0,0.07160493827160494,18.54567901234568,0)" xlink:href="#aO"/><use transform="matrix(0.07160493827160494,0,0,0.07160493827160494,25.706172839506173,0)" xlink:href="#bg"/><use transform="matrix(0.07160493827160494,0,0,0.07160493827160494,41.38765432098766,0)" xlink:href="#aM"/><use transform="matrix(0.07160493827160494,0,0,0.07160493827160494,57.069135802469134,0)" xlink:href="#aL"/></g><path d="M140-251c80 0 125 45 125 126 0 70-33 111-92 124 6 28 34 38 68 31l-1 36C177 83 129 55 120 2 51-6 15-50 15-125c0-81 44-126 125-126zm-1 214c52 0 73-35 73-88 0-50-21-86-72-86-52 0-73 35-73 86s22 88 72 88" id="bh"/><path d="M123 10C108 53 80 86 19 72V37c35 8 53-11 59-39L3-190h52l48 148c12-52 28-100 44-148h51" id="bi"/><g id="J"><use transform="matrix(0.07160493827160494,0,0,0.07160493827160494,0,0)" xlink:href="#bh"/><use transform="matrix(0.07160493827160494,0,0,0.07160493827160494,20.049382716049383,0)" xlink:href="#aZ"/><use transform="matrix(0.07160493827160494,0,0,0.07160493827160494,35.73086419753086,0)" xlink:href="#aF"/><use transform="matrix(0.07160493827160494,0,0,0.07160493827160494,50.05185185185185,0)" xlink:href="#aI"/><use transform="matrix(0.07160493827160494,0,0,0.07160493827160494,60.07654320987653,0)" xlink:href="#bi"/></g><path d="M24 0v-248h195v40H76v63h132v40H76v65h150V0H24" id="bj"/><path d="M84 4C32 4 15-41 15-95c0-55 18-99 73-99 29 0 47 12 58 34l2-30h48l-1 265h-49V-32C136-9 114 4 84 4zm21-34c32 0 41-29 41-66 0-36-9-64-40-64-33 0-39 30-40 65 0 43 13 65 39 65" id="bk"/><g id="K"><use transform="matrix(0.07160493827160494,0,0,0.07160493827160494,0,0)" xlink:href="#bj"/><use transform="matrix(0.07160493827160494,0,0,0.07160493827160494,17.185185185185187,0)" xlink:href="#bk"/><use transform="matrix(0.07160493827160494,0,0,0.07160493827160494,32.86666666666667,0)" xlink:href="#aZ"/><use transform="matrix(0.07160493827160494,0,0,0.07160493827160494,48.54814814814815,0)" xlink:href="#ba"/><use transform="matrix(0.07160493827160494,0,0,0.07160493827160494,55.708641975308645,0)" xlink:href="#aN"/><use transform="matrix(0.07160493827160494,0,0,0.07160493827160494,70.02962962962962,0)" xlink:href="#aL"/><use transform="matrix(0.07160493827160494,0,0,0.07160493827160494,84.35061728395061,0)" xlink:href="#aO"/><use transform="matrix(0.07160493827160494,0,0,0.07160493827160494,91.51111111111112,0)" xlink:href="#aL"/><use transform="matrix(0.07160493827160494,0,0,0.07160493827160494,105.83209876543211,0)" xlink:href="#aY"/><use transform="matrix(0.07160493827160494,0,0,0.07160493827160494,121.51358024691358,0)" xlink:href="#aP"/></g><g id="L"><use transform="matrix(0.07160493827160494,0,0,0.07160493827160494,0,0)" xlink:href="#bk"/><use transform="matrix(0.07160493827160494,0,0,0.07160493827160494,15.681481481481482,0)" xlink:href="#aZ"/><use transform="matrix(0.07160493827160494,0,0,0.07160493827160494,31.362962962962964,0)" xlink:href="#aF"/><use transform="matrix(0.07160493827160494,0,0,0.07160493827160494,45.683950617283955,0)" xlink:href="#aI"/><use transform="matrix(0.07160493827160494,0,0,0.07160493827160494,55.708641975308645,0)" xlink:href="#bi"/></g><g id="M"><use transform="matrix(0.07160493827160494,0,0,0.07160493827160494,0,0)" xlink:href="#bg"/><use transform="matrix(0.07160493827160494,0,0,0.07160493827160494,15.681481481481482,0)" xlink:href="#aI"/><use transform="matrix(0.07160493827160494,0,0,0.07160493827160494,25.706172839506173,0)" xlink:href="#aF"/><use transform="matrix(0.07160493827160494,0,0,0.07160493827160494,40.02716049382716,0)" xlink:href="#aG"/><use transform="matrix(0.07160493827160494,0,0,0.07160493827160494,54.34814814814815,0)" xlink:href="#aF"/><use transform="matrix(0.07160493827160494,0,0,0.07160493827160494,68.66913580246913,0)" xlink:href="#aY"/><use transform="matrix(0.07160493827160494,0,0,0.07160493827160494,84.35061728395061,0)" xlink:href="#aP"/></g><g id="N"><use transform="matrix(0.07160493827160494,0,0,0.07160493827160494,0,0)" xlink:href="#ba"/><use transform="matrix(0.07160493827160494,0,0,0.07160493827160494,7.160493827160494,0)" xlink:href="#aY"/></g><g id="O"><use transform="matrix(0.07160493827160494,0,0,0.07160493827160494,0,0)" xlink:href="#bc"/><use transform="matrix(0.07160493827160494,0,0,0.07160493827160494,17.185185185185187,0)" xlink:href="#ba"/><use transform="matrix(0.07160493827160494,0,0,0.07160493827160494,24.34567901234568,0)" xlink:href="#bd"/><use transform="matrix(0.07160493827160494,0,0,0.07160493827160494,40.02716049382716,0)" xlink:href="#be"/><use transform="matrix(0.07160493827160494,0,0,0.07160493827160494,62.94074074074074,0)" xlink:href="#aL"/></g><g id="P"><use transform="matrix(0.07160493827160494,0,0,0.07160493827160494,0,0)" xlink:href="#bb"/><use transform="matrix(0.07160493827160494,0,0,0.07160493827160494,18.54567901234568,0)" xlink:href="#aF"/><use transform="matrix(0.07160493827160494,0,0,0.07160493827160494,32.86666666666667,0)" xlink:href="#aG"/><use transform="matrix(0.07160493827160494,0,0,0.07160493827160494,47.187654320987654,0)" xlink:href="#aZ"/><use transform="matrix(0.07160493827160494,0,0,0.07160493827160494,62.86913580246914,0)" xlink:href="#aO"/><use transform="matrix(0.07160493827160494,0,0,0.07160493827160494,70.02962962962962,0)" xlink:href="#aP"/><use transform="matrix(0.07160493827160494,0,0,0.07160493827160494,78.55061728395061,0)" xlink:href="#aG"/></g><g id="Q"><use transform="matrix(0.07160493827160494,0,0,0.07160493827160494,0,0)" xlink:href="#aX"/><use transform="matrix(0.07160493827160494,0,0,0.07160493827160494,18.54567901234568,0)" xlink:href="#aL"/><use transform="matrix(0.07160493827160494,0,0,0.07160493827160494,32.86666666666667,0)" xlink:href="#aK"/><use transform="matrix(0.07160493827160494,0,0,0.07160493827160494,47.187654320987654,0)" xlink:href="#aM"/><use transform="matrix(0.07160493827160494,0,0,0.07160493827160494,62.86913580246914,0)" xlink:href="#aF"/><use transform="matrix(0.07160493827160494,0,0,0.07160493827160494,77.19012345679012,0)" xlink:href="#aR"/></g><path fill="#3a414a" d="M110-194c64 0 96 36 96 99 0 64-35 99-97 99-61 0-95-36-95-99 0-62 34-99 96-99zm-1 164c35 0 45-28 45-65 0-40-10-65-43-65-34 0-45 26-45 65 0 36 10 65 43 65" id="bl"/><path fill="#3a414a" d="M231 0h-52l-39-155L100 0H48L-1-190h46L77-45c9-52 24-97 36-145h53l37 145 32-145h46" id="bm"/><path fill="#3a414a" d="M121-226c-27-7-43 5-38 36h38v33H83V0H34v-157H6v-33h28c-9-59 32-81 87-68v32" id="bn"/><path fill="#3a414a" d="M147 0L96-86 75-71V0H25v-261h50v150l67-79h53l-66 74L201 0h-54" id="bo"/><g id="R"><use transform="matrix(0.0864197530864197,0,0,0.0864197530864197,0,0)" xlink:href="#am"/><use transform="matrix(0.0864197530864197,0,0,0.0864197530864197,20.74074074074073,0)" xlink:href="#aC"/><use transform="matrix(0.0864197530864197,0,0,0.0864197530864197,39.66666666666664,0)" xlink:href="#bl"/><use transform="matrix(0.0864197530864197,0,0,0.0864197530864197,58.59259259259256,0)" xlink:href="#bm"/><use transform="matrix(0.0864197530864197,0,0,0.0864197530864197,82.79012345679007,0)" xlink:href="#bn"/><use transform="matrix(0.0864197530864197,0,0,0.0864197530864197,93.07407407407402,0)" xlink:href="#av"/><use transform="matrix(0.0864197530864197,0,0,0.0864197530864197,101.716049382716,0)" xlink:href="#aq"/><use transform="matrix(0.0864197530864197,0,0,0.0864197530864197,118.99999999999994,0)" xlink:href="#bo"/><use transform="matrix(0.0864197530864197,0,0,0.0864197530864197,136.2839506172839,0)" xlink:href="#as"/></g><g id="S"><use transform="matrix(0.07160493827160494,0,0,0.07160493827160494,0,0)" xlink:href="#bb"/><use transform="matrix(0.07160493827160494,0,0,0.07160493827160494,18.54567901234568,0)" xlink:href="#aF"/><use transform="matrix(0.07160493827160494,0,0,0.07160493827160494,32.86666666666667,0)" xlink:href="#aP"/><use transform="matrix(0.07160493827160494,0,0,0.07160493827160494,41.38765432098766,0)" xlink:href="#aI"/><use transform="matrix(0.07160493827160494,0,0,0.07160493827160494,51.41234567901235,0)" xlink:href="#ba"/><use transform="matrix(0.07160493827160494,0,0,0.07160493827160494,58.57283950617284,0)" xlink:href="#aF"/><use transform="matrix(0.07160493827160494,0,0,0.07160493827160494,72.89382716049383,0)" xlink:href="#aN"/><use transform="matrix(0.07160493827160494,0,0,0.07160493827160494,87.21481481481482,0)" xlink:href="#aF"/></g><g id="T"><use transform="matrix(0.07160493827160494,0,0,0.07160493827160494,0,0)" xlink:href="#aI"/><use transform="matrix(0.07160493827160494,0,0,0.07160493827160494,10.024691358024691,0)" xlink:href="#aF"/><use transform="matrix(0.07160493827160494,0,0,0.07160493827160494,24.345679012345677,0)" xlink:href="#aG"/><use transform="matrix(0.07160493827160494,0,0,0.07160493827160494,38.666666666666664,0)" xlink:href="#aZ"/><use transform="matrix(0.07160493827160494,0,0,0.07160493827160494,54.34814814814815,0)" xlink:href="#aO"/><use transform="matrix(0.07160493827160494,0,0,0.07160493827160494,61.50864197530864,0)" xlink:href="#aP"/><use transform="matrix(0.07160493827160494,0,0,0.07160493827160494,70.02962962962962,0)" xlink:href="#aG"/></g><path d="M121-226c-27-7-43 5-38 36h38v33H83V0H34v-157H6v-33h28c-9-59 32-81 87-68v32" id="bp"/><g id="U"><use transform="matrix(0.07160493827160494,0,0,0.07160493827160494,0,0)" xlink:href="#bp"/><use transform="matrix(0.07160493827160494,0,0,0.07160493827160494,8.520987654320988,0)" xlink:href="#aI"/><use transform="matrix(0.07160493827160494,0,0,0.07160493827160494,18.54567901234568,0)" xlink:href="#aE"/><use transform="matrix(0.07160493827160494,0,0,0.07160493827160494,34.227160493827164,0)" xlink:href="#be"/></g><path d="M147 0L96-86 75-71V0H25v-261h50v150l67-79h53l-66 74L201 0h-54" id="bq"/><g id="V"><use transform="matrix(0.07160493827160494,0,0,0.07160493827160494,0,0)" xlink:href="#bc"/><use transform="matrix(0.07160493827160494,0,0,0.07160493827160494,17.185185185185187,0)" xlink:href="#aY"/><use transform="matrix(0.07160493827160494,0,0,0.07160493827160494,32.86666666666667,0)" xlink:href="#aE"/><use transform="matrix(0.07160493827160494,0,0,0.07160493827160494,48.54814814814815,0)" xlink:href="#aJ"/><use transform="matrix(0.07160493827160494,0,0,0.07160493827160494,68.59753086419754,0)" xlink:href="#bp"/><use transform="matrix(0.07160493827160494,0,0,0.07160493827160494,77.11851851851851,0)" xlink:href="#aO"/><use transform="matrix(0.07160493827160494,0,0,0.07160493827160494,84.27901234567902,0)" xlink:href="#aL"/><use transform="matrix(0.07160493827160494,0,0,0.07160493827160494,98.60000000000001,0)" xlink:href="#bq"/><use transform="matrix(0.07160493827160494,0,0,0.07160493827160494,112.920987654321,0)" xlink:href="#aF"/></g><path d="M128-127c34 4 56 21 59 58 7 91-148 94-172 28-4-9-6-17-7-26l51-5c1 24 16 35 40 36 23 0 39-12 38-36-1-31-31-36-65-34v-40c32 2 59-3 59-33 0-20-13-33-34-33s-33 13-35 32l-50-3c6-44 37-68 86-68 50 0 83 20 83 66 0 35-22 52-53 58" id="br"/><g id="W"><use transform="matrix(0.07160493827160494,0,0,0.07160493827160494,0,0)" xlink:href="#bc"/><use transform="matrix(0.07160493827160494,0,0,0.07160493827160494,17.185185185185187,0)" xlink:href="#br"/></g><path d="M186 0v-106H76V0H24v-248h52v99h110v-99h50V0h-50" id="bs"/><g id="X"><use transform="matrix(0.07160493827160494,0,0,0.07160493827160494,0,0)" xlink:href="#bs"/><use transform="matrix(0.07160493827160494,0,0,0.07160493827160494,18.54567901234568,0)" xlink:href="#aL"/><use transform="matrix(0.07160493827160494,0,0,0.07160493827160494,32.86666666666667,0)" xlink:href="#aG"/></g><g id="Y"><use transform="matrix(0.07160493827160494,0,0,0.07160493827160494,0,0)" xlink:href="#aK"/><use transform="matrix(0.07160493827160494,0,0,0.07160493827160494,14.320987654320987,0)" xlink:href="#aL"/><use transform="matrix(0.07160493827160494,0,0,0.07160493827160494,28.641975308641975,0)" xlink:href="#aK"/><use transform="matrix(0.07160493827160494,0,0,0.07160493827160494,42.96296296296296,0)" xlink:href="#aM"/><use transform="matrix(0.07160493827160494,0,0,0.07160493827160494,58.644444444444446,0)" xlink:href="#aF"/></g><path d="M14-72v-43h91v43H14" id="bt"/><g id="Z"><use transform="matrix(0.07160493827160494,0,0,0.07160493827160494,0,0)" xlink:href="#aP"/><use transform="matrix(0.07160493827160494,0,0,0.07160493827160494,8.520987654320988,0)" xlink:href="#ba"/><use transform="matrix(0.07160493827160494,0,0,0.07160493827160494,15.681481481481482,0)" xlink:href="#be"/><use transform="matrix(0.07160493827160494,0,0,0.07160493827160494,38.59506172839506,0)" xlink:href="#aF"/><use transform="matrix(0.07160493827160494,0,0,0.07160493827160494,52.916049382716054,0)" xlink:href="#bt"/><use transform="matrix(0.07160493827160494,0,0,0.07160493827160494,61.437037037037044,0)" xlink:href="#aP"/><use transform="matrix(0.07160493827160494,0,0,0.07160493827160494,69.95802469135803,0)" xlink:href="#aE"/><use transform="matrix(0.07160493827160494,0,0,0.07160493827160494,85.63950617283952,0)" xlink:href="#bt"/><use transform="matrix(0.07160493827160494,0,0,0.07160493827160494,94.16049382716051,0)" xlink:href="#aO"/><use transform="matrix(0.07160493827160494,0,0,0.07160493827160494,101.320987654321,0)" xlink:href="#ba"/><use transform="matrix(0.07160493827160494,0,0,0.07160493827160494,108.4814814814815,0)" xlink:href="#aN"/><use transform="matrix(0.07160493827160494,0,0,0.07160493827160494,122.80246913580248,0)" xlink:href="#aF"/></g><path d="M144 0l-44-69L55 0H2l70-98-66-92h53l41 62 40-62h54l-67 91 71 99h-54" id="bu"/><g id="aa"><use transform="matrix(0.07160493827160494,0,0,0.07160493827160494,0,0)" xlink:href="#aF"/><use transform="matrix(0.07160493827160494,0,0,0.07160493827160494,14.320987654320987,0)" xlink:href="#bu"/><use transform="matrix(0.07160493827160494,0,0,0.07160493827160494,28.641975308641975,0)" xlink:href="#bg"/><use transform="matrix(0.07160493827160494,0,0,0.07160493827160494,44.32345679012346,0)" xlink:href="#ba"/><use transform="matrix(0.07160493827160494,0,0,0.07160493827160494,51.48395061728395,0)" xlink:href="#aI"/><use transform="matrix(0.07160493827160494,0,0,0.07160493827160494,61.50864197530864,0)" xlink:href="#aF"/><use transform="matrix(0.07160493827160494,0,0,0.07160493827160494,75.82962962962964,0)" xlink:href="#aQ"/><use transform="matrix(0.07160493827160494,0,0,0.07160493827160494,91.51111111111112,0)" xlink:href="#aR"/></g><g id="ab"><use transform="matrix(0.07160493827160494,0,0,0.07160493827160494,0,0)" xlink:href="#bh"/><use transform="matrix(0.07160493827160494,0,0,0.07160493827160494,20.049382716049383,0)" xlink:href="#aZ"/><use transform="matrix(0.07160493827160494,0,0,0.07160493827160494,35.73086419753086,0)" xlink:href="#aF"/><use transform="matrix(0.07160493827160494,0,0,0.07160493827160494,50.05185185185185,0)" xlink:href="#aI"/><use transform="matrix(0.07160493827160494,0,0,0.07160493827160494,60.07654320987653,0)" xlink:href="#bi"/></g><g id="ac"><use transform="matrix(0.07160493827160494,0,0,0.07160493827160494,0,0)" xlink:href="#aF"/><use transform="matrix(0.07160493827160494,0,0,0.07160493827160494,14.320987654320987,0)" xlink:href="#bu"/><use transform="matrix(0.07160493827160494,0,0,0.07160493827160494,28.641975308641975,0)" xlink:href="#aF"/><use transform="matrix(0.07160493827160494,0,0,0.07160493827160494,42.96296296296296,0)" xlink:href="#aK"/><use transform="matrix(0.07160493827160494,0,0,0.07160493827160494,57.28395061728395,0)" xlink:href="#aZ"/><use transform="matrix(0.07160493827160494,0,0,0.07160493827160494,72.96543209876543,0)" xlink:href="#aP"/><use transform="matrix(0.07160493827160494,0,0,0.07160493827160494,81.48641975308642,0)" xlink:href="#aF"/><use transform="matrix(0.07160493827160494,0,0,0.07160493827160494,95.80740740740741,0)" xlink:href="#aQ"/></g><g id="ad"><use transform="matrix(0.07160493827160494,0,0,0.07160493827160494,0,0)" xlink:href="#aL"/><use transform="matrix(0.07160493827160494,0,0,0.07160493827160494,14.320987654320987,0)" xlink:href="#bd"/><use transform="matrix(0.07160493827160494,0,0,0.07160493827160494,30.00246913580247,0)" xlink:href="#aL"/><use transform="matrix(0.07160493827160494,0,0,0.07160493827160494,44.32345679012346,0)" xlink:href="#ba"/><use transform="matrix(0.07160493827160494,0,0,0.07160493827160494,51.48395061728395,0)" xlink:href="#aY"/><use transform="matrix(0.07160493827160494,0,0,0.07160493827160494,67.16543209876544,0)" xlink:href="#aG"/><use transform="matrix(0.07160493827160494,0,0,0.07160493827160494,81.48641975308642,0)" xlink:href="#aP"/></g><g id="ae"><use transform="matrix(0.07160493827160494,0,0,0.07160493827160494,0,0)" xlink:href="#aJ"/><use transform="matrix(0.07160493827160494,0,0,0.07160493827160494,20.049382716049383,0)" xlink:href="#aL"/><use transform="matrix(0.07160493827160494,0,0,0.07160493827160494,34.37037037037037,0)" xlink:href="#aI"/><use transform="matrix(0.07160493827160494,0,0,0.07160493827160494,44.395061728395056,0)" xlink:href="#aF"/><use transform="matrix(0.07160493827160494,0,0,0.07160493827160494,58.716049382716044,0)" xlink:href="#aM"/><use transform="matrix(0.07160493827160494,0,0,0.07160493827160494,74.39753086419752,0)" xlink:href="#aE"/><use transform="matrix(0.07160493827160494,0,0,0.07160493827160494,90.079012345679,0)" xlink:href="#aZ"/><use transform="matrix(0.07160493827160494,0,0,0.07160493827160494,105.76049382716047,0)" xlink:href="#aG"/><use transform="matrix(0.07160493827160494,0,0,0.07160493827160494,120.08148148148146,0)" xlink:href="#aF"/></g><g id="af"><use transform="matrix(0.07160493827160494,0,0,0.07160493827160494,0,0)" xlink:href="#bh"/><use transform="matrix(0.07160493827160494,0,0,0.07160493827160494,20.049382716049383,0)" xlink:href="#aZ"/><use transform="matrix(0.07160493827160494,0,0,0.07160493827160494,35.73086419753086,0)" xlink:href="#aF"/><use transform="matrix(0.07160493827160494,0,0,0.07160493827160494,50.05185185185185,0)" xlink:href="#aI"/><use transform="matrix(0.07160493827160494,0,0,0.07160493827160494,60.07654320987653,0)" xlink:href="#bi"/></g><path d="M12 0v-35l95-120H19v-35h142v35L67-36h103V0H12" id="bv"/><g id="ag"><use transform="matrix(0.07160493827160494,0,0,0.07160493827160494,0,0)" xlink:href="#be"/><use transform="matrix(0.07160493827160494,0,0,0.07160493827160494,22.913580246913583,0)" xlink:href="#aL"/><use transform="matrix(0.07160493827160494,0,0,0.07160493827160494,37.23456790123457,0)" xlink:href="#aP"/><use transform="matrix(0.07160493827160494,0,0,0.07160493827160494,45.75555555555556,0)" xlink:href="#aF"/><use transform="matrix(0.07160493827160494,0,0,0.07160493827160494,60.07654320987655,0)" xlink:href="#aI"/><use transform="matrix(0.07160493827160494,0,0,0.07160493827160494,70.10123456790124,0)" xlink:href="#ba"/><use transform="matrix(0.07160493827160494,0,0,0.07160493827160494,77.26172839506172,0)" xlink:href="#aL"/><use transform="matrix(0.07160493827160494,0,0,0.07160493827160494,91.58271604938273,0)" xlink:href="#aO"/><use transform="matrix(0.07160493827160494,0,0,0.07160493827160494,98.74320987654322,0)" xlink:href="#ba"/><use transform="matrix(0.07160493827160494,0,0,0.07160493827160494,105.90370370370371,0)" xlink:href="#bv"/><use transform="matrix(0.07160493827160494,0,0,0.07160493827160494,118.7925925925926,0)" xlink:href="#aF"/><use transform="matrix(0.07160493827160494,0,0,0.07160493827160494,133.11358024691359,0)" xlink:href="#aQ"/></g><g id="ah"><use transform="matrix(0.07160493827160494,0,0,0.07160493827160494,0,0)" xlink:href="#aP"/><use transform="matrix(0.07160493827160494,0,0,0.07160493827160494,8.520987654320988,0)" xlink:href="#aL"/><use transform="matrix(0.07160493827160494,0,0,0.07160493827160494,22.841975308641977,0)" xlink:href="#aH"/><use transform="matrix(0.07160493827160494,0,0,0.07160493827160494,38.523456790123454,0)" xlink:href="#aO"/><use transform="matrix(0.07160493827160494,0,0,0.07160493827160494,45.683950617283955,0)" xlink:href="#aF"/></g><path d="M24 0v-248h52V0H24" id="bw"/><g id="ai"><use transform="matrix(0.07160493827160494,0,0,0.07160493827160494,0,0)" xlink:href="#bw"/><use transform="matrix(0.07160493827160494,0,0,0.07160493827160494,7.160493827160494,0)" xlink:href="#aG"/></g><g id="aj"><use transform="matrix(0.07160493827160494,0,0,0.07160493827160494,0,0)" xlink:href="#aP"/><use transform="matrix(0.07160493827160494,0,0,0.07160493827160494,8.520987654320988,0)" xlink:href="#aM"/><use transform="matrix(0.07160493827160494,0,0,0.07160493827160494,24.20246913580247,0)" xlink:href="#aF"/></g><g id="ak"><use transform="matrix(0.07160493827160494,0,0,0.07160493827160494,0,0)" xlink:href="#aQ"/><use transform="matrix(0.07160493827160494,0,0,0.07160493827160494,15.681481481481482,0)" xlink:href="#aL"/><use transform="matrix(0.07160493827160494,0,0,0.07160493827160494,30.00246913580247,0)" xlink:href="#aP"/><use transform="matrix(0.07160493827160494,0,0,0.07160493827160494,38.523456790123454,0)" xlink:href="#aL"/></g><path d="M230 0l2-204L168 0h-37L68-204 70 0H24v-248h70l56 185 57-185h69V0h-46" id="bx"/><g id="al"><use transform="matrix(0.07160493827160494,0,0,0.07160493827160494,0,0)" xlink:href="#bx"/><use transform="matrix(0.07160493827160494,0,0,0.07160493827160494,21.409876543209876,0)" xlink:href="#aL"/><use transform="matrix(0.07160493827160494,0,0,0.07160493827160494,35.73086419753086,0)" xlink:href="#aP"/><use transform="matrix(0.07160493827160494,0,0,0.07160493827160494,44.25185185185185,0)" xlink:href="#aF"/><use transform="matrix(0.07160493827160494,0,0,0.07160493827160494,58.57283950617284,0)" xlink:href="#aI"/><use transform="matrix(0.07160493827160494,0,0,0.07160493827160494,68.59753086419754,0)" xlink:href="#ba"/><use transform="matrix(0.07160493827160494,0,0,0.07160493827160494,75.75802469135803,0)" xlink:href="#aL"/><use transform="matrix(0.07160493827160494,0,0,0.07160493827160494,90.07901234567902,0)" xlink:href="#aO"/><use transform="matrix(0.07160493827160494,0,0,0.07160493827160494,97.23950617283951,0)" xlink:href="#ba"/><use transform="matrix(0.07160493827160494,0,0,0.07160493827160494,104.4,0)" xlink:href="#bv"/><use transform="matrix(0.07160493827160494,0,0,0.07160493827160494,117.28888888888889,0)" xlink:href="#aF"/><use transform="matrix(0.07160493827160494,0,0,0.07160493827160494,131.60987654320988,0)" xlink:href="#aQ"/><use transform="matrix(0.07160493827160494,0,0,0.07160493827160494,147.29135802469136,0)" xlink:href="#aR"/></g></defs></g></svg>