<svg xmlns="http://www.w3.org/2000/svg" xmlns:xlink="http://www.w3.org/1999/xlink" xmlns:lucid="lucid" width="1905.39" height="2031.37"><g transform="translate(1612.2910821472483 1161.8450467093767)" lucid:page-tab-id="0_0"><path d="M-2000-1500H500v2500h-2500z" fill="#fff"/><path d="M-1592.3-1135.85a6 6 0 0 1 6-6H267.1a6 6 0 0 1 6 6V843.54a6 6 0 0 1-6 6h-1853.4a6 6 0 0 1-6-6z" stroke="#3a414a" fill-opacity="0"/><path d="M-396.38-280.58c0 6.2-52.38 11.24-117 11.24s-117-5.03-117-11.24v-89.94c0-6.2 52.38-11.24 117-11.24s117 5.03 117 11.24z" stroke="#3a414a" fill="#edf5ff"/><path d="M-396.38-370.52c0 6.2-52.38 11.24-117 11.24s-117-5.03-117-11.24" stroke="#3a414a" fill="none"/><use xlink:href="#a" transform="matrix(1,0,0,1,-625.3815578464903,-354.2772216731195) translate(10.154320987654373 27.38888888888888)"/><use xlink:href="#b" transform="matrix(1,0,0,1,-625.3815578464903,-354.2772216731195) translate(112.0432098765432 27.38888888888888)"/><use xlink:href="#c" transform="matrix(1,0,0,1,-625.3815578464903,-354.2772216731195) translate(67.96913580246915 64.7222222222222)"/><path d="M-1291.94-1085.3c33.24 0 60.18 26.94 60.18 60.18 0 33.23-26.94 60.18-60.18 60.18h-186.48c-33.24 0-60.18-26.95-60.18-60.18 0-33.24 26.94-60.2 60.18-60.2z" stroke="#3a414a" fill="#c3f7c8"/><use xlink:href="#d" transform="matrix(1,0,0,1,-1533.6015163018938,-1080.3045126795469) translate(25.875370370370383 45.61458333333333)"/><use xlink:href="#e" transform="matrix(1,0,0,1,-1533.6015163018938,-1080.3045126795469) translate(138.17166666666668 45.61458333333333)"/><use xlink:href="#f" transform="matrix(1,0,0,1,-1533.6015163018938,-1080.3045126795469) translate(200.24574074074073 45.61458333333333)"/><use xlink:href="#g" transform="matrix(1,0,0,1,-1533.6015163018938,-1080.3045126795469) translate(108.04203703703705 77.61458333333333)"/><path d="M-973.2-987.23a7.22 7.22 0 0 1 9.24 0l144.93 120.45a5 5 0 0 1 0 7.67l-144.93 120.43a7.22 7.22 0 0 1-9.23 0L-1118.1-859.1a5 5 0 0 1 0-7.68z" stroke="#3a414a" fill="#fff"/><use xlink:href="#h" transform="matrix(1,0,0,1,-1117.7312040617498,-986.0633583197887) translate(63.93833333333334 97.80972222222222)"/><use xlink:href="#i" transform="matrix(1,0,0,1,-1117.7312040617498,-986.0633583197887) translate(133.96796296296296 97.80972222222222)"/><use xlink:href="#j" transform="matrix(1,0,0,1,-1117.7312040617498,-986.0633583197887) translate(38.87660493827159 128.74305555555557)"/><use xlink:href="#k" transform="matrix(1,0,0,1,-1117.7312040617498,-986.0633583197887) translate(119.00253086419752 128.74305555555557)"/><use xlink:href="#l" transform="matrix(1,0,0,1,-1117.7312040617498,-986.0633583197887) translate(184.80746913580245 128.74305555555557)"/><use xlink:href="#m" transform="matrix(1,0,0,1,-1117.7312040617498,-986.0633583197887) translate(220.60993827160493 128.74305555555557)"/><use xlink:href="#n" transform="matrix(1,0,0,1,-1117.7312040617498,-986.0633583197887) translate(114.74203703703702 159.6763888888889)"/><path d="M-971.72-654.16a7.22 7.22 0 0 1 9.23 0l144.93 120.45a5 5 0 0 1 0 7.66L-962.5-405.6a7.22 7.22 0 0 1-9.22 0l-144.93-120.44a5 5 0 0 1 0-7.67z" stroke="#3a414a" fill="#fff"/><use xlink:href="#o" transform="matrix(1,0,0,1,-1116.2609479265998,-652.9909116026101) translate(117.57043209876544 74.65347222222222)"/><use xlink:href="#p" transform="matrix(1,0,0,1,-1116.2609479265998,-652.9909116026101) translate(58.89018518518518 105.58680555555556)"/><use xlink:href="#q" transform="matrix(1,0,0,1,-1116.2609479265998,-652.9909116026101) translate(166.15438271604938 105.58680555555556)"/><use xlink:href="#r" transform="matrix(1,0,0,1,-1116.2609479265998,-652.9909116026101) translate(26.595123456790116 136.5201388888889)"/><use xlink:href="#s" transform="matrix(1,0,0,1,-1116.2609479265998,-652.9909116026101) translate(63.758086419753084 136.5201388888889)"/><use xlink:href="#t" transform="matrix(1,0,0,1,-1116.2609479265998,-652.9909116026101) translate(130.92351851851853 136.5201388888889)"/><use xlink:href="#u" transform="matrix(1,0,0,1,-1116.2609479265998,-652.9909116026101) translate(162.2864814814815 136.5201388888889)"/><use xlink:href="#v" transform="matrix(1,0,0,1,-1116.2609479265998,-652.9909116026101) translate(65.40623456790121 167.45347222222225)"/><use xlink:href="#w" transform="matrix(1,0,0,1,-1116.2609479265998,-652.9909116026101) translate(164.07783950617284 167.45347222222225)"/><path d="M-299.58-931.95a6 6 0 0 1 6-6h167.47a6 6 0 0 1 6 6v150C-150.1-808-168.75-808-180.06-808c-17.95 0-41.82 26.05-59.77 26.05-11.13 0-29.97 0-59.76-26.05z" stroke="#3a414a" fill="#fff"/><use xlink:href="#x" transform="matrix(1,0,0,1,-294.58545614579697,-932.9486875406865) translate(25.71111111111111 50.62222222222222)"/><use xlink:href="#y" transform="matrix(1,0,0,1,-294.58545614579697,-932.9486875406865) translate(121.44691358024691 50.62222222222222)"/><use xlink:href="#z" transform="matrix(1,0,0,1,-294.58545614579697,-932.9486875406865) translate(46.36913580246913 81.55555555555556)"/><path d="M-610.25-938.15a7.8 7.8 0 0 1 7.55-5.8h172.8a4.6 4.6 0 0 1 4.45 5.8l-40.1 150.4a7.8 7.8 0 0 1-7.55 5.8h-172.8a4.6 4.6 0 0 1-4.46-5.8z" stroke="#3a414a" fill="#fff"/><use xlink:href="#A" transform="matrix(1,0,0,1,-646.9010638025028,-938.9486875406865) translate(72.42969135802468 49.12222222222222)"/><use xlink:href="#B" transform="matrix(1,0,0,1,-646.9010638025028,-938.9486875406865) translate(58.953148148148145 80.05555555555556)"/><use xlink:href="#C" transform="matrix(1,0,0,1,-646.9010638025028,-938.9486875406865) translate(64.52228395061728 110.9888888888889)"/><path d="M-746.74-861.95h-69v-2h69zm97.42 0h-51.5v-2h51.5z" stroke="#008a0e" stroke-width=".05" fill="#008a0e"/><path d="M-815.7-861.95h-1.13l.1-1-.1-.96 1.12-.05z" fill="#008a0e"/><path d="M-815.68-861.92h-1.18l.1-1.03-.1-.98 1.18-.05zm-1.1-1.96l.07.93-.1.98h1.07v-1.95z" stroke="#008a0e" stroke-width=".05" fill="#008a0e"/><path d="M-634.05-862.95l-14.27 4.64v-9.28z" fill="#008a0e"/><path d="M-630.82-862.95l-18.5 6v-12zm-16.5 3.26l10.03-3.25-10.02-3.26z" stroke="#008a0e" stroke-width=".05" fill="#008a0e"/><use xlink:href="#D" transform="matrix(1,0,0,1,-746.7391027502066,-878.9486875406865) translate(0 21.333333333333332)"/><path d="M-444.48-862.95h128" stroke="#3a414a" fill="none"/><path d="M-444.47-862.45h-.65l.27-1h.38z" stroke="#3a414a" stroke-width=".05" fill="#3a414a"/><path d="M-301.7-862.95l-14.27 4.64v-9.28z" stroke="#3a414a" fill="#3a414a"/><path d="M-967.58-674.67h-2v-7h2zm0-36.33h-2v-24.5h2z" stroke="#e81313" stroke-width=".05" fill="#e81313"/><path d="M-968.58-736.5l1-.07v1.1h-2v-1.1z" fill="#e81313"/><path d="M-968.58-736.53l1.03-.07v1.15h-2.05v-1.15zm-.97 1.03h1.95v-1.04l-.98.06-.97-.06z" stroke="#e81313" stroke-width=".05" fill="#e81313"/><path d="M-968.58-659.4l-4.63-14.27h9.26z" fill="#e81313"/><path d="M-968.58-656.16l-6-18.5h12.02zm-3.25-16.5l3.25 10.02 3.26-10.03z" stroke="#e81313" stroke-width=".05" fill="#e81313"/><use xlink:href="#E" transform="matrix(1,0,0,1,-984.804281971861,-710.9995460374904) translate(0 19.555555555555557)"/><path d="M-312.63-600.53a6 6 0 0 1 6-6h165.36a6 6 0 0 1 6 6v150c-29.62-26.05-48.06-26.05-59.24-26.05-17.74 0-41.33 26.05-59.07 26.05-11 0-29.62 0-59.06-26.05z" stroke="#3a414a" fill="#fff"/><use xlink:href="#x" transform="matrix(1,0,0,1,-307.62961113428554,-601.5275596167974) translate(24.71111111111111 50.62222222222222)"/><use xlink:href="#y" transform="matrix(1,0,0,1,-307.62961113428554,-601.5275596167974) translate(120.44691358024691 50.62222222222222)"/><use xlink:href="#z" transform="matrix(1,0,0,1,-307.62961113428554,-601.5275596167974) translate(45.36913580246913 81.55555555555556)"/><path d="M-619.13-606.73a7.8 7.8 0 0 1 7.55-5.8h170.1a4.6 4.6 0 0 1 4.46 5.8l-40.1 150.4a7.8 7.8 0 0 1-7.56 5.8h-170.1a4.6 4.6 0 0 1-4.46-5.8z" stroke="#3a414a" fill="#fff"/><use xlink:href="#F" transform="matrix(1,0,0,1,-655.7841831597823,-607.5275596167974) translate(27.54574074074075 63.37222222222222)"/><use xlink:href="#G" transform="matrix(1,0,0,1,-655.7841831597823,-607.5275596167974) translate(146.05191358024692 63.37222222222222)"/><use xlink:href="#H" transform="matrix(1,0,0,1,-655.7841831597823,-607.5275596167974) translate(27.530925925925924 94.30555555555556)"/><use xlink:href="#I" transform="matrix(1,0,0,1,-655.7841831597823,-607.5275596167974) translate(106.08154320987654 94.30555555555556)"/><path d="M-750.58-530.53h-63.95v-2h63.95zm92.38 0h-46.45v-2h46.45z" stroke="#008a0e" stroke-width=".05" fill="#008a0e"/><path d="M-814.5-530.53h-.82l-.03-.3-.25-.93-.36-.77h1.45z" fill="#008a0e"/><path d="M-814.48-530.5h-.86l-.03-.33-.25-.92-.38-.8h1.52zm-1.44-2l.34.73.26.93.02.3h.77v-1.96z" stroke="#008a0e" stroke-width=".05" fill="#008a0e"/><path d="M-642.94-531.53l-14.26 4.64v-9.26z" fill="#008a0e"/><path d="M-639.7-531.53l-18.5 6v-12zm-16.5 3.26l10.03-3.26-10.03-3.26z" stroke="#008a0e" stroke-width=".05" fill="#008a0e"/><use xlink:href="#D" transform="matrix(1,0,0,1,-750.5810591537446,-547.5275596167974) translate(0 21.333333333333332)"/><path d="M-456.06-531.53h126.55" stroke="#3a414a" fill="none"/><path d="M-456.05-531.03h-.64l.27-1h.38z" stroke="#3a414a" stroke-width=".05" fill="#3a414a"/><path d="M-314.75-531.53L-329-526.9v-9.26z" stroke="#3a414a" fill="#3a414a"/><path d="M-973.2-278.9a7.26 7.26 0 0 1 9.25 0l144.9 119.82a4.96 4.96 0 0 1 0 7.65L-963.94-31.6a7.26 7.26 0 0 1-9.25 0l-144.9-119.83a4.96 4.96 0 0 1 0-7.65z" stroke="#3a414a" fill="#fff"/><use xlink:href="#J" transform="matrix(1,0,0,1,-1117.7312040617498,-277.71809205472294) translate(127.52351851851853 35.93472222222222)"/><use xlink:href="#K" transform="matrix(1,0,0,1,-1117.7312040617498,-277.71809205472294) translate(156.1654938271605 35.93472222222222)"/><use xlink:href="#L" transform="matrix(1,0,0,1,-1117.7312040617498,-277.71809205472294) translate(88.28401234567902 66.86805555555556)"/><use xlink:href="#M" transform="matrix(1,0,0,1,-1117.7312040617498,-277.71809205472294) translate(165.47413580246914 66.86805555555556)"/><use xlink:href="#N" transform="matrix(1,0,0,1,-1117.7312040617498,-277.71809205472294) translate(93.22475308641975 97.8013888888889)"/><use xlink:href="#O" transform="matrix(1,0,0,1,-1117.7312040617498,-277.71809205472294) translate(138.9087037037037 97.8013888888889)"/><use xlink:href="#P" transform="matrix(1,0,0,1,-1117.7312040617498,-277.71809205472294) translate(28.279074074074067 128.73472222222225)"/><use xlink:href="#Q" transform="matrix(1,0,0,1,-1117.7312040617498,-277.71809205472294) translate(146.85685185185184 128.73472222222225)"/><use xlink:href="#R" transform="matrix(1,0,0,1,-1117.7312040617498,-277.71809205472294) translate(246.88895061728394 128.73472222222225)"/><use xlink:href="#S" transform="matrix(1,0,0,1,-1117.7312040617498,-277.71809205472294) translate(60.358086419753086 159.66805555555558)"/><use xlink:href="#T" transform="matrix(1,0,0,1,-1117.7312040617498,-277.71809205472294) translate(144.78030864197532 159.66805555555558)"/><use xlink:href="#U" transform="matrix(1,0,0,1,-1117.7312040617498,-277.71809205472294) translate(102.5691975308642 190.60138888888892)"/><path d="M-966.1-299.4h-2v-26.77h2zm0-58.77h-2v-44.26h2z" stroke="#e81313" stroke-width=".05" fill="#e81313"/><path d="M-967.1-403.43l1-.07v1.1h-2v-1.1z" fill="#e81313"/><path d="M-967.1-403.45l1.02-.07v1.14h-2.05v-1.14zm-.98 1.02h1.95v-1.04l-.98.07-.98-.07z" stroke="#e81313" stroke-width=".05" fill="#e81313"/><path d="M-967.1-284.14l-4.64-14.26h9.27z" fill="#e81313"/><path d="M-967.1-280.9l-6.02-18.5h12.03zm-3.26-16.5l3.25 10.03 3.25-10.03z" stroke="#e81313" stroke-width=".05" fill="#e81313"/><use xlink:href="#V" transform="matrix(1,0,0,1,-984.8093343471875,-358.16483614701747) translate(0 21.333333333333332)"/><path d="M-1121.26 248.23a6 6 0 0 1 6-6h296.3a6 6 0 0 1 6 6v108a6 6 0 0 1-6 6h-296.3a6 6 0 0 1-6-6z" stroke="#3a414a" fill="#fff"/><use xlink:href="#W" transform="matrix(1,0,0,1,-1116.2609479265998,247.22677826383847) translate(85.9148148148148 44.68472222222222)"/><use xlink:href="#X" transform="matrix(1,0,0,1,-1116.2609479265998,247.22677826383847) translate(114.55679012345678 44.68472222222222)"/><use xlink:href="#Y" transform="matrix(1,0,0,1,-1116.2609479265998,247.22677826383847) translate(160.24074074074073 44.68472222222222)"/><use xlink:href="#Z" transform="matrix(1,0,0,1,-1116.2609479265998,247.22677826383847) translate(68.01358024691358 75.61805555555556)"/><path d="M-966.1 223.22h-2V122.14h2zm-1.48-133.08h-2V-28.44h2z" stroke="#e81313" stroke-width=".05" fill="#e81313"/><path d="M-968.58-29.44l1-.07v1.08h-2v-1.1z" fill="#e81313"/><path d="M-968.58-29.47l1.03-.07v1.15h-2.05v-1.14zm-.97 1.03h1.95v-1.05l-.98.08-.97-.07z" stroke="#e81313" stroke-width=".05" fill="#e81313"/><path d="M-967.1 238.5l-4.64-14.28h9.27z" fill="#e81313"/><path d="M-967.1 241.73l-6.02-18.5h12.03zm-3.26-16.5l3.25 10.03 3.25-10.03z" stroke="#e81313" stroke-width=".05" fill="#e81313"/><use xlink:href="#V" transform="matrix(1,0,0,1,-985.5444623462129,90.14127861028777) translate(0 21.333333333333332)"/><path d="M-667.54-209.25a6 6 0 0 1 6-6h296.3a6 6 0 0 1 6 6v108a6 6 0 0 1-6 6h-296.3a6 6 0 0 1-6-6z" stroke="#3a414a" fill="#fff"/><use xlink:href="#aa" transform="matrix(1,0,0,1,-662.5368749981076,-210.25210820551138) translate(11.5530864197531 44.68472222222222)"/><use xlink:href="#ab" transform="matrix(1,0,0,1,-662.5368749981076,-210.25210820551138) translate(120.24938271604938 44.68472222222222)"/><use xlink:href="#ac" transform="matrix(1,0,0,1,-662.5368749981076,-210.25210820551138) translate(197.4395061728395 44.68472222222222)"/><use xlink:href="#ad" transform="matrix(1,0,0,1,-662.5368749981076,-210.25210820551138) translate(230.30617283950616 44.68472222222222)"/><use xlink:href="#ae" transform="matrix(1,0,0,1,-662.5368749981076,-210.25210820551138) translate(15.7777777777778 75.61805555555554)"/><use xlink:href="#af" transform="matrix(1,0,0,1,-662.5368749981076,-210.25210820551138) translate(100.2 75.61805555555554)"/><use xlink:href="#ac" transform="matrix(1,0,0,1,-662.5368749981076,-210.25210820551138) translate(177.39012345679012 75.61805555555554)"/><use xlink:href="#ag" transform="matrix(1,0,0,1,-662.5368749981076,-210.25210820551138) translate(210.2567901234568 75.61805555555554)"/><path d="M-765.35-154.25h-50.4v-2h50.4zm78.8 0h-32.88v-2h32.9z" stroke="#008a0e" stroke-width=".05" fill="#008a0e"/><path d="M-815.72-154.25h-1.12l.1-1-.1-.96 1.12-.05z" fill="#008a0e"/><path d="M-815.7-154.23h-1.17l.1-1.02-.1-.98 1.18-.05zm-1.1-1.96l.08.95-.1.97h1.08v-1.95z" stroke="#008a0e" stroke-width=".05" fill="#008a0e"/><path d="M-671.27-155.25l-14.27 4.63v-9.27z" fill="#008a0e"/><path d="M-668.04-155.25l-18.5 6v-12zm-16.5 3.26l10.03-3.25-10.04-3.26z" stroke="#008a0e" stroke-width=".05" fill="#008a0e"/><use xlink:href="#D" transform="matrix(1,0,0,1,-765.3528415982313,-171.25210820551138) translate(0 21.333333333333332)"/><path d="M-513.38-268.34v36.2" stroke="#3a414a" fill="none"/><path d="M-513.38-268.84h.5v.5h-1v-.5z" stroke="#3a414a" stroke-width=".05" fill="#3a414a"/><path d="M-513.38-217.37l-4.64-14.27h9.27z" stroke="#3a414a" fill="#3a414a"/><path d="M61.13-280.58c0 6.2-52.38 11.24-117 11.24-64.6 0-117-5.03-117-11.24v-89.94c0-6.2 52.4-11.24 117-11.24 64.62 0 117 5.03 117 11.24z" stroke="#3a414a" fill="#dedeff"/><path d="M61.13-370.52c0 6.2-52.38 11.24-117 11.24-64.6 0-117-5.03-117-11.24" stroke="#3a414a" fill="none"/><use xlink:href="#ah" transform="matrix(1,0,0,1,-167.8648662689343,-354.2772216731195) translate(35.21604938271608 47.38888888888888)"/><path d="M-210.02-209.25a6 6 0 0 1 6-6h296.3a6 6 0 0 1 6 6v108a6 6 0 0 1-6 6H-204a6 6 0 0 1-6-6z" stroke="#3a414a" fill="#dedeff"/><use xlink:href="#ai" transform="matrix(1,0,0,1,-205.02018342055158,-210.25210820551138) translate(25.08641975308643 30.934722222222224)"/><use xlink:href="#aj" transform="matrix(1,0,0,1,-205.02018342055158,-210.25210820551138) translate(125.26172839506174 30.934722222222224)"/><use xlink:href="#ak" transform="matrix(1,0,0,1,-205.02018342055158,-210.25210820551138) translate(216.77283950617283 30.934722222222224)"/><use xlink:href="#al" transform="matrix(1,0,0,1,-205.02018342055158,-210.25210820551138) translate(21.68518518518519 61.86805555555556)"/><use xlink:href="#am" transform="matrix(1,0,0,1,-205.02018342055158,-210.25210820551138) translate(156.08765432098767 61.86805555555556)"/><use xlink:href="#an" transform="matrix(1,0,0,1,-205.02018342055158,-210.25210820551138) translate(194.75432098765432 61.86805555555556)"/><use xlink:href="#ao" transform="matrix(1,0,0,1,-205.02018342055158,-210.25210820551138) translate(237.7172839506173 61.86805555555556)"/><use xlink:href="#ap" transform="matrix(1,0,0,1,-205.02018342055158,-210.25210820551138) translate(37.33086419753087 92.8013888888889)"/><use xlink:href="#L" transform="matrix(1,0,0,1,-205.02018342055158,-210.25210820551138) translate(158.77283950617286 92.8013888888889)"/><use xlink:href="#aq" transform="matrix(1,0,0,1,-205.02018342055158,-210.25210820551138) translate(235.96296296296296 92.8013888888889)"/><path d="M-358.73-155.25h131.83M-358.7-155.25h-.53" stroke="#3a414a" fill="none"/><path d="M-212.14-155.25l-14.26 4.63v-9.27z" stroke="#3a414a" fill="#3a414a"/><path d="M-55.87-268.34v36.2" stroke="#3a414a" fill="none"/><path d="M-55.87-268.84h.5v.5h-1v-.5z" stroke="#3a414a" stroke-width=".05" fill="#3a414a"/><path d="M-55.87-217.37l-4.63-14.27h9.27z" stroke="#3a414a" fill="#3a414a"/><path d="M-481.9 208.1a9.5 9.5 0 0 1 10.15 0l144 90.92a3.8 3.8 0 0 1 0 6.4l-144 90.93a9.5 9.5 0 0 1-10.14 0l-144-90.92a3.8 3.8 0 0 1 0-6.4z" stroke="#3a414a" fill="#fff"/><use xlink:href="#ar" transform="matrix(1,0,0,1,-625.9765102887563,209.89703640577846) translate(85.3482098765432 72.65347222222222)"/><use xlink:href="#as" transform="matrix(1,0,0,1,-625.9765102887563,209.89703640577846) translate(139.69635802469134 72.65347222222222)"/><use xlink:href="#at" transform="matrix(1,0,0,1,-625.9765102887563,209.89703640577846) translate(80.94327160493827 103.58680555555556)"/><use xlink:href="#au" transform="matrix(1,0,0,1,-625.9765102887563,209.89703640577846) translate(95.4087037037037 134.5201388888889)"/><path d="M-55.87-94.25V49.7a6 6 0 0 1-6 6H-470.8a6 6 0 0 0-6 6v128.05" stroke="#3a414a" fill="none"/><path d="M-55.37-94.24h-1v-.5h1z" stroke="#3a414a" stroke-width=".05" fill="#3a414a"/><path d="M-476.82 204.5l-4.64-14.25h9.27z" stroke="#3a414a" fill="#3a414a"/><path d="M-743.27 303.23h-50.68v-2h50.68zm114.1 0h-68.18v-2h68.18z" stroke="#008a0e" stroke-width=".05" fill="#008a0e"/><path d="M-628.1 301.37l-.07.86.08.86.06.13h-1.16v-2h1.16z" fill="#008a0e"/><path d="M-628.06 301.37l-.1.86.1.85.05.17h-1.22v-2.05h1.2zm-1.1-.12v1.95h1.08l-.03-.1-.1-.87.1-.87.02-.1z" stroke="#008a0e" stroke-width=".05" fill="#008a0e"/><path d="M-794.95 306.86l-14.26-4.63 14.25-4.64z" fill="#008a0e"/><path d="M-793.95 308.24l-18.5-6 18.5-6.03zm-12.03-6l10.03 3.25v-6.53z" stroke="#008a0e" stroke-width=".05" fill="#008a0e"/><g><use xlink:href="#D" transform="matrix(1,0,0,1,-743.2738579628866,286.22677826383847) translate(0 21.333333333333332)"/></g><path d="M-603.38 641.97a6 6 0 0 1 6-6h167.48a6 6 0 0 1 6 6v150c-29.97-26.05-48.64-26.05-59.95-26.05-17.95 0-41.82 26.05-59.76 26.05-11.14 0-30 0-59.78-26.05z" stroke="#3a414a" fill="#fff"/><g><use xlink:href="#x" transform="matrix(1,0,0,1,-598.3815578464903,640.9739928042593) translate(25.71111111111111 50.62222222222222)"/><use xlink:href="#y" transform="matrix(1,0,0,1,-598.3815578464903,640.9739928042593) translate(121.44691358024691 50.62222222222222)"/><use xlink:href="#z" transform="matrix(1,0,0,1,-598.3815578464903,640.9739928042593) translate(46.36913580246913 81.55555555555556)"/></g><path d="M-1090.8 466.23a7.8 7.8 0 0 1 7.54-5.8h264.3a4.6 4.6 0 0 1 4.46 5.8l-28.9 108.4a7.8 7.8 0 0 1-7.55 5.8h-264.3a4.6 4.6 0 0 1-4.46-5.8z" stroke="#3a414a" fill="#fff"/><g><use xlink:href="#av" transform="matrix(1,0,0,1,-1116.2609479265998,465.4317415719497) translate(56.481543209876534 44.68472222222222)"/><use xlink:href="#aw" transform="matrix(1,0,0,1,-1116.2609479265998,465.4317415719497) translate(138.03956790123456 44.68472222222222)"/><use xlink:href="#ax" transform="matrix(1,0,0,1,-1116.2609479265998,465.4317415719497) translate(29.219814814814818 75.61805555555556)"/><use xlink:href="#ay" transform="matrix(1,0,0,1,-1116.2609479265998,465.4317415719497) translate(126.38771604938273 75.61805555555556)"/></g><path d="M-960.5 581.43v126.54a6 6 0 0 0 6 6h334.24" stroke="#3a414a" fill="none"/><path d="M-960 581.45h-1v-.52h1z" stroke="#3a414a" stroke-width=".05" fill="#3a414a"/><path d="M-605.5 713.97l-14.26 4.64v-9.26z" stroke="#3a414a" fill="#3a414a"/><path d="M-11 208.1a9.5 9.5 0 0 1 10.13 0l144 90.92a3.8 3.8 0 0 1 0 6.4l-144 90.93a9.5 9.5 0 0 1-10.14 0l-144.02-90.92a3.8 3.8 0 0 1 0-6.4z" stroke="#3a414a" fill="#fff"/><g><use xlink:href="#az" transform="matrix(1,0,0,1,-155.09376092159505,209.89703640577846) translate(119.71858024691359 49.52847222222222)"/><use xlink:href="#aA" transform="matrix(1,0,0,1,-155.09376092159505,209.89703640577846) translate(63.86549382716047 80.46180555555556)"/><use xlink:href="#aB" transform="matrix(1,0,0,1,-155.09376092159505,209.89703640577846) translate(200.91734567901236 80.46180555555556)"/><use xlink:href="#aC" transform="matrix(1,0,0,1,-155.09376092159505,209.89703640577846) translate(56.1333950617284 111.3951388888889)"/><use xlink:href="#aD" transform="matrix(1,0,0,1,-155.09376092159505,209.89703640577846) translate(131.81981481481483 111.3951388888889)"/><use xlink:href="#aE" transform="matrix(1,0,0,1,-155.09376092159505,209.89703640577846) translate(171.84697530864196 111.3951388888889)"/><use xlink:href="#aF" transform="matrix(1,0,0,1,-155.09376092159505,209.89703640577846) translate(99.6691975308642 142.32847222222225)"/></g><path d="M-966.1 441.43h-2V416.8h2zm0-56.62h-2v-21.07h2z" stroke="#e81313" stroke-width=".05" fill="#e81313"/><path d="M-966.1 363.75h-2v-1.02h2z" fill="#e81313"/><path d="M-966.08 363.78h-2.05v-1.08h2.05zm-2-1.03v.98h1.95v-.98z" stroke="#e81313" stroke-width=".05" fill="#e81313"/><path d="M-967.1 456.7l-4.64-14.27h9.27z" fill="#e81313"/><path d="M-967.1 459.93l-6.02-18.5h12.03zm-3.26-16.5l3.25 10.03 3.25-10.03z" stroke="#e81313" stroke-width=".05" fill="#e81313"/><g><use xlink:href="#aG" transform="matrix(1,0,0,1,-984.8093345623565,384.81160174178353) translate(0 21.333333333333332)"/></g><path d="M-259.08 303.23h-65.4v-2h65.4zm83.3 0h-47.9v-2h47.9z" stroke="#e81313" stroke-width=".05" fill="#e81313"/><path d="M-324.44 303.23h-1.16l.04-.14.1-.87-.1-.86-.04-.14h1.16z" fill="#e81313"/><path d="M-324.42 303.25h-1.22l.06-.17.08-.85-.08-.86-.06-.17h1.22zm-1.15-2l.04.1.08.88-.08.86-.04.1h1.1v-1.95z" stroke="#e81313" stroke-width=".05" fill="#e81313"/><path d="M-160.53 302.23l-14.26 4.63v-9.27z" fill="#e81313"/><path d="M-157.3 302.23l-18.5 6v-12.02zm-16.5 3.26l10.04-3.27-10.03-3.26z" stroke="#e81313" stroke-width=".05" fill="#e81313"/><g><use xlink:href="#V" transform="matrix(1,0,0,1,-259.08352235353675,286.22677831426813) translate(0 21.333333333333332)"/></g><path d="M-373.83 521.43h-436.1v-2h436.1zm368.9-6.96l-.1 1.06-.25 1.07-.42 1-.57.95-.72.83-.82.72-.94.57-1 .42-1.08.25-1.06.08h-326.53v-2h326.45l.82-.06.77-.2.73-.3.67-.4.6-.5.5-.6.4-.67.3-.72.2-.77.06-.8V399.3h2z" stroke="#e81313" stroke-width=".05" fill="#e81313"/><path d="M-5.94 398.32l1-.06v1.1h-2v-1.1z" fill="#e81313"/><path d="M-5.94 398.3l1.03-.06v1.13h-2.06v-1.13zm-.97 1.02h1.94v-1.03l-.98.05-.97-.06z" stroke="#e81313" stroke-width=".05" fill="#e81313"/><path d="M-810.93 525.07l-14.27-4.64 14.27-4.63z" fill="#e81313"/><path d="M-809.93 526.44l-18.5-6 18.5-6.02zm-12.03-6l10.03 3.25v-6.53z" stroke="#e81313" stroke-width=".05" fill="#e81313"/><g><use xlink:href="#V" transform="matrix(1,0,0,1,-373.83434361413924,504.4317415719497) translate(0 21.333333333333332)"/></g><path d="M73.9 758.94c0 6.2-52.38 11.24-117 11.24-64.6 0-117-5.03-117-11.24V669c0-6.2 52.4-11.24 117-11.24 64.62 0 117 5.04 117 11.25z" stroke="#3a414a" fill="#dedeff"/><path d="M73.9 669c0 6.2-52.38 11.25-117 11.25-64.6 0-117-5.04-117-11.25" stroke="#3a414a" fill="none"/><g><use xlink:href="#aH" transform="matrix(1,0,0,1,-155.09376092159505,685.2474702473299) translate(35.21604938271608 27.38888888888888)"/><use xlink:href="#aI" transform="matrix(1,0,0,1,-155.09376092159505,685.2474702473299) translate(12.746913580246954 64.7222222222222)"/><use xlink:href="#c" transform="matrix(1,0,0,1,-155.09376092159505,685.2474702473299) translate(123.19135802469135 64.7222222222222)"/></g><path d="M186.4 708l-.07 1.07-.26 1.07-.42 1-.57.95-.72.83-.83.7-.94.58-1.02.43-1.07.26-1.05.07H92.9v-2h86.47l.82-.06.76-.17.72-.3.67-.4.6-.52.5-.6.4-.66.3-.72.2-.76.06-.83V559.6h2zm-5.9-406.7l1.08.27 1 .42.95.56.83.7.72.85.57.95.42 1 .26 1.08.08 1.06v219.4h-2V308.27l-.05-.82-.2-.77-.3-.72-.4-.67-.5-.6-.6-.52-.67-.4-.72-.3-.77-.2-.83-.05H146.4v-2h33.05z" stroke="#008a0e" stroke-width=".05" fill="#008a0e"/><path d="M146.44 303.23h-1.16l.04-.14.1-.87-.1-.86-.04-.14h1.16z" fill="#008a0e"/><path d="M146.46 303.25h-1.2l.04-.17.1-.85-.1-.86-.05-.17h1.2zm-1.15-2l.05.1.1.88-.1.86-.03.1h1.1v-1.95z" stroke="#008a0e" stroke-width=".05" fill="#008a0e"/><path d="M91.9 718.6l-14.26-4.63 14.27-4.63z" fill="#008a0e"/><path d="M92.9 720l-18.5-6.03 18.5-6zm-12.02-6.03l10.03 3.26v-6.5z" stroke="#008a0e" stroke-width=".05" fill="#008a0e"/><g><use xlink:href="#aJ" transform="matrix(1,0,0,1,162.44882581571787,527.6033046021732) translate(0 21.33333333333333)"/></g><path d="M-161.1 713.97H-407" stroke="#3a414a" fill="none"/><path d="M-160.6 714.47h-.5v-1h.5z" stroke="#3a414a" stroke-width=".05" fill="#3a414a"/><path d="M-421.78 713.97l14.26-4.63v9.27z" stroke="#3a414a" fill="#3a414a"/><path d="M-1508.88 248.02a7.8 7.8 0 0 1 7.54-5.8h264.3a4.6 4.6 0 0 1 4.47 5.8l-28.9 108.4a7.8 7.8 0 0 1-7.56 5.8h-264.3a4.6 4.6 0 0 1-4.46-5.8z" stroke="#3a414a" fill="#fff"/><g><use xlink:href="#aK" transform="matrix(1,0,0,1,-1534.3366443694688,247.22677826383847) translate(37.828456790123454 44.68472222222222)"/><use xlink:href="#aL" transform="matrix(1,0,0,1,-1534.3366443694688,247.22677826383847) translate(119.38648148148148 44.68472222222222)"/><use xlink:href="#aM" transform="matrix(1,0,0,1,-1534.3366443694688,247.22677826383847) translate(115.00253086419754 75.61805555555556)"/></g><path d="M-1190.54 303.23H-1228v-2h37.46zm67.78 0h-21.86v-2h21.86z" stroke="#008a0e" stroke-width=".05" fill="#008a0e"/><path d="M-1121.76 303.23h-1.03v-2h1.04z" fill="#008a0e"/><path d="M-1121.74 303.25h-1.07v-2.05h1.06zm-1.02-2v1.95h.97v-1.95z" stroke="#008a0e" stroke-width=".05" fill="#008a0e"/><path d="M-1229 306.86l-14.27-4.63 14.26-4.64z" fill="#008a0e"/><path d="M-1228 308.24l-18.5-6 18.5-6.03zm-12.04-6l10.03 3.25v-6.53z" stroke="#008a0e" stroke-width=".05" fill="#008a0e"/><g><use xlink:href="#aN" transform="matrix(1,0,0,1,-1190.5435072547195,286.22677826383847) translate(0 21.333333333333332)"/></g><path d="M-1384.68 707.95l.07.88.2.84.32.8.45.74.56.66.66.56.72.45.8.33.84.2.88.07h758.9v1h-758.94l-1-.08-1-.24-.93-.4-.87-.53-.78-.66-.66-.77-.53-.87-.4-.95-.23-1-.08-1V363.24h1z" stroke="#3a414a" stroke-width=".05" fill="#3a414a"/><path d="M-1384.68 363.24h-1v-.5h1z" fill="#3a414a"/><path d="M-1384.66 363.26h-1.05v-.56h1.04zm-1-.5v.45h.95v-.45z" stroke="#3a414a" stroke-width=".05" fill="#3a414a"/><path d="M-605.5 713.97l-14.26 4.64v-9.26z" fill="#3a414a"/><path d="M-603.88 713.97l-16.38 5.33v-10.65zm-15.38 3.95l12.14-3.95-12.14-3.94z" stroke="#3a414a" stroke-width=".05" fill="#3a414a"/><path d="M-1385.18-963.94v95a6 6 0 0 0 6 6h242.38" stroke="#3a414a" fill="none"/><path d="M-1384.68-963.93h-1v-.5h1z" stroke="#3a414a" stroke-width=".05" fill="#3a414a"/><path d="M-1122.04-862.95l-14.26 4.64v-9.28z" stroke="#3a414a" fill="#3a414a"/><defs><path fill="#3a414a" d="M169-182c-1-43-94-46-97-3 18 66 151 10 154 114 3 95-165 93-204 36-6-8-10-19-12-30l50-8c3 46 112 56 116 5-17-69-150-10-154-114-4-87 153-88 188-35 5 8 8 18 10 28" id="aO"/><path fill="#3a414a" d="M25-224v-37h50v37H25zM25 0v-190h50V0H25" id="aP"/><path fill="#3a414a" d="M195-6C206 82 75 100 31 46c-4-6-6-13-8-21l49-6c3 16 16 24 34 25 40 0 42-37 40-79-11 22-30 35-61 35-53 0-70-43-70-97 0-56 18-96 73-97 30 0 46 14 59 34l2-30h47zm-90-29c32 0 41-27 41-63 0-35-9-62-40-62-32 0-39 29-40 63 0 36 9 62 39 62" id="aQ"/><path fill="#3a414a" d="M220-157c-53 9-28 100-34 157h-49v-107c1-27-5-49-29-50C55-147 81-57 75 0H25l-1-190h47c2 12-1 28 3 38 10-53 101-56 108 0 13-22 24-43 59-42 82 1 51 116 57 194h-49v-107c-1-25-5-48-29-50" id="aR"/><path fill="#3a414a" d="M133-34C117-15 103 5 69 4 32 3 11-16 11-54c-1-60 55-63 116-61 1-26-3-47-28-47-18 1-26 9-28 27l-52-2c7-38 36-58 82-57s74 22 75 68l1 82c-1 14 12 18 25 15v27c-30 8-71 5-69-32zm-48 3c29 0 43-24 42-57-32 0-66-3-65 30 0 17 8 27 23 27" id="aS"/><g id="a"><use transform="matrix(0.0864197530864197,0,0,0.0864197530864197,0,0)" xlink:href="#aO"/><use transform="matrix(0.0864197530864197,0,0,0.0864197530864197,20.74074074074073,0)" xlink:href="#aP"/><use transform="matrix(0.0864197530864197,0,0,0.0864197530864197,29.3827160493827,0)" xlink:href="#aQ"/><use transform="matrix(0.0864197530864197,0,0,0.0864197530864197,48.30864197530862,0)" xlink:href="#aR"/><use transform="matrix(0.0864197530864197,0,0,0.0864197530864197,75.96296296296292,0)" xlink:href="#aS"/></g><path fill="#3a414a" d="M135-150c-39-12-60 13-60 57V0H25l-1-190h47c2 13-1 29 3 40 6-28 27-53 61-41v41" id="aT"/><path fill="#3a414a" d="M185-48c-13 30-37 53-82 52C43 2 14-33 14-96s30-98 90-98c62 0 83 45 84 108H66c0 31 8 55 39 56 18 0 30-7 34-22zm-45-69c5-46-57-63-70-21-2 6-4 13-4 21h74" id="aU"/><path fill="#3a414a" d="M137-138c1-29-70-34-71-4 15 46 118 7 119 86 1 83-164 76-172 9l43-7c4 19 20 25 44 25 33 8 57-30 24-41C81-84 22-81 20-136c-2-80 154-74 161-7" id="aV"/><path fill="#3a414a" d="M85 4C-2 5 27-109 22-190h50c7 57-23 150 33 157 60-5 35-97 40-157h50l1 190h-47c-2-12 1-28-3-38-12 25-28 42-61 42" id="aW"/><path fill="#3a414a" d="M25 0v-261h50V0H25" id="aX"/><path fill="#3a414a" d="M115-3C79 11 28 4 28-45v-112H4v-33h27l15-45h31v45h36v33H77v99c-1 23 16 31 38 25v30" id="aY"/><g id="b"><use transform="matrix(0.0864197530864197,0,0,0.0864197530864197,0,0)" xlink:href="#aT"/><use transform="matrix(0.0864197530864197,0,0,0.0864197530864197,12.098765432098759,0)" xlink:href="#aU"/><use transform="matrix(0.0864197530864197,0,0,0.0864197530864197,29.3827160493827,0)" xlink:href="#aV"/><use transform="matrix(0.0864197530864197,0,0,0.0864197530864197,46.66666666666664,0)" xlink:href="#aW"/><use transform="matrix(0.0864197530864197,0,0,0.0864197530864197,65.59259259259255,0)" xlink:href="#aX"/><use transform="matrix(0.0864197530864197,0,0,0.0864197530864197,74.23456790123453,0)" xlink:href="#aY"/><use transform="matrix(0.0864197530864197,0,0,0.0864197530864197,84.51851851851848,0)" xlink:href="#aV"/></g><path fill="#3a414a" d="M190-63c-7 42-38 67-86 67-59 0-84-38-90-98-12-110 154-137 174-36l-49 2c-2-19-15-32-35-32-30 0-35 28-38 64-6 74 65 87 74 30" id="aZ"/><path fill="#3a414a" d="M114-157C55-157 80-60 75 0H25v-261h50l-1 109c12-26 28-41 61-42 86-1 58 113 63 194h-50c-7-57 23-157-34-157" id="ba"/><g id="c"><use transform="matrix(0.0864197530864197,0,0,0.0864197530864197,0,0)" xlink:href="#aZ"/><use transform="matrix(0.0864197530864197,0,0,0.0864197530864197,17.283950617283942,0)" xlink:href="#aS"/><use transform="matrix(0.0864197530864197,0,0,0.0864197530864197,34.567901234567884,0)" xlink:href="#aZ"/><use transform="matrix(0.0864197530864197,0,0,0.0864197530864197,51.851851851851826,0)" xlink:href="#ba"/><use transform="matrix(0.0864197530864197,0,0,0.0864197530864197,70.77777777777774,0)" xlink:href="#aU"/></g><path fill="#3a414a" d="M240-174c0 40-23 61-54 70L253 0h-59l-57-94H76V0H24v-248c93 4 217-23 216 74zM76-134c48-2 112 12 112-38 0-48-66-32-112-35v73" id="bb"/><path fill="#3a414a" d="M84 4C32 4 15-41 15-95c0-55 18-99 73-99 29 0 47 12 58 34l2-30h48l-1 265h-49V-32C136-9 114 4 84 4zm21-34c32 0 41-29 41-66 0-36-9-64-40-64-33 0-39 30-40 65 0 43 13 65 39 65" id="bc"/><g id="d"><use transform="matrix(0.07407407407407407,0,0,0.07407407407407407,0,0)" xlink:href="#bb"/><use transform="matrix(0.07407407407407407,0,0,0.07407407407407407,19.185185185185183,0)" xlink:href="#aU"/><use transform="matrix(0.07407407407407407,0,0,0.07407407407407407,34,0)" xlink:href="#bc"/><use transform="matrix(0.07407407407407407,0,0,0.07407407407407407,50.22222222222222,0)" xlink:href="#aW"/><use transform="matrix(0.07407407407407407,0,0,0.07407407407407407,66.44444444444444,0)" xlink:href="#aU"/><use transform="matrix(0.07407407407407407,0,0,0.07407407407407407,81.25925925925925,0)" xlink:href="#aV"/><use transform="matrix(0.07407407407407407,0,0,0.07407407407407407,96.07407407407406,0)" xlink:href="#aY"/></g><path fill="#3a414a" d="M88-194c31-1 46 15 58 34l-1-101h50l1 261h-48c-2-10 0-23-3-31C134-8 116 4 84 4 32 4 16-41 15-95c0-56 19-97 73-99zm17 164c33 0 40-30 41-66 1-37-9-64-41-64s-38 30-39 65c0 43 13 65 39 65" id="bd"/><g id="e"><use transform="matrix(0.07407407407407407,0,0,0.07407407407407407,0,0)" xlink:href="#bd"/><use transform="matrix(0.07407407407407407,0,0,0.07407407407407407,16.22222222222222,0)" xlink:href="#aS"/><use transform="matrix(0.07407407407407407,0,0,0.07407407407407407,31.037037037037035,0)" xlink:href="#aY"/><use transform="matrix(0.07407407407407407,0,0,0.07407407407407407,39.85185185185185,0)" xlink:href="#aS"/></g><path fill="#3a414a" d="M135-194c87-1 58 113 63 194h-50c-7-57 23-157-34-157-59 0-34 97-39 157H25l-1-190h47c2 12-1 28 3 38 12-26 28-41 61-42" id="be"/><g id="f"><use transform="matrix(0.07407407407407407,0,0,0.07407407407407407,0,0)" xlink:href="#aW"/><use transform="matrix(0.07407407407407407,0,0,0.07407407407407407,16.22222222222222,0)" xlink:href="#aV"/><use transform="matrix(0.07407407407407407,0,0,0.07407407407407407,31.037037037037035,0)" xlink:href="#aP"/><use transform="matrix(0.07407407407407407,0,0,0.07407407407407407,38.44444444444444,0)" xlink:href="#be"/><use transform="matrix(0.07407407407407407,0,0,0.07407407407407407,54.666666666666664,0)" xlink:href="#aQ"/></g><g id="g"><use transform="matrix(0.07407407407407407,0,0,0.07407407407407407,0,0)" xlink:href="#aO"/><use transform="matrix(0.07407407407407407,0,0,0.07407407407407407,17.77777777777778,0)" xlink:href="#aP"/><use transform="matrix(0.07407407407407407,0,0,0.07407407407407407,25.185185185185183,0)" xlink:href="#aQ"/><use transform="matrix(0.07407407407407407,0,0,0.07407407407407407,41.407407407407405,0)" xlink:href="#aR"/><use transform="matrix(0.07407407407407407,0,0,0.07407407407407407,65.11111111111111,0)" xlink:href="#aS"/></g><path d="M24-248c120-7 223 5 221 122C244-46 201 0 124 0H24v-248zM76-40c74 7 117-18 117-86 0-67-45-88-117-82v168" id="bf"/><path d="M110-194c64 0 96 36 96 99 0 64-35 99-97 99-61 0-95-36-95-99 0-62 34-99 96-99zm-1 164c35 0 45-28 45-65 0-40-10-65-43-65-34 0-45 26-45 65 0 36 10 65 43 65" id="bg"/><path d="M185-48c-13 30-37 53-82 52C43 2 14-33 14-96s30-98 90-98c62 0 83 45 84 108H66c0 31 8 55 39 56 18 0 30-7 34-22zm-45-69c5-46-57-63-70-21-2 6-4 13-4 21h74" id="bh"/><path d="M137-138c1-29-70-34-71-4 15 46 118 7 119 86 1 83-164 76-172 9l43-7c4 19 20 25 44 25 33 8 57-30 24-41C81-84 22-81 20-136c-2-80 154-74 161-7" id="bi"/><g id="h"><use transform="matrix(0.07160493827160494,0,0,0.07160493827160494,0,0)" xlink:href="#bf"/><use transform="matrix(0.07160493827160494,0,0,0.07160493827160494,18.54567901234568,0)" xlink:href="#bg"/><use transform="matrix(0.07160493827160494,0,0,0.07160493827160494,34.227160493827164,0)" xlink:href="#bh"/><use transform="matrix(0.07160493827160494,0,0,0.07160493827160494,48.54814814814815,0)" xlink:href="#bi"/></g><path d="M135-194c52 0 70 43 70 98 0 56-19 99-73 100-30 1-46-15-58-35L72 0H24l1-261h50v104c11-23 29-37 60-37zM114-30c31 0 40-27 40-66 0-37-7-63-39-63s-41 28-41 65c0 36 8 64 40 64" id="bj"/><path d="M135-150c-39-12-60 13-60 57V0H25l-1-190h47c2 13-1 29 3 40 6-28 27-53 61-41v41" id="bk"/><path d="M231 0h-52l-39-155L100 0H48L-1-190h46L77-45c9-52 24-97 36-145h53l37 145 32-145h46" id="bl"/><g id="i"><use transform="matrix(0.07160493827160494,0,0,0.07160493827160494,0,0)" xlink:href="#bj"/><use transform="matrix(0.07160493827160494,0,0,0.07160493827160494,15.681481481481482,0)" xlink:href="#bk"/><use transform="matrix(0.07160493827160494,0,0,0.07160493827160494,25.706172839506173,0)" xlink:href="#bg"/><use transform="matrix(0.07160493827160494,0,0,0.07160493827160494,41.38765432098766,0)" xlink:href="#bl"/><use transform="matrix(0.07160493827160494,0,0,0.07160493827160494,61.437037037037044,0)" xlink:href="#bi"/><use transform="matrix(0.07160493827160494,0,0,0.07160493827160494,75.75802469135803,0)" xlink:href="#bh"/><use transform="matrix(0.07160493827160494,0,0,0.07160493827160494,90.07901234567902,0)" xlink:href="#bk"/></g><path d="M190-63c-7 42-38 67-86 67-59 0-84-38-90-98-12-110 154-137 174-36l-49 2c-2-19-15-32-35-32-30 0-35 28-38 64-6 74 65 87 74 30" id="bm"/><path d="M133-34C117-15 103 5 69 4 32 3 11-16 11-54c-1-60 55-63 116-61 1-26-3-47-28-47-18 1-26 9-28 27l-52-2c7-38 36-58 82-57s74 22 75 68l1 82c-1 14 12 18 25 15v27c-30 8-71 5-69-32zm-48 3c29 0 43-24 42-57-32 0-66-3-65 30 0 17 8 27 23 27" id="bn"/><path d="M114-157C55-157 80-60 75 0H25v-261h50l-1 109c12-26 28-41 61-42 86-1 58 113 63 194h-50c-7-57 23-157-34-157" id="bo"/><g id="j"><use transform="matrix(0.07160493827160494,0,0,0.07160493827160494,0,0)" xlink:href="#bm"/><use transform="matrix(0.07160493827160494,0,0,0.07160493827160494,14.320987654320987,0)" xlink:href="#bn"/><use transform="matrix(0.07160493827160494,0,0,0.07160493827160494,28.641975308641975,0)" xlink:href="#bm"/><use transform="matrix(0.07160493827160494,0,0,0.07160493827160494,42.96296296296296,0)" xlink:href="#bo"/><use transform="matrix(0.07160493827160494,0,0,0.07160493827160494,58.644444444444446,0)" xlink:href="#bh"/></g><path d="M128 0H69L1-190h53L99-40l48-150h52" id="bp"/><g id="k"><use transform="matrix(0.07160493827160494,0,0,0.07160493827160494,0,0)" xlink:href="#bo"/><use transform="matrix(0.07160493827160494,0,0,0.07160493827160494,15.681481481481482,0)" xlink:href="#bn"/><use transform="matrix(0.07160493827160494,0,0,0.07160493827160494,30.00246913580247,0)" xlink:href="#bp"/><use transform="matrix(0.07160493827160494,0,0,0.07160493827160494,44.32345679012346,0)" xlink:href="#bh"/></g><path d="M25 0v-261h50V0H25" id="bq"/><g id="l"><use transform="matrix(0.07160493827160494,0,0,0.07160493827160494,0,0)" xlink:href="#bn"/><use transform="matrix(0.07160493827160494,0,0,0.07160493827160494,14.320987654320987,0)" xlink:href="#bq"/><use transform="matrix(0.07160493827160494,0,0,0.07160493827160494,21.48148148148148,0)" xlink:href="#bq"/></g><path d="M115-3C79 11 28 4 28-45v-112H4v-33h27l15-45h31v45h36v33H77v99c-1 23 16 31 38 25v30" id="br"/><g id="m"><use transform="matrix(0.07160493827160494,0,0,0.07160493827160494,0,0)" xlink:href="#br"/><use transform="matrix(0.07160493827160494,0,0,0.07160493827160494,8.520987654320988,0)" xlink:href="#bo"/><use transform="matrix(0.07160493827160494,0,0,0.07160493827160494,24.20246913580247,0)" xlink:href="#bh"/></g><path d="M88-194c31-1 46 15 58 34l-1-101h50l1 261h-48c-2-10 0-23-3-31C134-8 116 4 84 4 32 4 16-41 15-95c0-56 19-97 73-99zm17 164c33 0 40-30 41-66 1-37-9-64-41-64s-38 30-39 65c0 43 13 65 39 65" id="bs"/><path d="M110-251c83-7 118 89 53 130-17 10-36 21-38 46H78c2-56 65-53 71-103 2-21-15-35-38-34-25 1-41 14-44 38l-50-2c6-48 39-70 93-75zM77 0v-47h51V0H77" id="bt"/><g id="n"><use transform="matrix(0.07160493827160494,0,0,0.07160493827160494,0,0)" xlink:href="#bs"/><use transform="matrix(0.07160493827160494,0,0,0.07160493827160494,15.681481481481482,0)" xlink:href="#bn"/><use transform="matrix(0.07160493827160494,0,0,0.07160493827160494,30.00246913580247,0)" xlink:href="#br"/><use transform="matrix(0.07160493827160494,0,0,0.07160493827160494,38.523456790123454,0)" xlink:href="#bn"/><use transform="matrix(0.07160493827160494,0,0,0.07160493827160494,52.84444444444445,0)" xlink:href="#bt"/></g><g id="o"><use transform="matrix(0.07160493827160494,0,0,0.07160493827160494,0,0)" xlink:href="#bf"/><use transform="matrix(0.07160493827160494,0,0,0.07160493827160494,18.54567901234568,0)" xlink:href="#bg"/><use transform="matrix(0.07160493827160494,0,0,0.07160493827160494,34.227160493827164,0)" xlink:href="#bh"/><use transform="matrix(0.07160493827160494,0,0,0.07160493827160494,48.54814814814815,0)" xlink:href="#bi"/></g><g id="p"><use transform="matrix(0.07160493827160494,0,0,0.07160493827160494,0,0)" xlink:href="#bj"/><use transform="matrix(0.07160493827160494,0,0,0.07160493827160494,15.681481481481482,0)" xlink:href="#bk"/><use transform="matrix(0.07160493827160494,0,0,0.07160493827160494,25.706172839506173,0)" xlink:href="#bg"/><use transform="matrix(0.07160493827160494,0,0,0.07160493827160494,41.38765432098766,0)" xlink:href="#bl"/><use transform="matrix(0.07160493827160494,0,0,0.07160493827160494,61.437037037037044,0)" xlink:href="#bi"/><use transform="matrix(0.07160493827160494,0,0,0.07160493827160494,75.75802469135803,0)" xlink:href="#bh"/><use transform="matrix(0.07160493827160494,0,0,0.07160493827160494,90.07901234567902,0)" xlink:href="#bk"/></g><g id="q"><use transform="matrix(0.07160493827160494,0,0,0.07160493827160494,0,0)" xlink:href="#bm"/><use transform="matrix(0.07160493827160494,0,0,0.07160493827160494,14.320987654320987,0)" xlink:href="#bn"/><use transform="matrix(0.07160493827160494,0,0,0.07160493827160494,28.641975308641975,0)" xlink:href="#bm"/><use transform="matrix(0.07160493827160494,0,0,0.07160493827160494,42.96296296296296,0)" xlink:href="#bo"/><use transform="matrix(0.07160493827160494,0,0,0.07160493827160494,58.644444444444446,0)" xlink:href="#bh"/></g><g id="r"><use transform="matrix(0.07160493827160494,0,0,0.07160493827160494,0,0)" xlink:href="#bj"/><use transform="matrix(0.07160493827160494,0,0,0.07160493827160494,15.681481481481482,0)" xlink:href="#bh"/></g><path d="M85 4C-2 5 27-109 22-190h50c7 57-23 150 33 157 60-5 35-97 40-157h50l1 190h-47c-2-12 1-28-3-38-12 25-28 42-61 42" id="bu"/><g id="s"><use transform="matrix(0.07160493827160494,0,0,0.07160493827160494,0,0)" xlink:href="#bu"/><use transform="matrix(0.07160493827160494,0,0,0.07160493827160494,15.681481481481482,0)" xlink:href="#bi"/><use transform="matrix(0.07160493827160494,0,0,0.07160493827160494,30.00246913580247,0)" xlink:href="#bh"/><use transform="matrix(0.07160493827160494,0,0,0.07160493827160494,44.32345679012346,0)" xlink:href="#bs"/></g><g id="t"><use transform="matrix(0.07160493827160494,0,0,0.07160493827160494,0,0)" xlink:href="#br"/><use transform="matrix(0.07160493827160494,0,0,0.07160493827160494,8.520987654320988,0)" xlink:href="#bg"/></g><g id="u"><use transform="matrix(0.07160493827160494,0,0,0.07160493827160494,0,0)" xlink:href="#bm"/><use transform="matrix(0.07160493827160494,0,0,0.07160493827160494,14.320987654320987,0)" xlink:href="#bn"/><use transform="matrix(0.07160493827160494,0,0,0.07160493827160494,28.641975308641975,0)" xlink:href="#bq"/><use transform="matrix(0.07160493827160494,0,0,0.07160493827160494,35.80246913580247,0)" xlink:href="#bm"/><use transform="matrix(0.07160493827160494,0,0,0.07160493827160494,50.123456790123456,0)" xlink:href="#bu"/><use transform="matrix(0.07160493827160494,0,0,0.07160493827160494,65.80493827160494,0)" xlink:href="#bq"/><use transform="matrix(0.07160493827160494,0,0,0.07160493827160494,72.96543209876543,0)" xlink:href="#bn"/><use transform="matrix(0.07160493827160494,0,0,0.07160493827160494,87.28641975308642,0)" xlink:href="#br"/><use transform="matrix(0.07160493827160494,0,0,0.07160493827160494,95.80740740740741,0)" xlink:href="#bh"/></g><path d="M25-224v-37h50v37H25zM25 0v-190h50V0H25" id="bv"/><g id="v"><use transform="matrix(0.07160493827160494,0,0,0.07160493827160494,0,0)" xlink:href="#bs"/><use transform="matrix(0.07160493827160494,0,0,0.07160493827160494,15.681481481481482,0)" xlink:href="#bh"/><use transform="matrix(0.07160493827160494,0,0,0.07160493827160494,30.00246913580247,0)" xlink:href="#bi"/><use transform="matrix(0.07160493827160494,0,0,0.07160493827160494,44.32345679012346,0)" xlink:href="#bv"/><use transform="matrix(0.07160493827160494,0,0,0.07160493827160494,51.48395061728395,0)" xlink:href="#bk"/><use transform="matrix(0.07160493827160494,0,0,0.07160493827160494,61.50864197530864,0)" xlink:href="#bh"/><use transform="matrix(0.07160493827160494,0,0,0.07160493827160494,75.82962962962964,0)" xlink:href="#bs"/></g><g id="w"><use transform="matrix(0.07160493827160494,0,0,0.07160493827160494,0,0)" xlink:href="#bs"/><use transform="matrix(0.07160493827160494,0,0,0.07160493827160494,15.681481481481482,0)" xlink:href="#bn"/><use transform="matrix(0.07160493827160494,0,0,0.07160493827160494,30.00246913580247,0)" xlink:href="#br"/><use transform="matrix(0.07160493827160494,0,0,0.07160493827160494,38.523456790123454,0)" xlink:href="#bn"/><use transform="matrix(0.07160493827160494,0,0,0.07160493827160494,52.84444444444445,0)" xlink:href="#bt"/></g><path d="M240-174c0 40-23 61-54 70L253 0h-59l-57-94H76V0H24v-248c93 4 217-23 216 74zM76-134c48-2 112 12 112-38 0-48-66-32-112-35v73" id="bw"/><path d="M135-194c87-1 58 113 63 194h-50c-7-57 23-157-34-157-59 0-34 97-39 157H25l-1-190h47c2 12-1 28 3 38 12-26 28-41 61-42" id="bx"/><g id="x"><use transform="matrix(0.07160493827160494,0,0,0.07160493827160494,0,0)" xlink:href="#bw"/><use transform="matrix(0.07160493827160494,0,0,0.07160493827160494,18.54567901234568,0)" xlink:href="#bh"/><use transform="matrix(0.07160493827160494,0,0,0.07160493827160494,32.86666666666667,0)" xlink:href="#bx"/><use transform="matrix(0.07160493827160494,0,0,0.07160493827160494,48.54814814814815,0)" xlink:href="#bs"/><use transform="matrix(0.07160493827160494,0,0,0.07160493827160494,64.22962962962963,0)" xlink:href="#bh"/><use transform="matrix(0.07160493827160494,0,0,0.07160493827160494,78.55061728395061,0)" xlink:href="#bk"/></g><g id="y"><use transform="matrix(0.07160493827160494,0,0,0.07160493827160494,0,0)" xlink:href="#bv"/><use transform="matrix(0.07160493827160494,0,0,0.07160493827160494,7.160493827160494,0)" xlink:href="#bx"/></g><path d="M169-182c-1-43-94-46-97-3 18 66 151 10 154 114 3 95-165 93-204 36-6-8-10-19-12-30l50-8c3 46 112 56 116 5-17-69-150-10-154-114-4-87 153-88 188-35 5 8 8 18 10 28" id="by"/><path d="M195-6C206 82 75 100 31 46c-4-6-6-13-8-21l49-6c3 16 16 24 34 25 40 0 42-37 40-79-11 22-30 35-61 35-53 0-70-43-70-97 0-56 18-96 73-97 30 0 46 14 59 34l2-30h47zm-90-29c32 0 41-27 41-63 0-35-9-62-40-62-32 0-39 29-40 63 0 36 9 62 39 62" id="bz"/><path d="M220-157c-53 9-28 100-34 157h-49v-107c1-27-5-49-29-50C55-147 81-57 75 0H25l-1-190h47c2 12-1 28 3 38 10-53 101-56 108 0 13-22 24-43 59-42 82 1 51 116 57 194h-49v-107c-1-25-5-48-29-50" id="bA"/><g id="z"><use transform="matrix(0.07160493827160494,0,0,0.07160493827160494,0,0)" xlink:href="#by"/><use transform="matrix(0.07160493827160494,0,0,0.07160493827160494,17.185185185185187,0)" xlink:href="#bv"/><use transform="matrix(0.07160493827160494,0,0,0.07160493827160494,24.34567901234568,0)" xlink:href="#bz"/><use transform="matrix(0.07160493827160494,0,0,0.07160493827160494,40.02716049382716,0)" xlink:href="#bA"/><use transform="matrix(0.07160493827160494,0,0,0.07160493827160494,62.94074074074074,0)" xlink:href="#bn"/></g><path d="M199 0l-22-63H83L61 0H9l90-248h61L250 0h-51zm-33-102l-36-108c-10 38-24 72-36 108h72" id="bB"/><g id="A"><use transform="matrix(0.07160493827160494,0,0,0.07160493827160494,0,0)" xlink:href="#bB"/><use transform="matrix(0.07160493827160494,0,0,0.07160493827160494,18.54567901234568,0)" xlink:href="#bm"/><use transform="matrix(0.07160493827160494,0,0,0.07160493827160494,32.86666666666667,0)" xlink:href="#bm"/><use transform="matrix(0.07160493827160494,0,0,0.07160493827160494,47.187654320987654,0)" xlink:href="#bh"/><use transform="matrix(0.07160493827160494,0,0,0.07160493827160494,61.50864197530864,0)" xlink:href="#bi"/><use transform="matrix(0.07160493827160494,0,0,0.07160493827160494,75.82962962962964,0)" xlink:href="#bi"/></g><g id="B"><use transform="matrix(0.07160493827160494,0,0,0.07160493827160494,0,0)" xlink:href="#bj"/><use transform="matrix(0.07160493827160494,0,0,0.07160493827160494,15.681481481481482,0)" xlink:href="#bk"/><use transform="matrix(0.07160493827160494,0,0,0.07160493827160494,25.706172839506173,0)" xlink:href="#bg"/><use transform="matrix(0.07160493827160494,0,0,0.07160493827160494,41.38765432098766,0)" xlink:href="#bl"/><use transform="matrix(0.07160493827160494,0,0,0.07160493827160494,61.437037037037044,0)" xlink:href="#bi"/><use transform="matrix(0.07160493827160494,0,0,0.07160493827160494,75.75802469135803,0)" xlink:href="#bh"/><use transform="matrix(0.07160493827160494,0,0,0.07160493827160494,90.07901234567902,0)" xlink:href="#bk"/></g><g id="C"><use transform="matrix(0.07160493827160494,0,0,0.07160493827160494,0,0)" xlink:href="#bm"/><use transform="matrix(0.07160493827160494,0,0,0.07160493827160494,14.320987654320987,0)" xlink:href="#bn"/><use transform="matrix(0.07160493827160494,0,0,0.07160493827160494,28.641975308641975,0)" xlink:href="#bm"/><use transform="matrix(0.07160493827160494,0,0,0.07160493827160494,42.96296296296296,0)" xlink:href="#bo"/><use transform="matrix(0.07160493827160494,0,0,0.07160493827160494,58.644444444444446,0)" xlink:href="#bh"/></g><path fill="#333" d="M146-102V0H94v-102L6-248h54l60 105 60-105h54" id="bC"/><path fill="#333" d="M185-48c-13 30-37 53-82 52C43 2 14-33 14-96s30-98 90-98c62 0 83 45 84 108H66c0 31 8 55 39 56 18 0 30-7 34-22zm-45-69c5-46-57-63-70-21-2 6-4 13-4 21h74" id="bD"/><path fill="#333" d="M137-138c1-29-70-34-71-4 15 46 118 7 119 86 1 83-164 76-172 9l43-7c4 19 20 25 44 25 33 8 57-30 24-41C81-84 22-81 20-136c-2-80 154-74 161-7" id="bE"/><g id="D"><use transform="matrix(0.07407407407407407,0,0,0.07407407407407407,0,0)" xlink:href="#bC"/><use transform="matrix(0.07407407407407407,0,0,0.07407407407407407,16.296296296296298,0)" xlink:href="#bD"/><use transform="matrix(0.07407407407407407,0,0,0.07407407407407407,31.11111111111111,0)" xlink:href="#bE"/></g><path fill="#333" d="M175 0L67-191c6 58 2 128 3 191H24v-248h59L193-55c-6-58-2-129-3-193h46V0h-61" id="bF"/><path fill="#333" d="M110-194c64 0 96 36 96 99 0 64-35 99-97 99-61 0-95-36-95-99 0-62 34-99 96-99zm-1 164c35 0 45-28 45-65 0-40-10-65-43-65-34 0-45 26-45 65 0 36 10 65 43 65" id="bG"/><g id="E"><use transform="matrix(0.06790123456790123,0,0,0.06790123456790123,0,0)" xlink:href="#bF"/><use transform="matrix(0.06790123456790123,0,0,0.06790123456790123,17.586419753086417,0)" xlink:href="#bG"/></g><path d="M67-125c0 53 21 87 73 88 37 1 54-22 65-47l45 17C233-25 199 4 140 4 58 4 20-42 15-125 8-235 124-281 211-232c18 10 29 29 36 50l-46 12c-8-25-30-41-62-41-52 0-71 34-72 86" id="bH"/><path d="M135-194c53 0 70 44 70 98 0 56-19 98-73 100-31 1-45-17-59-34 3 33 2 69 2 105H25l-1-265h48c2 10 0 23 3 31 11-24 29-35 60-35zM114-30c33 0 39-31 40-66 0-38-9-64-40-64-56 0-55 130 0 130" id="bI"/><g id="F"><use transform="matrix(0.07160493827160494,0,0,0.07160493827160494,0,0)" xlink:href="#bH"/><use transform="matrix(0.07160493827160494,0,0,0.07160493827160494,18.54567901234568,0)" xlink:href="#bg"/><use transform="matrix(0.07160493827160494,0,0,0.07160493827160494,34.227160493827164,0)" xlink:href="#bA"/><use transform="matrix(0.07160493827160494,0,0,0.07160493827160494,57.14074074074075,0)" xlink:href="#bI"/><use transform="matrix(0.07160493827160494,0,0,0.07160493827160494,72.82222222222222,0)" xlink:href="#bu"/><use transform="matrix(0.07160493827160494,0,0,0.07160493827160494,88.5037037037037,0)" xlink:href="#br"/><use transform="matrix(0.07160493827160494,0,0,0.07160493827160494,97.0246913580247,0)" xlink:href="#bh"/></g><g id="G"><use transform="matrix(0.07160493827160494,0,0,0.07160493827160494,0,0)" xlink:href="#bl"/><use transform="matrix(0.07160493827160494,0,0,0.07160493827160494,20.049382716049383,0)" xlink:href="#bv"/><use transform="matrix(0.07160493827160494,0,0,0.07160493827160494,27.209876543209877,0)" xlink:href="#br"/><use transform="matrix(0.07160493827160494,0,0,0.07160493827160494,35.73086419753086,0)" xlink:href="#bo"/></g><g id="H"><use transform="matrix(0.07160493827160494,0,0,0.07160493827160494,0,0)" xlink:href="#bB"/><use transform="matrix(0.07160493827160494,0,0,0.07160493827160494,18.54567901234568,0)" xlink:href="#bq"/><use transform="matrix(0.07160493827160494,0,0,0.07160493827160494,25.706172839506173,0)" xlink:href="#bI"/><use transform="matrix(0.07160493827160494,0,0,0.07160493827160494,41.38765432098766,0)" xlink:href="#bo"/><use transform="matrix(0.07160493827160494,0,0,0.07160493827160494,57.069135802469134,0)" xlink:href="#bn"/></g><path d="M140-251c80 0 125 45 125 126 0 70-33 111-92 124 6 28 34 38 68 31l-1 36C177 83 129 55 120 2 51-6 15-50 15-125c0-81 44-126 125-126zm-1 214c52 0 73-35 73-88 0-50-21-86-72-86-52 0-73 35-73 86s22 88 72 88" id="bJ"/><path d="M123 10C108 53 80 86 19 72V37c35 8 53-11 59-39L3-190h52l48 148c12-52 28-100 44-148h51" id="bK"/><g id="I"><use transform="matrix(0.07160493827160494,0,0,0.07160493827160494,0,0)" xlink:href="#bJ"/><use transform="matrix(0.07160493827160494,0,0,0.07160493827160494,20.049382716049383,0)" xlink:href="#bu"/><use transform="matrix(0.07160493827160494,0,0,0.07160493827160494,35.73086419753086,0)" xlink:href="#bh"/><use transform="matrix(0.07160493827160494,0,0,0.07160493827160494,50.05185185185185,0)" xlink:href="#bk"/><use transform="matrix(0.07160493827160494,0,0,0.07160493827160494,60.07654320987653,0)" xlink:href="#bK"/></g><g id="J"><use transform="matrix(0.07160493827160494,0,0,0.07160493827160494,0,0)" xlink:href="#bv"/><use transform="matrix(0.07160493827160494,0,0,0.07160493827160494,7.160493827160494,0)" xlink:href="#bi"/></g><use transform="matrix(0.07160493827160494,0,0,0.07160493827160494,0,0)" xlink:href="#bn" id="K"/><path d="M84 4C32 4 15-41 15-95c0-55 18-99 73-99 29 0 47 12 58 34l2-30h48l-1 265h-49V-32C136-9 114 4 84 4zm21-34c32 0 41-29 41-66 0-36-9-64-40-64-33 0-39 30-40 65 0 43 13 65 39 65" id="bL"/><g id="L"><use transform="matrix(0.07160493827160494,0,0,0.07160493827160494,0,0)" xlink:href="#bL"/><use transform="matrix(0.07160493827160494,0,0,0.07160493827160494,15.681481481481482,0)" xlink:href="#bu"/><use transform="matrix(0.07160493827160494,0,0,0.07160493827160494,31.362962962962964,0)" xlink:href="#bh"/><use transform="matrix(0.07160493827160494,0,0,0.07160493827160494,45.683950617283955,0)" xlink:href="#bk"/><use transform="matrix(0.07160493827160494,0,0,0.07160493827160494,55.708641975308645,0)" xlink:href="#bK"/></g><g id="M"><use transform="matrix(0.07160493827160494,0,0,0.07160493827160494,0,0)" xlink:href="#bl"/><use transform="matrix(0.07160493827160494,0,0,0.07160493827160494,20.049382716049383,0)" xlink:href="#br"/><use transform="matrix(0.07160493827160494,0,0,0.07160493827160494,28.57037037037037,0)" xlink:href="#bo"/></g><g id="N"><use transform="matrix(0.07160493827160494,0,0,0.07160493827160494,0,0)" xlink:href="#br"/><use transform="matrix(0.07160493827160494,0,0,0.07160493827160494,8.520987654320988,0)" xlink:href="#bo"/><use transform="matrix(0.07160493827160494,0,0,0.07160493827160494,24.20246913580247,0)" xlink:href="#bh"/></g><g id="O"><use transform="matrix(0.07160493827160494,0,0,0.07160493827160494,0,0)" xlink:href="#bi"/><use transform="matrix(0.07160493827160494,0,0,0.07160493827160494,14.320987654320987,0)" xlink:href="#bn"/><use transform="matrix(0.07160493827160494,0,0,0.07160493827160494,28.641975308641975,0)" xlink:href="#bA"/><use transform="matrix(0.07160493827160494,0,0,0.07160493827160494,51.55555555555556,0)" xlink:href="#bh"/></g><g id="P"><use transform="matrix(0.07160493827160494,0,0,0.07160493827160494,0,0)" xlink:href="#bi"/><use transform="matrix(0.07160493827160494,0,0,0.07160493827160494,14.320987654320987,0)" xlink:href="#br"/><use transform="matrix(0.07160493827160494,0,0,0.07160493827160494,22.841975308641977,0)" xlink:href="#bk"/><use transform="matrix(0.07160493827160494,0,0,0.07160493827160494,32.86666666666667,0)" xlink:href="#bu"/><use transform="matrix(0.07160493827160494,0,0,0.07160493827160494,48.54814814814815,0)" xlink:href="#bm"/><use transform="matrix(0.07160493827160494,0,0,0.07160493827160494,62.86913580246914,0)" xlink:href="#br"/><use transform="matrix(0.07160493827160494,0,0,0.07160493827160494,71.39012345679012,0)" xlink:href="#bu"/><use transform="matrix(0.07160493827160494,0,0,0.07160493827160494,87.0716049382716,0)" xlink:href="#bk"/><use transform="matrix(0.07160493827160494,0,0,0.07160493827160494,97.0962962962963,0)" xlink:href="#bh"/></g><g id="Q"><use transform="matrix(0.07160493827160494,0,0,0.07160493827160494,0,0)" xlink:href="#bI"/><use transform="matrix(0.07160493827160494,0,0,0.07160493827160494,15.681481481481482,0)" xlink:href="#bk"/><use transform="matrix(0.07160493827160494,0,0,0.07160493827160494,25.706172839506173,0)" xlink:href="#bh"/><use transform="matrix(0.07160493827160494,0,0,0.07160493827160494,40.02716049382716,0)" xlink:href="#bi"/><use transform="matrix(0.07160493827160494,0,0,0.07160493827160494,54.34814814814815,0)" xlink:href="#bh"/><use transform="matrix(0.07160493827160494,0,0,0.07160493827160494,68.66913580246913,0)" xlink:href="#bx"/><use transform="matrix(0.07160493827160494,0,0,0.07160493827160494,84.35061728395061,0)" xlink:href="#br"/></g><g id="R"><use transform="matrix(0.07160493827160494,0,0,0.07160493827160494,0,0)" xlink:href="#bv"/><use transform="matrix(0.07160493827160494,0,0,0.07160493827160494,7.160493827160494,0)" xlink:href="#bx"/></g><g id="S"><use transform="matrix(0.07160493827160494,0,0,0.07160493827160494,0,0)" xlink:href="#by"/><use transform="matrix(0.07160493827160494,0,0,0.07160493827160494,17.185185185185187,0)" xlink:href="#bv"/><use transform="matrix(0.07160493827160494,0,0,0.07160493827160494,24.34567901234568,0)" xlink:href="#bz"/><use transform="matrix(0.07160493827160494,0,0,0.07160493827160494,40.02716049382716,0)" xlink:href="#bA"/><use transform="matrix(0.07160493827160494,0,0,0.07160493827160494,62.94074074074074,0)" xlink:href="#bn"/></g><g id="T"><use transform="matrix(0.07160493827160494,0,0,0.07160493827160494,0,0)" xlink:href="#bw"/><use transform="matrix(0.07160493827160494,0,0,0.07160493827160494,18.54567901234568,0)" xlink:href="#bh"/><use transform="matrix(0.07160493827160494,0,0,0.07160493827160494,32.86666666666667,0)" xlink:href="#bi"/><use transform="matrix(0.07160493827160494,0,0,0.07160493827160494,47.187654320987654,0)" xlink:href="#bu"/><use transform="matrix(0.07160493827160494,0,0,0.07160493827160494,62.86913580246914,0)" xlink:href="#bq"/><use transform="matrix(0.07160493827160494,0,0,0.07160493827160494,70.02962962962962,0)" xlink:href="#br"/><use transform="matrix(0.07160493827160494,0,0,0.07160493827160494,78.55061728395061,0)" xlink:href="#bi"/></g><g id="U"><use transform="matrix(0.07160493827160494,0,0,0.07160493827160494,0,0)" xlink:href="#bH"/><use transform="matrix(0.07160493827160494,0,0,0.07160493827160494,18.54567901234568,0)" xlink:href="#bn"/><use transform="matrix(0.07160493827160494,0,0,0.07160493827160494,32.86666666666667,0)" xlink:href="#bm"/><use transform="matrix(0.07160493827160494,0,0,0.07160493827160494,47.187654320987654,0)" xlink:href="#bo"/><use transform="matrix(0.07160493827160494,0,0,0.07160493827160494,62.86913580246914,0)" xlink:href="#bh"/><use transform="matrix(0.07160493827160494,0,0,0.07160493827160494,77.19012345679012,0)" xlink:href="#bt"/></g><g id="V"><use transform="matrix(0.07407407407407407,0,0,0.07407407407407407,0,0)" xlink:href="#bF"/><use transform="matrix(0.07407407407407407,0,0,0.07407407407407407,19.185185185185183,0)" xlink:href="#bG"/></g><path d="M24 0v-248h52V0H24" id="bM"/><g id="W"><use transform="matrix(0.07160493827160494,0,0,0.07160493827160494,0,0)" xlink:href="#bM"/><use transform="matrix(0.07160493827160494,0,0,0.07160493827160494,7.160493827160494,0)" xlink:href="#bi"/></g><g id="X"><use transform="matrix(0.07160493827160494,0,0,0.07160493827160494,0,0)" xlink:href="#br"/><use transform="matrix(0.07160493827160494,0,0,0.07160493827160494,8.520987654320988,0)" xlink:href="#bo"/><use transform="matrix(0.07160493827160494,0,0,0.07160493827160494,24.20246913580247,0)" xlink:href="#bh"/></g><g id="Y"><use transform="matrix(0.07160493827160494,0,0,0.07160493827160494,0,0)" xlink:href="#bs"/><use transform="matrix(0.07160493827160494,0,0,0.07160493827160494,15.681481481481482,0)" xlink:href="#bn"/><use transform="matrix(0.07160493827160494,0,0,0.07160493827160494,30.00246913580247,0)" xlink:href="#br"/><use transform="matrix(0.07160493827160494,0,0,0.07160493827160494,38.523456790123454,0)" xlink:href="#bn"/></g><path d="M230 0l2-204L168 0h-37L68-204 70 0H24v-248h70l56 185 57-185h69V0h-46" id="bN"/><path d="M12 0v-35l95-120H19v-35h142v35L67-36h103V0H12" id="bO"/><g id="Z"><use transform="matrix(0.07160493827160494,0,0,0.07160493827160494,0,0)" xlink:href="#bN"/><use transform="matrix(0.07160493827160494,0,0,0.07160493827160494,21.409876543209876,0)" xlink:href="#bn"/><use transform="matrix(0.07160493827160494,0,0,0.07160493827160494,35.73086419753086,0)" xlink:href="#br"/><use transform="matrix(0.07160493827160494,0,0,0.07160493827160494,44.25185185185185,0)" xlink:href="#bh"/><use transform="matrix(0.07160493827160494,0,0,0.07160493827160494,58.57283950617284,0)" xlink:href="#bk"/><use transform="matrix(0.07160493827160494,0,0,0.07160493827160494,68.59753086419754,0)" xlink:href="#bv"/><use transform="matrix(0.07160493827160494,0,0,0.07160493827160494,75.75802469135803,0)" xlink:href="#bn"/><use transform="matrix(0.07160493827160494,0,0,0.07160493827160494,90.07901234567902,0)" xlink:href="#bq"/><use transform="matrix(0.07160493827160494,0,0,0.07160493827160494,97.23950617283951,0)" xlink:href="#bv"/><use transform="matrix(0.07160493827160494,0,0,0.07160493827160494,104.4,0)" xlink:href="#bO"/><use transform="matrix(0.07160493827160494,0,0,0.07160493827160494,117.28888888888889,0)" xlink:href="#bh"/><use transform="matrix(0.07160493827160494,0,0,0.07160493827160494,131.60987654320988,0)" xlink:href="#bs"/><use transform="matrix(0.07160493827160494,0,0,0.07160493827160494,147.29135802469136,0)" xlink:href="#bt"/></g><g id="aa"><use transform="matrix(0.07160493827160493,0,0,0.07160493827160493,0,0)" xlink:href="#bw"/><use transform="matrix(0.07160493827160493,0,0,0.07160493827160493,18.545679012345676,0)" xlink:href="#bh"/><use transform="matrix(0.07160493827160493,0,0,0.07160493827160493,32.86666666666666,0)" xlink:href="#br"/><use transform="matrix(0.07160493827160493,0,0,0.07160493827160493,41.38765432098765,0)" xlink:href="#bk"/><use transform="matrix(0.07160493827160493,0,0,0.07160493827160493,51.41234567901234,0)" xlink:href="#bv"/><use transform="matrix(0.07160493827160493,0,0,0.07160493827160493,58.57283950617284,0)" xlink:href="#bh"/><use transform="matrix(0.07160493827160493,0,0,0.07160493827160493,72.89382716049381,0)" xlink:href="#bp"/><use transform="matrix(0.07160493827160493,0,0,0.07160493827160493,87.2148148148148,0)" xlink:href="#bh"/></g><g id="ab"><use transform="matrix(0.07160493827160493,0,0,0.07160493827160493,0,0)" xlink:href="#bL"/><use transform="matrix(0.07160493827160493,0,0,0.07160493827160493,15.681481481481478,0)" xlink:href="#bu"/><use transform="matrix(0.07160493827160493,0,0,0.07160493827160493,31.362962962962957,0)" xlink:href="#bh"/><use transform="matrix(0.07160493827160493,0,0,0.07160493827160493,45.68395061728394,0)" xlink:href="#bk"/><use transform="matrix(0.07160493827160493,0,0,0.07160493827160493,55.70864197530863,0)" xlink:href="#bK"/></g><g id="ac"><use transform="matrix(0.07160493827160493,0,0,0.07160493827160493,0,0)" xlink:href="#bM"/><use transform="matrix(0.07160493827160493,0,0,0.07160493827160493,7.160493827160493,0)" xlink:href="#bf"/></g><path d="M121-226c-27-7-43 5-38 36h38v33H83V0H34v-157H6v-33h28c-9-59 32-81 87-68v32" id="bP"/><g id="ad"><use transform="matrix(0.07160493827160493,0,0,0.07160493827160493,0,0)" xlink:href="#bP"/><use transform="matrix(0.07160493827160493,0,0,0.07160493827160493,8.520987654320987,0)" xlink:href="#bk"/><use transform="matrix(0.07160493827160493,0,0,0.07160493827160493,18.545679012345676,0)" xlink:href="#bg"/><use transform="matrix(0.07160493827160493,0,0,0.07160493827160493,34.22716049382716,0)" xlink:href="#bA"/></g><g id="ae"><use transform="matrix(0.07160493827160493,0,0,0.07160493827160493,0,0)" xlink:href="#by"/><use transform="matrix(0.07160493827160493,0,0,0.07160493827160493,17.185185185185183,0)" xlink:href="#bv"/><use transform="matrix(0.07160493827160493,0,0,0.07160493827160493,24.34567901234568,0)" xlink:href="#bz"/><use transform="matrix(0.07160493827160493,0,0,0.07160493827160493,40.027160493827154,0)" xlink:href="#bA"/><use transform="matrix(0.07160493827160493,0,0,0.07160493827160493,62.94074074074073,0)" xlink:href="#bn"/></g><g id="af"><use transform="matrix(0.07160493827160493,0,0,0.07160493827160493,0,0)" xlink:href="#bk"/><use transform="matrix(0.07160493827160493,0,0,0.07160493827160493,10.02469135802469,0)" xlink:href="#bh"/><use transform="matrix(0.07160493827160493,0,0,0.07160493827160493,24.34567901234568,0)" xlink:href="#bi"/><use transform="matrix(0.07160493827160493,0,0,0.07160493827160493,38.66666666666667,0)" xlink:href="#bu"/><use transform="matrix(0.07160493827160493,0,0,0.07160493827160493,54.34814814814814,0)" xlink:href="#bq"/><use transform="matrix(0.07160493827160493,0,0,0.07160493827160493,61.508641975308635,0)" xlink:href="#br"/></g><g id="ag"><use transform="matrix(0.07160493827160493,0,0,0.07160493827160493,0,0)" xlink:href="#bm"/><use transform="matrix(0.07160493827160493,0,0,0.07160493827160493,14.320987654320986,0)" xlink:href="#bn"/><use transform="matrix(0.07160493827160493,0,0,0.07160493827160493,28.64197530864197,0)" xlink:href="#bm"/><use transform="matrix(0.07160493827160493,0,0,0.07160493827160493,42.962962962962955,0)" xlink:href="#bo"/><use transform="matrix(0.07160493827160493,0,0,0.07160493827160493,58.64444444444443,0)" xlink:href="#bh"/></g><path fill="#3a414a" d="M110-194c64 0 96 36 96 99 0 64-35 99-97 99-61 0-95-36-95-99 0-62 34-99 96-99zm-1 164c35 0 45-28 45-65 0-40-10-65-43-65-34 0-45 26-45 65 0 36 10 65 43 65" id="bQ"/><path fill="#3a414a" d="M231 0h-52l-39-155L100 0H48L-1-190h46L77-45c9-52 24-97 36-145h53l37 145 32-145h46" id="bR"/><path fill="#3a414a" d="M121-226c-27-7-43 5-38 36h38v33H83V0H34v-157H6v-33h28c-9-59 32-81 87-68v32" id="bS"/><path fill="#3a414a" d="M147 0L96-86 75-71V0H25v-261h50v150l67-79h53l-66 74L201 0h-54" id="bT"/><g id="ah"><use transform="matrix(0.0864197530864197,0,0,0.0864197530864197,0,0)" xlink:href="#aO"/><use transform="matrix(0.0864197530864197,0,0,0.0864197530864197,20.74074074074073,0)" xlink:href="#be"/><use transform="matrix(0.0864197530864197,0,0,0.0864197530864197,39.66666666666664,0)" xlink:href="#bQ"/><use transform="matrix(0.0864197530864197,0,0,0.0864197530864197,58.59259259259256,0)" xlink:href="#bR"/><use transform="matrix(0.0864197530864197,0,0,0.0864197530864197,82.79012345679007,0)" xlink:href="#bS"/><use transform="matrix(0.0864197530864197,0,0,0.0864197530864197,93.07407407407402,0)" xlink:href="#aX"/><use transform="matrix(0.0864197530864197,0,0,0.0864197530864197,101.716049382716,0)" xlink:href="#aS"/><use transform="matrix(0.0864197530864197,0,0,0.0864197530864197,118.99999999999994,0)" xlink:href="#bT"/><use transform="matrix(0.0864197530864197,0,0,0.0864197530864197,136.2839506172839,0)" xlink:href="#aU"/></g><g id="ai"><use transform="matrix(0.07160493827160494,0,0,0.07160493827160494,0,0)" xlink:href="#bk"/><use transform="matrix(0.07160493827160494,0,0,0.07160493827160494,10.024691358024691,0)" xlink:href="#bh"/><use transform="matrix(0.07160493827160494,0,0,0.07160493827160494,24.345679012345677,0)" xlink:href="#br"/><use transform="matrix(0.07160493827160494,0,0,0.07160493827160494,32.86666666666667,0)" xlink:href="#bk"/><use transform="matrix(0.07160493827160494,0,0,0.07160493827160494,42.89135802469136,0)" xlink:href="#bv"/><use transform="matrix(0.07160493827160494,0,0,0.07160493827160494,50.05185185185185,0)" xlink:href="#bh"/><use transform="matrix(0.07160493827160494,0,0,0.07160493827160494,64.37283950617284,0)" xlink:href="#bp"/><use transform="matrix(0.07160493827160494,0,0,0.07160493827160494,78.69382716049383,0)" xlink:href="#bh"/></g><g id="aj"><use transform="matrix(0.07160493827160494,0,0,0.07160493827160494,0,0)" xlink:href="#bk"/><use transform="matrix(0.07160493827160494,0,0,0.07160493827160494,10.024691358024691,0)" xlink:href="#bh"/><use transform="matrix(0.07160493827160494,0,0,0.07160493827160494,24.345679012345677,0)" xlink:href="#bi"/><use transform="matrix(0.07160493827160494,0,0,0.07160493827160494,38.666666666666664,0)" xlink:href="#bu"/><use transform="matrix(0.07160493827160494,0,0,0.07160493827160494,54.34814814814815,0)" xlink:href="#bq"/><use transform="matrix(0.07160493827160494,0,0,0.07160493827160494,61.50864197530864,0)" xlink:href="#br"/><use transform="matrix(0.07160493827160494,0,0,0.07160493827160494,70.02962962962962,0)" xlink:href="#bi"/></g><g id="ak"><use transform="matrix(0.07160493827160494,0,0,0.07160493827160494,0,0)" xlink:href="#bP"/><use transform="matrix(0.07160493827160494,0,0,0.07160493827160494,8.520987654320988,0)" xlink:href="#bk"/><use transform="matrix(0.07160493827160494,0,0,0.07160493827160494,18.54567901234568,0)" xlink:href="#bg"/><use transform="matrix(0.07160493827160494,0,0,0.07160493827160494,34.227160493827164,0)" xlink:href="#bA"/></g><path d="M147 0L96-86 75-71V0H25v-261h50v150l67-79h53l-66 74L201 0h-54" id="bU"/><g id="al"><use transform="matrix(0.07160493827160494,0,0,0.07160493827160494,0,0)" xlink:href="#by"/><use transform="matrix(0.07160493827160494,0,0,0.07160493827160494,17.185185185185187,0)" xlink:href="#bx"/><use transform="matrix(0.07160493827160494,0,0,0.07160493827160494,32.86666666666667,0)" xlink:href="#bg"/><use transform="matrix(0.07160493827160494,0,0,0.07160493827160494,48.54814814814815,0)" xlink:href="#bl"/><use transform="matrix(0.07160493827160494,0,0,0.07160493827160494,68.59753086419754,0)" xlink:href="#bP"/><use transform="matrix(0.07160493827160494,0,0,0.07160493827160494,77.11851851851851,0)" xlink:href="#bq"/><use transform="matrix(0.07160493827160494,0,0,0.07160493827160494,84.27901234567902,0)" xlink:href="#bn"/><use transform="matrix(0.07160493827160494,0,0,0.07160493827160494,98.60000000000001,0)" xlink:href="#bU"/><use transform="matrix(0.07160493827160494,0,0,0.07160493827160494,112.920987654321,0)" xlink:href="#bh"/></g><path d="M128-127c34 4 56 21 59 58 7 91-148 94-172 28-4-9-6-17-7-26l51-5c1 24 16 35 40 36 23 0 39-12 38-36-1-31-31-36-65-34v-40c32 2 59-3 59-33 0-20-13-33-34-33s-33 13-35 32l-50-3c6-44 37-68 86-68 50 0 83 20 83 66 0 35-22 52-53 58" id="bV"/><g id="am"><use transform="matrix(0.07160493827160494,0,0,0.07160493827160494,0,0)" xlink:href="#by"/><use transform="matrix(0.07160493827160494,0,0,0.07160493827160494,17.185185185185187,0)" xlink:href="#bV"/></g><g id="an"><use transform="matrix(0.07160493827160494,0,0,0.07160493827160494,0,0)" xlink:href="#bp"/><use transform="matrix(0.07160493827160494,0,0,0.07160493827160494,14.320987654320987,0)" xlink:href="#bv"/><use transform="matrix(0.07160493827160494,0,0,0.07160493827160494,21.48148148148148,0)" xlink:href="#bn"/></g><path d="M24-248c93 1 206-16 204 79-1 75-69 88-152 82V0H24v-248zm52 121c47 0 100 7 100-41 0-47-54-39-100-39v80" id="bW"/><path d="M76-54c-1 42 2 86-19 110H24C36 42 46 24 48 0H25v-54h51" id="bX"/><g id="ao"><use transform="matrix(0.07160493827160494,0,0,0.07160493827160494,0,0)" xlink:href="#bB"/><use transform="matrix(0.07160493827160494,0,0,0.07160493827160494,18.54567901234568,0)" xlink:href="#bW"/><use transform="matrix(0.07160493827160494,0,0,0.07160493827160494,32.437037037037044,0)" xlink:href="#bX"/></g><g id="ap"><use transform="matrix(0.07160493827160494,0,0,0.07160493827160494,0,0)" xlink:href="#bA"/><use transform="matrix(0.07160493827160494,0,0,0.07160493827160494,22.913580246913583,0)" xlink:href="#bn"/><use transform="matrix(0.07160493827160494,0,0,0.07160493827160494,37.23456790123457,0)" xlink:href="#br"/><use transform="matrix(0.07160493827160494,0,0,0.07160493827160494,45.75555555555556,0)" xlink:href="#bm"/><use transform="matrix(0.07160493827160494,0,0,0.07160493827160494,60.07654320987655,0)" xlink:href="#bo"/><use transform="matrix(0.07160493827160494,0,0,0.07160493827160494,75.75802469135803,0)" xlink:href="#bv"/><use transform="matrix(0.07160493827160494,0,0,0.07160493827160494,82.91851851851852,0)" xlink:href="#bx"/><use transform="matrix(0.07160493827160494,0,0,0.07160493827160494,98.60000000000001,0)" xlink:href="#bz"/></g><g id="aq"><use transform="matrix(0.07160493827160494,0,0,0.07160493827160494,0,0)" xlink:href="#bM"/><use transform="matrix(0.07160493827160494,0,0,0.07160493827160494,7.160493827160494,0)" xlink:href="#bf"/></g><path d="M186 0v-106H76V0H24v-248h52v99h110v-99h50V0h-50" id="bY"/><g id="ar"><use transform="matrix(0.07160493827160494,0,0,0.07160493827160494,0,0)" xlink:href="#bY"/><use transform="matrix(0.07160493827160494,0,0,0.07160493827160494,18.54567901234568,0)" xlink:href="#bn"/><use transform="matrix(0.07160493827160494,0,0,0.07160493827160494,32.86666666666667,0)" xlink:href="#bi"/></g><g id="as"><use transform="matrix(0.07160493827160494,0,0,0.07160493827160494,0,0)" xlink:href="#bm"/><use transform="matrix(0.07160493827160494,0,0,0.07160493827160494,14.320987654320987,0)" xlink:href="#bn"/><use transform="matrix(0.07160493827160494,0,0,0.07160493827160494,28.641975308641975,0)" xlink:href="#bm"/><use transform="matrix(0.07160493827160494,0,0,0.07160493827160494,42.96296296296296,0)" xlink:href="#bo"/><use transform="matrix(0.07160493827160494,0,0,0.07160493827160494,58.644444444444446,0)" xlink:href="#bh"/></g><path d="M14-72v-43h91v43H14" id="bZ"/><g id="at"><use transform="matrix(0.07160493827160494,0,0,0.07160493827160494,0,0)" xlink:href="#br"/><use transform="matrix(0.07160493827160494,0,0,0.07160493827160494,8.520987654320988,0)" xlink:href="#bv"/><use transform="matrix(0.07160493827160494,0,0,0.07160493827160494,15.681481481481482,0)" xlink:href="#bA"/><use transform="matrix(0.07160493827160494,0,0,0.07160493827160494,38.59506172839506,0)" xlink:href="#bh"/><use transform="matrix(0.07160493827160494,0,0,0.07160493827160494,52.916049382716054,0)" xlink:href="#bZ"/><use transform="matrix(0.07160493827160494,0,0,0.07160493827160494,61.437037037037044,0)" xlink:href="#br"/><use transform="matrix(0.07160493827160494,0,0,0.07160493827160494,69.95802469135803,0)" xlink:href="#bg"/><use transform="matrix(0.07160493827160494,0,0,0.07160493827160494,85.63950617283952,0)" xlink:href="#bZ"/><use transform="matrix(0.07160493827160494,0,0,0.07160493827160494,94.16049382716051,0)" xlink:href="#bq"/><use transform="matrix(0.07160493827160494,0,0,0.07160493827160494,101.320987654321,0)" xlink:href="#bv"/><use transform="matrix(0.07160493827160494,0,0,0.07160493827160494,108.4814814814815,0)" xlink:href="#bp"/><use transform="matrix(0.07160493827160494,0,0,0.07160493827160494,122.80246913580248,0)" xlink:href="#bh"/></g><path d="M144 0l-44-69L55 0H2l70-98-66-92h53l41 62 40-62h54l-67 91 71 99h-54" id="ca"/><g id="au"><use transform="matrix(0.07160493827160494,0,0,0.07160493827160494,0,0)" xlink:href="#bh"/><use transform="matrix(0.07160493827160494,0,0,0.07160493827160494,14.320987654320987,0)" xlink:href="#ca"/><use transform="matrix(0.07160493827160494,0,0,0.07160493827160494,28.641975308641975,0)" xlink:href="#bI"/><use transform="matrix(0.07160493827160494,0,0,0.07160493827160494,44.32345679012346,0)" xlink:href="#bv"/><use transform="matrix(0.07160493827160494,0,0,0.07160493827160494,51.48395061728395,0)" xlink:href="#bk"/><use transform="matrix(0.07160493827160494,0,0,0.07160493827160494,61.50864197530864,0)" xlink:href="#bh"/><use transform="matrix(0.07160493827160494,0,0,0.07160493827160494,75.82962962962964,0)" xlink:href="#bs"/><use transform="matrix(0.07160493827160494,0,0,0.07160493827160494,91.51111111111112,0)" xlink:href="#bt"/></g><g id="av"><use transform="matrix(0.07160493827160494,0,0,0.07160493827160494,0,0)" xlink:href="#bJ"/><use transform="matrix(0.07160493827160494,0,0,0.07160493827160494,20.049382716049383,0)" xlink:href="#bu"/><use transform="matrix(0.07160493827160494,0,0,0.07160493827160494,35.73086419753086,0)" xlink:href="#bh"/><use transform="matrix(0.07160493827160494,0,0,0.07160493827160494,50.05185185185185,0)" xlink:href="#bk"/><use transform="matrix(0.07160493827160494,0,0,0.07160493827160494,60.07654320987653,0)" xlink:href="#bK"/></g><g id="aw"><use transform="matrix(0.07160493827160494,0,0,0.07160493827160494,0,0)" xlink:href="#bh"/><use transform="matrix(0.07160493827160494,0,0,0.07160493827160494,14.320987654320987,0)" xlink:href="#ca"/><use transform="matrix(0.07160493827160494,0,0,0.07160493827160494,28.641975308641975,0)" xlink:href="#bh"/><use transform="matrix(0.07160493827160494,0,0,0.07160493827160494,42.96296296296296,0)" xlink:href="#bm"/><use transform="matrix(0.07160493827160494,0,0,0.07160493827160494,57.28395061728395,0)" xlink:href="#bu"/><use transform="matrix(0.07160493827160494,0,0,0.07160493827160494,72.96543209876543,0)" xlink:href="#br"/><use transform="matrix(0.07160493827160494,0,0,0.07160493827160494,81.48641975308642,0)" xlink:href="#bh"/><use transform="matrix(0.07160493827160494,0,0,0.07160493827160494,95.80740740740741,0)" xlink:href="#bs"/></g><g id="ax"><use transform="matrix(0.07160493827160494,0,0,0.07160493827160494,0,0)" xlink:href="#bn"/><use transform="matrix(0.07160493827160494,0,0,0.07160493827160494,14.320987654320987,0)" xlink:href="#bz"/><use transform="matrix(0.07160493827160494,0,0,0.07160493827160494,30.00246913580247,0)" xlink:href="#bn"/><use transform="matrix(0.07160493827160494,0,0,0.07160493827160494,44.32345679012346,0)" xlink:href="#bv"/><use transform="matrix(0.07160493827160494,0,0,0.07160493827160494,51.48395061728395,0)" xlink:href="#bx"/><use transform="matrix(0.07160493827160494,0,0,0.07160493827160494,67.16543209876544,0)" xlink:href="#bi"/><use transform="matrix(0.07160493827160494,0,0,0.07160493827160494,81.48641975308642,0)" xlink:href="#br"/></g><g id="ay"><use transform="matrix(0.07160493827160494,0,0,0.07160493827160494,0,0)" xlink:href="#bl"/><use transform="matrix(0.07160493827160494,0,0,0.07160493827160494,20.049382716049383,0)" xlink:href="#bn"/><use transform="matrix(0.07160493827160494,0,0,0.07160493827160494,34.37037037037037,0)" xlink:href="#bk"/><use transform="matrix(0.07160493827160494,0,0,0.07160493827160494,44.395061728395056,0)" xlink:href="#bh"/><use transform="matrix(0.07160493827160494,0,0,0.07160493827160494,58.716049382716044,0)" xlink:href="#bo"/><use transform="matrix(0.07160493827160494,0,0,0.07160493827160494,74.39753086419752,0)" xlink:href="#bg"/><use transform="matrix(0.07160493827160494,0,0,0.07160493827160494,90.079012345679,0)" xlink:href="#bu"/><use transform="matrix(0.07160493827160494,0,0,0.07160493827160494,105.76049382716047,0)" xlink:href="#bi"/><use transform="matrix(0.07160493827160494,0,0,0.07160493827160494,120.08148148148146,0)" xlink:href="#bh"/></g><g id="az"><use transform="matrix(0.07160493827160494,0,0,0.07160493827160494,0,0)" xlink:href="#bN"/><use transform="matrix(0.07160493827160494,0,0,0.07160493827160494,21.409876543209876,0)" xlink:href="#bh"/><use transform="matrix(0.07160493827160494,0,0,0.07160493827160494,35.73086419753086,0)" xlink:href="#bh"/><use transform="matrix(0.07160493827160494,0,0,0.07160493827160494,50.05185185185185,0)" xlink:href="#br"/></g><g id="aA"><use transform="matrix(0.07160493827160494,0,0,0.07160493827160494,0,0)" xlink:href="#bm"/><use transform="matrix(0.07160493827160494,0,0,0.07160493827160494,14.320987654320987,0)" xlink:href="#bg"/><use transform="matrix(0.07160493827160494,0,0,0.07160493827160494,30.00246913580247,0)" xlink:href="#bx"/><use transform="matrix(0.07160493827160494,0,0,0.07160493827160494,45.683950617283955,0)" xlink:href="#bs"/><use transform="matrix(0.07160493827160494,0,0,0.07160493827160494,61.36543209876544,0)" xlink:href="#bv"/><use transform="matrix(0.07160493827160494,0,0,0.07160493827160494,68.52592592592593,0)" xlink:href="#br"/><use transform="matrix(0.07160493827160494,0,0,0.07160493827160494,77.04691358024691,0)" xlink:href="#bv"/><use transform="matrix(0.07160493827160494,0,0,0.07160493827160494,84.20740740740742,0)" xlink:href="#bg"/><use transform="matrix(0.07160493827160494,0,0,0.07160493827160494,99.88888888888891,0)" xlink:href="#bx"/><use transform="matrix(0.07160493827160494,0,0,0.07160493827160494,115.57037037037038,0)" xlink:href="#bi"/></g><g id="aB"><use transform="matrix(0.07160493827160494,0,0,0.07160493827160494,0,0)" xlink:href="#bP"/><use transform="matrix(0.07160493827160494,0,0,0.07160493827160494,8.520987654320988,0)" xlink:href="#bg"/><use transform="matrix(0.07160493827160494,0,0,0.07160493827160494,24.20246913580247,0)" xlink:href="#bk"/></g><g id="aC"><use transform="matrix(0.07160493827160494,0,0,0.07160493827160494,0,0)" xlink:href="#bu"/><use transform="matrix(0.07160493827160494,0,0,0.07160493827160494,15.681481481481482,0)" xlink:href="#bi"/><use transform="matrix(0.07160493827160494,0,0,0.07160493827160494,30.00246913580247,0)" xlink:href="#bv"/><use transform="matrix(0.07160493827160494,0,0,0.07160493827160494,37.162962962962965,0)" xlink:href="#bx"/><use transform="matrix(0.07160493827160494,0,0,0.07160493827160494,52.84444444444445,0)" xlink:href="#bz"/></g><path d="M76-208v77h127v40H76V0H24v-248h183v40H76" id="cb"/><g id="aD"><use transform="matrix(0.07160493827160494,0,0,0.07160493827160494,0,0)" xlink:href="#by"/><use transform="matrix(0.07160493827160494,0,0,0.07160493827160494,17.185185185185187,0)" xlink:href="#cb"/></g><g id="aE"><use transform="matrix(0.07160493827160494,0,0,0.07160493827160494,0,0)" xlink:href="#bk"/><use transform="matrix(0.07160493827160494,0,0,0.07160493827160494,10.024691358024691,0)" xlink:href="#bh"/><use transform="matrix(0.07160493827160494,0,0,0.07160493827160494,24.345679012345677,0)" xlink:href="#bi"/><use transform="matrix(0.07160493827160494,0,0,0.07160493827160494,38.666666666666664,0)" xlink:href="#bu"/><use transform="matrix(0.07160493827160494,0,0,0.07160493827160494,54.34814814814815,0)" xlink:href="#bq"/><use transform="matrix(0.07160493827160494,0,0,0.07160493827160494,61.50864197530864,0)" xlink:href="#br"/></g><path d="M86-200l42-18 12 35-44 11 32 37-32 21-26-44-26 44-32-21 33-37-44-11 12-35 42 18-3-48h38" id="cc"/><g id="aF"><use transform="matrix(0.07160493827160494,0,0,0.07160493827160494,0,0)" xlink:href="#bm"/><use transform="matrix(0.07160493827160494,0,0,0.07160493827160494,14.320987654320987,0)" xlink:href="#bn"/><use transform="matrix(0.07160493827160494,0,0,0.07160493827160494,28.641975308641975,0)" xlink:href="#bm"/><use transform="matrix(0.07160493827160494,0,0,0.07160493827160494,42.96296296296296,0)" xlink:href="#bo"/><use transform="matrix(0.07160493827160494,0,0,0.07160493827160494,58.644444444444446,0)" xlink:href="#bh"/><use transform="matrix(0.07160493827160494,0,0,0.07160493827160494,72.96543209876543,0)" xlink:href="#bt"/><use transform="matrix(0.07160493827160494,0,0,0.07160493827160494,88.64691358024692,0)" xlink:href="#cc"/></g><g id="aG"><use transform="matrix(0.07407407407407407,0,0,0.07407407407407407,0,0)" xlink:href="#bF"/><use transform="matrix(0.07407407407407407,0,0,0.07407407407407407,19.185185185185183,0)" xlink:href="#bG"/></g><g id="aH"><use transform="matrix(0.0864197530864197,0,0,0.0864197530864197,0,0)" xlink:href="#aO"/><use transform="matrix(0.0864197530864197,0,0,0.0864197530864197,20.74074074074073,0)" xlink:href="#be"/><use transform="matrix(0.0864197530864197,0,0,0.0864197530864197,39.66666666666664,0)" xlink:href="#bQ"/><use transform="matrix(0.0864197530864197,0,0,0.0864197530864197,58.59259259259256,0)" xlink:href="#bR"/><use transform="matrix(0.0864197530864197,0,0,0.0864197530864197,82.79012345679007,0)" xlink:href="#bS"/><use transform="matrix(0.0864197530864197,0,0,0.0864197530864197,93.07407407407402,0)" xlink:href="#aX"/><use transform="matrix(0.0864197530864197,0,0,0.0864197530864197,101.716049382716,0)" xlink:href="#aS"/><use transform="matrix(0.0864197530864197,0,0,0.0864197530864197,118.99999999999994,0)" xlink:href="#bT"/><use transform="matrix(0.0864197530864197,0,0,0.0864197530864197,136.2839506172839,0)" xlink:href="#aU"/></g><g id="aI"><use transform="matrix(0.0864197530864197,0,0,0.0864197530864197,0,0)" xlink:href="#aT"/><use transform="matrix(0.0864197530864197,0,0,0.0864197530864197,12.098765432098759,0)" xlink:href="#aU"/><use transform="matrix(0.0864197530864197,0,0,0.0864197530864197,29.3827160493827,0)" xlink:href="#aV"/><use transform="matrix(0.0864197530864197,0,0,0.0864197530864197,46.66666666666664,0)" xlink:href="#aW"/><use transform="matrix(0.0864197530864197,0,0,0.0864197530864197,65.59259259259255,0)" xlink:href="#aX"/><use transform="matrix(0.0864197530864197,0,0,0.0864197530864197,74.23456790123453,0)" xlink:href="#aY"/><use transform="matrix(0.0864197530864197,0,0,0.0864197530864197,84.51851851851848,0)" xlink:href="#aV"/></g><g id="aJ"><use transform="matrix(0.07407407407407406,0,0,0.07407407407407406,0,0)" xlink:href="#bC"/><use transform="matrix(0.07407407407407406,0,0,0.07407407407407406,16.296296296296294,0)" xlink:href="#bD"/><use transform="matrix(0.07407407407407406,0,0,0.07407407407407406,31.111111111111107,0)" xlink:href="#bE"/></g><g id="aK"><use transform="matrix(0.07160493827160494,0,0,0.07160493827160494,0,0)" xlink:href="#bJ"/><use transform="matrix(0.07160493827160494,0,0,0.07160493827160494,20.049382716049383,0)" xlink:href="#bu"/><use transform="matrix(0.07160493827160494,0,0,0.07160493827160494,35.73086419753086,0)" xlink:href="#bh"/><use transform="matrix(0.07160493827160494,0,0,0.07160493827160494,50.05185185185185,0)" xlink:href="#bk"/><use transform="matrix(0.07160493827160494,0,0,0.07160493827160494,60.07654320987653,0)" xlink:href="#bK"/></g><g id="aL"><use transform="matrix(0.07160493827160494,0,0,0.07160493827160494,0,0)" xlink:href="#bA"/><use transform="matrix(0.07160493827160494,0,0,0.07160493827160494,22.913580246913583,0)" xlink:href="#bn"/><use transform="matrix(0.07160493827160494,0,0,0.07160493827160494,37.23456790123457,0)" xlink:href="#br"/><use transform="matrix(0.07160493827160494,0,0,0.07160493827160494,45.75555555555556,0)" xlink:href="#bh"/><use transform="matrix(0.07160493827160494,0,0,0.07160493827160494,60.07654320987655,0)" xlink:href="#bk"/><use transform="matrix(0.07160493827160494,0,0,0.07160493827160494,70.10123456790124,0)" xlink:href="#bv"/><use transform="matrix(0.07160493827160494,0,0,0.07160493827160494,77.26172839506172,0)" xlink:href="#bn"/><use transform="matrix(0.07160493827160494,0,0,0.07160493827160494,91.58271604938273,0)" xlink:href="#bq"/><use transform="matrix(0.07160493827160494,0,0,0.07160493827160494,98.74320987654322,0)" xlink:href="#bv"/><use transform="matrix(0.07160493827160494,0,0,0.07160493827160494,105.90370370370371,0)" xlink:href="#bO"/><use transform="matrix(0.07160493827160494,0,0,0.07160493827160494,118.7925925925926,0)" xlink:href="#bh"/><use transform="matrix(0.07160493827160494,0,0,0.07160493827160494,133.11358024691359,0)" xlink:href="#bs"/></g><g id="aM"><use transform="matrix(0.07160493827160494,0,0,0.07160493827160494,0,0)" xlink:href="#br"/><use transform="matrix(0.07160493827160494,0,0,0.07160493827160494,8.520987654320988,0)" xlink:href="#bn"/><use transform="matrix(0.07160493827160494,0,0,0.07160493827160494,22.841975308641977,0)" xlink:href="#bj"/><use transform="matrix(0.07160493827160494,0,0,0.07160493827160494,38.523456790123454,0)" xlink:href="#bq"/><use transform="matrix(0.07160493827160494,0,0,0.07160493827160494,45.683950617283955,0)" xlink:href="#bh"/></g><g id="aN"><use transform="matrix(0.07407407407407407,0,0,0.07407407407407407,0,0)" xlink:href="#bC"/><use transform="matrix(0.07407407407407407,0,0,0.07407407407407407,16.296296296296298,0)" xlink:href="#bD"/><use transform="matrix(0.07407407407407407,0,0,0.07407407407407407,31.11111111111111,0)" xlink:href="#bE"/></g></defs></g></svg>