<svg xmlns="http://www.w3.org/2000/svg" xmlns:xlink="http://www.w3.org/1999/xlink" xmlns:lucid="lucid" width="2341" height="2301"><g transform="translate(1920.5 1460.5)" lucid:page-tab-id="hFJk9loK6FWF"><path d="M-2000-1500H500v2500h-2500z" fill="#fff"/><path d="M-1900-1434a6 6 0 0 1 6-6H394a6 6 0 0 1 6 6V814a6 6 0 0 1-6 6h-2288a6 6 0 0 1-6-6z" stroke="#3a414a" fill-opacity="0"/><path d="M-1408.9-267.44c0 10.16-79.76 18.4-178.15 18.4-98.4 0-178.15-8.24-178.15-18.4v-147.1c0-10.17 79.76-18.4 178.15-18.4 98.4 0 178.15 8.23 178.15 18.4z" stroke="#3a414a" fill="#edf5ff"/><path d="M-1408.9-414.55c0 10.16-79.76 18.4-178.15 18.4-98.4 0-178.15-8.24-178.15-18.4" stroke="#3a414a" fill="none"/><use xlink:href="#a" transform="matrix(1,0,0,1,-1760.196788935023,-391.1612356330132) translate(23.30246913580254 76.63888888888889)"/><use xlink:href="#b" transform="matrix(1,0,0,1,-1760.196788935023,-391.1612356330132) translate(125.19135802469137 76.63888888888889)"/><use xlink:href="#c" transform="matrix(1,0,0,1,-1760.196788935023,-391.1612356330132) translate(235.63580246913577 76.63888888888889)"/><path d="M-1451.8-1394.6c37.73 0 68.32 30.58 68.32 68.3 0 37.74-30.6 68.33-68.32 68.33h-330.57c-37.73 0-68.3-30.6-68.3-68.32 0-37.72 30.58-68.3 68.3-68.3z" stroke="#3a414a" fill="#c3f7c8"/><use xlink:href="#d" transform="matrix(1,0,0,1,-1845.6804925494826,-1389.604145029762) translate(62.703703703703724 68.95833333333333)"/><use xlink:href="#e" transform="matrix(1,0,0,1,-1845.6804925494826,-1389.604145029762) translate(175 68.95833333333333)"/><use xlink:href="#f" transform="matrix(1,0,0,1,-1845.6804925494826,-1389.604145029762) translate(237.07407407407405 68.95833333333333)"/><use xlink:href="#g" transform="matrix(1,0,0,1,-1845.6804925494826,-1389.604145029762) translate(315.3703703703703 68.95833333333333)"/><path d="M-986.73-1284.47a9.68 9.68 0 0 1 10.2 0l224.52 139.1a3.72 3.72 0 0 1 0 6.33l-224.53 139.1a9.68 9.68 0 0 1-10.2 0l-224.52-139.1a3.72 3.72 0 0 1 0-6.32z" stroke="#3a414a" fill="#fff"/><use xlink:href="#h" transform="matrix(1,0,0,1,-1211.3491419324685,-1282.6258950085426) translate(54.071666666666665 130.38784722222223)"/><use xlink:href="#i" transform="matrix(1,0,0,1,-1211.3491419324685,-1282.6258950085426) translate(124.10129629629628 130.38784722222223)"/><use xlink:href="#j" transform="matrix(1,0,0,1,-1211.3491419324685,-1282.6258950085426) translate(231.3654938271605 130.38784722222223)"/><use xlink:href="#k" transform="matrix(1,0,0,1,-1211.3491419324685,-1282.6258950085426) translate(311.4914197530864 130.38784722222223)"/><use xlink:href="#l" transform="matrix(1,0,0,1,-1211.3491419324685,-1282.6258950085426) translate(377.29635802469136 130.38784722222223)"/><use xlink:href="#m" transform="matrix(1,0,0,1,-1211.3491419324685,-1282.6258950085426) translate(172.40006172839506 161.32118055555557)"/><use xlink:href="#n" transform="matrix(1,0,0,1,-1211.3491419324685,-1282.6258950085426) translate(218.084012345679 161.32118055555557)"/><path d="M-650.42-1141.7h-98.83v-1h98.83zm128.86 0h-82.94v-1h82.94z" stroke="#008a0e" stroke-width=".05" fill="#008a0e"/><path d="M-749.24-1141.7h-.56l.05-.5-.05-.5h.56z" fill="#008a0e"/><path d="M-749.2-1141.67h-.63l.06-.53-.06-.52h.62zm-.57-1l.05.47-.05.48h.5v-.95z" stroke="#008a0e" stroke-width=".05" fill="#008a0e"/><path d="M-506.8-1142.2l-14.26 4.64v-9.27z" fill="#008a0e"/><path d="M-505.17-1142.2l-16.4 5.33v-10.65zm-15.4 3.95l12.16-3.95-12.16-3.94z" stroke="#008a0e" stroke-width=".05" fill="#008a0e"/><use xlink:href="#o" transform="matrix(1,0,0,1,-650.4233895567776,-1158.195977738288) translate(0 21.333333333333332)"/><path d="M-205.52-1142.2H18.83" stroke="#3a414a" fill="none"/><path d="M-205.5-1141.7h-.65l.26-1h.4z" stroke="#3a414a" stroke-width=".05" fill="#3a414a"/><path d="M33.6-1142.2l-14.27 4.65v-9.28z" stroke="#3a414a" fill="#3a414a"/><path d="M-983.38-901.58h-1v-25.34h1zm2.25-54.67h-1v-41.22h1z" stroke="#e81313" stroke-width=".05" fill="#e81313"/><path d="M-981.63-997.97l.5-.03v.54h-1v-.54z" fill="#e81313"/><path d="M-981.63-998l.53-.03v.6h-1.05v-.6zm-.47.5h.95v-.48l-.48.03-.47-.02z" stroke="#e81313" stroke-width=".05" fill="#e81313"/><path d="M-983.88-886.82l-4.63-14.26h9.26z" fill="#e81313"/><path d="M-983.88-885.2l-5.32-16.38h10.65zm-3.95-15.38l3.95 12.15 3.95-12.15z" stroke="#e81313" stroke-width=".05" fill="#e81313"/><use xlink:href="#p" transform="matrix(1,0,0,1,-998.981835397294,-956.25192355907) translate(0 19.555555555555557)"/><path d="M-986.73-883.5a9.68 9.68 0 0 1 10.2 0L-752-744.4a3.72 3.72 0 0 1 0 6.33l-224.53 139.1a9.68 9.68 0 0 1-10.2 0l-224.52-139.1a3.72 3.72 0 0 1 0-6.32z" stroke="#3a414a" fill="#fff"/><use xlink:href="#q" transform="matrix(1,0,0,1,-1211.3491419324685,-881.6560950017231) translate(70.11240740740737 125.99722222222222)"/><use xlink:href="#r" transform="matrix(1,0,0,1,-1211.3491419324685,-881.6560950017231) translate(125.82104938271603 125.99722222222222)"/><use xlink:href="#s" transform="matrix(1,0,0,1,-1211.3491419324685,-881.6560950017231) translate(171.505 125.99722222222222)"/><use xlink:href="#j" transform="matrix(1,0,0,1,-1211.3491419324685,-881.6560950017231) translate(278.76919753086423 125.99722222222222)"/><use xlink:href="#t" transform="matrix(1,0,0,1,-1211.3491419324685,-881.6560950017231) translate(358.89512345679015 125.99722222222222)"/><use xlink:href="#u" transform="matrix(1,0,0,1,-1211.3491419324685,-881.6560950017231) translate(38.49759259259256 156.93055555555557)"/><use xlink:href="#v" transform="matrix(1,0,0,1,-1211.3491419324685,-881.6560950017231) translate(105.663024691358 156.93055555555557)"/><use xlink:href="#w" transform="matrix(1,0,0,1,-1211.3491419324685,-881.6560950017231) translate(137.02598765432097 156.93055555555557)"/><use xlink:href="#x" transform="matrix(1,0,0,1,-1211.3491419324685,-881.6560950017231) translate(254.31487654320986 156.93055555555557)"/><use xlink:href="#n" transform="matrix(1,0,0,1,-1211.3491419324685,-881.6560950017231) translate(352.9864814814815 156.93055555555557)"/><path d="M-521.56-740.2v1h-83.17v-1zm-228.15-2.4v-1h99.05v1z" stroke="#008a0e" stroke-width=".05" fill="#008a0e"/><path d="M-749.7-742.6h-.3l-.1-.3-.4-.7h.8z" fill="#008a0e"/><path d="M-749.67-742.58h-.35l-.1-.3-.4-.75h.85zm-.78-1l.38.68.1.27h.25v-.95z" stroke="#008a0e" stroke-width=".05" fill="#008a0e"/><path d="M-506.8-739.7l-14.26 4.64v-9.27z" fill="#008a0e"/><path d="M-505.17-739.7l-16.4 5.33v-10.65zm-15.4 3.95l12.16-3.95-12.16-3.94z" stroke="#008a0e" stroke-width=".05" fill="#008a0e"/><use xlink:href="#o" transform="matrix(1,0,0,1,-650.6540873316217,-757.4004149306144) translate(0 21.333333333333332)"/><path d="M35.72-1221.33a6 6 0 0 1 6-6H303a6 6 0 0 1 6 6v171.08c-45.64-29.57-74.06-29.57-91.28-29.57-27.33 0-63.67 29.57-91 29.57-16.94 0-45.64 0-91-29.57z" stroke="#3a414a" fill="#fff"/><use xlink:href="#y" transform="matrix(1,0,0,1,40.71663750478584,-1222.3325489751262) translate(30.5 72.37222222222222)"/><use xlink:href="#z" transform="matrix(1,0,0,1,40.71663750478584,-1222.3325489751262) translate(126.2358024691358 72.37222222222222)"/><use xlink:href="#A" transform="matrix(1,0,0,1,40.71663750478584,-1222.3325489751262) translate(156.2382716049383 72.37222222222222)"/><path d="M-216.5-739.7H22.05" stroke="#3a414a" fill="none"/><path d="M-216.5-739.2h-.64l.27-1h.38z" stroke="#3a414a" stroke-width=".05" fill="#3a414a"/><path d="M36.83-739.7l-14.27 4.65v-9.27z" stroke="#3a414a" fill="#3a414a"/><path d="M-481.68-1228.35a7.8 7.8 0 0 1 7.54-5.8h286.12a4.6 4.6 0 0 1 4.46 5.8l-45.95 172.3a7.8 7.8 0 0 1-7.56 5.8h-286.1a4.6 4.6 0 0 1-4.47-5.8z" stroke="#3a414a" fill="#fff"/><use xlink:href="#B" transform="matrix(1,0,0,1,-524.1750041615276,-1229.1434746740736) translate(30.23462962962962 91.30972222222222)"/><use xlink:href="#i" transform="matrix(1,0,0,1,-524.1750041615276,-1229.1434746740736) translate(127.54574074074074 91.30972222222222)"/><use xlink:href="#C" transform="matrix(1,0,0,1,-524.1750041615276,-1229.1434746740736) translate(234.80993827160495 91.30972222222222)"/><path d="M-978.88-500.62h-1v-24h1zm-2.25-56h-1v-39.88h1z" stroke="#e81313" stroke-width=".05" fill="#e81313"/><path d="M-981.63-597l.5-.03v.54h-1v-.53z" fill="#e81313"/><path d="M-981.63-597.03l.53-.03v.6h-1.05v-.6zm-.47.5h.95v-.48l-.48.02-.47-.02z" stroke="#e81313" stroke-width=".05" fill="#e81313"/><path d="M-979.38-485.85l-4.64-14.27h9.27z" fill="#e81313"/><path d="M-979.38-484.24l-5.33-16.38h10.64zm-3.95-15.38l3.95 12.15 3.95-12.15z" stroke="#e81313" stroke-width=".05" fill="#e81313"/><use xlink:href="#D" transform="matrix(1,0,0,1,-998.2089128038447,-556.6197910724195) translate(0 21.333333333333332)"/><path d="M-981.13-101.37h-1v-23.87h1zm0-55.87h-1V-197h1z" stroke="#e81313" stroke-width=".05" fill="#e81313"/><path d="M-981.63-197.5l.5-.03v.54h-1v-.53z" fill="#e81313"/><path d="M-981.63-197.52l.53-.03v.6h-1.05v-.6zm-.47.5h.95v-.48l-.48.03-.47-.03z" stroke="#e81313" stroke-width=".05" fill="#e81313"/><path d="M-981.63-86.6l-4.63-14.27h9.27z" fill="#e81313"/><path d="M-981.63-85l-5.32-16.37h10.64zm-3.95-15.37l3.95 12.15 3.95-12.15z" stroke="#e81313" stroke-width=".05" fill="#e81313"/><use xlink:href="#D" transform="matrix(1,0,0,1,-999.3330338373362,-157.2441972495124) translate(0 21.333333333333332)"/><path d="M38.94-818.83a6 6 0 0 1 6-6H303a6 6 0 0 1 6 6v171.08c-45.1-29.57-73.2-29.57-90.2-29.57-27 0-62.92 29.57-89.93 29.57-16.74 0-45.1 0-89.93-29.57z" stroke="#3a414a" fill="#fff"/><use xlink:href="#y" transform="matrix(1,0,0,1,43.94422517148834,-819.8315622050112) translate(29 72.37222222222222)"/><use xlink:href="#z" transform="matrix(1,0,0,1,43.94422517148834,-819.8315622050112) translate(124.7358024691358 72.37222222222222)"/><use xlink:href="#A" transform="matrix(1,0,0,1,43.94422517148834,-819.8315622050112) translate(154.7382716049383 72.37222222222222)"/><path d="M-344.07-341.4l1 .22.93.4.87.53.78.66.67.8.53.86.4.94.23 1 .08 1v233.63h-1v-233.6l-.06-.88-.2-.84-.33-.8-.44-.73-.56-.65-.66-.56-.73-.45-.8-.32-.83-.2-.88-.07h-48.36v-1h48.4zm-405.2.9v-1h309.9v1z" stroke="#008a0e" stroke-width=".05" fill="#008a0e"/><path d="M-749.24-340.5h-.57l.04-.5-.05-.5h.56z" fill="#008a0e"/><path d="M-749.22-340.47h-.62l.06-.52-.06-.52h.62zm-.56-1l.05.48-.05.48h.5v-.95z" stroke="#008a0e" stroke-width=".05" fill="#008a0e"/><path d="M-339.1-86.6l-4.63-14.27h9.28z" fill="#008a0e"/><path d="M-339.1-85l-5.3-16.37h10.63zm-3.94-15.37l3.95 12.15 3.96-12.15z" stroke="#008a0e" stroke-width=".05" fill="#008a0e"/><use xlink:href="#o" transform="matrix(1,0,0,1,-439.38458812642625,-356.99273747154234) translate(0 21.333333333333332)"/><path d="M-481.68-825.85a7.8 7.8 0 0 1 7.54-5.8H-199a4.6 4.6 0 0 1 4.45 5.8l-45.95 172.3a7.8 7.8 0 0 1-7.54 5.8h-275.13a4.6 4.6 0 0 1-4.46-5.8z" stroke="#3a414a" fill="#fff"/><use xlink:href="#E" transform="matrix(1,0,0,1,-524.175004161527,-826.6424879039585) translate(43.270432098765426 74.99722222222222)"/><use xlink:href="#F" transform="matrix(1,0,0,1,-524.175004161527,-826.6424879039585) translate(161.7766049382716 74.99722222222222)"/><use xlink:href="#G" transform="matrix(1,0,0,1,-524.175004161527,-826.6424879039585) translate(220.34944444444443 74.99722222222222)"/><use xlink:href="#H" transform="matrix(1,0,0,1,-524.175004161527,-826.6424879039585) translate(122.30623456790123 105.93055555555556)"/><path d="M-1407.9-341h178.01" stroke="#3a414a" fill="none"/><path d="M-1407.9-340.5h-.5v-1h.5z" stroke="#3a414a" stroke-width=".05" fill="#3a414a"/><path d="M-1215.12-341l-14.27 4.64v-9.27z" stroke="#3a414a" fill="#3a414a"/><path d="M-986.74-482.54a9.73 9.73 0 0 1 10.22 0l224.5 138.4a3.7 3.7 0 0 1 0 6.3l-224.5 138.4a9.73 9.73 0 0 1-10.22 0l-224.5-138.4a3.7 3.7 0 0 1 0-6.3z" stroke="#3a414a" fill="#fff"/><use xlink:href="#I" transform="matrix(1,0,0,1,-1211.3491419324685,-480.68629499490305) translate(61.37537037037038 129.99722222222223)"/><use xlink:href="#J" transform="matrix(1,0,0,1,-1211.3491419324685,-480.68629499490305) translate(198.57043209876542 129.99722222222223)"/><use xlink:href="#K" transform="matrix(1,0,0,1,-1211.3491419324685,-480.68629499490305) translate(275.7605555555555 129.99722222222223)"/><use xlink:href="#L" transform="matrix(1,0,0,1,-1211.3491419324685,-480.68629499490305) translate(375.79265432098765 129.99722222222223)"/><use xlink:href="#M" transform="matrix(1,0,0,1,-1211.3491419324685,-480.68629499490305) translate(91.34203703703702 160.93055555555557)"/><use xlink:href="#N" transform="matrix(1,0,0,1,-1211.3491419324685,-480.68629499490305) translate(175.76425925925926 160.93055555555557)"/><use xlink:href="#O" transform="matrix(1,0,0,1,-1211.3491419324685,-480.68629499490305) translate(275.79635802469136 160.93055555555557)"/><path d="M-.02 405.25h-175.16" stroke="#3a414a" fill="none"/><path d="M.48 405.75h-.5v-1h.5z" stroke="#3a414a" stroke-width=".05" fill="#3a414a"/><path d="M-189.94 405.25l14.26-4.63v9.27z" stroke="#3a414a" fill="#3a414a"/><path d="M-355.57 498.2v191.66a6 6 0 0 1-6 6H-828.1" stroke="#3a414a" fill="none"/><path d="M-355.07 498.22h-1v-.52h1z" stroke="#3a414a" stroke-width=".05" fill="#3a414a"/><path d="M-842.87 695.86l14.26-4.64v9.27z" stroke="#3a414a" fill="#3a414a"/><path d="M-348.95 296.42h-1V273.4h1zm10.36-55.02h-1v-38.9h1z" stroke="#e81313" stroke-width=".05" fill="#e81313"/><path d="M-339.1 202l.5-.03v.54h-1v-.53z" fill="#e81313"/><path d="M-339.1 201.97l.54-.03v.6h-1.06v-.6zm-.46.52h.94v-.5l-.47.02-.46-.02z" stroke="#e81313" stroke-width=".05" fill="#e81313"/><path d="M-349.45 311.2l-4.63-14.28h9.27z" fill="#e81313"/><path d="M-349.45 312.8l-5.32-16.38h10.64zm-3.95-15.38l3.95 12.15 3.95-12.15z" stroke="#e81313" stroke-width=".05" fill="#e81313"/><use xlink:href="#D" transform="matrix(1,0,0,1,-361.97307588067025,241.40290015796194) translate(0 21.333333333333332)"/><path d="M344.04 478.8c0 10.17-76.8 18.4-171.53 18.4C77.8 497.2 1 488.97 1 478.8V331.7c0-10.16 76.8-18.4 171.53-18.4 94.74 0 171.54 8.24 171.54 18.4z" stroke="#3a414a" fill="#edf5ff"/><path d="M344.04 331.7c0 10.15-76.8 18.4-171.53 18.4C77.8 350.1 1 341.84 1 331.7" stroke="#3a414a" fill="none"/><use xlink:href="#P" transform="matrix(1,0,0,1,5.9805727288926676,355.0868648054749) translate(90.21604938271608 76.63888888888889)"/><path d="M-971.27 498.2v48.88a5.18 5.18 0 0 1-5.18 5.18 5.18 5.18 0 0 0-5.18 5.18v33" stroke="#3a414a" fill="none"/><path d="M-970.77 498.22h-1v-.52h1z" stroke="#3a414a" stroke-width=".05" fill="#3a414a"/><path d="M-981.63 605.2l-4.63-14.27h9.27z" stroke="#3a414a" fill="#3a414a"/><path d="M-463.13 319.1a7.8 7.8 0 0 1 7.55-5.8h282.02a4.6 4.6 0 0 1 4.45 5.8l-45.95 172.3a7.8 7.8 0 0 1-7.55 5.8h-282.02a4.6 4.6 0 0 1-4.45-5.8z" stroke="#3a414a" fill="#fff"/><use xlink:href="#Q" transform="matrix(1,0,0,1,-505.61860331233333,318.3078660311608) translate(42.33092592592594 74.99722222222222)"/><use xlink:href="#R" transform="matrix(1,0,0,1,-505.61860331233333,318.3078660311608) translate(151.02722222222224 74.99722222222222)"/><use xlink:href="#S" transform="matrix(1,0,0,1,-505.61860331233333,318.3078660311608) translate(242.53833333333333 74.99722222222222)"/><use xlink:href="#T" transform="matrix(1,0,0,1,-505.61860331233333,318.3078660311608) translate(80.05067901234568 105.93055555555556)"/><use xlink:href="#U" transform="matrix(1,0,0,1,-505.61860331233333,318.3078660311608) translate(214.45314814814816 105.93055555555556)"/><path d="M-991.5 296.42h-1v-30.95h1zm10.37-62.95h-1V202.5h1z" stroke="#e81313" stroke-width=".05" fill="#e81313"/><path d="M-981.63 202l.5-.03v.54h-1v-.53z" fill="#e81313"/><path d="M-981.63 201.97l.53-.03v.6h-1.05v-.6zm-.47.52h.95v-.5l-.48.02-.47-.02z" stroke="#e81313" stroke-width=".05" fill="#e81313"/><path d="M-992 311.2l-4.62-14.28h9.27z" fill="#e81313"/><path d="M-992 312.8l-5.3-16.38h10.64zm-3.93-15.38l3.94 12.15 3.96-12.15z" stroke="#e81313" stroke-width=".05" fill="#e81313"/><g><use xlink:href="#D" transform="matrix(1,0,0,1,-999.3330338373362,233.47165351045146) translate(0 21.333333333333332)"/></g><path d="M-683.32 59h-50.05v-1h50.05zm111.86 0h-65.94v-1h65.94z" stroke="#008a0e" stroke-width=".05" fill="#008a0e"/><path d="M-570.96 58.5l.05.5h-.58v-1h.57z" fill="#008a0e"/><path d="M-570.94 58.5l.06.53h-.62v-1.05h.62zm-.5-.47v.95h.5l-.05-.48.06-.47z" stroke="#008a0e" stroke-width=".05" fill="#008a0e"/><path d="M-733.87 63.14l-14.27-4.64 14.27-4.63z" fill="#008a0e"/><path d="M-733.37 63.83l-16.4-5.33 16.4-5.32zm-13.15-5.33l12.15 3.95v-7.9z" stroke="#008a0e" stroke-width=".05" fill="#008a0e"/><g><use xlink:href="#o" transform="matrix(1,0,0,1,-683.3226759537039,42.50434304148962) translate(0 21.333333333333332)"/></g><path d="M-344.2-83.04a9.73 9.73 0 0 1 10.22 0l224.5 138.4a3.7 3.7 0 0 1 0 6.3l-224.5 138.4a9.73 9.73 0 0 1-10.22 0l-224.5-138.4a3.7 3.7 0 0 1 0-6.3z" stroke="#3a414a" fill="#fff"/><g><use xlink:href="#V" transform="matrix(1,0,0,1,-568.8099069763396,-81.18921448187112) translate(36.529691358024664 143.12222222222223)"/><use xlink:href="#W" transform="matrix(1,0,0,1,-568.8099069763396,-81.18921448187112) translate(90.8778395061728 143.12222222222223)"/><use xlink:href="#X" transform="matrix(1,0,0,1,-568.8099069763396,-81.18921448187112) translate(171.00376543209873 143.12222222222223)"/><use xlink:href="#Y" transform="matrix(1,0,0,1,-568.8099069763396,-81.18921448187112) translate(315.2877160493827 143.12222222222223)"/></g><path d="M-1118.27 613.3a6 6 0 0 1 6-6H-851a6 6 0 0 1 6 6v171.1c-45.63-29.58-74.05-29.58-91.26-29.58-27.33 0-63.68 29.58-91 29.58-16.95 0-45.64 0-91-29.58z" stroke="#3a414a" fill="#fff"/><g><use xlink:href="#y" transform="matrix(1,0,0,1,-1113.2695335400863,612.3128253690414) translate(30.5 72.37222222222222)"/><use xlink:href="#z" transform="matrix(1,0,0,1,-1113.2695335400863,612.3128253690414) translate(126.2358024691358 72.37222222222222)"/><use xlink:href="#A" transform="matrix(1,0,0,1,-1113.2695335400863,612.3128253690414) translate(156.2382716049383 72.37222222222222)"/></g><path d="M-1105.66 319.1a7.8 7.8 0 0 1 7.54-5.8h282.02a4.6 4.6 0 0 1 4.45 5.8l-45.94 172.3a7.8 7.8 0 0 1-7.54 5.8h-282.02a4.6 4.6 0 0 1-4.45-5.8z" stroke="#3a414a" fill="#fff"/><g><use xlink:href="#Z" transform="matrix(1,0,0,1,-1148.1578382684618,318.3078660311608) translate(74.48154320987653 74.99722222222222)"/><use xlink:href="#aa" transform="matrix(1,0,0,1,-1148.1578382684618,318.3078660311608) translate(156.03956790123456 74.99722222222222)"/><use xlink:href="#ab" transform="matrix(1,0,0,1,-1148.1578382684618,318.3078660311608) translate(47.219814814814825 105.93055555555556)"/><use xlink:href="#ac" transform="matrix(1,0,0,1,-1148.1578382684618,318.3078660311608) translate(144.38771604938273 105.93055555555556)"/></g><path d="M-1466.9 59h-113.62l-.88.07-.84.2-.8.33-.73.46-.66.56-.56.65-.44.74-.33.8-.2.84-.07.88v231.9h-1V64.48l.08-1 .24-.98.4-.95.52-.87.66-.77.78-.66.87-.53.95-.38 1-.24 1-.08h113.66zm252.9 0h-206.96v-1H-1214z" stroke="#008a0e" stroke-width=".05" fill="#008a0e"/><path d="M-1213.5 58.5l.05.5h-.57v-1h.57z" fill="#008a0e"/><path d="M-1213.48 58.5l.06.53h-.62v-1.05h.62zm-.5-.47v.95h.5l-.05-.48.05-.47z" stroke="#008a0e" stroke-width=".05" fill="#008a0e"/><path d="M-1586.54 311.2l-4.63-14.28h9.27z" fill="#008a0e"/><path d="M-1586.54 312.8l-5.32-16.38h10.64zm-3.95-15.38l3.96 12.15 3.95-12.15z" stroke="#008a0e" stroke-width=".05" fill="#008a0e"/><g><use xlink:href="#o" transform="matrix(1,0,0,1,-1466.886425993071,42.50434304148962) translate(0 21.333333333333332)"/></g><path d="M-1600.8 498.2v191.66a6 6 0 0 0 6 6h459.65" stroke="#3a414a" fill="none"/><path d="M-1600.3 498.22h-1v-.52h1z" stroke="#3a414a" stroke-width=".05" fill="#3a414a"/><path d="M-1120.4 695.86l-14.25 4.63v-9.28z" stroke="#3a414a" fill="#3a414a"/><path d="M-1617.08-1256.97v108.77a6 6 0 0 0 6 6h381.18" stroke="#3a414a" fill="none"/><path d="M-1616.58-1256.96h-1v-.5h1z" stroke="#3a414a" stroke-width=".05" fill="#3a414a"/><path d="M-1215.13-1142.2l-14.26 4.64v-9.27z" stroke="#3a414a" fill="#3a414a"/><path d="M-1717.7 319.1a7.8 7.8 0 0 1 7.54-5.8h282.02a4.6 4.6 0 0 1 4.45 5.8l-45.93 172.3a7.8 7.8 0 0 1-7.55 5.8h-282.02a4.6 4.6 0 0 1-4.45-5.8z" stroke="#3a414a" fill="#fff"/><g><use xlink:href="#Z" transform="matrix(1,0,0,1,-1760.1967889350228,318.30786603116087) translate(55.82845679012344 74.99722222222222)"/><use xlink:href="#ad" transform="matrix(1,0,0,1,-1760.1967889350228,318.30786603116087) translate(137.38648148148147 74.99722222222222)"/><use xlink:href="#ae" transform="matrix(1,0,0,1,-1760.1967889350228,318.30786603116087) translate(133.00253086419752 105.93055555555556)"/></g><path d="M-986.74-83.04a9.73 9.73 0 0 1 10.22 0l224.5 138.4a3.7 3.7 0 0 1 0 6.3l-224.5 138.4a9.73 9.73 0 0 1-10.22 0l-224.5-138.4a3.7 3.7 0 0 1 0-6.3z" stroke="#3a414a" fill="#fff"/><g><use xlink:href="#af" transform="matrix(1,0,0,1,-1211.3491419324685,-81.18921448187112) translate(80.85314814814815 143.12222222222223)"/><use xlink:href="#r" transform="matrix(1,0,0,1,-1211.3491419324685,-81.18921448187112) translate(109.49512345679013 143.12222222222223)"/><use xlink:href="#ag" transform="matrix(1,0,0,1,-1211.3491419324685,-81.18921448187112) translate(155.1790740740741 143.12222222222223)"/><use xlink:href="#ah" transform="matrix(1,0,0,1,-1211.3491419324685,-81.18921448187112) translate(215.18401234567904 143.12222222222223)"/></g><defs><path fill="#3a414a" d="M169-182c-1-43-94-46-97-3 18 66 151 10 154 114 3 95-165 93-204 36-6-8-10-19-12-30l50-8c3 46 112 56 116 5-17-69-150-10-154-114-4-87 153-88 188-35 5 8 8 18 10 28" id="ai"/><path fill="#3a414a" d="M25-224v-37h50v37H25zM25 0v-190h50V0H25" id="aj"/><path fill="#3a414a" d="M195-6C206 82 75 100 31 46c-4-6-6-13-8-21l49-6c3 16 16 24 34 25 40 0 42-37 40-79-11 22-30 35-61 35-53 0-70-43-70-97 0-56 18-96 73-97 30 0 46 14 59 34l2-30h47zm-90-29c32 0 41-27 41-63 0-35-9-62-40-62-32 0-39 29-40 63 0 36 9 62 39 62" id="ak"/><path fill="#3a414a" d="M220-157c-53 9-28 100-34 157h-49v-107c1-27-5-49-29-50C55-147 81-57 75 0H25l-1-190h47c2 12-1 28 3 38 10-53 101-56 108 0 13-22 24-43 59-42 82 1 51 116 57 194h-49v-107c-1-25-5-48-29-50" id="al"/><path fill="#3a414a" d="M133-34C117-15 103 5 69 4 32 3 11-16 11-54c-1-60 55-63 116-61 1-26-3-47-28-47-18 1-26 9-28 27l-52-2c7-38 36-58 82-57s74 22 75 68l1 82c-1 14 12 18 25 15v27c-30 8-71 5-69-32zm-48 3c29 0 43-24 42-57-32 0-66-3-65 30 0 17 8 27 23 27" id="am"/><g id="a"><use transform="matrix(0.0864197530864197,0,0,0.0864197530864197,0,0)" xlink:href="#ai"/><use transform="matrix(0.0864197530864197,0,0,0.0864197530864197,20.74074074074073,0)" xlink:href="#aj"/><use transform="matrix(0.0864197530864197,0,0,0.0864197530864197,29.3827160493827,0)" xlink:href="#ak"/><use transform="matrix(0.0864197530864197,0,0,0.0864197530864197,48.30864197530862,0)" xlink:href="#al"/><use transform="matrix(0.0864197530864197,0,0,0.0864197530864197,75.96296296296292,0)" xlink:href="#am"/></g><path fill="#3a414a" d="M135-150c-39-12-60 13-60 57V0H25l-1-190h47c2 13-1 29 3 40 6-28 27-53 61-41v41" id="an"/><path fill="#3a414a" d="M185-48c-13 30-37 53-82 52C43 2 14-33 14-96s30-98 90-98c62 0 83 45 84 108H66c0 31 8 55 39 56 18 0 30-7 34-22zm-45-69c5-46-57-63-70-21-2 6-4 13-4 21h74" id="ao"/><path fill="#3a414a" d="M137-138c1-29-70-34-71-4 15 46 118 7 119 86 1 83-164 76-172 9l43-7c4 19 20 25 44 25 33 8 57-30 24-41C81-84 22-81 20-136c-2-80 154-74 161-7" id="ap"/><path fill="#3a414a" d="M85 4C-2 5 27-109 22-190h50c7 57-23 150 33 157 60-5 35-97 40-157h50l1 190h-47c-2-12 1-28-3-38-12 25-28 42-61 42" id="aq"/><path fill="#3a414a" d="M25 0v-261h50V0H25" id="ar"/><path fill="#3a414a" d="M115-3C79 11 28 4 28-45v-112H4v-33h27l15-45h31v45h36v33H77v99c-1 23 16 31 38 25v30" id="as"/><g id="b"><use transform="matrix(0.0864197530864197,0,0,0.0864197530864197,0,0)" xlink:href="#an"/><use transform="matrix(0.0864197530864197,0,0,0.0864197530864197,12.098765432098759,0)" xlink:href="#ao"/><use transform="matrix(0.0864197530864197,0,0,0.0864197530864197,29.3827160493827,0)" xlink:href="#ap"/><use transform="matrix(0.0864197530864197,0,0,0.0864197530864197,46.66666666666664,0)" xlink:href="#aq"/><use transform="matrix(0.0864197530864197,0,0,0.0864197530864197,65.59259259259255,0)" xlink:href="#ar"/><use transform="matrix(0.0864197530864197,0,0,0.0864197530864197,74.23456790123453,0)" xlink:href="#as"/><use transform="matrix(0.0864197530864197,0,0,0.0864197530864197,84.51851851851848,0)" xlink:href="#ap"/></g><path fill="#3a414a" d="M190-63c-7 42-38 67-86 67-59 0-84-38-90-98-12-110 154-137 174-36l-49 2c-2-19-15-32-35-32-30 0-35 28-38 64-6 74 65 87 74 30" id="at"/><path fill="#3a414a" d="M114-157C55-157 80-60 75 0H25v-261h50l-1 109c12-26 28-41 61-42 86-1 58 113 63 194h-50c-7-57 23-157-34-157" id="au"/><g id="c"><use transform="matrix(0.0864197530864197,0,0,0.0864197530864197,0,0)" xlink:href="#at"/><use transform="matrix(0.0864197530864197,0,0,0.0864197530864197,17.283950617283942,0)" xlink:href="#am"/><use transform="matrix(0.0864197530864197,0,0,0.0864197530864197,34.567901234567884,0)" xlink:href="#at"/><use transform="matrix(0.0864197530864197,0,0,0.0864197530864197,51.851851851851826,0)" xlink:href="#au"/><use transform="matrix(0.0864197530864197,0,0,0.0864197530864197,70.77777777777774,0)" xlink:href="#ao"/></g><path fill="#3a414a" d="M240-174c0 40-23 61-54 70L253 0h-59l-57-94H76V0H24v-248c93 4 217-23 216 74zM76-134c48-2 112 12 112-38 0-48-66-32-112-35v73" id="av"/><path fill="#3a414a" d="M84 4C32 4 15-41 15-95c0-55 18-99 73-99 29 0 47 12 58 34l2-30h48l-1 265h-49V-32C136-9 114 4 84 4zm21-34c32 0 41-29 41-66 0-36-9-64-40-64-33 0-39 30-40 65 0 43 13 65 39 65" id="aw"/><g id="d"><use transform="matrix(0.07407407407407407,0,0,0.07407407407407407,0,0)" xlink:href="#av"/><use transform="matrix(0.07407407407407407,0,0,0.07407407407407407,19.185185185185183,0)" xlink:href="#ao"/><use transform="matrix(0.07407407407407407,0,0,0.07407407407407407,34,0)" xlink:href="#aw"/><use transform="matrix(0.07407407407407407,0,0,0.07407407407407407,50.22222222222222,0)" xlink:href="#aq"/><use transform="matrix(0.07407407407407407,0,0,0.07407407407407407,66.44444444444444,0)" xlink:href="#ao"/><use transform="matrix(0.07407407407407407,0,0,0.07407407407407407,81.25925925925925,0)" xlink:href="#ap"/><use transform="matrix(0.07407407407407407,0,0,0.07407407407407407,96.07407407407406,0)" xlink:href="#as"/></g><path fill="#3a414a" d="M88-194c31-1 46 15 58 34l-1-101h50l1 261h-48c-2-10 0-23-3-31C134-8 116 4 84 4 32 4 16-41 15-95c0-56 19-97 73-99zm17 164c33 0 40-30 41-66 1-37-9-64-41-64s-38 30-39 65c0 43 13 65 39 65" id="ax"/><g id="e"><use transform="matrix(0.07407407407407407,0,0,0.07407407407407407,0,0)" xlink:href="#ax"/><use transform="matrix(0.07407407407407407,0,0,0.07407407407407407,16.22222222222222,0)" xlink:href="#am"/><use transform="matrix(0.07407407407407407,0,0,0.07407407407407407,31.037037037037035,0)" xlink:href="#as"/><use transform="matrix(0.07407407407407407,0,0,0.07407407407407407,39.85185185185185,0)" xlink:href="#am"/></g><path fill="#3a414a" d="M135-194c87-1 58 113 63 194h-50c-7-57 23-157-34-157-59 0-34 97-39 157H25l-1-190h47c2 12-1 28 3 38 12-26 28-41 61-42" id="ay"/><g id="f"><use transform="matrix(0.07407407407407407,0,0,0.07407407407407407,0,0)" xlink:href="#aq"/><use transform="matrix(0.07407407407407407,0,0,0.07407407407407407,16.22222222222222,0)" xlink:href="#ap"/><use transform="matrix(0.07407407407407407,0,0,0.07407407407407407,31.037037037037035,0)" xlink:href="#aj"/><use transform="matrix(0.07407407407407407,0,0,0.07407407407407407,38.44444444444444,0)" xlink:href="#ay"/><use transform="matrix(0.07407407407407407,0,0,0.07407407407407407,54.666666666666664,0)" xlink:href="#ak"/></g><g id="g"><use transform="matrix(0.07407407407407407,0,0,0.07407407407407407,0,0)" xlink:href="#ai"/><use transform="matrix(0.07407407407407407,0,0,0.07407407407407407,17.77777777777778,0)" xlink:href="#aj"/><use transform="matrix(0.07407407407407407,0,0,0.07407407407407407,25.185185185185183,0)" xlink:href="#ak"/><use transform="matrix(0.07407407407407407,0,0,0.07407407407407407,41.407407407407405,0)" xlink:href="#al"/><use transform="matrix(0.07407407407407407,0,0,0.07407407407407407,65.11111111111111,0)" xlink:href="#am"/></g><path d="M24-248c120-7 223 5 221 122C244-46 201 0 124 0H24v-248zM76-40c74 7 117-18 117-86 0-67-45-88-117-82v168" id="az"/><path d="M110-194c64 0 96 36 96 99 0 64-35 99-97 99-61 0-95-36-95-99 0-62 34-99 96-99zm-1 164c35 0 45-28 45-65 0-40-10-65-43-65-34 0-45 26-45 65 0 36 10 65 43 65" id="aA"/><path d="M185-48c-13 30-37 53-82 52C43 2 14-33 14-96s30-98 90-98c62 0 83 45 84 108H66c0 31 8 55 39 56 18 0 30-7 34-22zm-45-69c5-46-57-63-70-21-2 6-4 13-4 21h74" id="aB"/><path d="M137-138c1-29-70-34-71-4 15 46 118 7 119 86 1 83-164 76-172 9l43-7c4 19 20 25 44 25 33 8 57-30 24-41C81-84 22-81 20-136c-2-80 154-74 161-7" id="aC"/><g id="h"><use transform="matrix(0.07160493827160494,0,0,0.07160493827160494,0,0)" xlink:href="#az"/><use transform="matrix(0.07160493827160494,0,0,0.07160493827160494,18.54567901234568,0)" xlink:href="#aA"/><use transform="matrix(0.07160493827160494,0,0,0.07160493827160494,34.227160493827164,0)" xlink:href="#aB"/><use transform="matrix(0.07160493827160494,0,0,0.07160493827160494,48.54814814814815,0)" xlink:href="#aC"/></g><path d="M135-194c52 0 70 43 70 98 0 56-19 99-73 100-30 1-46-15-58-35L72 0H24l1-261h50v104c11-23 29-37 60-37zM114-30c31 0 40-27 40-66 0-37-7-63-39-63s-41 28-41 65c0 36 8 64 40 64" id="aD"/><path d="M135-150c-39-12-60 13-60 57V0H25l-1-190h47c2 13-1 29 3 40 6-28 27-53 61-41v41" id="aE"/><path d="M231 0h-52l-39-155L100 0H48L-1-190h46L77-45c9-52 24-97 36-145h53l37 145 32-145h46" id="aF"/><g id="i"><use transform="matrix(0.07160493827160494,0,0,0.07160493827160494,0,0)" xlink:href="#aD"/><use transform="matrix(0.07160493827160494,0,0,0.07160493827160494,15.681481481481482,0)" xlink:href="#aE"/><use transform="matrix(0.07160493827160494,0,0,0.07160493827160494,25.706172839506173,0)" xlink:href="#aA"/><use transform="matrix(0.07160493827160494,0,0,0.07160493827160494,41.38765432098766,0)" xlink:href="#aF"/><use transform="matrix(0.07160493827160494,0,0,0.07160493827160494,61.437037037037044,0)" xlink:href="#aC"/><use transform="matrix(0.07160493827160494,0,0,0.07160493827160494,75.75802469135803,0)" xlink:href="#aB"/><use transform="matrix(0.07160493827160494,0,0,0.07160493827160494,90.07901234567902,0)" xlink:href="#aE"/></g><path d="M190-63c-7 42-38 67-86 67-59 0-84-38-90-98-12-110 154-137 174-36l-49 2c-2-19-15-32-35-32-30 0-35 28-38 64-6 74 65 87 74 30" id="aG"/><path d="M133-34C117-15 103 5 69 4 32 3 11-16 11-54c-1-60 55-63 116-61 1-26-3-47-28-47-18 1-26 9-28 27l-52-2c7-38 36-58 82-57s74 22 75 68l1 82c-1 14 12 18 25 15v27c-30 8-71 5-69-32zm-48 3c29 0 43-24 42-57-32 0-66-3-65 30 0 17 8 27 23 27" id="aH"/><path d="M114-157C55-157 80-60 75 0H25v-261h50l-1 109c12-26 28-41 61-42 86-1 58 113 63 194h-50c-7-57 23-157-34-157" id="aI"/><g id="j"><use transform="matrix(0.07160493827160494,0,0,0.07160493827160494,0,0)" xlink:href="#aG"/><use transform="matrix(0.07160493827160494,0,0,0.07160493827160494,14.320987654320987,0)" xlink:href="#aH"/><use transform="matrix(0.07160493827160494,0,0,0.07160493827160494,28.641975308641975,0)" xlink:href="#aG"/><use transform="matrix(0.07160493827160494,0,0,0.07160493827160494,42.96296296296296,0)" xlink:href="#aI"/><use transform="matrix(0.07160493827160494,0,0,0.07160493827160494,58.644444444444446,0)" xlink:href="#aB"/></g><path d="M128 0H69L1-190h53L99-40l48-150h52" id="aJ"/><g id="k"><use transform="matrix(0.07160493827160494,0,0,0.07160493827160494,0,0)" xlink:href="#aI"/><use transform="matrix(0.07160493827160494,0,0,0.07160493827160494,15.681481481481482,0)" xlink:href="#aH"/><use transform="matrix(0.07160493827160494,0,0,0.07160493827160494,30.00246913580247,0)" xlink:href="#aJ"/><use transform="matrix(0.07160493827160494,0,0,0.07160493827160494,44.32345679012346,0)" xlink:href="#aB"/></g><path d="M25 0v-261h50V0H25" id="aK"/><g id="l"><use transform="matrix(0.07160493827160494,0,0,0.07160493827160494,0,0)" xlink:href="#aH"/><use transform="matrix(0.07160493827160494,0,0,0.07160493827160494,14.320987654320987,0)" xlink:href="#aK"/><use transform="matrix(0.07160493827160494,0,0,0.07160493827160494,21.48148148148148,0)" xlink:href="#aK"/></g><path d="M115-3C79 11 28 4 28-45v-112H4v-33h27l15-45h31v45h36v33H77v99c-1 23 16 31 38 25v30" id="aL"/><g id="m"><use transform="matrix(0.07160493827160494,0,0,0.07160493827160494,0,0)" xlink:href="#aL"/><use transform="matrix(0.07160493827160494,0,0,0.07160493827160494,8.520987654320988,0)" xlink:href="#aI"/><use transform="matrix(0.07160493827160494,0,0,0.07160493827160494,24.20246913580247,0)" xlink:href="#aB"/></g><path d="M88-194c31-1 46 15 58 34l-1-101h50l1 261h-48c-2-10 0-23-3-31C134-8 116 4 84 4 32 4 16-41 15-95c0-56 19-97 73-99zm17 164c33 0 40-30 41-66 1-37-9-64-41-64s-38 30-39 65c0 43 13 65 39 65" id="aM"/><path d="M110-251c83-7 118 89 53 130-17 10-36 21-38 46H78c2-56 65-53 71-103 2-21-15-35-38-34-25 1-41 14-44 38l-50-2c6-48 39-70 93-75zM77 0v-47h51V0H77" id="aN"/><g id="n"><use transform="matrix(0.07160493827160494,0,0,0.07160493827160494,0,0)" xlink:href="#aM"/><use transform="matrix(0.07160493827160494,0,0,0.07160493827160494,15.681481481481482,0)" xlink:href="#aH"/><use transform="matrix(0.07160493827160494,0,0,0.07160493827160494,30.00246913580247,0)" xlink:href="#aL"/><use transform="matrix(0.07160493827160494,0,0,0.07160493827160494,38.523456790123454,0)" xlink:href="#aH"/><use transform="matrix(0.07160493827160494,0,0,0.07160493827160494,52.84444444444445,0)" xlink:href="#aN"/></g><path fill="#333" d="M146-102V0H94v-102L6-248h54l60 105 60-105h54" id="aO"/><path fill="#333" d="M185-48c-13 30-37 53-82 52C43 2 14-33 14-96s30-98 90-98c62 0 83 45 84 108H66c0 31 8 55 39 56 18 0 30-7 34-22zm-45-69c5-46-57-63-70-21-2 6-4 13-4 21h74" id="aP"/><path fill="#333" d="M137-138c1-29-70-34-71-4 15 46 118 7 119 86 1 83-164 76-172 9l43-7c4 19 20 25 44 25 33 8 57-30 24-41C81-84 22-81 20-136c-2-80 154-74 161-7" id="aQ"/><g id="o"><use transform="matrix(0.07407407407407407,0,0,0.07407407407407407,0,0)" xlink:href="#aO"/><use transform="matrix(0.07407407407407407,0,0,0.07407407407407407,16.296296296296298,0)" xlink:href="#aP"/><use transform="matrix(0.07407407407407407,0,0,0.07407407407407407,31.11111111111111,0)" xlink:href="#aQ"/></g><path fill="#333" d="M175 0L67-191c6 58 2 128 3 191H24v-248h59L193-55c-6-58-2-129-3-193h46V0h-61" id="aR"/><path fill="#333" d="M110-194c64 0 96 36 96 99 0 64-35 99-97 99-61 0-95-36-95-99 0-62 34-99 96-99zm-1 164c35 0 45-28 45-65 0-40-10-65-43-65-34 0-45 26-45 65 0 36 10 65 43 65" id="aS"/><g id="p"><use transform="matrix(0.06790123456790123,0,0,0.06790123456790123,0,0)" xlink:href="#aR"/><use transform="matrix(0.06790123456790123,0,0,0.06790123456790123,17.586419753086417,0)" xlink:href="#aS"/></g><path d="M67-125c0 53 21 87 73 88 37 1 54-22 65-47l45 17C233-25 199 4 140 4 58 4 20-42 15-125 8-235 124-281 211-232c18 10 29 29 36 50l-46 12c-8-25-30-41-62-41-52 0-71 34-72 86" id="aT"/><path d="M135-194c87-1 58 113 63 194h-50c-7-57 23-157-34-157-59 0-34 97-39 157H25l-1-190h47c2 12-1 28 3 38 12-26 28-41 61-42" id="aU"/><g id="q"><use transform="matrix(0.07160493827160494,0,0,0.07160493827160494,0,0)" xlink:href="#aT"/><use transform="matrix(0.07160493827160494,0,0,0.07160493827160494,18.54567901234568,0)" xlink:href="#aH"/><use transform="matrix(0.07160493827160494,0,0,0.07160493827160494,32.86666666666667,0)" xlink:href="#aU"/></g><g id="r"><use transform="matrix(0.07160493827160494,0,0,0.07160493827160494,0,0)" xlink:href="#aL"/><use transform="matrix(0.07160493827160494,0,0,0.07160493827160494,8.520987654320988,0)" xlink:href="#aI"/><use transform="matrix(0.07160493827160494,0,0,0.07160493827160494,24.20246913580247,0)" xlink:href="#aB"/></g><g id="s"><use transform="matrix(0.07160493827160494,0,0,0.07160493827160494,0,0)" xlink:href="#aD"/><use transform="matrix(0.07160493827160494,0,0,0.07160493827160494,15.681481481481482,0)" xlink:href="#aE"/><use transform="matrix(0.07160493827160494,0,0,0.07160493827160494,25.706172839506173,0)" xlink:href="#aA"/><use transform="matrix(0.07160493827160494,0,0,0.07160493827160494,41.38765432098766,0)" xlink:href="#aF"/><use transform="matrix(0.07160493827160494,0,0,0.07160493827160494,61.437037037037044,0)" xlink:href="#aC"/><use transform="matrix(0.07160493827160494,0,0,0.07160493827160494,75.75802469135803,0)" xlink:href="#aB"/><use transform="matrix(0.07160493827160494,0,0,0.07160493827160494,90.07901234567902,0)" xlink:href="#aE"/></g><g id="t"><use transform="matrix(0.07160493827160494,0,0,0.07160493827160494,0,0)" xlink:href="#aD"/><use transform="matrix(0.07160493827160494,0,0,0.07160493827160494,15.681481481481482,0)" xlink:href="#aB"/></g><path d="M85 4C-2 5 27-109 22-190h50c7 57-23 150 33 157 60-5 35-97 40-157h50l1 190h-47c-2-12 1-28-3-38-12 25-28 42-61 42" id="aV"/><g id="u"><use transform="matrix(0.07160493827160494,0,0,0.07160493827160494,0,0)" xlink:href="#aV"/><use transform="matrix(0.07160493827160494,0,0,0.07160493827160494,15.681481481481482,0)" xlink:href="#aC"/><use transform="matrix(0.07160493827160494,0,0,0.07160493827160494,30.00246913580247,0)" xlink:href="#aB"/><use transform="matrix(0.07160493827160494,0,0,0.07160493827160494,44.32345679012346,0)" xlink:href="#aM"/></g><g id="v"><use transform="matrix(0.07160493827160494,0,0,0.07160493827160494,0,0)" xlink:href="#aL"/><use transform="matrix(0.07160493827160494,0,0,0.07160493827160494,8.520987654320988,0)" xlink:href="#aA"/></g><g id="w"><use transform="matrix(0.07160493827160494,0,0,0.07160493827160494,0,0)" xlink:href="#aG"/><use transform="matrix(0.07160493827160494,0,0,0.07160493827160494,14.320987654320987,0)" xlink:href="#aH"/><use transform="matrix(0.07160493827160494,0,0,0.07160493827160494,28.641975308641975,0)" xlink:href="#aK"/><use transform="matrix(0.07160493827160494,0,0,0.07160493827160494,35.80246913580247,0)" xlink:href="#aG"/><use transform="matrix(0.07160493827160494,0,0,0.07160493827160494,50.123456790123456,0)" xlink:href="#aV"/><use transform="matrix(0.07160493827160494,0,0,0.07160493827160494,65.80493827160494,0)" xlink:href="#aK"/><use transform="matrix(0.07160493827160494,0,0,0.07160493827160494,72.96543209876543,0)" xlink:href="#aH"/><use transform="matrix(0.07160493827160494,0,0,0.07160493827160494,87.28641975308642,0)" xlink:href="#aL"/><use transform="matrix(0.07160493827160494,0,0,0.07160493827160494,95.80740740740741,0)" xlink:href="#aB"/></g><path d="M25-224v-37h50v37H25zM25 0v-190h50V0H25" id="aW"/><g id="x"><use transform="matrix(0.07160493827160494,0,0,0.07160493827160494,0,0)" xlink:href="#aM"/><use transform="matrix(0.07160493827160494,0,0,0.07160493827160494,15.681481481481482,0)" xlink:href="#aB"/><use transform="matrix(0.07160493827160494,0,0,0.07160493827160494,30.00246913580247,0)" xlink:href="#aC"/><use transform="matrix(0.07160493827160494,0,0,0.07160493827160494,44.32345679012346,0)" xlink:href="#aW"/><use transform="matrix(0.07160493827160494,0,0,0.07160493827160494,51.48395061728395,0)" xlink:href="#aE"/><use transform="matrix(0.07160493827160494,0,0,0.07160493827160494,61.50864197530864,0)" xlink:href="#aB"/><use transform="matrix(0.07160493827160494,0,0,0.07160493827160494,75.82962962962964,0)" xlink:href="#aM"/></g><path d="M240-174c0 40-23 61-54 70L253 0h-59l-57-94H76V0H24v-248c93 4 217-23 216 74zM76-134c48-2 112 12 112-38 0-48-66-32-112-35v73" id="aX"/><g id="y"><use transform="matrix(0.07160493827160494,0,0,0.07160493827160494,0,0)" xlink:href="#aX"/><use transform="matrix(0.07160493827160494,0,0,0.07160493827160494,18.54567901234568,0)" xlink:href="#aB"/><use transform="matrix(0.07160493827160494,0,0,0.07160493827160494,32.86666666666667,0)" xlink:href="#aU"/><use transform="matrix(0.07160493827160494,0,0,0.07160493827160494,48.54814814814815,0)" xlink:href="#aM"/><use transform="matrix(0.07160493827160494,0,0,0.07160493827160494,64.22962962962963,0)" xlink:href="#aB"/><use transform="matrix(0.07160493827160494,0,0,0.07160493827160494,78.55061728395061,0)" xlink:href="#aE"/></g><g id="z"><use transform="matrix(0.07160493827160494,0,0,0.07160493827160494,0,0)" xlink:href="#aW"/><use transform="matrix(0.07160493827160494,0,0,0.07160493827160494,7.160493827160494,0)" xlink:href="#aU"/></g><path d="M169-182c-1-43-94-46-97-3 18 66 151 10 154 114 3 95-165 93-204 36-6-8-10-19-12-30l50-8c3 46 112 56 116 5-17-69-150-10-154-114-4-87 153-88 188-35 5 8 8 18 10 28" id="aY"/><path d="M195-6C206 82 75 100 31 46c-4-6-6-13-8-21l49-6c3 16 16 24 34 25 40 0 42-37 40-79-11 22-30 35-61 35-53 0-70-43-70-97 0-56 18-96 73-97 30 0 46 14 59 34l2-30h47zm-90-29c32 0 41-27 41-63 0-35-9-62-40-62-32 0-39 29-40 63 0 36 9 62 39 62" id="aZ"/><path d="M220-157c-53 9-28 100-34 157h-49v-107c1-27-5-49-29-50C55-147 81-57 75 0H25l-1-190h47c2 12-1 28 3 38 10-53 101-56 108 0 13-22 24-43 59-42 82 1 51 116 57 194h-49v-107c-1-25-5-48-29-50" id="ba"/><g id="A"><use transform="matrix(0.07160493827160494,0,0,0.07160493827160494,0,0)" xlink:href="#aY"/><use transform="matrix(0.07160493827160494,0,0,0.07160493827160494,17.185185185185187,0)" xlink:href="#aW"/><use transform="matrix(0.07160493827160494,0,0,0.07160493827160494,24.34567901234568,0)" xlink:href="#aZ"/><use transform="matrix(0.07160493827160494,0,0,0.07160493827160494,40.02716049382716,0)" xlink:href="#ba"/><use transform="matrix(0.07160493827160494,0,0,0.07160493827160494,62.94074074074074,0)" xlink:href="#aH"/></g><path d="M199 0l-22-63H83L61 0H9l90-248h61L250 0h-51zm-33-102l-36-108c-10 38-24 72-36 108h72" id="bb"/><g id="B"><use transform="matrix(0.07160493827160494,0,0,0.07160493827160494,0,0)" xlink:href="#bb"/><use transform="matrix(0.07160493827160494,0,0,0.07160493827160494,18.54567901234568,0)" xlink:href="#aG"/><use transform="matrix(0.07160493827160494,0,0,0.07160493827160494,32.86666666666667,0)" xlink:href="#aG"/><use transform="matrix(0.07160493827160494,0,0,0.07160493827160494,47.187654320987654,0)" xlink:href="#aB"/><use transform="matrix(0.07160493827160494,0,0,0.07160493827160494,61.50864197530864,0)" xlink:href="#aC"/><use transform="matrix(0.07160493827160494,0,0,0.07160493827160494,75.82962962962964,0)" xlink:href="#aC"/></g><g id="C"><use transform="matrix(0.07160493827160494,0,0,0.07160493827160494,0,0)" xlink:href="#aG"/><use transform="matrix(0.07160493827160494,0,0,0.07160493827160494,14.320987654320987,0)" xlink:href="#aH"/><use transform="matrix(0.07160493827160494,0,0,0.07160493827160494,28.641975308641975,0)" xlink:href="#aG"/><use transform="matrix(0.07160493827160494,0,0,0.07160493827160494,42.96296296296296,0)" xlink:href="#aI"/><use transform="matrix(0.07160493827160494,0,0,0.07160493827160494,58.644444444444446,0)" xlink:href="#aB"/></g><g id="D"><use transform="matrix(0.07407407407407407,0,0,0.07407407407407407,0,0)" xlink:href="#aR"/><use transform="matrix(0.07407407407407407,0,0,0.07407407407407407,19.185185185185183,0)" xlink:href="#aS"/></g><path d="M135-194c53 0 70 44 70 98 0 56-19 98-73 100-31 1-45-17-59-34 3 33 2 69 2 105H25l-1-265h48c2 10 0 23 3 31 11-24 29-35 60-35zM114-30c33 0 39-31 40-66 0-38-9-64-40-64-56 0-55 130 0 130" id="bc"/><g id="E"><use transform="matrix(0.07160493827160494,0,0,0.07160493827160494,0,0)" xlink:href="#aT"/><use transform="matrix(0.07160493827160494,0,0,0.07160493827160494,18.54567901234568,0)" xlink:href="#aA"/><use transform="matrix(0.07160493827160494,0,0,0.07160493827160494,34.227160493827164,0)" xlink:href="#ba"/><use transform="matrix(0.07160493827160494,0,0,0.07160493827160494,57.14074074074075,0)" xlink:href="#bc"/><use transform="matrix(0.07160493827160494,0,0,0.07160493827160494,72.82222222222222,0)" xlink:href="#aV"/><use transform="matrix(0.07160493827160494,0,0,0.07160493827160494,88.5037037037037,0)" xlink:href="#aL"/><use transform="matrix(0.07160493827160494,0,0,0.07160493827160494,97.0246913580247,0)" xlink:href="#aB"/></g><g id="F"><use transform="matrix(0.07160493827160494,0,0,0.07160493827160494,0,0)" xlink:href="#aF"/><use transform="matrix(0.07160493827160494,0,0,0.07160493827160494,20.049382716049383,0)" xlink:href="#aW"/><use transform="matrix(0.07160493827160494,0,0,0.07160493827160494,27.209876543209877,0)" xlink:href="#aL"/><use transform="matrix(0.07160493827160494,0,0,0.07160493827160494,35.73086419753086,0)" xlink:href="#aI"/></g><g id="G"><use transform="matrix(0.07160493827160494,0,0,0.07160493827160494,0,0)" xlink:href="#bb"/><use transform="matrix(0.07160493827160494,0,0,0.07160493827160494,18.54567901234568,0)" xlink:href="#aK"/><use transform="matrix(0.07160493827160494,0,0,0.07160493827160494,25.706172839506173,0)" xlink:href="#bc"/><use transform="matrix(0.07160493827160494,0,0,0.07160493827160494,41.38765432098766,0)" xlink:href="#aI"/><use transform="matrix(0.07160493827160494,0,0,0.07160493827160494,57.069135802469134,0)" xlink:href="#aH"/></g><path d="M140-251c80 0 125 45 125 126 0 70-33 111-92 124 6 28 34 38 68 31l-1 36C177 83 129 55 120 2 51-6 15-50 15-125c0-81 44-126 125-126zm-1 214c52 0 73-35 73-88 0-50-21-86-72-86-52 0-73 35-73 86s22 88 72 88" id="bd"/><path d="M123 10C108 53 80 86 19 72V37c35 8 53-11 59-39L3-190h52l48 148c12-52 28-100 44-148h51" id="be"/><g id="H"><use transform="matrix(0.07160493827160494,0,0,0.07160493827160494,0,0)" xlink:href="#bd"/><use transform="matrix(0.07160493827160494,0,0,0.07160493827160494,20.049382716049383,0)" xlink:href="#aV"/><use transform="matrix(0.07160493827160494,0,0,0.07160493827160494,35.73086419753086,0)" xlink:href="#aB"/><use transform="matrix(0.07160493827160494,0,0,0.07160493827160494,50.05185185185185,0)" xlink:href="#aE"/><use transform="matrix(0.07160493827160494,0,0,0.07160493827160494,60.07654320987653,0)" xlink:href="#be"/></g><path d="M24 0v-248h195v40H76v63h132v40H76v65h150V0H24" id="bf"/><path d="M84 4C32 4 15-41 15-95c0-55 18-99 73-99 29 0 47 12 58 34l2-30h48l-1 265h-49V-32C136-9 114 4 84 4zm21-34c32 0 41-29 41-66 0-36-9-64-40-64-33 0-39 30-40 65 0 43 13 65 39 65" id="bg"/><g id="I"><use transform="matrix(0.07160493827160494,0,0,0.07160493827160494,0,0)" xlink:href="#bf"/><use transform="matrix(0.07160493827160494,0,0,0.07160493827160494,17.185185185185187,0)" xlink:href="#bg"/><use transform="matrix(0.07160493827160494,0,0,0.07160493827160494,32.86666666666667,0)" xlink:href="#aV"/><use transform="matrix(0.07160493827160494,0,0,0.07160493827160494,48.54814814814815,0)" xlink:href="#aW"/><use transform="matrix(0.07160493827160494,0,0,0.07160493827160494,55.708641975308645,0)" xlink:href="#aJ"/><use transform="matrix(0.07160493827160494,0,0,0.07160493827160494,70.02962962962962,0)" xlink:href="#aH"/><use transform="matrix(0.07160493827160494,0,0,0.07160493827160494,84.35061728395061,0)" xlink:href="#aK"/><use transform="matrix(0.07160493827160494,0,0,0.07160493827160494,91.51111111111112,0)" xlink:href="#aH"/><use transform="matrix(0.07160493827160494,0,0,0.07160493827160494,105.83209876543211,0)" xlink:href="#aU"/><use transform="matrix(0.07160493827160494,0,0,0.07160493827160494,121.51358024691358,0)" xlink:href="#aL"/></g><g id="J"><use transform="matrix(0.07160493827160494,0,0,0.07160493827160494,0,0)" xlink:href="#bg"/><use transform="matrix(0.07160493827160494,0,0,0.07160493827160494,15.681481481481482,0)" xlink:href="#aV"/><use transform="matrix(0.07160493827160494,0,0,0.07160493827160494,31.362962962962964,0)" xlink:href="#aB"/><use transform="matrix(0.07160493827160494,0,0,0.07160493827160494,45.683950617283955,0)" xlink:href="#aE"/><use transform="matrix(0.07160493827160494,0,0,0.07160493827160494,55.708641975308645,0)" xlink:href="#be"/></g><g id="K"><use transform="matrix(0.07160493827160494,0,0,0.07160493827160494,0,0)" xlink:href="#bc"/><use transform="matrix(0.07160493827160494,0,0,0.07160493827160494,15.681481481481482,0)" xlink:href="#aE"/><use transform="matrix(0.07160493827160494,0,0,0.07160493827160494,25.706172839506173,0)" xlink:href="#aB"/><use transform="matrix(0.07160493827160494,0,0,0.07160493827160494,40.02716049382716,0)" xlink:href="#aC"/><use transform="matrix(0.07160493827160494,0,0,0.07160493827160494,54.34814814814815,0)" xlink:href="#aB"/><use transform="matrix(0.07160493827160494,0,0,0.07160493827160494,68.66913580246913,0)" xlink:href="#aU"/><use transform="matrix(0.07160493827160494,0,0,0.07160493827160494,84.35061728395061,0)" xlink:href="#aL"/></g><g id="L"><use transform="matrix(0.07160493827160494,0,0,0.07160493827160494,0,0)" xlink:href="#aW"/><use transform="matrix(0.07160493827160494,0,0,0.07160493827160494,7.160493827160494,0)" xlink:href="#aU"/></g><g id="M"><use transform="matrix(0.07160493827160494,0,0,0.07160493827160494,0,0)" xlink:href="#aY"/><use transform="matrix(0.07160493827160494,0,0,0.07160493827160494,17.185185185185187,0)" xlink:href="#aW"/><use transform="matrix(0.07160493827160494,0,0,0.07160493827160494,24.34567901234568,0)" xlink:href="#aZ"/><use transform="matrix(0.07160493827160494,0,0,0.07160493827160494,40.02716049382716,0)" xlink:href="#ba"/><use transform="matrix(0.07160493827160494,0,0,0.07160493827160494,62.94074074074074,0)" xlink:href="#aH"/></g><g id="N"><use transform="matrix(0.07160493827160494,0,0,0.07160493827160494,0,0)" xlink:href="#aX"/><use transform="matrix(0.07160493827160494,0,0,0.07160493827160494,18.54567901234568,0)" xlink:href="#aB"/><use transform="matrix(0.07160493827160494,0,0,0.07160493827160494,32.86666666666667,0)" xlink:href="#aC"/><use transform="matrix(0.07160493827160494,0,0,0.07160493827160494,47.187654320987654,0)" xlink:href="#aV"/><use transform="matrix(0.07160493827160494,0,0,0.07160493827160494,62.86913580246914,0)" xlink:href="#aK"/><use transform="matrix(0.07160493827160494,0,0,0.07160493827160494,70.02962962962962,0)" xlink:href="#aL"/><use transform="matrix(0.07160493827160494,0,0,0.07160493827160494,78.55061728395061,0)" xlink:href="#aC"/></g><g id="O"><use transform="matrix(0.07160493827160494,0,0,0.07160493827160494,0,0)" xlink:href="#aT"/><use transform="matrix(0.07160493827160494,0,0,0.07160493827160494,18.54567901234568,0)" xlink:href="#aH"/><use transform="matrix(0.07160493827160494,0,0,0.07160493827160494,32.86666666666667,0)" xlink:href="#aG"/><use transform="matrix(0.07160493827160494,0,0,0.07160493827160494,47.187654320987654,0)" xlink:href="#aI"/><use transform="matrix(0.07160493827160494,0,0,0.07160493827160494,62.86913580246914,0)" xlink:href="#aB"/><use transform="matrix(0.07160493827160494,0,0,0.07160493827160494,77.19012345679012,0)" xlink:href="#aN"/></g><path fill="#3a414a" d="M110-194c64 0 96 36 96 99 0 64-35 99-97 99-61 0-95-36-95-99 0-62 34-99 96-99zm-1 164c35 0 45-28 45-65 0-40-10-65-43-65-34 0-45 26-45 65 0 36 10 65 43 65" id="bh"/><path fill="#3a414a" d="M231 0h-52l-39-155L100 0H48L-1-190h46L77-45c9-52 24-97 36-145h53l37 145 32-145h46" id="bi"/><path fill="#3a414a" d="M121-226c-27-7-43 5-38 36h38v33H83V0H34v-157H6v-33h28c-9-59 32-81 87-68v32" id="bj"/><path fill="#3a414a" d="M147 0L96-86 75-71V0H25v-261h50v150l67-79h53l-66 74L201 0h-54" id="bk"/><g id="P"><use transform="matrix(0.0864197530864197,0,0,0.0864197530864197,0,0)" xlink:href="#ai"/><use transform="matrix(0.0864197530864197,0,0,0.0864197530864197,20.74074074074073,0)" xlink:href="#ay"/><use transform="matrix(0.0864197530864197,0,0,0.0864197530864197,39.66666666666664,0)" xlink:href="#bh"/><use transform="matrix(0.0864197530864197,0,0,0.0864197530864197,58.59259259259256,0)" xlink:href="#bi"/><use transform="matrix(0.0864197530864197,0,0,0.0864197530864197,82.79012345679007,0)" xlink:href="#bj"/><use transform="matrix(0.0864197530864197,0,0,0.0864197530864197,93.07407407407402,0)" xlink:href="#ar"/><use transform="matrix(0.0864197530864197,0,0,0.0864197530864197,101.716049382716,0)" xlink:href="#am"/><use transform="matrix(0.0864197530864197,0,0,0.0864197530864197,118.99999999999994,0)" xlink:href="#bk"/><use transform="matrix(0.0864197530864197,0,0,0.0864197530864197,136.2839506172839,0)" xlink:href="#ao"/></g><g id="Q"><use transform="matrix(0.07160493827160494,0,0,0.07160493827160494,0,0)" xlink:href="#aX"/><use transform="matrix(0.07160493827160494,0,0,0.07160493827160494,18.54567901234568,0)" xlink:href="#aB"/><use transform="matrix(0.07160493827160494,0,0,0.07160493827160494,32.86666666666667,0)" xlink:href="#aL"/><use transform="matrix(0.07160493827160494,0,0,0.07160493827160494,41.38765432098766,0)" xlink:href="#aE"/><use transform="matrix(0.07160493827160494,0,0,0.07160493827160494,51.41234567901235,0)" xlink:href="#aW"/><use transform="matrix(0.07160493827160494,0,0,0.07160493827160494,58.57283950617284,0)" xlink:href="#aB"/><use transform="matrix(0.07160493827160494,0,0,0.07160493827160494,72.89382716049383,0)" xlink:href="#aJ"/><use transform="matrix(0.07160493827160494,0,0,0.07160493827160494,87.21481481481482,0)" xlink:href="#aB"/></g><g id="R"><use transform="matrix(0.07160493827160494,0,0,0.07160493827160494,0,0)" xlink:href="#aE"/><use transform="matrix(0.07160493827160494,0,0,0.07160493827160494,10.024691358024691,0)" xlink:href="#aB"/><use transform="matrix(0.07160493827160494,0,0,0.07160493827160494,24.345679012345677,0)" xlink:href="#aC"/><use transform="matrix(0.07160493827160494,0,0,0.07160493827160494,38.666666666666664,0)" xlink:href="#aV"/><use transform="matrix(0.07160493827160494,0,0,0.07160493827160494,54.34814814814815,0)" xlink:href="#aK"/><use transform="matrix(0.07160493827160494,0,0,0.07160493827160494,61.50864197530864,0)" xlink:href="#aL"/><use transform="matrix(0.07160493827160494,0,0,0.07160493827160494,70.02962962962962,0)" xlink:href="#aC"/></g><path d="M121-226c-27-7-43 5-38 36h38v33H83V0H34v-157H6v-33h28c-9-59 32-81 87-68v32" id="bl"/><g id="S"><use transform="matrix(0.07160493827160494,0,0,0.07160493827160494,0,0)" xlink:href="#bl"/><use transform="matrix(0.07160493827160494,0,0,0.07160493827160494,8.520987654320988,0)" xlink:href="#aE"/><use transform="matrix(0.07160493827160494,0,0,0.07160493827160494,18.54567901234568,0)" xlink:href="#aA"/><use transform="matrix(0.07160493827160494,0,0,0.07160493827160494,34.227160493827164,0)" xlink:href="#ba"/></g><path d="M147 0L96-86 75-71V0H25v-261h50v150l67-79h53l-66 74L201 0h-54" id="bm"/><g id="T"><use transform="matrix(0.07160493827160494,0,0,0.07160493827160494,0,0)" xlink:href="#aY"/><use transform="matrix(0.07160493827160494,0,0,0.07160493827160494,17.185185185185187,0)" xlink:href="#aU"/><use transform="matrix(0.07160493827160494,0,0,0.07160493827160494,32.86666666666667,0)" xlink:href="#aA"/><use transform="matrix(0.07160493827160494,0,0,0.07160493827160494,48.54814814814815,0)" xlink:href="#aF"/><use transform="matrix(0.07160493827160494,0,0,0.07160493827160494,68.59753086419754,0)" xlink:href="#bl"/><use transform="matrix(0.07160493827160494,0,0,0.07160493827160494,77.11851851851851,0)" xlink:href="#aK"/><use transform="matrix(0.07160493827160494,0,0,0.07160493827160494,84.27901234567902,0)" xlink:href="#aH"/><use transform="matrix(0.07160493827160494,0,0,0.07160493827160494,98.60000000000001,0)" xlink:href="#bm"/><use transform="matrix(0.07160493827160494,0,0,0.07160493827160494,112.920987654321,0)" xlink:href="#aB"/></g><path d="M128-127c34 4 56 21 59 58 7 91-148 94-172 28-4-9-6-17-7-26l51-5c1 24 16 35 40 36 23 0 39-12 38-36-1-31-31-36-65-34v-40c32 2 59-3 59-33 0-20-13-33-34-33s-33 13-35 32l-50-3c6-44 37-68 86-68 50 0 83 20 83 66 0 35-22 52-53 58" id="bn"/><g id="U"><use transform="matrix(0.07160493827160494,0,0,0.07160493827160494,0,0)" xlink:href="#aY"/><use transform="matrix(0.07160493827160494,0,0,0.07160493827160494,17.185185185185187,0)" xlink:href="#bn"/></g><path d="M186 0v-106H76V0H24v-248h52v99h110v-99h50V0h-50" id="bo"/><g id="V"><use transform="matrix(0.07160493827160494,0,0,0.07160493827160494,0,0)" xlink:href="#bo"/><use transform="matrix(0.07160493827160494,0,0,0.07160493827160494,18.54567901234568,0)" xlink:href="#aH"/><use transform="matrix(0.07160493827160494,0,0,0.07160493827160494,32.86666666666667,0)" xlink:href="#aC"/></g><g id="W"><use transform="matrix(0.07160493827160494,0,0,0.07160493827160494,0,0)" xlink:href="#aG"/><use transform="matrix(0.07160493827160494,0,0,0.07160493827160494,14.320987654320987,0)" xlink:href="#aH"/><use transform="matrix(0.07160493827160494,0,0,0.07160493827160494,28.641975308641975,0)" xlink:href="#aG"/><use transform="matrix(0.07160493827160494,0,0,0.07160493827160494,42.96296296296296,0)" xlink:href="#aI"/><use transform="matrix(0.07160493827160494,0,0,0.07160493827160494,58.644444444444446,0)" xlink:href="#aB"/></g><path d="M14-72v-43h91v43H14" id="bp"/><g id="X"><use transform="matrix(0.07160493827160494,0,0,0.07160493827160494,0,0)" xlink:href="#aL"/><use transform="matrix(0.07160493827160494,0,0,0.07160493827160494,8.520987654320988,0)" xlink:href="#aW"/><use transform="matrix(0.07160493827160494,0,0,0.07160493827160494,15.681481481481482,0)" xlink:href="#ba"/><use transform="matrix(0.07160493827160494,0,0,0.07160493827160494,38.59506172839506,0)" xlink:href="#aB"/><use transform="matrix(0.07160493827160494,0,0,0.07160493827160494,52.916049382716054,0)" xlink:href="#bp"/><use transform="matrix(0.07160493827160494,0,0,0.07160493827160494,61.437037037037044,0)" xlink:href="#aL"/><use transform="matrix(0.07160493827160494,0,0,0.07160493827160494,69.95802469135803,0)" xlink:href="#aA"/><use transform="matrix(0.07160493827160494,0,0,0.07160493827160494,85.63950617283952,0)" xlink:href="#bp"/><use transform="matrix(0.07160493827160494,0,0,0.07160493827160494,94.16049382716051,0)" xlink:href="#aK"/><use transform="matrix(0.07160493827160494,0,0,0.07160493827160494,101.320987654321,0)" xlink:href="#aW"/><use transform="matrix(0.07160493827160494,0,0,0.07160493827160494,108.4814814814815,0)" xlink:href="#aJ"/><use transform="matrix(0.07160493827160494,0,0,0.07160493827160494,122.80246913580248,0)" xlink:href="#aB"/></g><path d="M144 0l-44-69L55 0H2l70-98-66-92h53l41 62 40-62h54l-67 91 71 99h-54" id="bq"/><g id="Y"><use transform="matrix(0.07160493827160494,0,0,0.07160493827160494,0,0)" xlink:href="#aB"/><use transform="matrix(0.07160493827160494,0,0,0.07160493827160494,14.320987654320987,0)" xlink:href="#bq"/><use transform="matrix(0.07160493827160494,0,0,0.07160493827160494,28.641975308641975,0)" xlink:href="#bc"/><use transform="matrix(0.07160493827160494,0,0,0.07160493827160494,44.32345679012346,0)" xlink:href="#aW"/><use transform="matrix(0.07160493827160494,0,0,0.07160493827160494,51.48395061728395,0)" xlink:href="#aE"/><use transform="matrix(0.07160493827160494,0,0,0.07160493827160494,61.50864197530864,0)" xlink:href="#aB"/><use transform="matrix(0.07160493827160494,0,0,0.07160493827160494,75.82962962962964,0)" xlink:href="#aM"/><use transform="matrix(0.07160493827160494,0,0,0.07160493827160494,91.51111111111112,0)" xlink:href="#aN"/></g><g id="Z"><use transform="matrix(0.07160493827160494,0,0,0.07160493827160494,0,0)" xlink:href="#bd"/><use transform="matrix(0.07160493827160494,0,0,0.07160493827160494,20.049382716049383,0)" xlink:href="#aV"/><use transform="matrix(0.07160493827160494,0,0,0.07160493827160494,35.73086419753086,0)" xlink:href="#aB"/><use transform="matrix(0.07160493827160494,0,0,0.07160493827160494,50.05185185185185,0)" xlink:href="#aE"/><use transform="matrix(0.07160493827160494,0,0,0.07160493827160494,60.07654320987653,0)" xlink:href="#be"/></g><g id="aa"><use transform="matrix(0.07160493827160494,0,0,0.07160493827160494,0,0)" xlink:href="#aB"/><use transform="matrix(0.07160493827160494,0,0,0.07160493827160494,14.320987654320987,0)" xlink:href="#bq"/><use transform="matrix(0.07160493827160494,0,0,0.07160493827160494,28.641975308641975,0)" xlink:href="#aB"/><use transform="matrix(0.07160493827160494,0,0,0.07160493827160494,42.96296296296296,0)" xlink:href="#aG"/><use transform="matrix(0.07160493827160494,0,0,0.07160493827160494,57.28395061728395,0)" xlink:href="#aV"/><use transform="matrix(0.07160493827160494,0,0,0.07160493827160494,72.96543209876543,0)" xlink:href="#aL"/><use transform="matrix(0.07160493827160494,0,0,0.07160493827160494,81.48641975308642,0)" xlink:href="#aB"/><use transform="matrix(0.07160493827160494,0,0,0.07160493827160494,95.80740740740741,0)" xlink:href="#aM"/></g><g id="ab"><use transform="matrix(0.07160493827160494,0,0,0.07160493827160494,0,0)" xlink:href="#aH"/><use transform="matrix(0.07160493827160494,0,0,0.07160493827160494,14.320987654320987,0)" xlink:href="#aZ"/><use transform="matrix(0.07160493827160494,0,0,0.07160493827160494,30.00246913580247,0)" xlink:href="#aH"/><use transform="matrix(0.07160493827160494,0,0,0.07160493827160494,44.32345679012346,0)" xlink:href="#aW"/><use transform="matrix(0.07160493827160494,0,0,0.07160493827160494,51.48395061728395,0)" xlink:href="#aU"/><use transform="matrix(0.07160493827160494,0,0,0.07160493827160494,67.16543209876544,0)" xlink:href="#aC"/><use transform="matrix(0.07160493827160494,0,0,0.07160493827160494,81.48641975308642,0)" xlink:href="#aL"/></g><g id="ac"><use transform="matrix(0.07160493827160494,0,0,0.07160493827160494,0,0)" xlink:href="#aF"/><use transform="matrix(0.07160493827160494,0,0,0.07160493827160494,20.049382716049383,0)" xlink:href="#aH"/><use transform="matrix(0.07160493827160494,0,0,0.07160493827160494,34.37037037037037,0)" xlink:href="#aE"/><use transform="matrix(0.07160493827160494,0,0,0.07160493827160494,44.395061728395056,0)" xlink:href="#aB"/><use transform="matrix(0.07160493827160494,0,0,0.07160493827160494,58.716049382716044,0)" xlink:href="#aI"/><use transform="matrix(0.07160493827160494,0,0,0.07160493827160494,74.39753086419752,0)" xlink:href="#aA"/><use transform="matrix(0.07160493827160494,0,0,0.07160493827160494,90.079012345679,0)" xlink:href="#aV"/><use transform="matrix(0.07160493827160494,0,0,0.07160493827160494,105.76049382716047,0)" xlink:href="#aC"/><use transform="matrix(0.07160493827160494,0,0,0.07160493827160494,120.08148148148146,0)" xlink:href="#aB"/></g><path d="M12 0v-35l95-120H19v-35h142v35L67-36h103V0H12" id="br"/><g id="ad"><use transform="matrix(0.07160493827160494,0,0,0.07160493827160494,0,0)" xlink:href="#ba"/><use transform="matrix(0.07160493827160494,0,0,0.07160493827160494,22.913580246913583,0)" xlink:href="#aH"/><use transform="matrix(0.07160493827160494,0,0,0.07160493827160494,37.23456790123457,0)" xlink:href="#aL"/><use transform="matrix(0.07160493827160494,0,0,0.07160493827160494,45.75555555555556,0)" xlink:href="#aB"/><use transform="matrix(0.07160493827160494,0,0,0.07160493827160494,60.07654320987655,0)" xlink:href="#aE"/><use transform="matrix(0.07160493827160494,0,0,0.07160493827160494,70.10123456790124,0)" xlink:href="#aW"/><use transform="matrix(0.07160493827160494,0,0,0.07160493827160494,77.26172839506172,0)" xlink:href="#aH"/><use transform="matrix(0.07160493827160494,0,0,0.07160493827160494,91.58271604938273,0)" xlink:href="#aK"/><use transform="matrix(0.07160493827160494,0,0,0.07160493827160494,98.74320987654322,0)" xlink:href="#aW"/><use transform="matrix(0.07160493827160494,0,0,0.07160493827160494,105.90370370370371,0)" xlink:href="#br"/><use transform="matrix(0.07160493827160494,0,0,0.07160493827160494,118.7925925925926,0)" xlink:href="#aB"/><use transform="matrix(0.07160493827160494,0,0,0.07160493827160494,133.11358024691359,0)" xlink:href="#aM"/></g><g id="ae"><use transform="matrix(0.07160493827160494,0,0,0.07160493827160494,0,0)" xlink:href="#aL"/><use transform="matrix(0.07160493827160494,0,0,0.07160493827160494,8.520987654320988,0)" xlink:href="#aH"/><use transform="matrix(0.07160493827160494,0,0,0.07160493827160494,22.841975308641977,0)" xlink:href="#aD"/><use transform="matrix(0.07160493827160494,0,0,0.07160493827160494,38.523456790123454,0)" xlink:href="#aK"/><use transform="matrix(0.07160493827160494,0,0,0.07160493827160494,45.683950617283955,0)" xlink:href="#aB"/></g><path d="M24 0v-248h52V0H24" id="bs"/><g id="af"><use transform="matrix(0.07160493827160494,0,0,0.07160493827160494,0,0)" xlink:href="#bs"/><use transform="matrix(0.07160493827160494,0,0,0.07160493827160494,7.160493827160494,0)" xlink:href="#aC"/></g><g id="ag"><use transform="matrix(0.07160493827160494,0,0,0.07160493827160494,0,0)" xlink:href="#aM"/><use transform="matrix(0.07160493827160494,0,0,0.07160493827160494,15.681481481481482,0)" xlink:href="#aH"/><use transform="matrix(0.07160493827160494,0,0,0.07160493827160494,30.00246913580247,0)" xlink:href="#aL"/><use transform="matrix(0.07160493827160494,0,0,0.07160493827160494,38.523456790123454,0)" xlink:href="#aH"/></g><path d="M230 0l2-204L168 0h-37L68-204 70 0H24v-248h70l56 185 57-185h69V0h-46" id="bt"/><g id="ah"><use transform="matrix(0.07160493827160494,0,0,0.07160493827160494,0,0)" xlink:href="#bt"/><use transform="matrix(0.07160493827160494,0,0,0.07160493827160494,21.409876543209876,0)" xlink:href="#aH"/><use transform="matrix(0.07160493827160494,0,0,0.07160493827160494,35.73086419753086,0)" xlink:href="#aL"/><use transform="matrix(0.07160493827160494,0,0,0.07160493827160494,44.25185185185185,0)" xlink:href="#aB"/><use transform="matrix(0.07160493827160494,0,0,0.07160493827160494,58.57283950617284,0)" xlink:href="#aE"/><use transform="matrix(0.07160493827160494,0,0,0.07160493827160494,68.59753086419754,0)" xlink:href="#aW"/><use transform="matrix(0.07160493827160494,0,0,0.07160493827160494,75.75802469135803,0)" xlink:href="#aH"/><use transform="matrix(0.07160493827160494,0,0,0.07160493827160494,90.07901234567902,0)" xlink:href="#aK"/><use transform="matrix(0.07160493827160494,0,0,0.07160493827160494,97.23950617283951,0)" xlink:href="#aW"/><use transform="matrix(0.07160493827160494,0,0,0.07160493827160494,104.4,0)" xlink:href="#br"/><use transform="matrix(0.07160493827160494,0,0,0.07160493827160494,117.28888888888889,0)" xlink:href="#aB"/><use transform="matrix(0.07160493827160494,0,0,0.07160493827160494,131.60987654320988,0)" xlink:href="#aM"/><use transform="matrix(0.07160493827160494,0,0,0.07160493827160494,147.29135802469136,0)" xlink:href="#aN"/></g></defs></g></svg>