<svg width="32" height="32" viewBox="0 0 32 32" fill="none" xmlns="http://www.w3.org/2000/svg">
<path opacity="0.8" fill-rule="evenodd" clip-rule="evenodd" d="M11.6545 9.9991C11.4484 9.9991 11.3247 9.75826 11.4158 9.57344C11.5929 9.21469 11.6923 8.81081 11.6923 8.38371C11.6923 6.89679 10.4869 5.69141 9 5.69141C7.51308 5.69141 6.30769 6.89679 6.30769 8.38371C6.30769 8.81081 6.40714 9.21469 6.58415 9.57344C6.67534 9.75826 6.5516 9.9991 6.3455 9.9991H3C2.44772 9.9991 2 10.4468 2 10.9991C2 15.4116 2 16.8531 2 22.9991C2 23.5514 2.44772 23.9991 3 23.9991H15C15.5523 23.9991 16 23.5514 16 22.9991V19.4995C16 19.2934 15.7637 19.175 15.5889 19.2842C15.2265 19.5107 14.8175 19.6914 14.3846 19.6914C12.8977 19.6914 11.6923 18.486 11.6923 16.9991C11.6923 15.5122 12.8977 14.3068 14.3846 14.3068C14.8175 14.3068 15.2265 14.4875 15.5889 14.714C15.7637 14.8232 16 14.7047 16 14.4986V10.9991C16 10.4468 15.5523 9.9991 15 9.9991H11.6545Z" fill="#964F7D"/>
<path opacity="0.4" fill-rule="evenodd" clip-rule="evenodd" d="M16.0001 19.5005C16.0001 19.2944 15.7638 19.1759 15.589 19.2851C15.2266 19.5116 14.8176 19.6923 14.3847 19.6923C12.8978 19.6923 11.6924 18.4869 11.6924 17C11.6924 15.5131 12.8978 14.3077 14.3847 14.3077C14.8176 14.3077 15.2266 14.4884 15.589 14.7149C15.7638 14.8241 16.0001 14.7056 16.0001 14.4995L16.0001 11C16.0001 10.4477 16.4478 10 17.0001 10L29.0001 10C29.5524 10 30.0001 10.4477 30.0001 11C30.0001 16.2751 30.0001 14.4723 30.0001 23C30.0001 23.5523 29.5524 24 29.0001 24L25.6546 24C25.4485 24 25.3247 24.2408 25.4159 24.4257C25.5929 24.7844 25.6924 25.1883 25.6924 25.6154C25.6924 27.1023 24.487 28.3077 23.0001 28.3077C21.5132 28.3077 20.3078 27.1023 20.3078 25.6154C20.3078 25.1883 20.4072 24.7844 20.5842 24.4257C20.6754 24.2408 20.5517 24 20.3456 24L17.0001 24C16.4478 24 16.0001 23.5523 16.0001 23L16.0001 19.5005Z" fill="#964F7D"/>
</svg>
