<svg width="32" height="32" viewBox="0 0 32 32" fill="none" xmlns="http://www.w3.org/2000/svg">
<path opacity="0.2" fill-rule="evenodd" clip-rule="evenodd" d="M30 8H2V28C2 29.1046 2.89543 30 4 30H28C29.1046 30 30 29.1046 30 28V8ZM10.5882 15.8087C11.0349 15.4838 11.1336 14.8584 10.8088 14.4118C10.4839 13.9651 9.8585 13.8664 9.41185 14.1912L4.46787 17.7869C3.64422 18.3859 3.64423 19.6141 4.46788 20.2131L9.41185 23.8087C9.85851 24.1335 10.4839 24.0348 10.8088 23.5881C11.1336 23.1415 11.0348 22.5161 10.5882 22.1912L6.20023 19L10.5882 15.8087ZM21.1912 14.4118C20.8664 14.8584 20.9651 15.4838 21.4118 15.8087L25.7998 19L21.4118 22.1912C20.9652 22.5161 20.8664 23.1415 21.1912 23.5881C21.5161 24.0348 22.1415 24.1335 22.5881 23.8087L27.5321 20.2131C28.3558 19.6141 28.3558 18.3859 27.5321 17.7869L22.5882 14.1912C22.1415 13.8664 21.5161 13.9651 21.1912 14.4118ZM20.2139 12.3939C20.4314 11.8863 20.1963 11.2984 19.6886 11.0808C19.181 10.8633 18.5931 11.0984 18.3756 11.6061L12.3756 25.6061C12.158 26.1137 12.3932 26.7016 12.9008 26.9191C13.4084 27.1367 13.9963 26.9015 14.2139 26.3939L20.2139 12.3939Z" fill="#C1A836"/>
<path opacity="0.8" fill-rule="evenodd" clip-rule="evenodd" d="M4 2C2.89543 2 2 2.89543 2 4V8H30V4C30 2.89543 29.1046 2 28 2H4ZM5 6C5.55228 6 6 5.55228 6 5C6 4.44772 5.55228 4 5 4C4.44772 4 4 4.44772 4 5C4 5.55228 4.44772 6 5 6ZM9 5C9 5.55228 8.55228 6 8 6C7.44772 6 7 5.55228 7 5C7 4.44772 7.44772 4 8 4C8.55228 4 9 4.44772 9 5ZM11 6C11.5523 6 12 5.55228 12 5C12 4.44772 11.5523 4 11 4C10.4477 4 10 4.44772 10 5C10 5.55228 10.4477 6 11 6Z" fill="#C1A836"/>
<g opacity="0.2">
<path d="M6 5C6 5.55228 5.55228 6 5 6C4.44772 6 4 5.55228 4 5C4 4.44772 4.44772 4 5 4C5.55228 4 6 4.44772 6 5Z" fill="#C1A836"/>
<path d="M9 5C9 5.55228 8.55228 6 8 6C7.44772 6 7 5.55228 7 5C7 4.44772 7.44772 4 8 4C8.55228 4 9 4.44772 9 5Z" fill="#C1A836"/>
<path d="M11 6C11.5523 6 12 5.55228 12 5C12 4.44772 11.5523 4 11 4C10.4477 4 10 4.44772 10 5C10 5.55228 10.4477 6 11 6Z" fill="#C1A836"/>
</g>
<g opacity="0.8">
<path d="M20.2136 12.3939C20.4311 11.8863 20.196 11.2984 19.6883 11.0809C19.1807 10.8633 18.5928 11.0985 18.3753 11.6061L12.3753 25.6061C12.1577 26.1137 12.3929 26.7016 12.9005 26.9192C13.4081 27.1367 13.996 26.9016 14.2136 26.3939L20.2136 12.3939Z" fill="#C1A836"/>
<path d="M10.8087 14.4118C11.1336 14.8585 11.0348 15.4839 10.5882 15.8087L6.20019 19L10.5882 22.1912C11.0348 22.5161 11.1336 23.1415 10.8087 23.5882C10.4839 24.0348 9.85847 24.1336 9.41181 23.8087L4.46784 20.2131C3.64419 19.6141 3.64418 18.3859 4.46783 17.7869L9.41181 14.1913C9.85846 13.8664 10.4839 13.9652 10.8087 14.4118Z" fill="#C1A836"/>
<path d="M21.1912 14.4118C20.8664 14.8585 20.9651 15.4839 21.4118 15.8087L25.7997 19L21.4118 22.1912C20.9651 22.5161 20.8664 23.1415 21.1912 23.5882C21.516 24.0348 22.1415 24.1336 22.5881 23.8087L27.5321 20.2131C28.3557 19.6141 28.3557 18.3859 27.5321 17.7869L22.5881 14.1913C22.1415 13.8664 21.516 13.9652 21.1912 14.4118Z" fill="#C1A836"/>
</g>
</svg>
