<svg width="32" height="32" viewBox="0 0 32 32" fill="none" xmlns="http://www.w3.org/2000/svg">
<path opacity="0.25" fill-rule="evenodd" clip-rule="evenodd" d="M25.859 19.6283C28.1462 19.6283 30 17.7917 30 15.5257C30 13.2761 28.1725 11.4492 25.9079 11.4238C25.3823 9.40153 23.5297 7.90722 21.3243 7.90722C20.5491 7.90722 19.8178 8.09166 19.172 8.41883C18.5231 5.87953 16.2018 4 13.4366 4C10.1697 4 7.52114 6.62396 7.52114 9.86052C7.52114 10.0147 7.52725 10.1677 7.53945 10.3189C7.27698 10.2748 7.00779 10.2512 6.73249 10.2512C4.11873 10.2512 2 12.3502 2 14.9397C2 17.5292 4.11934 19.6283 6.73249 19.6283H9V14.0465V14.0461C9.00073 12.916 11.9106 12 15.5 12C19.0894 12 21.9993 12.916 22 14.0461V14.0465V19.6283H25.859Z" fill="#0894B3"/>
<ellipse cx="15.5" cy="14" rx="6.5" ry="2" fill="#0894B3"/>
<path opacity="0.6" fill-rule="evenodd" clip-rule="evenodd" d="M15.5 16C19.0899 16 22 15.1046 22 14V17.5C22 18.8807 19.0899 20 15.5 20C11.9101 20 9 18.8807 9 17.5V14C9 15.1046 11.9101 16 15.5 16Z" fill="#0894B3"/>
<path fill-rule="evenodd" clip-rule="evenodd" d="M9.00013 17.5H9V21.5H9.01595C9.00537 21.5472 9 21.5948 9 21.6427C9 22.7605 11.9154 23.6667 15.5118 23.6667C19.1081 23.6667 22.0236 22.7605 22.0236 21.6427C22.0236 21.5844 22.0156 21.5265 22 21.4694V17.5161C21.9774 18.8894 19.076 20 15.5001 20C11.9103 20 9.00013 18.8807 9.00013 17.5Z" fill="#0894B3"/>
<path opacity="0.6" fill-rule="evenodd" clip-rule="evenodd" d="M15.5 23C19.0899 23 22 22.1046 22 21V25.5C22 26.8807 19.0899 28 15.5 28C11.9101 28 9 26.8807 9 25.5V21C9 22.1046 11.9101 23 15.5 23Z" fill="#0894B3"/>
</svg>
