<svg width="32" height="32" viewBox="0 0 32 32" fill="none" xmlns="http://www.w3.org/2000/svg">
<path opacity="0.2" fill-rule="evenodd" clip-rule="evenodd" d="M7 4C7 2.89543 7.89543 2 9 2H23C24.1046 2 25 2.89543 25 4V11C25 12.1046 24.1046 13 23 13V16L20 13H12L9 16L9 13C7.89543 13 7 12.1046 7 11V4ZM12 9C12.5523 9 13 8.55228 13 8C13 7.44772 12.5523 7 12 7C11.4477 7 11 7.44772 11 8C11 8.55228 11.4477 9 12 9ZM17 8C17 8.55228 16.5523 9 16 9C15.4477 9 15 8.55228 15 8C15 7.44772 15.4477 7 16 7C16.5523 7 17 7.44772 17 8ZM20 9C20.5523 9 21 8.55228 21 8C21 7.44772 20.5523 7 20 7C19.4477 7 19 7.44772 19 8C19 8.55228 19.4477 9 20 9Z" fill="#C68173"/>
<path d="M13 8C13 8.55228 12.5523 9 12 9C11.4477 9 11 8.55228 11 8C11 7.44772 11.4477 7 12 7C12.5523 7 13 7.44772 13 8Z" fill="#C68173"/>
<path d="M17 8C17 8.55228 16.5523 9 16 9C15.4477 9 15 8.55228 15 8C15 7.44772 15.4477 7 16 7C16.5523 7 17 7.44772 17 8Z" fill="#C68173"/>
<path d="M20 9C20.5523 9 21 8.55228 21 8C21 7.44772 20.5523 7 20 7C19.4477 7 19 7.44772 19 8C19 8.55228 19.4477 9 20 9Z" fill="#C68173"/>
<g opacity="0.8">
<path d="M9 24C10.6569 24 12 22.6569 12 21C12 19.3431 10.6569 18 9 18C7.34315 18 6 19.3431 6 21C6 22.6569 7.34315 24 9 24Z" fill="#C68173"/>
<path d="M4.75736 26.4645C3.63214 27.4021 3 28.6739 3 30L15 30C15 28.6739 14.3679 27.4021 13.2426 26.4645C12.1174 25.5268 10.5913 25 9 25C7.4087 25 5.88258 25.5268 4.75736 26.4645Z" fill="#C68173"/>
</g>
<g opacity="0.8">
<path d="M23 24C24.6569 24 26 22.6569 26 21C26 19.3431 24.6569 18 23 18C21.3431 18 20 19.3431 20 21C20 22.6569 21.3431 24 23 24Z" fill="#C68173"/>
<path d="M18.7574 26.4645C17.6321 27.4021 17 28.6739 17 30L29 30C29 28.6739 28.3679 27.4021 27.2426 26.4645C26.1174 25.5268 24.5913 25 23 25C21.4087 25 19.8826 25.5268 18.7574 26.4645Z" fill="#C68173"/>
</g>
</svg>
