<svg width="32" height="32" viewBox="0 0 32 32" fill="none" xmlns="http://www.w3.org/2000/svg">
<path opacity="0.5" d="M17 3.5C17 3.22386 17.2239 3 17.5 3H29.5C29.7761 3 30 3.22386 30 3.5C30 3.77614 29.7761 4 29.5 4H17.5C17.2239 4 17 3.77614 17 3.5Z" fill="#6F4B42"/>
<path opacity="0.5" d="M2 3.5C2 3.22386 2.22386 3 2.5 3H14.5C14.7761 3 15 3.22386 15 3.5C15 3.77614 14.7761 4 14.5 4H2.5C2.22386 4 2 3.77614 2 3.5Z" fill="#6F4B42"/>
<path opacity="0.5" d="M18 6H14V21H2.5C2.22386 21 2 21.2239 2 21.5C2 21.7761 2.22386 22 2.5 22H29.5C29.7761 22 30 21.7761 30 21.5C30 21.2239 29.7761 21 29.5 21H18V6Z" fill="#6F4B42"/>
<path opacity="0.2" fill-rule="evenodd" clip-rule="evenodd" d="M29 22H3V29H14V26C14 24.8954 14.8954 24 16 24C17.1046 24 18 24.8954 18 26V29H29V22ZM5.5 24C5.22386 24 5 24.2239 5 24.5V26.5C5 26.7761 5.22386 27 5.5 27H7.5C7.77614 27 8 26.7761 8 26.5V24.5C8 24.2239 7.77614 24 7.5 24H5.5ZM9 24.5C9 24.2239 9.22386 24 9.5 24H11.5C11.7761 24 12 24.2239 12 24.5V26.5C12 26.7761 11.7761 27 11.5 27H9.5C9.22386 27 9 26.7761 9 26.5V24.5ZM24.5 24C24.2239 24 24 24.2239 24 24.5V26.5C24 26.7761 24.2239 27 24.5 27H26.5C26.7761 27 27 26.7761 27 26.5V24.5C27 24.2239 26.7761 24 26.5 24H24.5ZM20 24.5C20 24.2239 20.2239 24 20.5 24H22.5C22.7761 24 23 24.2239 23 24.5V26.5C23 26.7761 22.7761 27 22.5 27H20.5C20.2239 27 20 26.7761 20 26.5V24.5Z" fill="#6F4B42"/>
<path opacity="0.2" fill-rule="evenodd" clip-rule="evenodd" d="M18 4H29V21H18V4ZM20 6.5C20 6.22386 20.2239 6 20.5 6H22.5C22.7761 6 23 6.22386 23 6.5V8.5C23 8.77614 22.7761 9 22.5 9H20.5C20.2239 9 20 8.77614 20 8.5V6.5ZM20.5 11C20.2239 11 20 11.2239 20 11.5V13.5C20 13.7761 20.2239 14 20.5 14H22.5C22.7761 14 23 13.7761 23 13.5V11.5C23 11.2239 22.7761 11 22.5 11H20.5ZM20 16.5C20 16.2239 20.2239 16 20.5 16H22.5C22.7761 16 23 16.2239 23 16.5V18.5C23 18.7761 22.7761 19 22.5 19H20.5C20.2239 19 20 18.7761 20 18.5V16.5ZM24.5 6C24.2239 6 24 6.22386 24 6.5V8.5C24 8.77614 24.2239 9 24.5 9H26.5C26.7761 9 27 8.77614 27 8.5V6.5C27 6.22386 26.7761 6 26.5 6H24.5ZM24 11.5C24 11.2239 24.2239 11 24.5 11H26.5C26.7761 11 27 11.2239 27 11.5V13.5C27 13.7761 26.7761 14 26.5 14H24.5C24.2239 14 24 13.7761 24 13.5V11.5ZM24.5 16C24.2239 16 24 16.2239 24 16.5V18.5C24 18.7761 24.2239 19 24.5 19H26.5C26.7761 19 27 18.7761 27 18.5V16.5C27 16.2239 26.7761 16 26.5 16H24.5Z" fill="#6F4B42"/>
<path opacity="0.2" fill-rule="evenodd" clip-rule="evenodd" d="M3 4H14V21H3V4ZM5 6.5C5 6.22386 5.22386 6 5.5 6H7.5C7.77614 6 8 6.22386 8 6.5V8.5C8 8.77614 7.77614 9 7.5 9H5.5C5.22386 9 5 8.77614 5 8.5V6.5ZM5.5 11C5.22386 11 5 11.2239 5 11.5V13.5C5 13.7761 5.22386 14 5.5 14H7.5C7.77614 14 8 13.7761 8 13.5V11.5C8 11.2239 7.77614 11 7.5 11H5.5ZM5 16.5C5 16.2239 5.22386 16 5.5 16H7.5C7.77614 16 8 16.2239 8 16.5V18.5C8 18.7761 7.77614 19 7.5 19H5.5C5.22386 19 5 18.7761 5 18.5V16.5ZM9.5 6C9.22386 6 9 6.22386 9 6.5V8.5C9 8.77614 9.22386 9 9.5 9H11.5C11.7761 9 12 8.77614 12 8.5V6.5C12 6.22386 11.7761 6 11.5 6H9.5ZM9 11.5C9 11.2239 9.22386 11 9.5 11H11.5C11.7761 11 12 11.2239 12 11.5V13.5C12 13.7761 11.7761 14 11.5 14H9.5C9.22386 14 9 13.7761 9 13.5V11.5ZM9.5 16C9.22386 16 9 16.2239 9 16.5V18.5C9 18.7761 9.22386 19 9.5 19H11.5C11.7761 19 12 18.7761 12 18.5V16.5C12 16.2239 11.7761 16 11.5 16H9.5Z" fill="#6F4B42"/>
<g opacity="0.6">
<path d="M5 6.5C5 6.22386 5.22386 6 5.5 6H7.5C7.77614 6 8 6.22386 8 6.5V8.5C8 8.77614 7.77614 9 7.5 9H5.5C5.22386 9 5 8.77614 5 8.5V6.5Z" fill="#6F4B42"/>
<path d="M20 6.5C20 6.22386 20.2239 6 20.5 6H22.5C22.7761 6 23 6.22386 23 6.5V8.5C23 8.77614 22.7761 9 22.5 9H20.5C20.2239 9 20 8.77614 20 8.5V6.5Z" fill="#6F4B42"/>
<path d="M20.5 11C20.2239 11 20 11.2239 20 11.5V13.5C20 13.7761 20.2239 14 20.5 14H22.5C22.7761 14 23 13.7761 23 13.5V11.5C23 11.2239 22.7761 11 22.5 11H20.5Z" fill="#6F4B42"/>
<path d="M5 11.5C5 11.2239 5.22386 11 5.5 11H7.5C7.77614 11 8 11.2239 8 11.5V13.5C8 13.7761 7.77614 14 7.5 14H5.5C5.22386 14 5 13.7761 5 13.5V11.5Z" fill="#6F4B42"/>
<path d="M20.5 16C20.2239 16 20 16.2239 20 16.5V18.5C20 18.7761 20.2239 19 20.5 19H22.5C22.7761 19 23 18.7761 23 18.5V16.5C23 16.2239 22.7761 16 22.5 16H20.5Z" fill="#6F4B42"/>
<path d="M5 16.5C5 16.2239 5.22386 16 5.5 16H7.5C7.77614 16 8 16.2239 8 16.5V18.5C8 18.7761 7.77614 19 7.5 19H5.5C5.22386 19 5 18.7761 5 18.5V16.5Z" fill="#6F4B42"/>
<path d="M24.5 6C24.2239 6 24 6.22386 24 6.5V8.5C24 8.77614 24.2239 9 24.5 9H26.5C26.7761 9 27 8.77614 27 8.5V6.5C27 6.22386 26.7761 6 26.5 6H24.5Z" fill="#6F4B42"/>
<path d="M9 6.5C9 6.22386 9.22386 6 9.5 6H11.5C11.7761 6 12 6.22386 12 6.5V8.5C12 8.77614 11.7761 9 11.5 9H9.5C9.22386 9 9 8.77614 9 8.5V6.5Z" fill="#6F4B42"/>
<path d="M24.5 11C24.2239 11 24 11.2239 24 11.5V13.5C24 13.7761 24.2239 14 24.5 14H26.5C26.7761 14 27 13.7761 27 13.5V11.5C27 11.2239 26.7761 11 26.5 11H24.5Z" fill="#6F4B42"/>
<path d="M9 11.5C9 11.2239 9.22386 11 9.5 11H11.5C11.7761 11 12 11.2239 12 11.5V13.5C12 13.7761 11.7761 14 11.5 14H9.5C9.22386 14 9 13.7761 9 13.5V11.5Z" fill="#6F4B42"/>
<path d="M24.5 16C24.2239 16 24 16.2239 24 16.5V18.5C24 18.7761 24.2239 19 24.5 19H26.5C26.7761 19 27 18.7761 27 18.5V16.5C27 16.2239 26.7761 16 26.5 16H24.5Z" fill="#6F4B42"/>
<path d="M9 16.5C9 16.2239 9.22386 16 9.5 16H11.5C11.7761 16 12 16.2239 12 16.5V18.5C12 18.7761 11.7761 19 11.5 19H9.5C9.22386 19 9 18.7761 9 18.5V16.5Z" fill="#6F4B42"/>
<path d="M5.5 24C5.22386 24 5 24.2239 5 24.5V26.5C5 26.7761 5.22386 27 5.5 27H7.5C7.77614 27 8 26.7761 8 26.5V24.5C8 24.2239 7.77614 24 7.5 24H5.5Z" fill="#6F4B42"/>
<path d="M9 24.5C9 24.2239 9.22386 24 9.5 24H11.5C11.7761 24 12 24.2239 12 24.5V26.5C12 26.7761 11.7761 27 11.5 27H9.5C9.22386 27 9 26.7761 9 26.5V24.5Z" fill="#6F4B42"/>
<path d="M24.5 24C24.2239 24 24 24.2239 24 24.5V26.5C24 26.7761 24.2239 27 24.5 27H26.5C26.7761 27 27 26.7761 27 26.5V24.5C27 24.2239 26.7761 24 26.5 24H24.5Z" fill="#6F4B42"/>
<path d="M20 24.5C20 24.2239 20.2239 24 20.5 24H22.5C22.7761 24 23 24.2239 23 24.5V26.5C23 26.7761 22.7761 27 22.5 27H20.5C20.2239 27 20 26.7761 20 26.5V24.5Z" fill="#6F4B42"/>
<path d="M16 24C14.8954 24 14 24.8954 14 26V29H18V26C18 24.8954 17.1046 24 16 24Z" fill="#6F4B42"/>
</g>
</svg>
