<svg width="32" height="32" viewBox="0 0 32 32" fill="none" xmlns="http://www.w3.org/2000/svg">
<g opacity="0.4">
<path d="M11.1925 10.8996C10.4114 10.1185 10.4114 8.85218 11.1925 8.07113L16.8493 2.41428C17.6304 1.63323 18.8967 1.63323 19.6778 2.41428C20.4588 3.19533 20.4588 4.46166 19.6778 5.2427L14.0209 10.8996C13.2399 11.6806 11.9735 11.6806 11.1925 10.8996Z" fill="#6F4B42"/>
<path d="M21.0919 20.799C20.3108 20.018 20.3108 18.7517 21.0919 17.9706L26.7487 12.3138C27.5298 11.5327 28.7961 11.5327 29.5772 12.3138C30.3582 13.0948 30.3582 14.3611 29.5772 15.1422L23.9203 20.799C23.1393 21.5801 21.8729 21.5801 21.0919 20.799Z" fill="#6F4B42"/>
</g>
<path opacity="0.6" d="M16.8493 13.7279L18.2635 15.1421L4.12141 29.2843C3.73089 29.6748 3.09772 29.6748 2.7072 29.2843C2.31668 28.8937 2.31668 28.2606 2.7072 27.87L16.8493 13.7279Z" fill="#6F4B42"/>
<g opacity="0.6">
<path d="M19.6779 5.24268L14.021 10.8995L15.4352 12.3137L21.0921 6.65689L19.6779 5.24268Z" fill="#6F4B42"/>
<path d="M25.3346 10.8995L19.6777 16.5564L21.0919 17.9706L26.7488 12.3138L25.3346 10.8995Z" fill="#6F4B42"/>
</g>
<rect opacity="0.2" x="15.4351" y="12.3137" width="8" height="6" transform="rotate(-45 15.4351 12.3137)" fill="#6F4B42"/>
<path opacity="0.4" d="M17 27C17 26.4477 17.4477 26 18 26H29C29.5523 26 30 26.4477 30 27C30 27.5523 29.5523 28 29 28C29.5523 28 30 28.4477 30 29C30 29.5523 29.5523 30 29 30H18C17.4477 30 17 29.5523 17 29C17 28.4477 17.4477 28 18 28C17.4477 28 17 27.5523 17 27Z" fill="#6F4B42"/>
</svg>
