<svg version="1.1" id="Layer_1" xmlns="http://www.w3.org/2000/svg" xmlns:xlink="http://www.w3.org/1999/xlink" x="0px" y="0px"
	 width="100%" viewBox="0 0 320 293" enable-background="new 0 0 320 293" xml:space="preserve">
<path fill="#F7F7F7" opacity="1.000000" stroke="none" 
	d="
M1.000000,107.000000 
	C1.000000,71.333351 1.000000,36.166698 1.000000,1.000038 
	C107.666595,1.000025 214.333191,1.000025 320.999817,1.000013 
	C320.999878,98.666557 320.999878,196.333115 320.999939,293.999756 
	C214.333496,293.999817 107.667000,293.999817 1.000248,293.999908 
	C1.000000,231.833328 1.000000,169.666672 1.000000,107.000000 
M166.941757,28.048660 
	C159.680313,28.344902 152.418869,28.641144 145.053711,28.162201 
	C144.798126,23.497339 142.752823,19.955591 138.402756,18.032463 
	C134.081604,16.122110 130.025421,16.695833 126.473145,19.872431 
	C122.006279,23.866899 122.161110,28.770575 123.136292,34.057560 
	C118.096359,36.034706 113.056427,38.011852 107.682655,39.401741 
	C105.079712,36.632652 102.476776,33.863564 99.876244,30.249269 
	C99.852287,28.920422 100.019600,27.554672 99.771576,26.269054 
	C98.645515,20.432364 93.159142,16.406122 87.364288,17.044170 
	C81.930740,17.642439 77.130966,23.005217 77.277534,28.314066 
	C77.439003,34.162468 82.111969,39.042469 88.106277,39.370510 
	C89.893280,39.468304 91.712929,38.969700 94.062782,39.277344 
	C95.228058,41.491779 96.393333,43.706219 96.920570,46.069412 
	C88.631889,52.385517 80.343208,58.701622 71.509972,64.712372 
	C70.940529,64.095840 70.371086,63.479313 69.855072,61.988285 
	C69.933479,60.662148 70.085548,59.335594 70.077988,58.009945 
	C70.037926,50.983082 65.349533,46.548248 58.352814,46.873981 
	C51.957008,47.171738 47.492828,52.390835 47.983257,58.997082 
	C48.464191,65.475365 53.446709,69.021233 62.336960,69.563461 
	C63.550171,71.376747 64.763382,73.190041 65.526222,75.172112 
	C65.256248,75.366882 65.069717,75.622551 64.284431,76.029800 
	C60.521797,81.723480 56.759163,87.417152 52.470356,93.515663 
	C50.923344,97.131012 49.376328,100.746353 47.323021,104.779312 
	C31.530884,147.487198 36.487450,187.550461 63.485931,224.308105 
	C69.191406,232.075912 77.089264,238.233414 84.281059,245.724030 
	C90.595207,250.008972 96.647285,254.760361 103.276329,258.484802 
	C118.570000,267.077332 135.308716,271.378021 152.673721,272.796570 
	C159.712067,273.371521 166.883591,272.315826 174.864929,272.100281 
	C176.191086,271.987091 177.529053,271.950836 178.841721,271.749634 
	C237.062042,262.827118 279.962250,215.473083 283.259460,156.509155 
	C286.513214,98.323586 246.709641,44.908073 190.096344,30.721846 
	C189.984482,22.353807 186.380753,17.552393 179.822754,17.033852 
	C173.509308,16.534643 168.771378,20.907097 166.941757,28.048660 
z"/>
<path fill="#ACE8F7" opacity="1.000000" stroke="none" 
	d="
M64.966637,75.939110 
	C65.069717,75.622551 65.256248,75.366882 66.140526,75.128326 
	C73.989700,78.626854 81.627098,76.767181 89.080185,76.414536 
	C90.319679,76.355881 92.539215,73.146286 92.299141,71.733833 
	C92.000389,69.976135 89.840981,67.642509 88.085312,67.220413 
	C84.954056,66.467590 81.500519,67.184570 78.225288,66.854668 
	C76.127968,66.643410 74.108757,65.656769 72.054527,65.017731 
	C80.343208,58.701622 88.631889,52.385517 97.340912,46.454208 
	C97.791054,49.660828 97.920746,52.486015 97.825867,55.303635 
	C97.701675,58.991646 98.976112,61.824047 102.959290,61.696415 
	C106.534485,61.581856 107.888916,58.853123 107.893394,55.424599 
	C107.900116,50.279354 107.972206,45.134193 108.016495,39.988998 
	C113.056427,38.011852 118.096359,36.034706 123.706482,34.260391 
	C125.852638,35.932739 127.428604,37.402256 128.971390,39.353233 
	C128.932373,44.976604 129.027802,50.121296 128.886917,55.259510 
	C128.784515,58.994255 130.287628,61.275906 133.994034,62.448784 
	C133.936081,64.678093 133.883194,66.461632 133.577469,68.216293 
	C132.876999,68.382790 132.429352,68.578156 131.514191,68.775154 
	C124.563812,68.781731 118.080635,68.748703 111.598137,68.801430 
	C103.872162,68.864273 99.279152,72.930405 99.164703,80.577492 
	C98.940842,95.534592 98.942047,110.499771 99.165909,125.456871 
	C99.277802,132.932877 103.821495,137.141586 111.134392,137.185410 
	C119.775887,137.237213 128.418365,137.124695 137.306625,137.164352 
	C137.708008,137.321289 137.863174,137.397308 138.005371,137.897095 
	C137.967743,140.916046 137.943069,143.511230 137.611496,145.931305 
	C132.281311,142.982071 129.068878,144.693665 128.953873,150.382996 
	C128.841110,155.962006 128.978348,161.546051 128.814880,167.403061 
	C123.169052,171.990326 121.573967,176.114914 123.292892,181.463211 
	C124.853676,186.319489 129.292084,188.952942 135.983093,189.433075 
	C136.325058,192.466461 136.298737,195.189957 137.099899,197.643219 
	C139.870102,206.125748 146.248199,211.525879 153.446198,216.245529 
	C163.372452,222.754059 173.172180,229.455475 182.856354,236.364807 
	C176.710968,244.634460 172.447281,253.125366 173.937057,263.582977 
	C174.329269,266.336212 173.995117,269.192902 173.994522,272.002136 
	C166.883591,272.315826 159.712067,273.371521 152.673721,272.796570 
	C135.308716,271.378021 118.570000,267.077332 103.276329,258.484802 
	C96.647285,254.760361 90.595207,250.008972 84.183441,245.030838 
	C86.058830,235.608276 87.619720,226.759415 90.107941,218.179459 
	C93.301872,207.166077 91.380478,197.596176 84.347000,188.959198 
	C95.716301,189.241074 100.103844,185.178238 100.169456,174.722626 
	C106.407005,170.613739 109.086098,165.246124 107.926071,158.047546 
	C107.639748,156.270782 107.866875,154.408447 107.886673,152.585770 
	C107.927933,148.788315 107.807320,144.523941 102.937981,144.356094 
	C97.881439,144.181778 97.740395,148.420319 97.844452,152.259155 
	C97.884850,153.749512 97.691048,155.262558 97.880753,156.729446 
	C98.434891,161.014160 97.291206,164.547348 93.267242,167.104950 
	C83.203430,166.549835 78.747704,169.070312 77.596939,176.154968 
	C77.219231,178.480316 77.854729,180.970245 77.734390,183.187332 
	C72.276436,175.053894 67.110985,167.118027 62.277298,159.049164 
	C69.604317,155.054184 70.736496,152.600357 69.927139,143.157227 
	C71.981094,139.843506 74.575287,138.714127 78.108803,139.003021 
	C81.406128,139.272598 84.869736,139.537567 88.019508,138.790283 
	C89.792458,138.369659 91.981201,136.060669 92.298645,134.298965 
	C92.552246,132.891586 90.376862,129.701660 89.079506,129.588058 
	C82.827835,129.040604 76.347031,128.418549 70.279808,129.571503 
	C67.164665,130.163467 64.744804,134.414215 61.584583,137.028046 
	C59.181080,137.134262 57.203728,137.223984 55.137909,136.870697 
	C54.791801,128.886246 54.534168,121.344826 54.700623,113.852135 
	C61.393406,115.251770 65.974335,112.441238 70.345444,107.953766 
	C75.992767,107.989822 81.158714,107.929161 86.321793,108.024170 
	C89.880608,108.089661 92.445778,106.589088 92.456421,103.015770 
	C92.467049,99.444290 89.919922,97.911667 86.354126,97.978569 
	C80.858276,98.081703 75.359917,98.050674 69.578735,97.902039 
	C65.871887,95.753822 62.448910,93.780113 59.100349,91.472092 
	C61.105385,86.071548 63.036011,81.005325 64.966637,75.939110 
z"/>
<path fill="#1F307A" opacity="1.000000" stroke="none" 
	d="
M174.429718,272.051208 
	C173.995117,269.192902 174.329269,266.336212 173.937057,263.582977 
	C172.447281,253.125366 176.710968,244.634460 183.275879,236.314026 
	C186.280609,236.431641 188.733688,236.748993 191.103424,237.379562 
	C195.746872,238.615128 200.269669,240.442352 204.974976,241.279190 
	C215.898697,243.221970 224.006454,237.972580 226.828125,227.274521 
	C227.664490,224.103500 228.007370,220.685547 227.888550,217.405655 
	C227.691208,211.957214 229.573334,207.621658 233.673935,204.229721 
	C239.389038,199.502274 236.730927,189.983002 244.069763,186.218155 
	C244.148483,186.177750 244.153381,185.890137 244.114243,185.738144 
	C242.181412,178.227173 246.815414,175.456177 252.803848,173.592987 
	C253.735474,173.303162 254.569931,172.672729 255.419083,172.150650 
	C261.196289,168.598831 261.924438,166.415329 258.083893,161.011673 
	C252.881180,153.691391 247.405670,146.551239 241.769455,139.557648 
	C237.980072,134.855667 237.082428,129.933792 238.552628,124.165581 
	C239.530731,120.328079 240.492279,116.280678 240.298645,112.385017 
	C239.347122,93.241325 232.240204,76.579247 219.163620,62.175629 
	C221.593658,50.658581 214.160812,44.496452 202.304169,47.707741 
	C196.473679,44.328541 190.866425,41.237873 185.399078,37.792633 
	C187.069290,35.469116 188.599609,33.500172 190.129913,31.531225 
	C246.709641,44.908073 286.513214,98.323586 283.259460,156.509155 
	C279.962250,215.473083 237.062042,262.827118 178.841721,271.749634 
	C177.529053,271.950836 176.191086,271.987091 174.429718,272.051208 
z"/>
<path fill="#1F307A" opacity="1.000000" stroke="none" 
	d="
M54.276535,113.803406 
	C54.534168,121.344826 54.791801,128.886246 54.896759,137.097305 
	C50.794907,139.764023 48.243454,142.767181 47.952072,147.343307 
	C47.466415,154.970627 52.676571,159.366959 61.945541,159.182159 
	C67.110985,167.118027 72.276436,175.053894 77.848686,183.460175 
	C79.765137,185.315903 81.274780,186.701202 82.895630,188.346802 
	C83.335617,188.759018 83.664406,188.910934 83.981110,189.029694 
	C83.969032,188.996552 83.906227,189.028824 83.906227,189.028824 
	C91.380478,197.596176 93.301872,207.166077 90.107941,218.179459 
	C87.619720,226.759415 86.058830,235.608276 84.031395,244.735260 
	C77.089264,238.233414 69.191406,232.075912 63.485931,224.308105 
	C36.487450,187.550461 31.530884,147.487198 47.608253,104.912712 
	C50.021172,107.965210 52.148853,110.884308 54.276535,113.803406 
z"/>
<path fill="#FDF159" opacity="1.000000" stroke="none" 
	d="
M93.517616,38.744354 
	C91.712929,38.969700 89.893280,39.468304 88.106277,39.370510 
	C82.111969,39.042469 77.439003,34.162468 77.277534,28.314066 
	C77.130966,23.005217 81.930740,17.642439 87.364288,17.044170 
	C93.159142,16.406122 98.645515,20.432364 99.771576,26.269054 
	C100.019600,27.554672 99.852287,28.920422 99.632843,30.885742 
	C97.432167,33.929592 95.474892,36.336971 93.517616,38.744354 
z"/>
<path fill="#41EADD" opacity="1.000000" stroke="none" 
	d="
M129.004578,38.871777 
	C127.428604,37.402256 125.852638,35.932739 124.070915,34.199879 
	C122.161110,28.770575 122.006279,23.866899 126.473145,19.872431 
	C130.025421,16.695833 134.081604,16.122110 138.402756,18.032463 
	C142.752823,19.955591 144.798126,23.497339 145.054337,28.788773 
	C145.129150,29.738386 145.132477,30.062160 144.944138,30.744505 
	C142.815201,33.707817 140.807083,36.313286 138.359253,38.936295 
	C134.947891,38.926479 131.976242,38.899128 129.004578,38.871777 
z"/>
<path fill="#40E8DD" opacity="1.000000" stroke="none" 
	d="
M54.700623,113.852135 
	C52.148853,110.884308 50.021172,107.965210 47.861397,104.703903 
	C49.376328,100.746353 50.923344,97.131012 53.115860,93.266266 
	C55.516224,92.613388 57.271080,92.209900 59.025936,91.806412 
	C62.448910,93.780113 65.871887,95.753822 69.595352,98.348480 
	C69.884842,101.954117 69.873840,104.938782 69.862846,107.923454 
	C65.974335,112.441238 61.393406,115.251770 54.700623,113.852135 
z"/>
<path fill="#AE7BFD" opacity="1.000000" stroke="none" 
	d="
M62.018745,68.985596 
	C53.446709,69.021233 48.464191,65.475365 47.983257,58.997082 
	C47.492828,52.390835 51.957008,47.171738 58.352814,46.873981 
	C65.349533,46.548248 70.037926,50.983082 70.077988,58.009945 
	C70.085548,59.335594 69.933479,60.662148 69.551422,62.602028 
	C66.838089,65.139046 64.428421,67.062317 62.018745,68.985596 
z"/>
<path fill="#AE7AFC" opacity="1.000000" stroke="none" 
	d="
M190.113129,31.126535 
	C188.599609,33.500172 187.069290,35.469116 185.045776,37.847580 
	C181.060226,38.447380 177.567871,38.637665 173.900558,38.554981 
	C171.808472,35.895615 169.891342,33.509220 167.995010,30.742836 
	C167.960403,29.603029 167.904999,28.843208 167.849609,28.083387 
	C168.771378,20.907097 173.509308,16.534643 179.822754,17.033852 
	C186.380753,17.552393 189.984482,22.353807 190.113129,31.126535 
z"/>
<path fill="#2491F1" opacity="1.000000" stroke="none" 
	d="
M93.790199,39.010849 
	C95.474892,36.336971 97.432167,33.929592 99.631638,31.308346 
	C102.476776,33.863564 105.079712,36.632652 107.849579,39.695370 
	C107.972206,45.134193 107.900116,50.279354 107.893394,55.424599 
	C107.888916,58.853123 106.534485,61.581856 102.959290,61.696415 
	C98.976112,61.824047 97.701675,58.991646 97.825867,55.303635 
	C97.920746,52.486015 97.791054,49.660828 97.659927,46.379829 
	C96.393333,43.706219 95.228058,41.491779 93.790199,39.010849 
z"/>
<path fill="#218FF2" opacity="1.000000" stroke="none" 
	d="
M62.177853,69.274529 
	C64.428421,67.062317 66.838089,65.139046 69.524704,63.039276 
	C70.371086,63.479313 70.940529,64.095840 71.782249,64.865051 
	C74.108757,65.656769 76.127968,66.643410 78.225288,66.854668 
	C81.500519,67.184570 84.954056,66.467590 88.085312,67.220413 
	C89.840981,67.642509 92.000389,69.976135 92.299141,71.733833 
	C92.539215,73.146286 90.319679,76.355881 89.080185,76.414536 
	C81.627098,76.767181 73.989700,78.626854 66.365707,75.043938 
	C64.763382,73.190041 63.550171,71.376747 62.177853,69.274529 
z"/>
<path fill="#2D3D83" opacity="1.000000" stroke="none" 
	d="
M167.395691,28.066025 
	C167.904999,28.843208 167.960403,29.603029 167.810242,30.812038 
	C167.069275,31.640471 166.533890,32.019714 165.567810,32.289474 
	C158.446411,31.582218 151.755676,30.984440 145.064957,30.386662 
	C145.132477,30.062160 145.129150,29.738386 145.106201,29.176365 
	C152.418869,28.641144 159.680313,28.344902 167.395691,28.066025 
z"/>
<path fill="#2B3E83" opacity="1.000000" stroke="none" 
	d="
M59.100349,91.472092 
	C57.271080,92.209900 55.516224,92.613388 53.378948,93.063850 
	C56.759163,87.417152 60.521797,81.723480 64.625534,75.984451 
	C63.036011,81.005325 61.105385,86.071548 59.100349,91.472092 
z"/>
<path fill="#E7F7FC" opacity="1.000000" stroke="none" 
	d="
M144.944138,30.744505 
	C151.755676,30.984440 158.446411,31.582218 165.275055,32.593430 
	C163.613510,35.486237 160.667297,37.790707 160.256821,40.481934 
	C159.439789,45.838783 159.629486,51.452019 160.239502,56.865093 
	C160.439453,58.639362 163.217331,61.380001 164.832748,61.391621 
	C166.517227,61.403740 169.113495,58.936275 169.705048,57.049381 
	C170.560638,54.320187 170.241165,51.109482 169.931625,48.155693 
	C169.509338,44.126030 170.640488,41.026752 174.075516,38.827953 
	C177.567871,38.637665 181.060226,38.447380 184.905869,38.202148 
	C190.866425,41.237873 196.473679,44.328541 202.075195,47.997017 
	C197.544922,52.402866 196.429047,57.170017 197.879135,62.961311 
	C195.496552,66.156830 192.769592,67.390320 189.057510,66.983879 
	C186.107758,66.660904 182.932037,66.372078 180.159775,67.149345 
	C178.211700,67.695526 175.244339,70.320114 175.454971,71.550468 
	C175.794891,73.535988 178.100739,76.116905 180.076660,76.675179 
	C183.153290,77.544464 186.708923,76.534164 189.955307,77.024261 
	C197.238052,78.123695 201.984741,74.827415 205.935547,68.958710 
	C212.018845,69.646461 216.140549,67.222481 219.127991,62.533375 
	C232.240204,76.579247 239.347122,93.241325 240.298645,112.385017 
	C240.492279,116.280678 239.530731,120.328079 238.552628,124.165581 
	C237.082428,129.933792 237.980072,134.855667 241.769455,139.557648 
	C247.405670,146.551239 252.881180,153.691391 258.083893,161.011673 
	C261.924438,166.415329 261.196289,168.598831 255.419083,172.150650 
	C254.569931,172.672729 253.735474,173.303162 252.803848,173.592987 
	C246.815414,175.456177 242.181412,178.227173 244.114243,185.738144 
	C244.153381,185.890137 244.148483,186.177750 244.069763,186.218155 
	C236.730927,189.983002 239.389038,199.502274 233.673935,204.229721 
	C229.573334,207.621658 227.691208,211.957214 227.888550,217.405655 
	C228.007370,220.685547 227.664490,224.103500 226.828125,227.274521 
	C224.006454,237.972580 215.898697,243.221970 204.974976,241.279190 
	C200.269669,240.442352 195.746872,238.615128 191.103424,237.379562 
	C188.733688,236.748993 186.280609,236.431641 183.445648,236.023499 
	C173.172180,229.455475 163.372452,222.754059 153.446198,216.245529 
	C146.248199,211.525879 139.870102,206.125748 137.099899,197.643219 
	C136.298737,195.189957 136.325058,192.466461 136.300751,189.290619 
	C143.492981,185.514267 146.768356,179.982468 144.401657,174.398056 
	C143.241043,171.659485 140.707947,169.502594 138.845245,166.605789 
	C138.569153,159.454895 138.243790,152.780655 137.918427,146.106415 
	C137.943069,143.511230 137.967743,140.916046 138.464828,137.790848 
	C144.935303,137.227921 150.934998,137.271973 156.930954,137.142075 
	C163.977448,136.989410 168.060760,132.935562 168.103775,125.846863 
	C168.195786,110.683388 168.191940,95.518639 168.108093,80.355072 
	C168.065979,72.737465 163.864105,69.009254 156.134262,68.945274 
	C148.698181,68.883713 141.264832,68.491882 133.830292,68.245171 
	C133.883194,66.461632 133.936081,64.678093 134.323517,62.307159 
	C136.079102,59.576252 138.484711,57.536839 138.724548,55.268436 
	C139.294662,49.876198 138.839722,44.375580 138.798965,38.918755 
	C140.807083,36.313286 142.815201,33.707817 144.944138,30.744505 
M198.014404,143.936295 
	C197.899826,144.756989 197.803864,145.580765 197.667694,146.397858 
	C196.748505,151.913864 200.074265,157.463501 205.140945,158.854538 
	C211.049606,160.476746 216.948044,157.656479 219.061234,152.198730 
	C221.188248,146.705185 219.101227,140.728607 213.698303,138.385178 
	C211.225845,137.312805 208.252563,137.395081 205.149658,136.326828 
	C202.322800,133.918839 199.796860,130.101013 196.601593,129.418976 
	C191.225998,128.271545 185.382553,128.732910 179.828476,129.350250 
	C178.101608,129.542191 175.196564,132.725571 175.455811,134.009445 
	C175.844681,135.935303 178.287918,138.068527 180.341797,138.865295 
	C182.501480,139.703140 185.258102,139.308746 187.705750,139.030014 
	C191.978790,138.543472 195.503784,139.537567 198.014404,143.936295 
M167.950607,175.728958 
	C167.940842,176.559082 167.881332,177.392090 167.929153,178.218872 
	C168.317978,184.942627 173.670029,189.602905 180.241928,188.960617 
	C186.391693,188.359589 190.780701,182.656815 190.030869,176.241562 
	C189.201523,169.146103 183.304855,165.797455 173.622345,166.771637 
	C170.754654,164.839539 169.598282,162.255264 169.934509,158.725128 
	C170.232544,155.595947 170.541855,152.263611 169.760361,149.308060 
	C169.244370,147.356506 167.056351,145.156830 165.137451,144.525375 
	C163.986740,144.146698 160.591736,146.458008 160.478455,147.758331 
	C159.932800,154.021957 159.312714,160.513504 160.464981,166.593277 
	C161.055084,169.706787 165.306519,172.126389 167.950607,175.728958 
M198.589310,108.308548 
	C199.697891,109.528320 200.650696,110.954124 201.942856,111.931107 
	C206.743515,115.560776 213.443756,114.746628 217.176361,110.228889 
	C221.045822,105.545540 220.707336,99.148636 216.365601,94.906601 
	C211.202545,89.862129 203.870285,91.140320 197.096542,98.018745 
	C191.771591,98.013214 186.446640,98.009300 181.121689,98.001602 
	C177.599182,97.996513 175.100800,99.581184 175.223236,103.221184 
	C175.335251,106.551704 177.772781,108.028809 181.071381,108.001602 
	C186.727844,107.954948 192.384506,107.931915 198.589310,108.308548 
z"/>
<path fill="#AD7BFD" opacity="1.000000" stroke="none" 
	d="
M133.577469,68.216293 
	C141.264832,68.491882 148.698181,68.883713 156.134262,68.945274 
	C163.864105,69.009254 168.065979,72.737465 168.108093,80.355072 
	C168.191940,95.518639 168.195786,110.683388 168.103775,125.846863 
	C168.060760,132.935562 163.977448,136.989410 156.930954,137.142075 
	C150.934998,137.271973 144.935303,137.227921 138.477783,137.367065 
	C137.863174,137.397308 137.708008,137.321289 137.137573,136.832764 
	C132.997040,131.067047 132.850952,126.338264 136.627899,121.820084 
	C141.460434,121.090248 141.664413,118.298660 140.351532,114.813583 
	C136.898834,105.648224 133.528625,96.449142 129.871094,87.365959 
	C129.195236,85.687553 127.327545,84.489075 126.008690,82.658661 
	C127.998856,77.756668 129.990280,73.265091 131.981705,68.773521 
	C132.429352,68.578156 132.876999,68.382790 133.577469,68.216293 
M153.171967,100.505005 
	C153.170639,96.513962 153.521240,92.477318 153.012665,88.551994 
	C152.774948,86.717369 150.876022,85.097984 149.730026,83.381050 
	C148.472351,85.014023 146.189072,86.608925 146.126801,88.286285 
	C145.775375,97.751961 145.775436,107.244179 146.127060,116.709846 
	C146.189392,118.388191 148.471893,119.984055 149.729156,121.618004 
	C150.875443,119.901558 152.842667,118.261284 153.010376,116.454033 
	C153.469391,111.507690 153.170868,106.491051 153.171967,100.505005 
z"/>
<path fill="#9C5AFE" opacity="1.000000" stroke="none" 
	d="
M131.514191,68.775154 
	C129.990280,73.265091 127.998856,77.756668 125.654663,82.720535 
	C123.804199,84.562408 121.624008,85.650078 120.922470,87.348511 
	C117.114716,96.567055 113.512924,105.881424 110.256203,115.306534 
	C109.695709,116.928604 110.517288,120.251366 111.782127,121.028870 
	C114.497147,122.697823 116.083061,120.473549 117.251961,117.902168 
	C117.919106,116.434570 119.300186,114.442184 120.578087,114.265572 
	C123.998947,113.792786 127.706680,113.565887 130.957047,114.472481 
	C132.547089,114.915970 133.333542,118.123398 134.566620,120.026131 
	C135.009964,120.710236 135.696289,121.236877 136.271729,121.835381 
	C132.850952,126.338264 132.997040,131.067047 136.891357,136.751831 
	C128.418365,137.124695 119.775887,137.237213 111.134392,137.185410 
	C103.821495,137.141586 99.277802,132.932877 99.165909,125.456871 
	C98.942047,110.499771 98.940842,95.534592 99.164703,80.577492 
	C99.279152,72.930405 103.872162,68.864273 111.598137,68.801430 
	C118.080635,68.748703 124.563812,68.781731 131.514191,68.775154 
z"/>
<path fill="#AD7BFD" opacity="1.000000" stroke="none" 
	d="
M82.784424,188.086502 
	C81.274780,186.701202 79.765137,185.315903 78.141190,183.657745 
	C77.854729,180.970245 77.219231,178.480316 77.596939,176.154968 
	C78.747704,169.070312 83.203430,166.549835 93.465218,167.383728 
	C96.026642,170.094894 97.958061,172.500198 99.889473,174.905502 
	C100.103844,185.178238 95.716301,189.241074 84.347000,188.959198 
	C83.906227,189.028824 83.969032,188.996552 83.898972,188.754272 
	C83.480751,188.370178 83.132584,188.228333 82.784424,188.086502 
z"/>
<path fill="#FBEF58" opacity="1.000000" stroke="none" 
	d="
M62.277298,159.049164 
	C52.676571,159.366959 47.466415,154.970627 47.952072,147.343307 
	C48.243454,142.767181 50.794907,139.764023 54.985233,137.540344 
	C57.203728,137.223984 59.181080,137.134262 61.847389,137.240784 
	C64.931320,139.458511 67.326294,141.479996 69.721275,143.501480 
	C70.736496,152.600357 69.604317,155.054184 62.277298,159.049164 
z"/>
<path fill="#41EADD" opacity="1.000000" stroke="none" 
	d="
M138.795990,167.082443 
	C140.707947,169.502594 143.241043,171.659485 144.401657,174.398056 
	C146.768356,179.982468 143.492981,185.514267 136.311829,188.856842 
	C129.292084,188.952942 124.853676,186.319489 123.292892,181.463211 
	C121.573967,176.114914 123.169052,171.990326 129.263397,167.373749 
	C132.867264,167.073654 135.831619,167.078049 138.795990,167.082443 
z"/>
<path fill="#2390F2" opacity="1.000000" stroke="none" 
	d="
M100.169456,174.722626 
	C97.958061,172.500198 96.026642,170.094894 93.897247,167.410828 
	C97.291206,164.547348 98.434891,161.014160 97.880753,156.729446 
	C97.691048,155.262558 97.884850,153.749512 97.844452,152.259155 
	C97.740395,148.420319 97.881439,144.181778 102.937981,144.356094 
	C107.807320,144.523941 107.927933,148.788315 107.886673,152.585770 
	C107.866875,154.408447 107.639748,156.270782 107.926071,158.047546 
	C109.086098,165.246124 106.407005,170.613739 100.169456,174.722626 
z"/>
<path fill="#218FF2" opacity="1.000000" stroke="none" 
	d="
M69.927139,143.157227 
	C67.326294,141.479996 64.931320,139.458511 62.273544,137.224274 
	C64.744804,134.414215 67.164665,130.163467 70.279808,129.571503 
	C76.347031,128.418549 82.827835,129.040604 89.079506,129.588058 
	C90.376862,129.701660 92.552246,132.891586 92.298645,134.298965 
	C91.981201,136.060669 89.792458,138.369659 88.019508,138.790283 
	C84.869736,139.537567 81.406128,139.272598 78.108803,139.003021 
	C74.575287,138.714127 71.981094,139.843506 69.927139,143.157227 
z"/>
<path fill="#2190F2" opacity="1.000000" stroke="none" 
	d="
M138.845245,166.605789 
	C135.831619,167.078049 132.867264,167.073654 129.454376,167.098572 
	C128.978348,161.546051 128.841110,155.962006 128.953873,150.382996 
	C129.068878,144.693665 132.281311,142.982071 137.611511,145.931305 
	C138.243790,152.780655 138.569153,159.454895 138.845245,166.605789 
z"/>
<path fill="#2190F2" opacity="1.000000" stroke="none" 
	d="
M138.359253,38.936295 
	C138.839722,44.375580 139.294662,49.876198 138.724548,55.268436 
	C138.484711,57.536839 136.079102,59.576252 134.328552,61.861389 
	C130.287628,61.275906 128.784515,58.994255 128.886917,55.259510 
	C129.027802,50.121296 128.932373,44.976604 128.971390,39.353233 
	C131.976242,38.899128 134.947891,38.926479 138.359253,38.936295 
z"/>
<path fill="#1F8FF2" opacity="1.000000" stroke="none" 
	d="
M70.345444,107.953766 
	C69.873840,104.938782 69.884842,101.954117 69.879227,98.523003 
	C75.359917,98.050674 80.858276,98.081703 86.354126,97.978569 
	C89.919922,97.911667 92.467049,99.444290 92.456421,103.015770 
	C92.445778,106.589088 89.880608,108.089661 86.321793,108.024170 
	C81.158714,107.929161 75.992767,107.989822 70.345444,107.953766 
z"/>
<path fill="#FBEF59" opacity="1.000000" stroke="none" 
	d="
M219.163620,62.175629 
	C216.140549,67.222481 212.018845,69.646461 205.673431,68.705902 
	C202.734634,66.554825 200.452866,64.639687 198.171112,62.724548 
	C196.429047,57.170017 197.544922,52.402866 202.298431,48.285549 
	C214.160812,44.496452 221.593658,50.658581 219.163620,62.175629 
z"/>
<path fill="#ACE8F7" opacity="1.000000" stroke="none" 
	d="
M82.895630,188.346802 
	C83.132584,188.228333 83.480751,188.370178 83.911057,188.787430 
	C83.664406,188.910934 83.335617,188.759018 82.895630,188.346802 
z"/>
<path fill="#208EF2" opacity="1.000000" stroke="none" 
	d="
M173.900558,38.554981 
	C170.640488,41.026752 169.509338,44.126030 169.931625,48.155693 
	C170.241165,51.109482 170.560638,54.320187 169.705048,57.049381 
	C169.113495,58.936275 166.517227,61.403740 164.832748,61.391621 
	C163.217331,61.380001 160.439453,58.639362 160.239502,56.865093 
	C159.629486,51.452019 159.439789,45.838783 160.256821,40.481934 
	C160.667297,37.790707 163.613510,35.486237 165.705734,32.702911 
	C166.533890,32.019714 167.069275,31.640471 167.789444,31.192024 
	C169.891342,33.509220 171.808472,35.895615 173.900558,38.554981 
z"/>
<path fill="#42EADE" opacity="1.000000" stroke="none" 
	d="
M198.041016,98.101028 
	C203.870285,91.140320 211.202545,89.862129 216.365601,94.906601 
	C220.707336,99.148636 221.045822,105.545540 217.176361,110.228889 
	C213.443756,114.746628 206.743515,115.560776 201.942856,111.931107 
	C200.650696,110.954124 199.697891,109.528320 198.310333,107.719383 
	C198.034592,104.120491 198.037811,101.110756 198.041016,98.101028 
z"/>
<path fill="#FDF159" opacity="1.000000" stroke="none" 
	d="
M174.217087,167.261108 
	C183.304855,165.797455 189.201523,169.146103 190.030869,176.241562 
	C190.780701,182.656815 186.391693,188.359589 180.241928,188.960617 
	C173.670029,189.602905 168.317978,184.942627 167.929153,178.218872 
	C167.881332,177.392090 167.940842,176.559082 168.092072,175.000793 
	C170.228073,171.935455 172.222580,169.598282 174.217087,167.261108 
z"/>
<path fill="#AF7CFD" opacity="1.000000" stroke="none" 
	d="
M205.506424,136.953705 
	C208.252563,137.395081 211.225845,137.312805 213.698303,138.385178 
	C219.101227,140.728607 221.188248,146.705185 219.061234,152.198730 
	C216.948044,157.656479 211.049606,160.476746 205.140945,158.854538 
	C200.074265,157.463501 196.748505,151.913864 197.667694,146.397858 
	C197.803864,145.580765 197.899826,144.756989 198.321854,143.368668 
	C200.921677,140.851929 203.214050,138.902817 205.506424,136.953705 
z"/>
<path fill="#2390F2" opacity="1.000000" stroke="none" 
	d="
M205.328033,136.640259 
	C203.214050,138.902817 200.921677,140.851929 198.345322,142.981186 
	C195.503784,139.537567 191.978790,138.543472 187.705750,139.030014 
	C185.258102,139.308746 182.501480,139.703140 180.341797,138.865295 
	C178.287918,138.068527 175.844681,135.935303 175.455811,134.009445 
	C175.196564,132.725571 178.101608,129.542191 179.828476,129.350250 
	C185.382553,128.732910 191.225998,128.271545 196.601593,129.418976 
	C199.796860,130.101013 202.322800,133.918839 205.328033,136.640259 
z"/>
<path fill="#2490F1" opacity="1.000000" stroke="none" 
	d="
M197.879135,62.961311 
	C200.452866,64.639687 202.734634,66.554825 205.278519,68.722771 
	C201.984741,74.827415 197.238052,78.123695 189.955307,77.024261 
	C186.708923,76.534164 183.153290,77.544464 180.076660,76.675179 
	C178.100739,76.116905 175.794891,73.535988 175.454971,71.550468 
	C175.244339,70.320114 178.211700,67.695526 180.159775,67.149345 
	C182.932037,66.372078 186.107758,66.660904 189.057510,66.983879 
	C192.769592,67.390320 195.496552,66.156830 197.879135,62.961311 
z"/>
<path fill="#218FF1" opacity="1.000000" stroke="none" 
	d="
M173.919708,167.016373 
	C172.222580,169.598282 170.228073,171.935455 168.068390,174.566116 
	C165.306519,172.126389 161.055084,169.706787 160.464981,166.593277 
	C159.312714,160.513504 159.932800,154.021957 160.478455,147.758331 
	C160.591736,146.458008 163.986740,144.146698 165.137451,144.525375 
	C167.056351,145.156830 169.244370,147.356506 169.760361,149.308060 
	C170.541855,152.263611 170.232544,155.595947 169.934509,158.725128 
	C169.598282,162.255264 170.754654,164.839539 173.919708,167.016373 
z"/>
<path fill="#1F8EF2" opacity="1.000000" stroke="none" 
	d="
M197.568787,98.059891 
	C198.037811,101.110756 198.034592,104.120491 198.036224,107.514587 
	C192.384506,107.931915 186.727844,107.954948 181.071381,108.001602 
	C177.772781,108.028809 175.335251,106.551704 175.223236,103.221184 
	C175.100800,99.581184 177.599182,97.996513 181.121689,98.001602 
	C186.446640,98.009300 191.771591,98.013214 197.568787,98.059891 
z"/>
<path fill="#32CDE3" opacity="1.000000" stroke="none" 
	d="
M136.627899,121.820084 
	C135.696289,121.236877 135.009964,120.710236 134.566620,120.026131 
	C133.333542,118.123398 132.547089,114.915970 130.957047,114.472481 
	C127.706680,113.565887 123.998947,113.792786 120.578087,114.265572 
	C119.300186,114.442184 117.919106,116.434570 117.251961,117.902168 
	C116.083061,120.473549 114.497147,122.697823 111.782127,121.028870 
	C110.517288,120.251366 109.695709,116.928604 110.256203,115.306534 
	C113.512924,105.881424 117.114716,96.567055 120.922470,87.348511 
	C121.624008,85.650078 123.804199,84.562408 125.655930,83.130951 
	C127.327545,84.489075 129.195236,85.687553 129.871094,87.365959 
	C133.528625,96.449142 136.898834,105.648224 140.351532,114.813583 
	C141.664413,118.298660 141.460434,121.090248 136.627899,121.820084 
M128.124283,103.460464 
	C127.315376,101.473663 126.506470,99.486855 125.180435,96.229912 
	C123.752014,100.508636 122.805473,103.343918 121.820824,106.293381 
	C127.877953,107.175133 127.877953,107.175133 128.124283,103.460464 
z"/>
<path fill="#40E9DD" opacity="1.000000" stroke="none" 
	d="
M153.172134,101.003632 
	C153.170868,106.491051 153.469391,111.507690 153.010376,116.454033 
	C152.842667,118.261284 150.875443,119.901558 149.729156,121.618011 
	C148.471893,119.984055 146.189392,118.388191 146.127060,116.709846 
	C145.775436,107.244179 145.775375,97.751961 146.126801,88.286285 
	C146.189072,86.608925 148.472351,85.014023 149.730026,83.381050 
	C150.876022,85.097984 152.774948,86.717369 153.012665,88.551994 
	C153.521240,92.477318 153.170639,96.513962 153.172134,101.003632 
z"/>
<path fill="#8F66FB" opacity="1.000000" stroke="none" 
	d="
M128.264343,103.815872 
	C127.877953,107.175133 127.877953,107.175133 121.820824,106.293381 
	C122.805473,103.343918 123.752014,100.508636 125.180435,96.229912 
	C126.506470,99.486855 127.315376,101.473663 128.264343,103.815872 
z"/>
</svg>