<svg width="32" height="32" viewBox="0 0 32 32" fill="none" xmlns="http://www.w3.org/2000/svg">
<path opacity="0.8" fill-rule="evenodd" clip-rule="evenodd" d="M5 4C3.89543 4 3 4.89543 3 6V10H29V6C29 4.89543 28.1046 4 27 4H5ZM6 8C6.55228 8 7 7.55228 7 7C7 6.44772 6.55228 6 6 6C5.44772 6 5 6.44772 5 7C5 7.55228 5.44772 8 6 8ZM10 7C10 7.55228 9.55228 8 9 8C8.44772 8 8 7.55228 8 7C8 6.44772 8.44772 6 9 6C9.55228 6 10 6.44772 10 7ZM12 8C12.5523 8 13 7.55228 13 7C13 6.44772 12.5523 6 12 6C11.4477 6 11 6.44772 11 7C11 7.55228 11.4477 8 12 8Z" fill="#005C4A"/>
<path opacity="0.2" fill-rule="evenodd" clip-rule="evenodd" d="M3 10H29V23C29 24.1046 28.1046 25 27 25H10L5 30L5 25C3.89543 25 3 24.1046 3 23V10ZM6 14C6 13.4477 6.44772 13 7 13H13C13.5523 13 14 13.4477 14 14V21C14 21.5523 13.5523 22 13 22H7C6.44772 22 6 21.5523 6 21V14ZM17 14C16.4477 14 16 14.4477 16 15C16 15.5523 16.4477 16 17 16H25C25.5523 16 26 15.5523 26 15C26 14.4477 25.5523 14 25 14H17ZM17 18C16.4477 18 16 18.4477 16 19C16 19.5523 16.4477 20 17 20H25C25.5523 20 26 19.5523 26 19C26 18.4477 25.5523 18 25 18H17Z" fill="#005C4A"/>
<g opacity="0.2">
<path d="M7 7C7 7.55228 6.55228 8 6 8C5.44772 8 5 7.55228 5 7C5 6.44772 5.44772 6 6 6C6.55228 6 7 6.44772 7 7Z" fill="#005C4A"/>
<path d="M10 7C10 7.55228 9.55228 8 9 8C8.44772 8 8 7.55228 8 7C8 6.44772 8.44772 6 9 6C9.55228 6 10 6.44772 10 7Z" fill="#005C4A"/>
<path d="M13 7C13 7.55228 12.5523 8 12 8C11.4477 8 11 7.55228 11 7C11 6.44772 11.4477 6 12 6C12.5523 6 13 6.44772 13 7Z" fill="#005C4A"/>
</g>
<path opacity="0.4" fill-rule="evenodd" clip-rule="evenodd" d="M16 15C16 14.4477 16.4477 14 17 14H25C25.5523 14 26 14.4477 26 15C26 15.5523 25.5523 16 25 16H17C16.4477 16 16 15.5523 16 15Z" fill="#005C4A"/>
<path opacity="0.4" fill-rule="evenodd" clip-rule="evenodd" d="M16 19C16 18.4477 16.4477 18 17 18L25 18C25.5523 18 26 18.4477 26 19C26 19.5523 25.5523 20 25 20L17 20C16.4477 20 16 19.5523 16 19Z" fill="#005C4A"/>
<rect opacity="0.4" x="6" y="13" width="8" height="9" rx="1" fill="#005C4A"/>
</svg>
