<svg width="32" height="32" viewBox="0 0 32 32" fill="none" xmlns="http://www.w3.org/2000/svg">
<g opacity="0.8">
<path d="M6.24264 16.7071L13.3137 9.63604L16.1421 6.80761C18.4853 4.46447 22.2843 4.46447 24.6274 6.80761V6.80761C26.9706 9.15076 26.9706 12.9497 24.6274 15.2929L13.3137 26.6066C11.7516 28.1687 9.21895 28.1687 7.65686 26.6066V26.6066C6.09476 25.0445 6.09476 22.5118 7.65686 20.9497V20.9497L10.4853 18.1213L14.3744 14.2322L17.5564 11.0503C18.3374 10.2692 19.6037 10.2692 20.3848 11.0503V11.0503C21.1658 11.8313 21.1658 13.0976 20.3848 13.8787L17.5563 16.7071L14.7279 19.5355L11.8995 22.364" stroke="#C68173" stroke-width="2" stroke-linecap="round" stroke-linejoin="round"/>
</g>
</svg>
