<svg width="33" height="33" viewBox="0 0 33 33" fill="none" xmlns="http://www.w3.org/2000/svg">
<path opacity="0.6" d="M23.0226 5.688V9.47636H21.0112V5.88903H11.0532V9.47636H9.02246V5.688C9.02246 4.6941 9.84513 3.88745 10.8588 3.88745H21.1862C22.1999 3.88745 23.0226 4.6941 23.0226 5.688Z" fill="#2FB2AF"/>
<path opacity="0.6" d="M7.17093 19.4279V29.8873H4.36207C3.62745 29.8873 3.02246 29.3086 3.02246 28.5746V17.7764L7.17093 19.4279Z" fill="#82D1CF"/>
<path opacity="0.6" d="M21.9642 20.5995V29.8874H10.0518V20.5713L10.1526 20.6136L21.8922 20.6278L21.9642 20.5995Z" fill="#82D1CF"/>
<path opacity="0.6" d="M29.0222 17.8044V28.5744C29.0222 29.3084 28.4173 29.8871 27.6826 29.8871H24.845V19.4559L29.0222 17.8044Z" fill="#82D1CF"/>
<path opacity="0.6" d="M24.845 19.4561V29.8873H21.9641V20.5994L24.845 19.4561Z" fill="#2FB2AF"/>
<path opacity="0.6" d="M10.0515 20.5711V29.8872H7.17065V19.4277L10.0515 20.5711Z" fill="#2FB2AF"/>
<path opacity="0.9" d="M29.0224 10.8032V17.8043L24.8451 19.4558L21.9642 20.5992L21.8922 20.6274H10.1526L10.0518 20.5709L7.17093 19.4276L3.02246 17.7761V10.8032C3.02246 10.0692 3.62745 9.47632 4.36207 9.47632H27.6828C28.4174 9.47632 29.0224 10.0692 29.0224 10.8032Z" fill="#2FB2AF"/>
</svg>
