<svg width="32" height="32" viewBox="0 0 32 32" fill="none" xmlns="http://www.w3.org/2000/svg">
<path opacity="0.8" fill-rule="evenodd" clip-rule="evenodd" d="M4 5C2.89543 5 2 5.89543 2 7V15C2 16.1046 2.89543 17 4 17V20L7 17H14V16C14 14.8954 14.8954 14 16 14H18V7C18 5.89543 17.1046 5 16 5H4ZM7 11C7 11.5523 6.55228 12 6 12C5.44772 12 5 11.5523 5 11C5 10.4477 5.44772 10 6 10C6.55228 10 7 10.4477 7 11ZM10 12C10.5523 12 11 11.5523 11 11C11 10.4477 10.5523 10 10 10C9.44772 10 9 10.4477 9 11C9 11.5523 9.44772 12 10 12ZM15 11C15 11.5523 14.5523 12 14 12C13.4477 12 13 11.5523 13 11C13 10.4477 13.4477 10 14 10C14.5523 10 15 10.4477 15 11Z" fill="#ED5E4F"/>
<path opacity="0.2" fill-rule="evenodd" clip-rule="evenodd" d="M30 16C30 14.8954 29.1046 14 28 14H16C14.8954 14 14 14.8954 14 16V24C14 25.1046 14.8954 26 16 26H26L28 28V26C29.1046 26 30 25.1046 30 24V16ZM26 21C25.4477 21 25 20.5523 25 20C25 19.4477 25.4477 19 26 19C26.5523 19 27 19.4477 27 20C27 20.5523 26.5523 21 26 21ZM21 20C21 20.5523 21.4477 21 22 21C22.5523 21 23 20.5523 23 20C23 19.4477 22.5523 19 22 19C21.4477 19 21 19.4477 21 20ZM18 21C17.4477 21 17 20.5523 17 20C17 19.4477 17.4477 19 18 19C18.5523 19 19 19.4477 19 20C19 20.5523 18.5523 21 18 21Z" fill="#ED5E4F"/>
<circle opacity="0.8" r="1" transform="matrix(-1 0 0 1 26 20)" fill="#ED5E4F"/>
<circle opacity="0.8" r="1" transform="matrix(-1 0 0 1 22 20)" fill="#ED5E4F"/>
<circle opacity="0.8" r="1" transform="matrix(-1 0 0 1 18 20)" fill="#ED5E4F"/>
</svg>
