<svg width="32" height="32" viewBox="0 0 32 32" fill="none" xmlns="http://www.w3.org/2000/svg">
<g opacity="0.6">
<path d="M20 28C20 29.1046 20.8954 30 22 30H28C29.1046 30 30 29.1046 30 28V22C30 20.8954 29.1046 20 28 20H22C20.8954 20 20 20.8954 20 22L20 28Z" fill="#4245FF"/>
<path d="M20 10C20 11.1046 20.8954 12 22 12H28C29.1046 12 30 11.1046 30 10V4C30 2.89543 29.1046 2 28 2L22 2C20.8954 2 20 2.89543 20 4L20 10Z" fill="#4245FF"/>
</g>
<path opacity="0.2" d="M12 17H15L15 25C15 25.5523 15.4477 26 16 26H20L20 24H17L17 8L20 8V6L16 6C15.4477 6 15 6.44772 15 7L15 15L12 15L12 17Z" fill="#4245FF"/>
<rect opacity="0.8" x="2" y="21" width="10" height="10" rx="2" transform="rotate(-90 2 21)" fill="#4245FF"/>
</svg>
