<svg width="32" height="32" viewBox="0 0 32 32" fill="none" xmlns="http://www.w3.org/2000/svg">
<path opacity="0.8" d="M14 21.6825C14.6479 21.8916 15.3195 22 16 22C16.6805 22 17.3521 21.8916 18 21.6825V25H21C21.5523 25 22 25.4477 22 26V29C22 29.5523 21.5523 30 21 30H11C10.4477 30 10 29.5523 10 29V26C10 25.4477 10.4477 25 11 25H14V21.6825Z" fill="#C1A836"/>
<path opacity="0.6" fill-rule="evenodd" clip-rule="evenodd" d="M16 2C20.4183 2 24 2.89543 24 4V4.85713V4.99999H27.0499C27.6815 4.99999 28.1997 5.34072 28.5259 5.78225C28.8484 6.21856 29 6.76143 29 7.2857V9.85713C29 11.4044 28.5481 12.9283 27.6911 14.088C26.8303 15.2529 25.5871 16 24.1995 16H23.3321C23.3522 15.9425 23.3718 15.8848 23.391 15.8268C22.9928 17.0286 22.407 18.1334 21.6569 19.0711C20.1566 20.9464 18.1217 22 16 22C13.8783 22 11.8434 20.9464 10.3431 19.0711C9.62917 18.1786 9.06409 17.1348 8.66788 16H7.80048C6.41287 16 5.16973 15.2529 4.3089 14.088C3.45193 12.9283 3 11.4044 3 9.85713V7.2857C3 6.76143 3.15163 6.21856 3.47405 5.78225C3.80033 5.34072 4.31848 4.99999 4.95012 4.99999H8V4.85713V4C8 2.89543 11.5817 2 16 2ZM24 6.99999V12C24 12.6768 23.9451 13.3466 23.8384 14H24.1995C24.8278 14 25.518 13.6634 26.0826 12.8994C26.6511 12.1301 27 11.0378 27 9.85713V7.2857C27 7.1549 26.9666 7.0561 26.9358 6.99999H24ZM8.19589 14.1995C8.06667 13.4832 8 12.7459 8 12V6.99999H5.06418C5.03342 7.0561 5 7.1549 5 7.2857V9.85713C5 11.0378 5.34888 12.1301 5.91737 12.8994C6.48199 13.6634 7.17218 14 7.80048 14H8.1616C8.17249 14.0667 8.18392 14.1332 8.19589 14.1995ZM16 6C19.3137 6 22 5.32843 22 4.5C22 3.67157 19.3137 3 16 3C12.6863 3 10 3.67157 10 4.5C10 5.32843 12.6863 6 16 6Z" fill="#C1A836"/>
<ellipse cx="16" cy="4.5" rx="6" ry="1.5" fill="#C1A836"/>
</svg>
