<?xml version="1.0" encoding="iso-8859-1"?>
<!-- Uploaded to: SVG Repo, www.svgrepo.com, Generator: SVG Repo Mixer Tools -->
<!DOCTYPE svg PUBLIC "-//W3C//DTD SVG 1.1//EN" "http://www.w3.org/Graphics/SVG/1.1/DTD/svg11.dtd">
<svg fill="#000000" height="800px" width="800px" version="1.1" id="Capa_1" xmlns="http://www.w3.org/2000/svg" xmlns:xlink="http://www.w3.org/1999/xlink" 
	 viewBox="0 0 426.822 426.822" xml:space="preserve">
<path d="M379.883,416.822c0,5.523-4.477,10-10,10H184.726c-5.523,0-10-4.477-10-10s4.477-10,10-10h185.157
	C375.406,406.822,379.883,411.299,379.883,416.822z M139.664,202.004c31.42-6.966,64.115,3.242,79.509,24.828
	c3.208,4.497,9.452,5.542,13.948,2.335c4.496-3.207,5.542-9.452,2.335-13.948c-10.29-14.427-25.831-25.084-44.945-30.818
	c-17.497-5.25-37.093-5.932-55.176-1.922c-34.718,7.698-58.89,30.899-64.66,62.061L47.106,371.773
	c-0.542,2.921,0.245,6.046,2.145,8.33s4.717,3.719,7.688,3.719h83.973c5.523,0,10-4.477,10-10s-4.477-10-10-10H68.961L90.34,248.295
	C96.481,215.127,126.88,204.839,139.664,202.004z M366.411,377.822c0,5.523-4.477,10-10,10h-159c-5.523,0-10-4.477-10-10v-106
	c0-5.523,4.477-10,10-10h159c5.523,0,10,4.477,10,10V377.822z M207.411,367.822h139v-86h-139V367.822z M109.581,137.951
	c-11.371-11.804-24.635-33.626-23.253-70.552c1.489-39.848,30.813-61.436,60.931-66.606c1.7-0.292,13.838-0.992,16.41-0.738
	c1.957,0.193,10.707,1.424,10.962,1.502c28.717,6.297,55.65,27.699,57.077,65.844c1.381,36.926-11.883,58.748-23.254,70.552
	c-13.183,13.685-30.74,21.222-49.437,21.222S122.763,151.636,109.581,137.951z M210.625,88.283c-4.007,0.729-8.04,1.11-12.056,1.11
	c-16.147,0-32.005-5.814-44.69-16.736c-1.313,1.134-2.654,2.236-4.051,3.271c-11.895,8.815-26.138,13.447-40.602,13.447
	c-0.55,0-1.102-0.033-1.652-0.046c2.384,14.126,7.92,25.933,16.411,34.747c9.378,9.736,21.819,15.098,35.032,15.098
	s25.654-5.362,35.033-15.098C202.749,115.045,208.342,102.871,210.625,88.283z M180.146,23.974
	c-2.307,12.66-6.746,24.035-13.099,33.641c12.452,10.626,29.124,14.353,44.636,9.916C210.6,44.833,197.037,30.601,180.146,23.974z
	 M106.292,69.283c11.209,0.688,22.41-2.592,31.629-9.424c11.787-8.735,19.655-22.795,22.677-40.152
	c-0.527-0.034-4.809,0.096-6.42,0.277c-22.526,2.529-44.287,16.451-47.501,43.465C106.497,64.973,106.303,68.902,106.292,69.283z
	 M266.687,302.284c-3.448-4.315-9.74-5.018-14.055-1.57l-20.528,16.402c-2.375,1.897-3.758,4.772-3.758,7.813
	s1.383,5.915,3.758,7.813l20.528,16.403c1.843,1.473,4.047,2.188,6.236,2.188c2.936,0,5.844-1.287,7.819-3.758
	c3.447-4.314,2.745-10.607-1.57-14.055l-10.75-8.59l10.75-8.589C269.431,312.892,270.134,306.599,266.687,302.284z M322.51,317.116
	l-20.528-16.402c-4.314-3.447-10.607-2.745-14.055,1.57c-3.447,4.315-2.745,10.607,1.57,14.055l10.75,8.589l-10.75,8.59
	c-4.315,3.448-5.018,9.74-1.57,14.055c1.975,2.472,4.883,3.758,7.819,3.758c2.189,0,4.393-0.716,6.236-2.188l20.528-16.403
	c2.375-1.898,3.758-4.772,3.758-7.813S324.885,319.013,322.51,317.116z"/>
</svg>