<svg width="32" height="32" viewBox="0 0 32 32" fill="none" xmlns="http://www.w3.org/2000/svg">
<path opacity="0.8" d="M7 4C7 3.44772 7.44772 3 8 3H9C9.55228 3 10 3.44772 10 4V5H22V4C22 3.44772 22.4477 3 23 3H24C24.5523 3 25 3.44772 25 4V5H27C28.1046 5 29 5.89543 29 7V10H3V7C3 5.89543 3.89543 5 5 5H7V4Z" fill="#237699"/>
<path opacity="0.2" fill-rule="evenodd" clip-rule="evenodd" d="M3 10H29V27C29 28.1046 28.1046 29 27 29H5C3.89543 29 3 28.1046 3 27V10ZM12 14C12 13.4477 12.4477 13 13 13H14C14.5523 13 15 13.4477 15 14V15C15 15.5523 14.5523 16 14 16H13C12.4477 16 12 15.5523 12 15V14ZM13 18C12.4477 18 12 18.4477 12 19V20C12 20.5523 12.4477 21 13 21H14C14.5523 21 15 20.5523 15 20V19C15 18.4477 14.5523 18 14 18H13ZM12 24C12 23.4477 12.4477 23 13 23H14C14.5523 23 15 23.4477 15 24V25C15 25.5523 14.5523 26 14 26H13C12.4477 26 12 25.5523 12 25V24ZM8 18C7.44772 18 7 18.4477 7 19V20C7 20.5523 7.44772 21 8 21H9C9.55228 21 10 20.5523 10 20V19C10 18.4477 9.55228 18 9 18H8ZM7 24C7 23.4477 7.44772 23 8 23H9C9.55228 23 10 23.4477 10 24V25C10 25.5523 9.55228 26 9 26H8C7.44772 26 7 25.5523 7 25V24ZM18 13C17.4477 13 17 13.4477 17 14V15C17 15.5523 17.4477 16 18 16H19C19.5523 16 20 15.5523 20 15V14C20 13.4477 19.5523 13 19 13H18ZM17 19C17 18.4477 17.4477 18 18 18H19C19.5523 18 20 18.4477 20 19V20C20 20.5523 19.5523 21 19 21H18C17.4477 21 17 20.5523 17 20V19ZM18 23C17.4477 23 17 23.4477 17 24V25C17 25.5523 17.4477 26 18 26H19C19.5523 26 20 25.5523 20 25V24C20 23.4477 19.5523 23 19 23H18ZM22 14C22 13.4477 22.4477 13 23 13H24C24.5523 13 25 13.4477 25 14V15C25 15.5523 24.5523 16 24 16H23C22.4477 16 22 15.5523 22 15V14ZM23 18C22.4477 18 22 18.4477 22 19V20C22 20.5523 22.4477 21 23 21H24C24.5523 21 25 20.5523 25 20V19C25 18.4477 24.5523 18 24 18H23Z" fill="#237699"/>
<g opacity="0.4">
<path d="M13 13C12.4477 13 12 13.4477 12 14V15C12 15.5523 12.4477 16 13 16H14C14.5523 16 15 15.5523 15 15V14C15 13.4477 14.5523 13 14 13H13Z" fill="#237699"/>
<path d="M13 18C12.4477 18 12 18.4477 12 19V20C12 20.5523 12.4477 21 13 21H14C14.5523 21 15 20.5523 15 20V19C15 18.4477 14.5523 18 14 18H13Z" fill="#237699"/>
<path d="M12 24C12 23.4477 12.4477 23 13 23H14C14.5523 23 15 23.4477 15 24V25C15 25.5523 14.5523 26 14 26H13C12.4477 26 12 25.5523 12 25V24Z" fill="#237699"/>
<path d="M8 18C7.44772 18 7 18.4477 7 19V20C7 20.5523 7.44772 21 8 21H9C9.55228 21 10 20.5523 10 20V19C10 18.4477 9.55228 18 9 18H8Z" fill="#237699"/>
<path d="M7 24C7 23.4477 7.44772 23 8 23H9C9.55228 23 10 23.4477 10 24V25C10 25.5523 9.55228 26 9 26H8C7.44772 26 7 25.5523 7 25V24Z" fill="#237699"/>
<path d="M18 13C17.4477 13 17 13.4477 17 14V15C17 15.5523 17.4477 16 18 16H19C19.5523 16 20 15.5523 20 15V14C20 13.4477 19.5523 13 19 13H18Z" fill="#237699"/>
<path d="M17 19C17 18.4477 17.4477 18 18 18H19C19.5523 18 20 18.4477 20 19V20C20 20.5523 19.5523 21 19 21H18C17.4477 21 17 20.5523 17 20V19Z" fill="#237699"/>
<path d="M18 23C17.4477 23 17 23.4477 17 24V25C17 25.5523 17.4477 26 18 26H19C19.5523 26 20 25.5523 20 25V24C20 23.4477 19.5523 23 19 23H18Z" fill="#237699"/>
<path d="M22 14C22 13.4477 22.4477 13 23 13H24C24.5523 13 25 13.4477 25 14V15C25 15.5523 24.5523 16 24 16H23C22.4477 16 22 15.5523 22 15V14Z" fill="#237699"/>
<path d="M23 18C22.4477 18 22 18.4477 22 19V20C22 20.5523 22.4477 21 23 21H24C24.5523 21 25 20.5523 25 20V19C25 18.4477 24.5523 18 24 18H23Z" fill="#237699"/>
</g>
</svg>
