<svg width="36" height="37" viewBox="0 0 36 37" fill="none" xmlns="http://www.w3.org/2000/svg">
<path d="M21.8544 11.5029L19.8967 11.5C17.6974 11.5 16.2761 12.8523 16.2761 14.9454V16.534H14.3078C14.1377 16.534 14 16.6619 14 16.8196V19.1213C14 19.279 14.1379 19.4067 14.3078 19.4067H16.2761V25.2145C16.2761 25.3723 16.4139 25.5 16.5839 25.5H19.152C19.3221 25.5 19.4598 25.3721 19.4598 25.2145V19.4067H21.7612C21.9313 19.4067 22.0691 19.279 22.0691 19.1213L22.07 16.8196C22.07 16.7439 22.0375 16.6713 21.9799 16.6177C21.9222 16.5641 21.8437 16.534 21.762 16.534H19.4598V15.1873C19.4598 14.5401 19.6262 14.2115 20.5353 14.2115L21.8541 14.2111C22.024 14.2111 22.1617 14.0832 22.1617 13.9256V11.7884C22.1617 11.6309 22.0241 11.5032 21.8544 11.5029Z" fill="white"/>
</svg>
