<svg width="33" height="32" viewBox="0 0 33 32" fill="none" xmlns="http://www.w3.org/2000/svg">
<rect opacity="0.2" x="7.2464" y="11.9055" width="19.1281" height="13.587" fill="#005C4A"/>
<path d="M29.8073 8.96956C29.8075 8.5711 29.5756 8.20977 29.2154 8.04722L18.1489 3.0545C17.3772 2.70633 16.4958 2.70312 15.7216 3.04567L4.41215 8.04964C4.04853 8.21053 3.81363 8.57342 3.81363 8.9743L3.83037 11.2378L29.8073 11.2378V8.96956Z" fill="#669D92"/>
<rect x="3.81046" y="26.1601" width="25.9999" height="2.63096" fill="#669D92"/>
<path fill-rule="evenodd" clip-rule="evenodd" d="M6.14621 11.9055C5.59392 11.9055 5.14621 12.3532 5.14621 12.9055V13.1488C5.14621 13.7011 5.59392 14.1488 6.14621 14.1488H7.14798V23.1394H7.02169C6.46953 23.1394 6.02191 23.5914 6.02191 24.149V25.4924H11.8256V24.149C11.8256 23.5914 11.3779 23.1394 10.8258 23.1394H10.6995V14.1488H14.9355V23.1394H14.8092C14.2571 23.1394 13.8094 23.5914 13.8094 24.149V25.4924H19.6131V24.149C19.6131 23.5914 19.1655 23.1394 18.6133 23.1394H18.487V14.1488H22.9214V23.1394H22.7951C22.2429 23.1394 21.7953 23.5914 21.7953 24.149V25.4924H27.5989V24.149C27.5989 23.5914 27.1513 23.1394 26.5992 23.1394H26.4729V14.1488H27.4745C28.0268 14.1488 28.4745 13.7011 28.4745 13.1488V12.9055C28.4745 12.3532 28.0268 11.9055 27.4745 11.9055H6.14621Z" fill="#005C4A"/>
</svg>
