<svg width="32" height="33" viewBox="0 0 32 33" fill="none" xmlns="http://www.w3.org/2000/svg">
<path opacity="0.8" fill-rule="evenodd" clip-rule="evenodd" d="M4 2.20898C2.89543 2.20898 2 3.10441 2 4.20898V8.20898H30V4.20898C30 3.10441 29.1046 2.20898 28 2.20898H4ZM5 6.20898C5.55228 6.20898 6 5.76127 6 5.20898C6 4.6567 5.55228 4.20898 5 4.20898C4.44772 4.20898 4 4.6567 4 5.20898C4 5.76127 4.44772 6.20898 5 6.20898ZM9 5.20898C9 5.76127 8.55228 6.20898 8 6.20898C7.44772 6.20898 7 5.76127 7 5.20898C7 4.6567 7.44772 4.20898 8 4.20898C8.55228 4.20898 9 4.6567 9 5.20898ZM11 6.20898C11.5523 6.20898 12 5.76127 12 5.20898C12 4.6567 11.5523 4.20898 11 4.20898C10.4477 4.20898 10 4.6567 10 5.20898C10 5.76127 10.4477 6.20898 11 6.20898Z" fill="#964F7D"/>
<circle opacity="0.2" cx="5" cy="5.20898" r="1" fill="#964F7D"/>
<circle opacity="0.2" cx="8" cy="5.20898" r="1" fill="#964F7D"/>
<circle opacity="0.2" cx="11" cy="5.20898" r="1" fill="#964F7D"/>
<path opacity="0.6" fill-rule="evenodd" clip-rule="evenodd" d="M5.64236 14.7894H7.05965C7.47386 14.7894 7.80965 14.4536 7.80965 14.0394C7.80965 13.6252 7.47386 13.2894 7.05965 13.2894H5.27158C4.64793 13.2894 4.14236 13.795 4.14236 14.4186V16.5214C4.14236 16.9356 4.47815 17.2714 4.89236 17.2714C5.30658 17.2714 5.64236 16.9356 5.64236 16.5214V14.7894ZM9.88579 14.0394C9.88579 13.6252 10.2216 13.2894 10.6358 13.2894H14.2119C14.6261 13.2894 14.9619 13.6252 14.9619 14.0394C14.9619 14.4536 14.6261 14.7894 14.2119 14.7894H10.6358C10.2216 14.7894 9.88579 14.4536 9.88579 14.0394ZM17.0381 14.0394C17.0381 13.6252 17.3739 13.2894 17.7881 13.2894H21.3642C21.7784 13.2894 22.1142 13.6252 22.1142 14.0394C22.1142 14.4536 21.7784 14.7894 21.3642 14.7894H17.7881C17.3739 14.7894 17.0381 14.4536 17.0381 14.0394ZM24.1904 14.0394C24.1904 13.6252 24.5261 13.2894 24.9404 13.2894H26.7284C27.3521 13.2894 27.8576 13.795 27.8576 14.4186V16.5214C27.8576 16.9356 27.5219 17.2714 27.1076 17.2714C26.6934 17.2714 26.3576 16.9356 26.3576 16.5214V14.7894H24.9404C24.5261 14.7894 24.1904 14.4536 24.1904 14.0394ZM4.89236 19.977C5.30658 19.977 5.64236 20.3128 5.64236 20.727V22.459H7.05965C7.47387 22.459 7.80965 22.7948 7.80965 23.209C7.80965 23.6232 7.47387 23.959 7.05965 23.959H5.27158C4.64794 23.959 4.14236 23.4534 4.14236 22.8298V20.727C4.14236 20.3128 4.47815 19.977 4.89236 19.977ZM27.1076 19.977C27.5219 19.977 27.8576 20.3128 27.8576 20.727V22.8298C27.8576 23.4534 27.3521 23.959 26.7284 23.959H24.9404C24.5261 23.959 24.1904 23.6232 24.1904 23.209C24.1904 22.7948 24.5261 22.459 24.9404 22.459H26.3576V20.727C26.3576 20.3128 26.6934 19.977 27.1076 19.977ZM9.88579 23.209C9.88579 22.7948 10.2216 22.459 10.6358 22.459H14.2119C14.6262 22.459 14.9619 22.7948 14.9619 23.209C14.9619 23.6232 14.6262 23.959 14.2119 23.959H10.6358C10.2216 23.959 9.88579 23.6232 9.88579 23.209ZM17.0381 23.209C17.0381 22.7948 17.3739 22.459 17.7881 22.459H21.3642C21.7784 22.459 22.1142 22.7948 22.1142 23.209C22.1142 23.6232 21.7784 23.959 21.3642 23.959H17.7881C17.3739 23.959 17.0381 23.6232 17.0381 23.209Z" fill="#964F7D"/>
<path opacity="0.2" fill-rule="evenodd" clip-rule="evenodd" d="M2 8.20898H30V28.209C30 29.3136 29.1046 30.209 28 30.209H4C2.89543 30.209 2 29.3136 2 28.209V8.20898ZM5.64236 14.7894H7.05965C7.47386 14.7894 7.80965 14.4536 7.80965 14.0394C7.80965 13.6252 7.47386 13.2894 7.05965 13.2894H5.27158C4.64793 13.2894 4.14236 13.795 4.14236 14.4186V16.5214C4.14236 16.9356 4.47815 17.2714 4.89236 17.2714C5.30658 17.2714 5.64236 16.9356 5.64236 16.5214V14.7894ZM9.88579 14.0394C9.88579 13.6252 10.2216 13.2894 10.6358 13.2894H14.2119C14.6261 13.2894 14.9619 13.6252 14.9619 14.0394C14.9619 14.4536 14.6261 14.7894 14.2119 14.7894H10.6358C10.2216 14.7894 9.88579 14.4536 9.88579 14.0394ZM17.0381 14.0394C17.0381 13.6252 17.3739 13.2894 17.7881 13.2894H21.3642C21.7784 13.2894 22.1142 13.6252 22.1142 14.0394C22.1142 14.4536 21.7784 14.7894 21.3642 14.7894H17.7881C17.3739 14.7894 17.0381 14.4536 17.0381 14.0394ZM24.1904 14.0394C24.1904 13.6252 24.5261 13.2894 24.9404 13.2894H26.7284C27.3521 13.2894 27.8576 13.795 27.8576 14.4186V16.5214C27.8576 16.9356 27.5219 17.2714 27.1076 17.2714C26.6934 17.2714 26.3576 16.9356 26.3576 16.5214V14.7894H24.9404C24.5261 14.7894 24.1904 14.4536 24.1904 14.0394ZM4.89236 19.977C5.30658 19.977 5.64236 20.3128 5.64236 20.727V22.459H7.05965C7.47387 22.459 7.80965 22.7948 7.80965 23.209C7.80965 23.6232 7.47387 23.959 7.05965 23.959H5.27158C4.64794 23.959 4.14236 23.4534 4.14236 22.8298V20.727C4.14236 20.3128 4.47815 19.977 4.89236 19.977ZM27.1076 19.977C27.5219 19.977 27.8576 20.3128 27.8576 20.727V22.8298C27.8576 23.4534 27.3521 23.959 26.7284 23.959H24.9404C24.5261 23.959 24.1904 23.6232 24.1904 23.209C24.1904 22.7948 24.5261 22.459 24.9404 22.459H26.3576V20.727C26.3576 20.3128 26.6934 19.977 27.1076 19.977ZM9.88579 23.209C9.88579 22.7948 10.2216 22.459 10.6358 22.459H14.2119C14.6262 22.459 14.9619 22.7948 14.9619 23.209C14.9619 23.6232 14.6262 23.959 14.2119 23.959H10.6358C10.2216 23.959 9.88579 23.6232 9.88579 23.209ZM17.0381 23.209C17.0381 22.7948 17.3739 22.459 17.7881 22.459H21.3642C21.7784 22.459 22.1142 22.7948 22.1142 23.209C22.1142 23.6232 21.7784 23.959 21.3642 23.959H17.7881C17.3739 23.959 17.0381 23.6232 17.0381 23.209ZM7.98587 16.3315V20.8268H9.48587V16.3315H7.98587Z" fill="#964F7D"/>
<path fill-rule="evenodd" clip-rule="evenodd" d="M7.98587 20.8268V16.3315H9.48587V20.8268H7.98587Z" fill="#964F7D"/>
</svg>
