<svg width="32" height="32" viewBox="0 0 32 32" fill="none" xmlns="http://www.w3.org/2000/svg">
<path opacity="0.6" fill-rule="evenodd" clip-rule="evenodd" d="M14 25H4.33333C3.04467 25 2 24.0051 2 22.7778V7.22222C2 5.99492 3.04467 5 4.33333 5H27.6667C28.9553 5 30 5.99492 30 7.22222V22.7778C30 24.0051 28.9553 25 27.6667 25H18V27H20C20.5523 27 21 27.4477 21 28C21 28.5523 20.5523 29 20 29H12C11.4477 29 11 28.5523 11 28C11 27.4477 11.4477 27 12 27H14V25ZM4.33333 23H27.6667C27.7905 23 27.8818 22.9536 27.9373 22.9009C27.991 22.8497 28 22.8068 28 22.7778V7.22222C28 7.19323 27.991 7.15033 27.9373 7.09915C27.8818 7.04635 27.7905 7 27.6667 7H4.33333C4.20952 7 4.11817 7.04635 4.06273 7.09915C4.00899 7.15033 4 7.19323 4 7.22222V22.7778C4 22.8068 4.00899 22.8497 4.06273 22.9009C4.11817 22.9536 4.20952 23 4.33333 23Z" fill="#C1A836"/>
<path opacity="0.2" fill-rule="evenodd" clip-rule="evenodd" d="M28 7H4V23H28V7ZM13 11.6832V18.3168C13 18.8525 13.7067 19.1792 14.2515 18.8952L20.6155 15.5784C21.1282 15.3113 21.1282 14.6887 20.6155 14.4216L14.2515 11.1048C13.7067 10.8208 13 11.1475 13 11.6832Z" fill="#C1A836"/>
<path opacity="0.8" d="M13 18.3168V11.6832C13 11.1475 13.7067 10.8208 14.2515 11.1048L20.6155 14.4216C21.1282 14.6887 21.1282 15.3113 20.6155 15.5784L14.2515 18.8952C13.7067 19.1792 13 18.8525 13 18.3168Z" fill="#C1A836"/>
</svg>
