<svg width="36" height="37" viewBox="0 0 36 37" fill="none" xmlns="http://www.w3.org/2000/svg">
<path fill-rule="evenodd" clip-rule="evenodd" d="M12.5087 12.5C11.5965 12.5 11 13.1482 11 14.0002C11 14.8333 11.5787 15.5 12.4737 15.5H12.491C13.4212 15.5 14 14.8333 14 14.0002C13.9826 13.1482 13.4212 12.5 12.5087 12.5ZM11 16.5H14V24.5H11V16.5ZM18.9482 17.817C18.9482 17.817 20.0148 16.5 21.6054 16.5C23.5451 16.5 24.9997 17.6172 24.9997 20.0181V24.5H22.0516V20.3184C22.0516 19.2676 21.6248 18.5508 20.5579 18.5508C19.7434 18.5508 19.2583 19.0342 19.0452 19.5008C18.9673 19.6679 18.9481 19.9012 18.9481 20.1349V24.5H15.9997V16.6834H18.9482V17.817Z" fill="white"/>
</svg>
