<svg width="104" height="31" viewBox="0 0 104 31" fill="none" xmlns="http://www.w3.org/2000/svg">
<path d="M14.4523 14.5191L0 0L21.4587 6.94662L14.4523 14.5191Z" fill="white"/>
<path d="M15.2997 15.3573L26.9131 29.7913L22.2956 7.77279L15.2997 15.3573Z" fill="white"/>
<path d="M25.4971 29.9178L9.08954 22.7067L19.6969 22.7102L25.4971 29.9178Z" fill="white"/>
<path d="M27.84 0.155518L22.4184 6.02262L17.1924 4.32782L27.84 0.155518Z" fill="white"/>
<path d="M25.9213 3.81618L28.9927 0.658714L34.2844 3.96813L25.9213 3.81618Z" fill="white"/>
<path d="M47.7862 8.77489C48.8888 8.77489 49.7826 7.83563 49.7826 6.677C49.7826 5.51836 48.8888 4.5791 47.7862 4.5791C46.6837 4.5791 45.7899 5.51836 45.7899 6.677C45.7899 7.83563 46.6837 8.77489 47.7862 8.77489Z" fill="white"/>
<path d="M89.5356 15.9143V23.5156H86.2425V16.1752C86.2425 13.9993 85.1254 12.9256 83.5789 12.9256C81.6604 12.9256 80.4576 14.3763 80.601 16.8135L80.5722 16.6974V23.5156H77.2493V16.1752C77.2493 13.9993 76.1326 12.9256 74.7007 12.9256C73.1543 12.9256 71.6079 13.796 71.6079 16.3785V23.5156H68.285V9.96609H71.6079V12.2873C72.0945 10.5756 73.9277 9.67375 75.5866 9.67375C77.5339 9.67375 79.1376 10.604 79.9106 12.3431C80.3367 11.5149 80.9845 10.8253 81.7798 10.3531C82.5751 9.88099 83.4857 9.64552 84.407 9.67375C87.7596 9.67596 89.5356 11.9683 89.5356 15.9143Z" fill="white"/>
<path fill-rule="evenodd" clip-rule="evenodd" d="M65.5838 21.5999V9.96621L62.3409 9.96356V11.7354C61.4184 10.3427 59.6572 9.67519 57.9801 9.67519C54.5413 9.67519 51.5783 12.3737 51.5783 16.7259C51.5783 21.0488 54.5693 23.805 58.0081 23.805C59.6013 23.805 61.4184 23.1086 62.3409 21.7164V21.9192C62.3409 25.7779 60.7757 27.2867 58.2595 27.2867C57.5338 27.2773 56.8246 27.0668 56.2086 26.6781C55.5927 26.2894 55.0935 25.7373 54.7652 25.0816L52.0815 26.3582C52.6241 27.5532 53.4957 28.5641 54.5916 29.2693C55.6876 29.9744 56.9612 30.344 58.2595 30.3334C62.7322 30.3334 65.5838 27.6929 65.5838 21.5999ZM62.0113 15.2192C62.1978 15.6891 62.2908 16.1916 62.285 16.698L62.2849 16.6976V16.6993L62.285 16.698C62.3014 17.2103 62.2159 17.7207 62.0337 18.1989C61.8515 18.6772 61.5761 19.1135 61.2241 19.4818C60.872 19.8502 60.4504 20.143 59.9844 20.3428C59.5183 20.5427 59.0174 20.6456 58.5113 20.6453C56.4983 20.6453 54.8491 18.9624 54.8491 16.6993C54.8291 16.1982 54.9087 15.6982 55.0835 15.229C55.2582 14.7598 55.5243 14.331 55.8661 13.9682C56.2078 13.6054 56.6181 13.316 57.0726 13.1172C57.527 12.9185 58.0163 12.8145 58.5113 12.8114C59.0116 12.8138 59.5065 12.9164 59.9674 13.1134C60.4284 13.3105 60.8463 13.5979 61.1971 13.9594C61.5479 14.3208 61.8246 14.7489 62.0113 15.2192Z" fill="white"/>
<path d="M49.4591 9.96621H46.1363V23.5157H49.4591V9.96621Z" fill="white"/>
<path d="M36.1091 19.311H32.8076C32.8684 22.212 35.6867 23.8368 38.5037 23.8381C41.3806 23.8381 44.2579 22.3861 44.2579 19.6299C44.2579 18.3821 43.6826 16.4676 40.5027 15.684L38.2291 15.1037C37.4115 14.9296 36.715 14.5234 36.715 13.8271C36.715 12.9859 37.4719 12.4056 38.5623 12.4056C39.5618 12.4056 40.4402 12.9859 40.4402 13.9431H43.8019C43.8325 10.8968 40.9854 9.70703 38.4714 9.70703C35.382 9.70703 33.2016 11.564 33.2016 13.6822C33.2016 15.3947 34.0192 17.0186 37.1995 17.831L39.0773 18.2953C40.1372 18.5274 40.7431 18.8769 40.7431 19.6299C40.7431 20.5004 39.8342 21.1094 38.4412 21.1094C36.9573 21.1094 36.1091 20.2412 36.1091 19.311Z" fill="white"/>
<path fill-rule="evenodd" clip-rule="evenodd" d="M104 23.5158V15.4206C104 11.7067 101.437 9.67571 97.9204 9.67482C95.4668 9.67482 93.2042 10.6613 92.1138 12.1413L93.9129 14.0562C94.5945 13.215 96.0937 12.6055 97.7023 12.6055C99.5832 12.6055 100.728 13.7953 100.728 15.5069V16.3193C99.4592 15.6767 98.0577 15.3486 96.639 15.3621C93.6947 15.3621 91.3775 16.8704 91.3775 19.5977C91.3775 22.1519 93.3677 23.8059 96.1484 23.8059C97.9204 23.8059 99.8289 22.9643 100.728 21.7169V23.5158H104ZM100.728 18.5833V19.1344C99.9378 20.3242 98.2204 21.0493 96.7754 21.0502C95.3597 21.0502 94.4852 20.4145 94.4852 19.4555C94.4852 18.4965 95.385 17.6836 97.2117 17.6836C98.4411 17.6692 99.653 17.9793 100.728 18.5833Z" fill="white"/>
</svg>
