<svg width="32" height="32" viewBox="0 0 32 32" fill="none" xmlns="http://www.w3.org/2000/svg">
<path opacity="0.3" fill-rule="evenodd" clip-rule="evenodd" d="M6 26V5.14286C6 4.83975 6.10536 4.54906 6.29289 4.33474C6.48043 4.12041 6.73478 4 7 4H29C29.2652 4 29.5196 4.12041 29.7071 4.33474C29.8946 4.54906 30 4.83975 30 5.14286V26.2857C30 27.2325 29.1046 28 28 28L30 28L4 28C5.10457 28 6 27.1046 6 26ZM16 11H10C9.44772 11 9 11.4477 9 12V24C9 24.5523 9.44772 25 10 25H16C16.5523 25 17 24.5523 17 24V12C17 11.4477 16.5523 11 16 11ZM20 15C19.4477 15 19 15.4477 19 16C19 16.5523 19.4477 17 20 17H26C26.5523 17 27 16.5523 27 16C27 15.4477 26.5523 15 26 15H20ZM19 20C19 19.4477 19.4477 19 20 19H26C26.5523 19 27 19.4477 27 20C27 20.5523 26.5523 21 26 21H20C19.4477 21 19 20.5523 19 20ZM19 24C19 23.4477 19.4477 23 20 23H26C26.5523 23 27 23.4477 27 24C27 24.5523 26.5523 25 26 25H20C19.4477 25 19 24.5523 19 24ZM9 8C9 7.44772 9.44772 7 10 7H26C26.5523 7 27 7.44772 27 8C27 8.55228 26.5523 9 26 9H10C9.44772 9 9 8.55228 9 8Z" fill="#858585"/>
<path opacity="0.6" d="M3 9C2.44772 9 2 9.44771 2 10V26C2 27.1046 2.89543 28 4 28C5.10457 28 6 27.1046 6 26V9H3Z" fill="#858585"/>
<g opacity="0.6">
<path d="M10 11H16C16.5523 11 17 11.4477 17 12V24C17 24.5523 16.5523 25 16 25H10C9.44772 25 9 24.5523 9 24V12C9 11.4477 9.44772 11 10 11Z" fill="#858585"/>
<path d="M19 16C19 15.4477 19.4477 15 20 15H26C26.5523 15 27 15.4477 27 16C27 16.5523 26.5523 17 26 17H20C19.4477 17 19 16.5523 19 16Z" fill="#858585"/>
<path d="M20 19C19.4477 19 19 19.4477 19 20C19 20.5523 19.4477 21 20 21H26C26.5523 21 27 20.5523 27 20C27 19.4477 26.5523 19 26 19H20Z" fill="#858585"/>
<path d="M20 23C19.4477 23 19 23.4477 19 24C19 24.5523 19.4477 25 20 25H26C26.5523 25 27 24.5523 27 24C27 23.4477 26.5523 23 26 23H20Z" fill="#858585"/>
</g>
<path opacity="0.8" fill-rule="evenodd" clip-rule="evenodd" d="M9 8C9 7.44772 9.44772 7 10 7H26C26.5523 7 27 7.44772 27 8C27 8.55228 26.5523 9 26 9H10C9.44772 9 9 8.55228 9 8Z" fill="#858585"/>
</svg>
