<svg width="32" height="32" viewBox="0 0 32 32" fill="none" xmlns="http://www.w3.org/2000/svg">
<g opacity="0.8">
<path fill-rule="evenodd" clip-rule="evenodd" d="M9 8C9 8.55228 9.44772 9 10 9H20C20.5523 9 21 8.55228 21 8C21 7.44772 20.5523 7 20 7H10C9.44772 7 9 7.44772 9 8Z" fill="#ED5E4F"/>
<path fill-rule="evenodd" clip-rule="evenodd" d="M9 12C9 12.5523 9.44772 13 10 13H16C16.5523 13 17 12.5523 17 12C17 11.4477 16.5523 11 16 11H10C9.44772 11 9 11.4477 9 12Z" fill="#ED5E4F"/>
</g>
<path opacity="0.4" fill-rule="evenodd" clip-rule="evenodd" d="M6.21591 1C4.9921 1 4 1.9921 4 3.21591V22.6667L4.01356 22.7129C4.00459 22.8074 4 22.9032 4 23C4 24.6569 5.34315 26 7 26H18.6822C17.9121 25.488 17.2671 24.8028 16.8027 24H7C6.44772 24 6 23.5523 6 23C6 22.4477 6.44772 22 7 22H16.083C16.0284 21.6748 16 21.3407 16 21C16 17.6863 18.6863 15 22 15C23.5367 15 24.9385 15.5777 26 16.5278V3.21591C26 1.9921 25.0079 1 23.7841 1H6.21591ZM10 9C9.44772 9 9 8.55228 9 8C9 7.44772 9.44772 7 10 7H20C20.5523 7 21 7.44772 21 8C21 8.55228 20.5523 9 20 9H10ZM9 12C9 12.5523 9.44772 13 10 13H16C16.5523 13 17 12.5523 17 12C17 11.4477 16.5523 11 16 11H10C9.44772 11 9 11.4477 9 12Z" fill="#ED5E4F"/>
<path opacity="0.2" d="M16.083 22H7C6.44772 22 6 22.4477 6 23C6 23.5523 6.44772 24 7 24H16.8027C16.4513 23.3926 16.2034 22.7179 16.083 22Z" fill="#ED5E4F"/>
<path fill-rule="evenodd" clip-rule="evenodd" d="M25.0176 26.1871C24.1311 26.7039 23.1001 27 22 27C18.6863 27 16 24.3137 16 21C16 17.6863 18.6863 15 22 15C25.3137 15 28 17.6863 28 21C28 22.5766 27.3919 24.0113 26.3974 25.0821C26.5099 25.1307 26.6152 25.201 26.7071 25.2929L30.7071 29.2929C31.0976 29.6834 31.0976 30.3166 30.7071 30.7071C30.3166 31.0976 29.6834 31.0976 29.2929 30.7071L25.2929 26.7071C25.1454 26.5597 25.0537 26.3776 25.0176 26.1871ZM26 21C26 23.2091 24.2091 25 22 25C19.7909 25 18 23.2091 18 21C18 18.7909 19.7909 17 22 17C24.2091 17 26 18.7909 26 21Z" fill="#ED5E4F"/>
<circle opacity="0.2" cx="22" cy="21" r="4" fill="#ED5E4F"/>
</svg>
