<svg width="32" height="32" viewBox="0 0 32 32" fill="none" xmlns="http://www.w3.org/2000/svg">
<path opacity="0.1" fill-rule="evenodd" clip-rule="evenodd" d="M26 6H6V28C6 29.1046 6.89543 30 8 30H24C25.1046 30 26 29.1046 26 28V6ZM21 17C21.5523 17 22 16.5523 22 16C22 15.4477 21.5523 15 21 15C20.4477 15 20 15.4477 20 16C20 16.5523 20.4477 17 21 17ZM22 20C22 20.5523 21.5523 21 21 21C20.4477 21 20 20.5523 20 20C20 19.4477 20.4477 19 21 19C21.5523 19 22 19.4477 22 20ZM11 15C10.4477 15 10 15.4477 10 16C10 16.5523 10.4477 17 11 17H17C17.5523 17 18 16.5523 18 16C18 15.4477 17.5523 15 17 15H11ZM10 20C10 19.4477 10.4477 19 11 19H17C17.5523 19 18 19.4477 18 20C18 20.5523 17.5523 21 17 21H11C10.4477 21 10 20.5523 10 20ZM11 23C10.4477 23 10 23.4477 10 24C10 24.5523 10.4477 25 11 25H17C17.5523 25 18 24.5523 18 24C18 23.4477 17.5523 23 17 23H11ZM10 11C10 10.4477 10.4477 10 11 10H21C21.5523 10 22 10.4477 22 11C22 11.5523 21.5523 12 21 12H11C10.4477 12 10 11.5523 10 11ZM21 25C21.5523 25 22 24.5523 22 24C22 23.4477 21.5523 23 21 23C20.4477 23 20 23.4477 20 24C20 24.5523 20.4477 25 21 25Z" fill="#005C4A"/>
<path opacity="0.8" d="M6 4C6 2.89543 6.89543 2 8 2H24C25.1046 2 26 2.89543 26 4V6H6V4Z" fill="#005C4A"/>
<path opacity="0.6" fill-rule="evenodd" clip-rule="evenodd" d="M10 11C10 10.4477 10.4477 10 11 10H21C21.5523 10 22 10.4477 22 11C22 11.5523 21.5523 12 21 12H11C10.4477 12 10 11.5523 10 11Z" fill="#005C4A"/>
<g opacity="0.4">
<path d="M11 15C10.4477 15 10 15.4477 10 16C10 16.5523 10.4477 17 11 17H17C17.5523 17 18 16.5523 18 16C18 15.4477 17.5523 15 17 15H11Z" fill="#005C4A"/>
<path d="M21 17C21.5523 17 22 16.5523 22 16C22 15.4477 21.5523 15 21 15C20.4477 15 20 15.4477 20 16C20 16.5523 20.4477 17 21 17Z" fill="#005C4A"/>
<path d="M10 20C10 19.4477 10.4477 19 11 19H17C17.5523 19 18 19.4477 18 20C18 20.5523 17.5523 21 17 21H11C10.4477 21 10 20.5523 10 20Z" fill="#005C4A"/>
<path d="M21 21C21.5523 21 22 20.5523 22 20C22 19.4477 21.5523 19 21 19C20.4477 19 20 19.4477 20 20C20 20.5523 20.4477 21 21 21Z" fill="#005C4A"/>
<path d="M10 24C10 23.4477 10.4477 23 11 23H17C17.5523 23 18 23.4477 18 24C18 24.5523 17.5523 25 17 25H11C10.4477 25 10 24.5523 10 24Z" fill="#005C4A"/>
<path d="M21 25C21.5523 25 22 24.5523 22 24C22 23.4477 21.5523 23 21 23C20.4477 23 20 23.4477 20 24C20 24.5523 20.4477 25 21 25Z" fill="#005C4A"/>
</g>
</svg>
