<svg width="32" height="32" viewBox="0 0 32 32" fill="none" xmlns="http://www.w3.org/2000/svg">
<g opacity="0.15">
<path d="M21.1619 3H4.8381C3.82294 3 3 3.82294 3 4.8381V21.1619C3 22.1771 3.82294 23 4.8381 23H21.1619C22.1771 23 23 22.1771 23 21.1619V4.8381C23 3.82294 22.1771 3 21.1619 3Z" fill="#964F7D"/>
</g>
<path opacity="0.2" d="M27.1619 9H10.8381C9.82294 9 9 9.82294 9 10.8381V27.1619C9 28.1771 9.82294 29 10.8381 29H27.1619C28.1771 29 29 28.1771 29 27.1619V10.8381C29 9.82294 28.1771 9 27.1619 9Z" fill="#964F7D"/>
<path d="M19.5 17.0085H19.75V16.7585V15.2281V14.9781H19.5H17.1336V12.4999V12.2499H16.8836H15.1027H14.8527V12.4999V14.9781H12.5H12.25V15.2281V16.7585V17.0085H12.5H14.8527V19.4999V19.7499H15.1027H16.8836H17.1336V19.4999V17.0085H19.5Z" fill="#964F7D" stroke="#964F7D" stroke-width="0.5"/>
<g opacity="0.5">
<path d="M22.6849 24.235H20.6849C20.1349 24.235 19.6849 23.785 19.6849 23.235C19.6849 22.685 20.1349 22.235 20.6849 22.235H21.6849V21.235C21.6849 20.685 22.1349 20.235 22.6849 20.235C23.2349 20.235 23.6849 20.685 23.6849 21.235V23.235C23.6849 23.785 23.2349 24.235 22.6849 24.235Z" fill="#964F7D"/>
<path d="M17.5549 24.235H14.4349C13.8849 24.235 13.4349 23.785 13.4349 23.235C13.4349 22.685 13.8849 22.235 14.4349 22.235H17.5549C18.1049 22.235 18.5549 22.685 18.5549 23.235C18.5549 23.785 18.1049 24.235 17.5549 24.235Z" fill="#964F7D"/>
<path d="M11.3149 24.235H9.31494C8.76494 24.235 8.31494 23.785 8.31494 23.235V21.235C8.31494 20.685 8.76494 20.235 9.31494 20.235C9.86494 20.235 10.3149 20.685 10.3149 21.235V22.235H11.3149C11.8649 22.235 12.3149 22.685 12.3149 23.235C12.3149 23.785 11.8649 24.235 11.3149 24.235Z" fill="#964F7D"/>
<path d="M9.31494 18.745C8.76494 18.745 8.31494 18.295 8.31494 17.745V14.255C8.31494 13.705 8.76494 13.255 9.31494 13.255C9.86494 13.255 10.3149 13.705 10.3149 14.255V17.745C10.3149 18.295 9.86494 18.745 9.31494 18.745Z" fill="#964F7D"/>
<path d="M9.31494 11.765C8.76494 11.765 8.31494 11.315 8.31494 10.765V8.76501C8.31494 8.21501 8.76494 7.76501 9.31494 7.76501H11.3149C11.8649 7.76501 12.3149 8.21501 12.3149 8.76501C12.3149 9.31501 11.8649 9.76501 11.3149 9.76501H10.3149V10.765C10.3149 11.315 9.86494 11.765 9.31494 11.765Z" fill="#964F7D"/>
<path d="M17.5549 9.76501H14.4349C13.8849 9.76501 13.4349 9.31501 13.4349 8.76501C13.4349 8.21501 13.8849 7.76501 14.4349 7.76501H17.5549C18.1049 7.76501 18.5549 8.21501 18.5549 8.76501C18.5549 9.31501 18.1049 9.76501 17.5549 9.76501Z" fill="#964F7D"/>
<path d="M22.6849 11.765C22.1349 11.765 21.6849 11.315 21.6849 10.765V9.76501H20.6849C20.1349 9.76501 19.6849 9.31501 19.6849 8.76501C19.6849 8.21501 20.1349 7.76501 20.6849 7.76501H22.6849C23.2349 7.76501 23.6849 8.21501 23.6849 8.76501V10.765C23.6849 11.315 23.2349 11.765 22.6849 11.765Z" fill="#964F7D"/>
<path d="M22.6849 18.745C22.1349 18.745 21.6849 18.295 21.6849 17.745V14.255C21.6849 13.705 22.1349 13.255 22.6849 13.255C23.2349 13.255 23.6849 13.705 23.6849 14.255V17.745C23.6849 18.295 23.2349 18.745 22.6849 18.745Z" fill="#964F7D"/>
</g>
</svg>
