<svg width="32" height="32" viewBox="0 0 32 32" fill="none" xmlns="http://www.w3.org/2000/svg">
<circle opacity="0.2" cx="22" cy="8" r="5" fill="#2FB2AF"/>
<path fill-rule="evenodd" clip-rule="evenodd" d="M21.2552 8.07797C21.8499 7.74672 22.5726 8.2171 22.5105 8.89502L21.0713 24.602C21.0058 25.3163 20.1374 25.6308 19.6298 25.124L16.1353 21.6359L12.755 26.8293C12.4999 27.2212 11.9753 27.3321 11.5834 27.077L9.05349 25.4304C8.66154 25.1753 8.55061 24.6507 8.80573 24.2587L12.186 19.0654L7.58182 17.2822C6.91293 17.0231 6.84894 16.1018 7.4756 15.7528L21.2552 8.07797Z" fill="white"/>
<path opacity="0.7" fill-rule="evenodd" clip-rule="evenodd" d="M21.2552 8.07797C21.8499 7.74672 22.5726 8.2171 22.5105 8.89502L21.0713 24.602C21.0058 25.3163 20.1374 25.6308 19.6298 25.124L16.1353 21.6359L12.755 26.8293C12.4999 27.2212 11.9753 27.3321 11.5834 27.077L9.05349 25.4304C8.66154 25.1753 8.55061 24.6507 8.80573 24.2587L12.186 19.0654L7.58182 17.2822C6.91293 17.0231 6.84894 16.1018 7.4756 15.7528L21.2552 8.07797Z" fill="#2FB2AF"/>
</svg>
