<svg width="32" height="32" viewBox="0 0 32 32" fill="none" xmlns="http://www.w3.org/2000/svg">
<path opacity="0.8" d="M27 11L23 11C21.8954 11 21 10.1046 21 9L21 5L27 11Z" fill="#005C4A"/>
<path opacity="0.4" d="M6 4C6 2.89543 6.89543 2 8 2H18L21 5H11C9.89543 5 9 5.89543 9 7V26H8C6.89543 26 6 25.1046 6 24V4Z" fill="#005C4A"/>
<path opacity="0.2" fill-rule="evenodd" clip-rule="evenodd" d="M21 5H11C9.89543 5 9 5.89543 9 7V27C9 28.1046 9.89543 29 11 29H25C26.1046 29 27 28.1046 27 27V11L23 11C21.8954 11 21 10.1046 21 9V5ZM14 14C14 13.4477 14.4477 13 15 13H21C21.5523 13 22 13.4477 22 14C22 14.5523 21.5523 15 21 15H15C14.4477 15 14 14.5523 14 14ZM14 18C14 17.4477 14.4477 17 15 17H21C21.5523 17 22 17.4477 22 18C22 18.5523 21.5523 19 21 19H15C14.4477 19 14 18.5523 14 18ZM15 21C14.4477 21 14 21.4477 14 22C14 22.5523 14.4477 23 15 23H21C21.5523 23 22 22.5523 22 22C22 21.4477 21.5523 21 21 21H15Z" fill="#005C4A"/>
<path opacity="0.6" fill-rule="evenodd" clip-rule="evenodd" d="M14 18C14 17.4477 14.4477 17 15 17H21C21.5523 17 22 17.4477 22 18C22 18.5523 21.5523 19 21 19H15C14.4477 19 14 18.5523 14 18Z" fill="#005C4A"/>
<path opacity="0.6" fill-rule="evenodd" clip-rule="evenodd" d="M14 14C14 13.4477 14.4477 13 15 13H21C21.5523 13 22 13.4477 22 14C22 14.5523 21.5523 15 21 15H15C14.4477 15 14 14.5523 14 14Z" fill="#005C4A"/>
<path opacity="0.6" fill-rule="evenodd" clip-rule="evenodd" d="M14 22C14 21.4477 14.4477 21 15 21H21C21.5523 21 22 21.4477 22 22C22 22.5523 21.5523 23 21 23H15C14.4477 23 14 22.5523 14 22Z" fill="#005C4A"/>
</svg>
