<svg width="32" height="32" viewBox="0 0 32 32" fill="none" xmlns="http://www.w3.org/2000/svg">
<path opacity="0.2" fill-rule="evenodd" clip-rule="evenodd" d="M30 8H2V28C2 29.1046 2.89543 30 4 30H28C29.1046 30 30 29.1046 30 28V8ZM16 28C20.9706 28 25 23.9706 25 19C25 14.0294 20.9706 10 16 10C11.0294 10 7 14.0294 7 19C7 23.9706 11.0294 28 16 28Z" fill="#005C4A"/>
<path opacity="0.1" fill-rule="evenodd" clip-rule="evenodd" d="M16 28C20.9706 28 25 23.9706 25 19C25 14.0294 20.9706 10 16 10C11.0294 10 7 14.0294 7 19C7 23.9706 11.0294 28 16 28ZM12 17C12 16.2089 12.2346 15.4355 12.6741 14.7777C13.1136 14.1199 13.7384 13.6072 14.4693 13.3045C15.2002 13.0017 16.0044 12.9225 16.7804 13.0769C17.5563 13.2312 18.269 13.6122 18.8284 14.1716C19.3878 14.731 19.7688 15.4437 19.9231 16.2196C20.0775 16.9956 19.9983 17.7998 19.6955 18.5307C19.3928 19.2616 18.8801 19.8864 18.2223 20.3259C17.8465 20.577 17.433 20.7612 17 20.873V22C17 22.5523 16.5523 23 16 23C15.4477 23 15 22.5523 15 22V20C15 19.4477 15.4477 19 16 19C16.3956 19 16.7822 18.8827 17.1111 18.6629C17.44 18.4432 17.6964 18.1308 17.8478 17.7654C17.9991 17.3999 18.0387 16.9978 17.9616 16.6098C17.8844 16.2219 17.6939 15.8655 17.4142 15.5858C17.1345 15.3061 16.7781 15.1156 16.3902 15.0384C16.0022 14.9613 15.6001 15.0009 15.2346 15.1522C14.8692 15.3036 14.5568 15.56 14.3371 15.8889C14.1173 16.2178 14 16.6044 14 17C14 17.5523 13.5523 18 13 18C12.4477 18 12 17.5523 12 17ZM17 25C17 25.5523 16.5523 26 16 26C15.4477 26 15 25.5523 15 25C15 24.4477 15.4477 24 16 24C16.5523 24 17 24.4477 17 25Z" fill="#005C4A"/>
<path fill-rule="evenodd" clip-rule="evenodd" d="M2 4C2 2.89543 2.89543 2 4 2H28C29.1046 2 30 2.89543 30 4V8H2V4ZM6 5C6 5.55228 5.55228 6 5 6C4.44772 6 4 5.55228 4 5C4 4.44772 4.44772 4 5 4C5.55228 4 6 4.44772 6 5ZM9 5C9 5.55228 8.55228 6 8 6C7.44772 6 7 5.55228 7 5C7 4.44772 7.44772 4 8 4C8.55228 4 9 4.44772 9 5ZM11 6C11.5523 6 12 5.55228 12 5C12 4.44772 11.5523 4 11 4C10.4477 4 10 4.44772 10 5C10 5.55228 10.4477 6 11 6Z" fill="#005C4A"/>
<path d="M12 17C12 16.2089 12.2346 15.4355 12.6741 14.7777C13.1136 14.1199 13.7384 13.6072 14.4693 13.3045C15.2002 13.0017 16.0044 12.9225 16.7804 13.0769C17.5563 13.2312 18.269 13.6122 18.8284 14.1716C19.3878 14.731 19.7688 15.4437 19.9231 16.2196C20.0775 16.9956 19.9983 17.7998 19.6955 18.5307C19.3928 19.2616 18.8801 19.8864 18.2223 20.3259C17.8465 20.577 17.433 20.7612 17 20.873V22C17 22.5523 16.5523 23 16 23C15.4477 23 15 22.5523 15 22V20C15 19.4477 15.4477 19 16 19C16.3956 19 16.7822 18.8827 17.1111 18.6629C17.44 18.4432 17.6964 18.1308 17.8478 17.7654C17.9991 17.3999 18.0387 16.9978 17.9616 16.6098C17.8844 16.2219 17.6939 15.8655 17.4142 15.5858C17.1345 15.3061 16.7781 15.1156 16.3902 15.0384C16.0022 14.9613 15.6001 15.0009 15.2346 15.1522C14.8692 15.3036 14.5568 15.56 14.3371 15.8889C14.1173 16.2178 14 16.6044 14 17C14 17.5523 13.5523 18 13 18C12.4477 18 12 17.5523 12 17Z" fill="#005C4A"/>
<path d="M17 25C17 25.5523 16.5523 26 16 26C15.4477 26 15 25.5523 15 25C15 24.4477 15.4477 24 16 24C16.5523 24 17 24.4477 17 25Z" fill="#005C4A"/>
</svg>
