<svg width="32" height="32" viewBox="0 0 32 32" fill="none" xmlns="http://www.w3.org/2000/svg">
<path opacity="0.2" d="M27 28V25H7.5C6.67157 25 6 25.6716 6 26.5C6 27.3284 6.67157 28 7.5 28H27Z" fill="#ED5E4F"/>
<path opacity="0.4" fill-rule="evenodd" clip-rule="evenodd" d="M4 4.21591C4 2.9921 4.9921 2 6.21591 2H25.7841C27.0079 2 28 2.9921 28 4.21591V23.9127C28 23.9206 27.9993 23.9283 27.998 23.9358C27.9993 23.957 28 23.9784 28 24C28 24.5523 27.5523 25 27 25H7.5C6.67157 25 6 25.6716 6 26.5C6 27.3284 6.67157 28 7.5 28H27C27.5523 28 28 28.4477 28 29C28 29.5523 27.5523 30 27 30H7.5C5.567 30 4 28.433 4 26.5V4.21591ZM10 9C10 9.55228 10.4477 10 11 10H21C21.5523 10 22 9.55228 22 9C22 8.44772 21.5523 8 21 8H11C10.4477 8 10 8.44772 10 9ZM11 14C10.4477 14 10 13.5523 10 13C10 12.4477 10.4477 12 11 12H17C17.5523 12 18 12.4477 18 13C18 13.5523 17.5523 14 17 14H11Z" fill="#ED5E4F"/>
<path opacity="0.8" fill-rule="evenodd" clip-rule="evenodd" d="M10 9C10 9.55228 10.4477 10 11 10H21C21.5523 10 22 9.55228 22 9C22 8.44772 21.5523 8 21 8H11C10.4477 8 10 8.44772 10 9Z" fill="#ED5E4F"/>
<path opacity="0.8" fill-rule="evenodd" clip-rule="evenodd" d="M10 13C10 13.5523 10.4477 14 11 14H17C17.5523 14 18 13.5523 18 13C18 12.4477 17.5523 12 17 12H11C10.4477 12 10 12.4477 10 13Z" fill="#ED5E4F"/>
</svg>
