<?xml version="1.0" encoding="iso-8859-1"?>
<!-- Uploaded to: SVG Repo, www.svgrepo.com, Generator: SVG Repo Mixer Tools -->
<svg height="800px" width="800px" version="1.1" id="Layer_1" xmlns="http://www.w3.org/2000/svg" xmlns:xlink="http://www.w3.org/1999/xlink" 
	 viewBox="0 0 512 512" xml:space="preserve">
<path style="fill:#9B9B9B;" d="M375.379,119.38C375.379,53.553,321.826,0,256.001,0l-10.458,15.651l10.458,15.697
	c48.54,0,88.03,39.491,88.03,88.031v97.46h-88.03v31.348h119.379V119.38z"/>
<path style="fill:#C1C1C1;" d="M167.97,216.84v-97.46c0-48.541,39.491-88.031,88.03-88.031V0
	c-65.826,0-119.379,53.553-119.379,119.38v128.808h119.379V216.84H167.97z"/>
<path style="fill:#F39624;" d="M256.001,201.14V512h52.051c57.095,0,103.378-46.284,103.378-103.379V201.14H256.001z"/>
<path style="fill:#F7C02D;" d="M100.57,201.14v207.481C100.57,465.716,146.854,512,203.949,512h52.051V201.14H100.57z"/>
<path style="fill:#9B9B9B;" d="M277.964,409.084v-52.022c11.408-7.268,18.982-20.02,18.982-34.549
	c0-22.615-18.333-40.946-40.946-40.946l-10.458,31.893l10.458,95.624H277.964z"/>
<path style="fill:#C1C1C1;" d="M215.054,322.514c0,14.529,7.574,27.281,18.982,34.549v52.022h21.964V281.568
	C233.386,281.568,215.054,299.899,215.054,322.514z"/>
</svg>