<svg width="32" height="32" viewBox="0 0 32 32" fill="none" xmlns="http://www.w3.org/2000/svg">
<path opacity="0.6" fill-rule="evenodd" clip-rule="evenodd" d="M13.2314 11.9356C16.2163 7.59389 21.1473 5 26.4161 5H26.9996V5.58353C26.9996 10.8523 24.4057 15.7833 20.0641 18.7682L11.6851 24.5288C11.2878 24.8019 10.7523 24.7527 10.4114 24.4118L7.58782 21.5882C7.24696 21.2473 7.1978 20.7118 7.47089 20.3146L13.2314 11.9356ZM19.4997 15C19.5428 15 19.5856 14.9989 19.6282 14.9968L19.4997 15ZM19.6282 14.9968C20.9492 14.9298 21.9997 13.8376 21.9997 12.5C21.9997 11.1751 20.969 10.0909 19.6658 10.0054C19.6214 10.0025 19.5768 10.0008 19.5319 10.0002C19.5211 10.0001 19.5104 10 19.4996 10C18.1189 10 16.9996 11.1193 16.9996 12.5C16.9996 13.8807 18.119 15 19.4997 15C19.4997 15 19.4997 15 19.4997 15" fill="#2FB2AF"/>
<g opacity="0.8">
<path d="M10.6162 15.7406L7.24249 14.3911L4.41406 17.2195L8.48105 18.8463L10.6162 15.7406Z" fill="#2FB2AF"/>
<path d="M12.9342 23.6706L14.3136 27.119L17.142 24.2906L16.0399 21.5354L12.9342 23.6706Z" fill="#2FB2AF"/>
</g>
<path opacity="0.4" d="M8.6641 25.5038C7.62446 27.0633 5.87423 28 4 28C4 26.1258 4.93669 24.3755 6.49615 23.3359L7 23L6 26L9 25L8.6641 25.5038Z" fill="#2FB2AF"/>
<circle opacity="0.2" cx="19.5" cy="12.5" r="2.5" fill="#2FB2AF"/>
</svg>
