<svg width="178" height="40" viewBox="0 0 178 40" fill="none" xmlns="http://www.w3.org/2000/svg">
<path fill-rule="evenodd" clip-rule="evenodd" d="M175.38 11.8119H174.911V12.3814H175.38C175.599 12.3814 175.739 12.2836 175.739 12.1024C175.739 11.9097 175.608 11.8119 175.38 11.8119ZM174.334 11.2856H175.392C175.969 11.2856 176.351 11.5962 176.351 12.0823C176.351 12.3842 176.199 12.6086 175.969 12.7495L176.383 13.342V13.4599H175.783L175.38 12.8904H174.911V13.4599H174.334V11.2856ZM177.286 12.413C177.286 11.2511 176.502 10.3681 175.301 10.3681C174.124 10.3681 173.34 11.2079 173.34 12.413C173.34 13.5634 174.124 14.4579 175.301 14.4579C176.502 14.4579 177.286 13.5749 177.286 12.413ZM177.779 12.413C177.779 13.7791 176.853 14.9209 175.305 14.9209C173.769 14.9209 172.851 13.7705 172.851 12.413C172.851 11.0469 173.766 9.90509 175.305 9.90509C176.853 9.90796 177.779 11.0469 177.779 12.413ZM39.0832 17.2764L34.3069 20.0029L39.0832 22.7207C40.2897 23.4081 40.7006 24.9266 40.0041 26.1174C39.3076 27.3022 37.7689 27.7078 36.5683 27.0233L28.0121 22.1484C27.441 21.8205 27.0446 21.3086 26.8699 20.7305C26.7852 20.4659 26.7474 20.1927 26.7561 19.9224C26.762 19.7267 26.7911 19.5313 26.8436 19.3356C27.0155 18.7288 27.4148 18.1852 28.0093 17.843L36.5625 12.9739C37.7631 12.2893 39.3048 12.6949 39.9983 13.8855C40.7006 15.0734 40.2897 16.589 39.0832 17.2764ZM34.5604 30.486L26.0101 25.6198C25.5496 25.3553 25.0426 25.2545 24.553 25.2947C23.2475 25.3869 22.2246 26.4625 22.2246 27.7711V37.5151C22.2246 38.8899 23.3465 40 24.7395 40C26.1325 40 27.2574 38.887 27.2574 37.5151V32.065L32.0454 34.7915C33.249 35.4818 34.7878 35.0734 35.4813 33.8855C36.1749 32.6978 35.7669 31.1734 34.5604 30.486ZM24.6929 20.9549L21.1376 24.4579C21.0356 24.5614 20.8404 24.6447 20.6918 24.6447H20.4352H19.9108H19.6484C19.5056 24.6447 19.3045 24.5614 19.2025 24.4579L15.6473 20.9549C15.5453 20.857 15.4636 20.6586 15.4636 20.5177V20.2589V19.7411V19.4852C15.4636 19.3414 15.5453 19.143 15.6473 19.0422L19.1996 15.5393C19.3016 15.4358 19.5028 15.3552 19.6455 15.3552H19.9077H20.4324H20.6918C20.8374 15.3552 21.0356 15.4358 21.1376 15.5393L24.6929 19.0422C24.7949 19.143 24.8765 19.3414 24.8765 19.4852V19.7411V20.2589V20.5177C24.8765 20.6557 24.7949 20.8541 24.6929 20.9549ZM21.8516 19.9828C21.8516 19.8419 21.7641 19.6434 21.6621 19.5399L20.6334 18.5275C20.5314 18.4267 20.3332 18.3434 20.1875 18.3434H20.1467C20.004 18.3434 19.8029 18.4267 19.7037 18.5275L18.6751 19.5399C18.5731 19.6434 18.4944 19.8419 18.4944 19.9828V20.023C18.4944 20.1639 18.5731 20.3595 18.6751 20.4601L19.7037 21.4754C19.8057 21.5761 20.004 21.6595 20.1467 21.6595H20.1875C20.3304 21.6595 20.5314 21.5761 20.6334 21.4754L21.6621 20.4601C21.7641 20.3595 21.8516 20.1639 21.8516 20.023V19.9828ZM5.77976 9.5082L14.3329 14.3802C14.7934 14.6419 15.3034 14.7455 15.793 14.7053C17.0956 14.6103 18.1214 13.5346 18.1214 12.2261V2.48203C18.1214 1.11303 16.9936 0 15.6064 0C14.2135 0 13.0886 1.11303 13.0886 2.48203V7.935L8.29763 5.20276C7.09698 4.51539 5.55827 4.92379 4.86179 6.11159C4.16529 7.30515 4.5762 8.82083 5.77976 9.5082ZM24.553 14.7053C25.0426 14.7455 25.5526 14.6419 26.0101 14.3802L34.5604 9.5082C35.764 8.82083 36.1749 7.30227 35.4813 6.11159C34.7878 4.92379 33.249 4.51826 32.0454 5.20276L27.2574 7.935V2.48203C27.2574 1.11303 26.1325 0 24.7395 0C23.3465 0 22.2246 1.11303 22.2246 2.48203V12.2261C22.2216 13.5346 23.2475 14.6103 24.553 14.7053ZM15.793 25.2947C15.3005 25.2545 14.7905 25.3553 14.3329 25.6198L5.77976 30.486C4.5762 31.1734 4.16529 32.6978 4.85887 33.8855C5.55536 35.0705 7.09406 35.4789 8.29471 34.7915L13.0856 32.065V37.5151C13.0856 38.8899 14.2105 40 15.6035 40C16.9906 40 18.1185 38.887 18.1185 37.5151V27.7711C18.1214 26.4625 17.0956 25.3869 15.793 25.2947ZM13.4732 20.7305C13.5577 20.4659 13.5928 20.1927 13.5869 19.9224C13.5781 19.7267 13.5519 19.5313 13.4965 19.3356C13.3275 18.7288 12.9254 18.1852 12.325 17.843L3.7777 12.9739C2.57122 12.2893 1.03253 12.6949 0.341862 13.8855C-0.357545 15.0734 0.056271 16.589 1.26275 17.2764L6.03912 20.0029L1.25984 22.7207C0.0533568 23.4081 -0.357545 24.9266 0.338949 26.1174C1.03253 27.3022 2.56831 27.7078 3.77479 27.0233L12.3221 22.1484C12.902 21.8234 13.2926 21.3086 13.4732 20.7305ZM119.559 6.16911H119.323C119.291 6.16911 119.262 6.17199 119.229 6.17486C119.2 6.17199 119.171 6.16911 119.139 6.16911C118.533 6.16911 117.941 6.23814 117.391 6.41932C116.849 6.59764 116.347 6.891 115.96 7.33966L115.957 7.33679V7.33966V7.34254C115.555 7.78258 115.293 8.30889 115.129 8.9071C114.969 9.5082 114.902 10.1841 114.896 10.9548V12.4446H113.232C112.655 12.4475 112.195 12.9048 112.195 13.457C112.192 13.7533 112.308 14.0265 112.498 14.2249C112.69 14.4176 112.952 14.547 113.244 14.5614H114.896V26.681L114.893 26.7097C114.893 26.9945 115.013 27.2562 115.208 27.4432C115.4 27.6272 115.671 27.7365 115.966 27.7365C116.525 27.7336 116.986 27.2821 116.988 26.7069V14.5556H118.778C119.066 14.5412 119.331 14.4205 119.521 14.2278C119.716 14.0351 119.836 13.7647 119.836 13.4714V13.4311C119.83 12.8846 119.367 12.4389 118.79 12.4389H116.988V10.9548C117 10.2991 117.07 9.8073 117.169 9.45068C117.265 9.09118 117.399 8.86684 117.516 8.72591C117.633 8.60224 117.784 8.4987 118.029 8.4153C118.277 8.33478 118.62 8.28587 119.084 8.28587H119.139C119.165 8.28587 119.195 8.28013 119.221 8.28013C119.253 8.28013 119.285 8.28587 119.317 8.28587H119.451H119.55C120.145 8.28587 120.623 7.81133 120.623 7.2275C120.631 6.64079 120.153 6.16911 119.559 6.16911ZM156.453 14.0294C156.663 13.8251 156.776 13.5519 156.776 13.2816C156.776 13.017 156.663 12.7495 156.45 12.5567H156.453C156.45 12.551 156.446 12.551 156.446 12.551C156.446 12.5453 156.441 12.5452 156.441 12.5452H156.438C156.234 12.3468 155.975 12.2404 155.704 12.2404C155.433 12.2404 155.165 12.3526 154.964 12.551L146.728 20.4716V7.16135C146.728 6.58901 146.241 6.12021 145.644 6.12021C145.355 6.12021 145.092 6.23814 144.904 6.42795C144.717 6.6149 144.591 6.87661 144.591 7.16135V26.6494C144.591 26.9341 144.717 27.1959 144.904 27.3799C145.092 27.564 145.355 27.6876 145.644 27.6876C146.241 27.6876 146.728 27.2246 146.728 26.6523V23.434L149.409 20.7909L154.876 27.2994C154.978 27.449 155.118 27.5525 155.258 27.6071C155.415 27.6646 155.57 27.6876 155.706 27.6876C155.896 27.6876 156.161 27.6474 156.394 27.4662L156.406 27.4576L156.42 27.4432C156.639 27.2304 156.765 26.9456 156.765 26.658C156.765 26.4136 156.674 26.1663 156.505 25.9678V25.9649L150.939 19.2896L156.446 14.0322H156.453V14.0294ZM141.581 12.6891C141.776 12.876 141.896 13.1435 141.896 13.434V26.6494C141.896 26.9341 141.774 27.1959 141.587 27.3799C141.397 27.564 141.135 27.6876 140.844 27.6876C140.556 27.6876 140.288 27.564 140.101 27.3799C139.911 27.1959 139.789 26.9341 139.789 26.6494V25.361C138.464 26.7731 136.601 27.6876 134.541 27.6876C132.489 27.6876 130.645 26.8191 129.321 25.4242C127.995 24.038 127.183 22.1283 127.183 20.0431C127.183 17.958 127.995 16.0455 129.321 14.6592C130.645 13.2671 132.489 12.4015 134.541 12.4015C136.601 12.4015 138.464 13.2874 139.789 14.6938V13.4369C139.789 13.1464 139.909 12.8789 140.104 12.692C140.299 12.5079 140.561 12.4015 140.844 12.4015C141.124 12.4015 141.389 12.5079 141.581 12.6891ZM139.789 20.0431C139.789 18.4815 139.191 17.0809 138.236 16.0685C137.282 15.0619 135.971 14.4493 134.541 14.4464C133.121 14.4464 131.816 15.0619 130.851 16.0685C129.895 17.0809 129.289 18.4786 129.289 20.0431C129.289 21.6049 129.895 22.994 130.851 23.9978C131.81 25.0015 133.119 25.6054 134.541 25.6054C135.978 25.6054 137.286 25.0015 138.239 24.0006C139.191 22.9969 139.789 21.6049 139.789 20.0431ZM55.021 19.6721C54.17 19.2753 53.2055 18.9848 52.2437 18.6684C51.3579 18.3721 50.4603 18.122 49.8191 17.7912C49.4956 17.6215 49.245 17.4404 49.0819 17.239C48.9157 17.0376 48.8341 16.8306 48.8312 16.5516C48.8341 16.1691 48.9449 15.8614 49.1342 15.5852C49.4227 15.1769 49.9065 14.8576 50.434 14.6534C50.9556 14.4464 51.521 14.3486 51.9261 14.3486C53.1209 14.3515 53.8757 14.7426 54.4556 15.151C54.7412 15.3553 54.9831 15.5651 55.2134 15.7349C55.3299 15.824 55.4406 15.9045 55.5689 15.9649C55.6884 16.0224 55.8311 16.0714 55.9856 16.0714C56.0846 16.0714 56.1809 16.0541 56.2711 16.0166C56.3674 15.9793 56.4489 15.9246 56.5276 15.8585C56.6034 15.7866 56.6704 15.7004 56.717 15.6054C56.7579 15.5076 56.7782 15.4041 56.7782 15.3062C56.7782 15.1222 56.72 14.9496 56.6325 14.7857C56.4722 14.501 56.2275 14.2277 55.9156 13.9516C55.4522 13.5432 54.8403 13.1579 54.1818 12.8645C53.5201 12.5711 52.812 12.3727 52.1389 12.3727C50.5739 12.3727 49.2684 12.7236 48.3213 13.3679C47.8259 13.7044 47.3916 14.0725 47.0856 14.5815C46.7737 15.0906 46.599 15.7205 46.5756 16.5401C46.5756 16.5775 46.5756 16.612 46.5756 16.6494C46.5728 17.4432 46.8321 18.0989 47.2401 18.6137C47.8579 19.3874 48.7759 19.8476 49.6764 20.1755C50.5739 20.5032 51.4744 20.6989 52.0398 20.8859C52.8383 21.1475 53.6862 21.4323 54.307 21.809C54.6159 22.0018 54.8636 22.2087 55.0326 22.436C55.1959 22.669 55.2891 22.9105 55.2949 23.2154V23.2384C55.292 23.6814 55.1609 24.0265 54.9423 24.3228C54.613 24.7656 54.068 25.0877 53.4881 25.2947C52.9111 25.4961 52.3079 25.5795 51.9231 25.5795C50.5594 25.5795 49.6472 25.2545 48.9827 24.9295C48.6505 24.7656 48.3824 24.6045 48.1376 24.4665C48.0181 24.4004 47.9045 24.34 47.785 24.2939C47.6685 24.2479 47.546 24.2162 47.4061 24.2162C47.3216 24.2162 47.2284 24.2306 47.141 24.2651C47.0535 24.3025 46.9749 24.3515 46.9079 24.4147C46.8175 24.501 46.7359 24.6016 46.6805 24.7139C46.6251 24.826 46.599 24.9468 46.599 25.0705C46.599 25.2746 46.6747 25.4588 46.7855 25.6284C46.9574 25.8729 47.2109 26.0886 47.5256 26.3071C47.852 26.5229 48.2396 26.7329 48.6855 26.9427C49.6792 27.4057 50.9499 27.6474 51.9174 27.6618H51.9203C53.424 27.6618 54.7209 27.3195 55.8136 26.5258V26.5229H55.8165C56.8861 25.7291 57.5505 24.547 57.5505 23.2125C57.5505 22.4791 57.3756 21.8579 57.0726 21.3489C56.6121 20.581 55.8661 20.0719 55.021 19.6721ZM123.904 6.12021C123.615 6.12021 123.35 6.23814 123.161 6.42795C122.971 6.6149 122.849 6.87661 122.849 7.16135V26.6494C122.849 26.9341 122.968 27.1959 123.161 27.3799C123.35 27.564 123.615 27.6876 123.904 27.6876C124.501 27.6876 124.985 27.2246 124.988 26.6523V7.16135C124.985 6.58614 124.504 6.12021 123.904 6.12021ZM172.394 19.5514V19.6549C172.394 19.9425 172.263 20.2014 172.064 20.371C171.869 20.5436 171.612 20.6327 171.335 20.6356H159.515C159.815 23.4829 162.121 25.5853 164.869 25.6054H165.565C166.475 25.6083 167.36 25.2976 168.141 24.7857C168.923 24.2766 169.599 23.5662 170.074 22.784C170.173 22.6172 170.313 22.4906 170.464 22.413C170.621 22.3296 170.787 22.2894 170.956 22.2894C171.142 22.2894 171.33 22.3383 171.493 22.4331L171.505 22.4389L171.516 22.4475C171.814 22.6633 171.998 22.9882 171.998 23.3477C171.998 23.5317 171.948 23.7159 171.849 23.8855L171.845 23.8913L171.842 23.8941C171.181 24.9295 170.28 25.8757 169.211 26.5602C168.139 27.2476 166.897 27.6819 165.565 27.6819H164.858C162.783 27.6675 160.909 26.8019 159.556 25.4185C158.207 24.0409 157.376 22.1484 157.376 20.0661C157.376 17.9494 158.212 16.031 159.574 14.6419C160.935 13.2556 162.823 12.3957 164.915 12.3957C166.911 12.3957 168.706 13.1809 170.036 14.4636C171.365 15.7464 172.233 17.5295 172.388 19.5341L172.394 19.5514ZM170.085 18.5678C169.485 16.1691 167.351 14.4607 164.915 14.4636C162.418 14.4636 160.314 16.1346 159.661 18.5678H170.085ZM66.2523 12.4274C64.6029 12.4274 63.0962 13.063 61.9742 14.0754V13.4714C61.9714 13.1924 61.8694 12.9336 61.6829 12.7437C61.5051 12.5567 61.2399 12.4303 60.9514 12.4303C60.6513 12.4303 60.3802 12.5481 60.1936 12.7409C60.0071 12.9308 59.8964 13.1924 59.8964 13.4714V26.9629L59.9401 27.006L59.9431 27.0117C59.9547 27.0549 59.9839 27.1068 60.013 27.1528C60.1557 27.4029 60.3919 27.5927 60.6833 27.6761L60.7241 27.6876H60.9514C61.1029 27.6876 61.2545 27.656 61.4001 27.5899C61.5196 27.5324 61.6332 27.4404 61.7236 27.3224H61.7265C61.7382 27.3109 61.7411 27.2965 61.7527 27.285C61.7586 27.2821 61.7615 27.2792 61.7644 27.2735C61.8197 27.2016 61.8664 27.1298 61.8956 27.0606C61.9247 26.9801 61.9451 26.9025 61.9597 26.845L61.9684 26.8076V18.7057C61.9976 17.5467 62.4814 16.4999 63.2565 15.7378C64.0259 14.9755 65.0807 14.5068 66.2465 14.5068C67.4325 14.5068 68.4904 14.9784 69.2569 15.7378C70.0262 16.497 70.4925 17.541 70.4925 18.6943V26.6494C70.4925 26.9399 70.6178 27.2102 70.8073 27.3942C71.0025 27.5784 71.2676 27.6876 71.5445 27.6876C71.8271 27.6876 72.0895 27.5784 72.2848 27.3942C72.48 27.2102 72.5994 26.9399 72.5994 26.6494V18.6943C72.6081 15.2631 69.7669 12.4331 66.2523 12.4274ZM87.1996 14.6679C88.5314 16.0599 89.3386 17.9695 89.3415 20.0431C89.3386 22.1139 88.5284 24.0236 87.1996 25.4156C85.8794 26.8076 84.0348 27.6848 81.9831 27.6848C79.949 27.6848 78.1014 26.8048 76.7755 25.4156C75.4495 24.0236 74.6278 22.1139 74.6278 20.0431C74.6278 17.9724 75.4495 16.0599 76.7755 14.6679C78.1014 13.2787 79.949 12.3986 81.9831 12.3986C84.0348 12.4015 85.8794 13.2787 87.1996 14.6679ZM87.2287 20.0431C87.2287 18.4959 86.6255 17.0924 85.6668 16.08C84.7021 15.0648 83.3995 14.4464 81.9802 14.4464C80.5639 14.4464 79.2555 15.0676 78.2937 16.08C77.335 17.0924 76.7317 18.4959 76.7317 20.0431C76.7317 21.5905 77.335 22.9796 78.2937 23.9862C79.2555 24.9956 80.5639 25.6054 81.9802 25.6054C83.3965 25.6054 84.7079 24.9956 85.6668 23.9862C86.6255 22.9796 87.2287 21.5905 87.2287 20.0431ZM109.971 12.5165L109.965 12.5136C109.965 12.5136 109.962 12.5108 109.959 12.5108C109.84 12.459 109.706 12.4303 109.581 12.4303C109.374 12.4331 109.176 12.4935 109.004 12.6C108.829 12.7092 108.68 12.8703 108.593 13.0716V13.0774L104.568 23.943L101.468 16.6609L101.462 16.658C101.374 16.4539 101.22 16.2985 101.042 16.1864C100.864 16.0771 100.657 16.0166 100.439 16.0166C100.229 16.0166 100.031 16.0829 99.8589 16.1892C99.6869 16.2985 99.5325 16.4539 99.445 16.658L99.4421 16.6609L96.3356 23.9488L92.2936 13.086H92.2906C92.2207 12.876 92.075 12.7121 91.906 12.6029C91.7311 12.4935 91.53 12.4331 91.3202 12.4303C91.1861 12.4303 91.0521 12.4561 90.9239 12.5108H90.9181L90.9122 12.5165C90.5364 12.6891 90.3061 13.063 90.3031 13.4685C90.3031 13.595 90.3294 13.7216 90.379 13.8481L95.3535 27.0319V27.0376C95.3914 27.1355 95.4467 27.2332 95.5284 27.3281C95.5866 27.3971 95.6711 27.4548 95.7615 27.5008C95.779 27.5151 95.8022 27.5381 95.8431 27.5611C95.8839 27.587 95.9393 27.6042 95.9918 27.6129C96.0791 27.6416 96.1986 27.6848 96.356 27.6848C96.5571 27.6848 96.7436 27.6129 96.9126 27.5065C97.07 27.4029 97.2099 27.2476 97.2856 27.0491L97.2972 27.0405L100.445 19.6175L103.595 27.0089H103.598C103.671 27.2074 103.799 27.3597 103.945 27.4691C104.102 27.5841 104.277 27.656 104.46 27.6848H104.592C104.717 27.6848 104.839 27.6618 104.941 27.6215C105.049 27.5813 105.136 27.5266 105.209 27.472C105.378 27.3454 105.51 27.17 105.591 26.9744V26.9686L110.534 13.8424C110.583 13.7159 110.606 13.5921 110.606 13.4627C110.606 13.0659 110.367 12.6834 109.971 12.5165Z" fill="#29B5E8"/>
</svg>
