<svg width="32" height="32" viewBox="0 0 32 32" fill="none" xmlns="http://www.w3.org/2000/svg">
<path d="M11.6482 16.6723C12.0162 15.8083 11.6162 14.8163 10.7522 14.4483C9.5042 13.8083 8.2882 13.0403 7.0402 12.3203C6.5602 12.0323 6.0482 11.7283 5.5362 11.4723C5.4722 11.4403 5.3922 11.4083 5.3282 11.3763C4.5122 11.0883 3.6162 11.5043 3.3282 12.3203C3.2962 12.4003 3.2642 12.4643 3.2162 12.5443V13.2003C3.4242 13.7763 3.8562 14.2403 4.4162 14.4963C5.2642 14.9603 6.0962 15.4563 6.9282 15.9363C6.9442 15.9523 6.9602 15.9683 7.0082 16.0323L6.2722 16.4643C5.6322 16.8323 5.0082 17.2323 4.3522 17.5683C3.7922 17.8243 3.3762 18.2883 3.2002 18.8803V19.4723C3.6802 20.8963 4.9282 20.9923 5.9362 20.3683C7.5202 19.3923 9.1202 18.4483 10.7682 17.5843C11.1682 17.3923 11.4882 17.0723 11.6482 16.6723ZM6.8962 9.34426C8.6402 10.3843 10.4002 11.3923 12.1602 12.3843C13.3602 13.0563 14.6402 12.2883 14.6402 10.9123V4.91227C14.6402 4.73627 14.6242 4.54427 14.5762 4.36827C14.4322 3.72827 13.9522 3.40827 13.3762 3.18427L12.7042 3.20027C11.7442 3.53627 11.3762 4.24027 11.4562 5.23227C11.4722 5.55227 11.4562 5.87227 11.4562 6.19227V8.28826C11.2962 8.20826 11.2002 8.16026 11.0882 8.09626C10.2242 7.61626 9.3922 7.10427 8.5442 6.64027C8.2882 6.48027 7.9842 6.38427 7.6962 6.35227C6.9762 6.28827 6.3042 6.75226 6.0962 7.44027C5.8562 8.19227 6.2082 8.99227 6.8962 9.34426ZM13.4722 19.4563C12.9922 19.3283 12.4802 19.4083 12.0642 19.6803C10.3682 20.6563 8.6722 21.6483 6.9762 22.6243C6.8482 22.6883 6.7202 22.7683 6.6082 22.8643C6.1282 23.2163 5.9202 23.8243 6.0482 24.4003C6.0802 24.5923 6.1602 24.7843 6.2562 24.9443C6.7202 25.6803 7.6962 25.9043 8.4322 25.4403C9.3282 24.9283 10.1922 24.4323 11.0722 23.9203L11.4562 23.7123C11.4562 24.7683 11.5042 25.8083 11.4562 26.7843C11.4082 27.7603 11.7602 28.4803 12.7202 28.8163H13.3762C14.0962 28.5443 14.6242 28.0963 14.6242 27.2803C14.6402 25.1523 14.6402 23.0403 14.6242 20.9123C14.6082 20.2083 14.1442 19.6163 13.4722 19.4563ZM19.9842 12.3363C21.1522 11.6643 22.3362 10.9763 23.5202 10.3043C24.0642 9.98426 24.6242 9.68026 25.1682 9.34426C25.7282 9.05626 26.0642 8.46427 26.0162 7.82427C26.0002 7.56827 25.9202 7.31227 25.7922 7.10427C25.3442 6.36827 24.3682 6.12827 23.6322 6.59227C22.7362 7.07227 21.8722 7.60027 20.9922 8.11227C20.8802 8.17627 20.7682 8.22427 20.6242 8.30427V5.00827C20.6242 4.81626 20.6082 4.62427 20.5762 4.43227C20.4322 3.77627 19.9522 3.44027 19.3762 3.21627H18.7202C17.7602 3.55227 17.4402 4.25627 17.4562 5.24827C17.4882 7.12027 17.4562 8.99226 17.4562 10.8803C17.4402 12.3363 18.6722 13.0723 19.9842 12.3363ZM25.1842 22.7043C23.4082 21.6483 21.6322 20.6243 19.8402 19.6163C18.6882 18.9603 17.4402 19.7443 17.4402 21.0723C17.4402 22.9763 17.4722 24.8803 17.4402 26.7683C17.4242 27.7443 17.7442 28.4643 18.7042 28.8003L19.3602 28.8163C20.3202 28.4803 20.6882 27.7763 20.6242 26.7843C20.6082 26.4003 20.6242 26.0003 20.6242 25.6003V23.7283C20.7842 23.8083 20.8802 23.8563 20.9922 23.9203C21.8562 24.4003 22.7202 24.9283 23.6002 25.4243C23.6482 25.4563 23.6802 25.4723 23.7282 25.5043C24.4962 25.9203 25.4562 25.6163 25.8722 24.8483C26.2562 24.0643 25.9682 23.1043 25.1842 22.7043ZM27.9362 14.3043C28.5282 14.0003 28.8802 13.3603 28.7842 12.7043C28.6722 11.5043 27.4242 10.9123 26.3362 11.5203C24.6242 12.4963 22.9122 13.4883 21.2162 14.4803C19.8562 15.2643 19.8562 16.7203 21.2162 17.5043L26.2082 20.3843C26.3362 20.4643 26.4642 20.5283 26.5922 20.5923C27.2482 20.8483 27.9842 20.6563 28.4162 20.1123C28.9602 19.4243 28.8482 18.4323 28.1602 17.8883C27.9362 17.7283 27.7122 17.6003 27.4882 17.4723L24.9762 16.0163C25.1362 15.9203 25.2322 15.8403 25.3602 15.7923L27.9362 14.3043ZM18.7362 16.7203C19.1042 16.3043 19.1042 15.6803 18.7362 15.2483C18.0962 14.5923 17.4402 13.9523 16.7842 13.2963C16.3522 12.9123 15.7122 12.9123 15.2962 13.2963C14.6562 13.9363 14.0002 14.5763 13.3762 15.2163C12.9762 15.6483 12.9762 16.3043 13.3762 16.7363C13.9842 17.3603 14.5922 17.9843 15.2322 18.5763C15.4722 18.7523 15.7282 18.9123 16.0162 19.0243C16.2882 18.9443 16.5442 18.8323 16.7682 18.6723C17.4402 18.0483 18.0802 17.3923 18.7362 16.7203ZM16.4322 16.7843C16.3042 16.8803 16.1762 16.9763 16.0322 17.0723V17.0883C15.8882 16.9923 15.7602 16.8803 15.6322 16.7683C14.8162 15.9843 14.8162 15.9843 15.6322 15.1843C15.9522 14.8803 16.1122 14.8803 16.4322 15.1843C17.2802 15.9843 17.2802 15.9843 16.4322 16.7843Z" fill="#0ABEF5"/>
</svg>
