<svg width="32" height="33" viewBox="0 0 32 33" fill="none" xmlns="http://www.w3.org/2000/svg">
<g clip-path="url(#clip0_1031_4223)">
<path opacity="0.2" fill-rule="evenodd" clip-rule="evenodd" d="M7.96626 18.5652C8.5947 19.8185 10.0055 20.9082 11.1238 21.7487C11.4045 21.9558 11.6327 22.2265 11.79 22.5387C11.9473 22.8509 12.0293 23.1959 12.0292 23.5459V23.5686C12.0292 23.8099 12.1246 24.0414 12.2944 24.212C12.4643 24.3827 12.6946 24.4785 12.9347 24.4785H19.1706C19.4107 24.4785 19.641 24.3827 19.8108 24.212C19.9806 24.0414 20.076 23.8099 20.076 23.5686C20.0751 23.2193 20.1543 22.8744 20.3074 22.5608C20.4605 22.2472 20.6834 21.9732 20.9589 21.7601C22.4981 20.6061 24.1385 18.9902 24.7039 17.1459C25.2693 15.3016 25.2366 13.3243 24.6104 11.4999C23.9843 9.67553 22.7972 8.09842 21.2206 6.99652C19.644 5.89461 17.7596 5.32497 15.8397 5.3699C10.9276 5.48364 6.97746 9.58973 7.0001 14.5261C7.00711 15.9295 7.33783 17.312 7.96626 18.5652ZM14 17.3674H16V21.3674L19 15.3674H17V10.3674L14 17.3674Z" fill="#C1A836"/>
<path opacity="0.8" d="M16 17.3674H14L17 10.3674V15.3674H19L16 21.3674V17.3674Z" fill="#C1A836"/>
<path opacity="0.5" fill-rule="evenodd" clip-rule="evenodd" d="M12 25.3674C12 24.8151 12.4477 24.3674 13 24.3674H19C19.5523 24.3674 20 24.8151 20 25.3674C20 25.9197 19.5523 26.3674 19 26.3674C19.5523 26.3674 20 26.8151 20 27.3674C20 27.9197 19.5523 28.3674 19 28.3674C19 29.1631 18.6839 29.9261 18.1213 30.4888C17.5587 31.0514 16.7956 31.3674 16 31.3674C15.2044 31.3674 14.4413 31.0514 13.8787 30.4888C13.3161 29.9261 13 29.1631 13 28.3674C12.4477 28.3674 12 27.9197 12 27.3674C12 26.8151 12.4477 26.3674 13 26.3674C12.4477 26.3674 12 25.9197 12 25.3674Z" fill="#C1A836"/>
<path opacity="0.4" fill-rule="evenodd" clip-rule="evenodd" d="M16 4.36743C15.4477 4.36743 15 3.91972 15 3.36743V1.86743C15 1.31515 15.4477 0.867432 16 0.867432C16.5523 0.867432 17 1.31515 17 1.86743V3.36743C17 3.91972 16.5523 4.36743 16 4.36743ZM5 13.3674C5 13.9197 4.55228 14.3674 4 14.3674H3C2.44772 14.3674 2 13.9197 2 13.3674C2 12.8151 2.44772 12.3674 3 12.3674H4C4.55228 12.3674 5 12.8151 5 13.3674ZM29 14.3674C29.5523 14.3674 30 13.9197 30 13.3674C30 12.8151 29.5523 12.3674 29 12.3674H28C27.4477 12.3674 27 12.8151 27 13.3674C27 13.9197 27.4477 14.3674 28 14.3674H29ZM25.7071 4.66032C26.0976 5.05085 26.0976 5.68401 25.7071 6.07454L24.7071 7.07454C24.3166 7.46506 23.6834 7.46506 23.2929 7.07454C22.9024 6.68401 22.9024 6.05085 23.2929 5.66033L24.2929 4.66032C24.6834 4.2698 25.3166 4.2698 25.7071 4.66032ZM6.29289 6.07454C5.90237 5.68401 5.90237 5.05085 6.29289 4.66032C6.68342 4.2698 7.31658 4.2698 7.70711 4.66032L8.70711 5.66033C9.09763 6.05085 9.09763 6.68401 8.70711 7.07454C8.31658 7.46506 7.68342 7.46506 7.29289 7.07454L6.29289 6.07454Z" fill="#C1A836"/>
</g>
<defs>
<clipPath id="clip0_1031_4223">
<rect y="0.367432" width="32" height="32" rx="1" fill="white"/>
</clipPath>
</defs>
</svg>
