<svg width="33" height="32" viewBox="0 0 33 32" fill="none" xmlns="http://www.w3.org/2000/svg">
<g clip-path="url(#clip0_7156_167997)">
<path opacity="0.6" d="M6.19458 16L12.8953 8.82063C13.0666 8.63717 13.3473 8.60906 13.5515 8.75492L19.8499 13.2538C20.0488 13.3959 20.3213 13.3733 20.4941 13.2005L27.6946 6.00001" stroke="#C68173" stroke-width="2" stroke-linecap="round" stroke-linejoin="round"/>
<path d="M29.1946 4H25.9017C25.4562 4 25.2332 4.53857 25.5481 4.85355L28.841 8.14645C29.156 8.46143 29.6946 8.23835 29.6946 7.79289V4.5C29.6946 4.22386 29.4707 4 29.1946 4Z" fill="#C68173"/>
<rect x="3.69458" y="20" width="5" height="9" rx="1" fill="#C68173"/>
<rect x="10.6946" y="15" width="5" height="14" rx="1" fill="#C68173"/>
<rect x="17.6946" y="18" width="5" height="11" rx="1" fill="#C68173"/>
<rect x="24.6946" y="14" width="5" height="15" rx="1" fill="#C68173"/>
</g>
<defs>
<clipPath id="clip0_7156_167997">
<rect width="32" height="32" fill="white" transform="translate(0.69458)"/>
</clipPath>
</defs>
</svg>
