<svg width="33" height="32" viewBox="0 0 33 32" fill="none" xmlns="http://www.w3.org/2000/svg">
<g clip-path="url(#clip0_7152_167781)">
<path opacity="0.2" fill-rule="evenodd" clip-rule="evenodd" d="M29.6946 10H3.69458V27C3.69458 28.1046 4.59001 29 5.69458 29H27.6946C28.7991 29 29.6946 28.1046 29.6946 27V10ZM20.8545 14.7444L23.81 11.789C24.0052 11.5937 24.3218 11.5937 24.5171 11.789L27.4725 14.7444C27.7875 15.0594 27.5644 15.598 27.1189 15.598H25.6945V25.5C25.6945 26.3284 25.0229 27 24.1945 27C23.366 27 22.6945 26.3284 22.6945 25.5V15.598H21.2081C20.7626 15.598 20.5395 15.0594 20.8545 14.7444ZM12.1946 25.5C12.1946 26.3284 12.8662 27 13.6946 27C14.523 27 15.1946 26.3284 15.1946 25.5V20.5C15.1946 19.6716 14.523 19 13.6946 19C12.8662 19 12.1946 19.6716 12.1946 20.5V25.5ZM8.69458 27C7.86615 27 7.19458 26.3284 7.19458 25.5L7.19458 21.5C7.19458 20.6716 7.86615 20 8.69458 20C9.52301 20 10.1946 20.6716 10.1946 21.5L10.1946 25.5C10.1946 26.3284 9.52301 27 8.69458 27ZM17.1946 25.5C17.1946 26.3284 17.8662 27 18.6946 27C19.523 27 20.1946 26.3284 20.1946 25.5V18.5C20.1946 17.6716 19.523 17 18.6946 17C17.8662 17 17.1946 17.6716 17.1946 18.5V25.5Z" fill="#005C4A"/>
<path opacity="0.8" fill-rule="evenodd" clip-rule="evenodd" d="M7.69458 4C7.69458 3.44772 8.1423 3 8.69458 3H9.69458C10.2469 3 10.6946 3.44772 10.6946 4V5H22.6946V4C22.6946 3.44772 23.1423 3 23.6946 3H24.6946C25.2469 3 25.6946 3.44772 25.6946 4V5H27.6946C28.7992 5 29.6946 5.89543 29.6946 7V10H3.69458V7C3.69458 5.89543 4.59001 5 5.69458 5H7.69458V4Z" fill="#005C4A"/>
<path opacity="0.9" fill-rule="evenodd" clip-rule="evenodd" d="M20.8545 14.7444L23.8099 11.789C24.0052 11.5937 24.3218 11.5937 24.517 11.789L27.4724 14.7444C27.7874 15.0594 27.5643 15.598 27.1189 15.598H25.6945L25.6945 25.5C25.6945 26.3284 25.023 27 24.1945 27C23.3661 27 22.6945 26.3284 22.6945 25.5L22.6945 15.598H21.208C20.7626 15.598 20.5395 15.0594 20.8545 14.7444Z" fill="#005C4A"/>
<path opacity="0.4" d="M13.6946 25.5L13.6946 20.5" stroke="#005C4A" stroke-width="3" stroke-linecap="round"/>
<path opacity="0.4" d="M8.69458 25.5L8.69458 21.5" stroke="#005C4A" stroke-width="3" stroke-linecap="round"/>
<path opacity="0.4" d="M18.6946 25.5V18.5" stroke="#005C4A" stroke-width="3" stroke-linecap="round"/>
</g>
<defs>
<clipPath id="clip0_7152_167781">
<rect width="32" height="32" fill="white" transform="translate(0.69458)"/>
</clipPath>
</defs>
</svg>
