<svg width="33" height="32" viewBox="0 0 33 32" fill="none" xmlns="http://www.w3.org/2000/svg">
<circle cx="13.6946" cy="26" r="2" fill="#C095B1"/>
<circle cx="24.6946" cy="26" r="2" fill="#C095B1"/>
<path d="M10.6946 9L7.99458 5.4C7.80573 5.14819 7.50934 5 7.19458 5H4.69458" stroke="#964F7D" stroke-width="2" stroke-linecap="round"/>
<path d="M26.6945 22H13.4989C13.0292 22 12.6228 21.6731 12.5221 21.2143L11.6946 17.4429" stroke="#964F7D" stroke-width="2" stroke-linecap="round"/>
<path fill-rule="evenodd" clip-rule="evenodd" d="M7.14114 9.32039L10.4904 19.2232C10.6432 19.6749 11.0935 19.9559 11.5663 19.8946L26.878 17.909C27.2978 17.8545 27.6378 17.5418 27.727 17.128L29.4336 9.21071C29.5678 8.58788 29.0932 8 28.456 8H8.08843C7.40403 8 6.92187 8.67206 7.14114 9.32039ZM15.0525 11.2003C15.0525 10.648 14.6048 10.2003 14.0525 10.2003C13.5002 10.2003 13.0525 10.648 13.0525 11.2003V16.4429C13.0525 16.9952 13.5002 17.4429 14.0525 17.4429C14.6048 17.4429 15.0525 16.9952 15.0525 16.4429V11.2003ZM19.0525 10.2003C19.6048 10.2003 20.0525 10.648 20.0525 11.2003V15.4429C20.0525 15.9952 19.6048 16.4429 19.0525 16.4429C18.5002 16.4429 18.0525 15.9952 18.0525 15.4429V11.2003C18.0525 10.648 18.5002 10.2003 19.0525 10.2003ZM25.0375 11.1818C25.0324 10.6295 24.5805 10.186 24.0283 10.1911C23.476 10.1962 23.0324 10.648 23.0375 11.2002L23.0674 14.4428C23.0725 14.995 23.5244 15.4386 24.0766 15.4335C24.6289 15.4284 25.0724 14.9766 25.0674 14.4243L25.0375 11.1818Z" fill="#C095B1"/>
</svg>
