<svg width="32" height="32" viewBox="0 0 32 32" fill="none" xmlns="http://www.w3.org/2000/svg">
<path opacity="0.2" fill-rule="evenodd" clip-rule="evenodd" d="M28 18C28 24.6274 22.6274 30 16 30C9.37258 30 4 24.6274 4 18C4 11.3726 9.37258 6 16 6C22.6274 6 28 11.3726 28 18ZM10.3431 23.6569C9.22433 22.538 8.4624 21.1126 8.15372 19.5607C7.84504 18.0089 8.00346 16.4003 8.60896 14.9385C9.21446 13.4767 10.2398 12.2273 11.5554 11.3482C12.871 10.4692 14.4177 10 16 10C17.3156 10 18.6109 10.3245 19.7712 10.9446C20.9314 11.5648 21.9208 12.4615 22.6518 13.5554C23.3827 14.6493 23.8325 15.9066 23.9615 17.2159C24.0904 18.5251 23.8945 19.846 23.391 21.0615C22.8876 22.2769 22.0921 23.3495 21.0751 24.1841C20.0582 25.0187 18.8511 25.5896 17.5607 25.8463C16.2704 26.1029 14.9367 26.0374 13.6777 25.6555C12.4188 25.2736 11.2734 24.5871 10.3431 23.6569L16 18L10.3431 23.6569Z" fill="#C1A836"/>
<rect opacity="0.6" x="12" y="2" width="8" height="2" rx="1" fill="#C1A836"/>
<path opacity="0.6" fill-rule="evenodd" clip-rule="evenodd" d="M16 28C21.5228 28 26 23.5228 26 18C26 12.4772 21.5228 8 16 8C10.4772 8 6 12.4772 6 18C6 23.5228 10.4772 28 16 28ZM16 30C22.6274 30 28 24.6274 28 18C28 15.1082 26.9771 12.4553 25.2734 10.3834L26.5355 9.12126C26.9261 8.73074 26.9261 8.09757 26.5355 7.70705C26.145 7.31652 25.5118 7.31652 25.1213 7.70705L23.8793 8.94903C21.7713 7.11231 19.0155 6 16 6C9.37258 6 4 11.3726 4 18C4 24.6274 9.37258 30 16 30Z" fill="#C1A836"/>
<path opacity="0.4" fill-rule="evenodd" clip-rule="evenodd" d="M17 6.04107L17 4H15V6.04107C15.3297 6.01387 15.6632 6 16 6C16.3368 6 16.6703 6.01387 17 6.04107Z" fill="#C1A836"/>
<path opacity="0.4" d="M16 10C17.3156 10 18.6109 10.3245 19.7712 10.9446C20.9314 11.5648 21.9208 12.4615 22.6518 13.5554C23.3827 14.6493 23.8325 15.9066 23.9615 17.2159C24.0904 18.5251 23.8945 19.846 23.391 21.0615C22.8876 22.2769 22.0921 23.3495 21.0751 24.1841C20.0582 25.0187 18.8511 25.5896 17.5607 25.8463C16.2704 26.1029 14.9367 26.0374 13.6777 25.6555C12.4188 25.2736 11.2734 24.5871 10.3431 23.6569L16 18V10Z" fill="#C1A836"/>
<path opacity="0.8" d="M10.3431 23.6569C9.22433 22.538 8.4624 21.1126 8.15372 19.5607C7.84504 18.0089 8.00346 16.4003 8.60896 14.9385C9.21446 13.4767 10.2398 12.2273 11.5554 11.3482C12.871 10.4692 14.4177 10 16 10V18L10.3431 23.6569Z" fill="#C1A836"/>
</svg>
