<svg width="36" height="37" viewBox="0 0 36 37" fill="none" xmlns="http://www.w3.org/2000/svg">
<path d="M25.0736 14.687C24.8474 14.7746 24.6148 14.8485 24.3772 14.9084C24.6586 14.6308 24.8731 14.3042 25.004 13.9468C25.0334 13.8666 25.0029 13.7789 24.9275 13.7265C24.8521 13.6741 24.7473 13.6678 24.6643 13.7107C24.1596 13.9719 23.6151 14.1596 23.0442 14.2693C22.4691 13.779 21.6879 13.5 20.8804 13.5C19.1759 13.5 17.7891 14.7098 17.7891 16.1969C17.7891 16.314 17.7976 16.4305 17.8144 16.5453C15.6993 16.3833 13.7328 15.4763 12.3825 14.0312C12.3344 13.9797 12.2602 13.9519 12.1843 13.9572C12.1084 13.9624 12.0402 13.9998 12.0018 14.0572C11.7279 14.4672 11.5831 14.9361 11.5831 15.4132C11.5831 16.0631 11.849 16.6796 12.3188 17.1614C12.176 17.1182 12.0374 17.0643 11.9051 17.0002C11.834 16.9657 11.7474 16.9663 11.6768 17.0016C11.6062 17.0369 11.5619 17.1018 11.5601 17.1727C11.5598 17.1847 11.5597 17.1967 11.5597 17.2088C11.5597 18.1788 12.1581 19.052 13.073 19.528C12.9944 19.5212 12.9159 19.5112 12.8378 19.4982C12.7574 19.4848 12.6746 19.5094 12.6204 19.563C12.566 19.6165 12.5481 19.691 12.5731 19.7591C12.9117 20.6815 13.7836 21.3599 14.8376 21.5668C13.9634 22.0444 12.9637 22.2946 11.9143 22.2946C11.6953 22.2946 11.4751 22.2834 11.2595 22.2612C11.1525 22.2501 11.0501 22.3052 11.0136 22.3941C10.9772 22.4829 11.0158 22.582 11.1069 22.633C12.4551 23.3871 14.0139 23.7857 15.6149 23.7857C18.7621 23.7857 20.731 22.4909 21.8284 21.4047C23.1969 20.0503 23.9817 18.2575 23.9817 16.4862C23.9817 16.4122 23.9804 16.3375 23.9778 16.263C24.5177 15.9081 24.9825 15.4786 25.3608 14.9849C25.4183 14.91 25.412 14.8109 25.3455 14.7419C25.279 14.6728 25.1682 14.6505 25.0736 14.687Z" fill="white"/>
</svg>
