<svg width="20" height="20" viewBox="0 0 20 20" fill="none" xmlns="http://www.w3.org/2000/svg">
<path d="M15 5C15 7.76142 12.7614 10 10 10C7.23858 10 5 7.76142 5 5C5 2.23858 7.23858 0 10 0C12.7614 0 15 2.23858 15 5Z" fill="#171717"/>
<path d="M18.3149 17.3212C18.7672 18.1705 19 19.0807 19 20H1C1 19.0807 1.23279 18.1705 1.68508 17.3212C2.13738 16.4719 2.80031 15.7003 3.63604 15.0503C4.47177 14.4002 5.46392 13.8846 6.55585 13.5328C7.64778 13.1811 8.8181 13 10 13C11.1819 13 12.3522 13.1811 13.4442 13.5328C14.5361 13.8846 15.5282 14.4002 16.364 15.0503C17.1997 15.7003 17.8626 16.4719 18.3149 17.3212Z" fill="#171717"/>
<path fill-rule="evenodd" clip-rule="evenodd" d="M6.2492 12.581C7.4432 12.1964 8.71719 12 10 12C11.2828 12 12.5568 12.1964 13.7508 12.581C14.9446 12.9656 16.0426 13.5334 16.9779 14.2609C17.9134 14.9885 18.6728 15.8658 19.1976 16.8512C19.7232 17.8381 20 18.9091 20 20H0C0 18.9091 0.27682 17.8381 0.802448 16.8512C1.32723 15.8658 2.08658 14.9885 3.0221 14.2609C3.9574 13.5334 5.05544 12.9656 6.2492 12.581Z" fill="#171717"/>
</svg>
