<svg width="24" height="24" viewBox="0 0 24 24" fill="none" xmlns="http://www.w3.org/2000/svg">
<path fill-rule="evenodd" clip-rule="evenodd" d="M3 4C3 2.89543 3.89543 2 5 2H20C21.1046 2 22 2.89543 22 4V12.8096C21.6938 12.5158 21.359 12.2516 21 12.0218V4C21 3.44772 20.5523 3 20 3H6V21H12.0218C12.2516 21.359 12.5158 21.6938 12.8096 22H5C3.89543 22 3 21.1046 3 20V19H2V18H3V15H2V14H3V11H2V10H3V7H2V6H3V4ZM4 4C4 3.44772 4.44772 3 5 3V6H4V4ZM4 10V7H5V10H4ZM4 14V11H5V14H4ZM4 18V15H5V18H4ZM4 20V19H5L5 21C4.44772 21 4 20.5523 4 20Z" fill="#181818"/>
<path d="M12.0217 14.0002C12.0145 14.0001 12.0072 14 12 14H9C8.44772 14 8 14.4477 8 15V18C8 18.5523 8.44772 19 9 19H11.1739C11.0973 18.6754 11.0449 18.3414 11.0189 18H9V15H11.4982C11.644 14.6502 11.8196 14.3159 12.0217 14.0002Z" fill="#181818"/>
<path d="M15 11.4982C14.6501 11.6441 14.3158 11.8197 14 12.0218V6C14 5.44772 14.4477 5 15 5H18C18.5523 5 19 5.44772 19 6V11.1739C18.6754 11.0973 18.3414 11.0449 18 11.0189V6H15V11.4982Z" fill="#181818"/>
<path fill-rule="evenodd" clip-rule="evenodd" d="M8 6C8 5.44772 8.44772 5 9 5H12C12.5523 5 13 5.44772 13 6V12C13 12.5523 12.5523 13 12 13H9C8.44772 13 8 12.5523 8 12V6ZM9 6H12V12H9V6Z" fill="#181818"/>
<path fill-rule="evenodd" clip-rule="evenodd" d="M17.5 23C20.5376 23 23 20.5376 23 17.5C23 14.4624 20.5376 12 17.5 12C14.4624 12 12 14.4624 12 17.5C12 20.5376 14.4624 23 17.5 23ZM18.4604 16.178L17.5 13.2221L16.5396 16.178H13.4316L15.946 18.0048L14.9856 20.9607L17.5 19.1339L20.0144 20.9607L19.054 18.0048L21.5684 16.178H18.4604Z" fill="#2FB2AF"/>
</svg>
